<svg id="Layer_1" data-name="Layer 1" xmlns="http://www.w3.org/2000/svg" viewBox="0 0 16 18.43"><defs><style>.cls-1{fill:#f15b22;}</style></defs><title>Artboard 10</title><path class="cls-1" d="M8,7.65H8a1.37,1.37,0,0,1,1.26.81A1.84,1.84,0,0,1,10.09,8V3.13H5.91V8a1.75,1.75,0,0,1,.83.43A1.37,1.37,0,0,1,8,7.65ZM7.3,3.83a.7.7,0,0,0,.7.69.69.69,0,0,0,.69-.69h.7a1.39,1.39,0,1,1-2.78,0Z"/><rect class="cls-1" x="2.78" y="1.74" width="10.43" height="0.7"/><path class="cls-1" d="M5.56,15.3v.35h4.87V14.26A1.39,1.39,0,0,0,9,12.87a.35.35,0,0,1-.35-.35V9A.7.7,0,0,0,8,8.34H8a.71.71,0,0,0-.7.7v.64s0,0,0,.06h0v2.78H6.61v-1H4.17a.35.35,0,0,1-.34-.35V10.07l-.56.49a1.39,1.39,0,0,0-.1,2h0l2.3,2.54A.32.32,0,0,1,5.56,15.3Z"/><path class="cls-1" d="M4.52,3.13v7.65H6.6V9.69a1,1,0,0,0-1-1,.34.34,0,0,1-.34-.34V3.13ZM5.91,9.39v.7H5.22v-.7Z"/><path class="cls-1" d="M15.3,0H.7A.7.7,0,0,0,0,.7V4.87a.69.69,0,0,0,.7.69H3.83V3.13H2.43a.35.35,0,0,1-.34-.35V1.39A.35.35,0,0,1,2.43,1H13.56a.35.35,0,0,1,.35.35V2.78a.35.35,0,0,1-.35.35H12.17V5.56H15.3a.69.69,0,0,0,.7-.69V.7A.7.7,0,0,0,15.3,0Z"/><path class="cls-1" d="M10.78,8.35a.34.34,0,0,1-.35.34,1,1,0,0,0-1,1.05v1h2.09V3.13h-.7Zm0,1.74h-.69v-.7h.69Z"/><path class="cls-1" d="M4.87,18.43h6.26V16.35H4.87ZM5.56,17h.7v.7h-.7Z"/></svg>