<svg id="Layer_1" data-name="Layer 1" xmlns="http://www.w3.org/2000/svg" viewBox="0 0 18.08 17.98"><defs><style>.cls-1{fill:#f15b22;}</style></defs><title>Artboard 6</title><path class="cls-1" d="M4.43,9.73C3.77,9.11.88,9.05.3,9a.25.25,0,0,0-.21.09A.29.29,0,0,0,0,9.34v7.24a.31.31,0,0,0,.3.3H2.71A.29.29,0,0,0,3,16.66,53.11,53.11,0,0,0,4.52,10,.3.3,0,0,0,4.43,9.73Z"/><path class="cls-1" d="M18.05,14.53a2.39,2.39,0,0,0-2.16-1.34,2.32,2.32,0,0,0-.59.07L12,14.07a9.15,9.15,0,0,1-2.56.22c1.55-.14,3.23-.5,3.23-1.44s-1.72-1.09-3.9-1.3c-.61-.06-1.22-.12-1.79-.2s-1.14-.18-1.68-.29a.32.32,0,0,0-.23,0,.29.29,0,0,0-.13.19c-.26,1.43-.72,3.21-1,4.45a.3.3,0,0,0,.19.36L8.56,17.6A4.19,4.19,0,0,0,10.1,18h0a11,11,0,0,0,3.63-1.14l4.18-1.9a.35.35,0,0,0,.16-.18A.31.31,0,0,0,18.05,14.53Z"/><path class="cls-1" d="M5.82,10.55l1.24.2c.54.08,1.14.14,1.76.2s1.44.15,2,.24v-.08c-.81-.23-1.21-.66-1.21-1.3a1.41,1.41,0,0,1,1.21-1.34V8.14a.3.3,0,0,1,.6,0v.33a1.42,1.42,0,0,1,1.21,1.25.3.3,0,0,1-.28.32.28.28,0,0,1-.32-.28.81.81,0,0,0-.61-.67v1.56c.72.2,1.11.57,1.19,1.09a1.23,1.23,0,0,1,.62,1,.31.31,0,0,0,.12.23.3.3,0,0,0,.18.06h.07l1.53-.37a3,3,0,0,1,1.91.15.18.18,0,0,0,.12,0,.32.32,0,0,0,.31-.3.36.36,0,0,0,0-.11c-.24-1.91-3.12-5.67-4.19-7H9A37.51,37.51,0,0,0,5.61,10.1a.31.31,0,0,0,0,.28A.3.3,0,0,0,5.82,10.55Z"/><path class="cls-1" d="M8.78,4.82h4.74c1-.84,2.77-2.42,2.88-3.46A.86.86,0,0,0,16.2.7a.75.75,0,0,0-.58-.23A6.2,6.2,0,0,0,13,1.69C12.55,1,11.7,0,11.15,0S9.75,1,9.28,1.69A6.2,6.2,0,0,0,6.69.47.79.79,0,0,0,6.1.7a.85.85,0,0,0-.19.66C6,2.4,7.76,4,8.78,4.82Z"/><path class="cls-1" d="M10.25,9.81c0,.32.19.53.6.67V9.09A.78.78,0,0,0,10.25,9.81Z"/><path class="cls-1" d="M11.62,11.34l-.17-.06v0Z"/></svg>