<svg id="Layer_1" data-name="Layer 1" xmlns="http://www.w3.org/2000/svg" viewBox="0 0 18.22 18.22"><defs><style>.cls-1{fill:#f15b22;}</style></defs><title>Artboard 7</title><path class="cls-1" d="M9.11.25,0,6.76V18.22H18.22V6.76l-.75-.54-.63.35.37.26h-.82l-1.15.65h2l-6.73,4.81-1.37-1-1.37,1L7.31,12l-.62.35.49.36L.65,17.36V8l4.4,3.15L4.29,9.82,1,7.48H3L2.6,6.83H1L9.11,1.05l.73.52.62-.35ZM17.57,8v9.34L11,12.69ZM9.11,12.11l7.64,5.46H1.47Z"/><path class="cls-1" d="M13.93,0,3,6.2,6.2,11.86l10.94-6.2Zm-.25.89,2.57,4.53L6.44,11,3.87,6.45Z"/><path class="cls-1" d="M10,3.84a2.1,2.1,0,1,0,2.16,2.09,2.11,2.11,0,0,0-2.1-2.1Zm.1.6A1.49,1.49,0,0,1,11,7.06L11,6.91a.83.83,0,0,0-.12-1.16.85.85,0,0,0-.93-.08.22.22,0,0,1-.3-.08.24.24,0,0,1,.08-.31.23.23,0,0,1,.25,0l.37-.47a.81.81,0,0,0-.62-.17L9.6,4.51A1.41,1.41,0,0,1,10.1,4.44Zm-1,.36L9.16,5h0a.81.81,0,0,0,.13,1.15.8.8,0,0,0,.92.08.22.22,0,0,1,.3.09.21.21,0,0,1-.08.3.21.21,0,0,1-.25,0L9.81,7a.83.83,0,0,0,.63.17l.08.15A1.49,1.49,0,0,1,9.08,4.8Z"/></svg>