<svg id="Layer_1" data-name="Layer 1" xmlns="http://www.w3.org/2000/svg" viewBox="0 0 19.37 19.04"><defs><style>.cls-1{fill:#f15b22;}</style></defs><title>Artboard 16</title><path class="cls-1" d="M14.83,16.08l-.47-.17a2.87,2.87,0,0,1-1.53-1.36v-1a1,1,0,0,0-.31-.7v-.56a.34.34,0,0,0,0-.17L10.9,9.76a.4.4,0,0,1,.62-.5h0l2.65,2.91a.3.3,0,0,0,.44,0,.2.2,0,0,0,.08-.12L15.48,10l.54.54a.94.94,0,0,1,.27.67V12.6h.63V11.23a1.53,1.53,0,0,0-.46-1.11l-.74-.75L18.48,2a.32.32,0,0,0-.19-.41h0L12.92,0a.31.31,0,0,0-.39.21h0l-.37,1.26L8.49.64a.32.32,0,0,0-.37.21L7.64,2.48,7.16.25A.31.31,0,0,0,6.79,0L2.07,1a.32.32,0,0,0-.25.37h0L3.19,7.27l-.12,0a.94.94,0,0,1-.94-.94A.33.33,0,0,0,1.81,6a.32.32,0,0,0-.31.32,1,1,0,0,1-.95.94.32.32,0,0,0-.31.32.31.31,0,0,0,.31.31,1,1,0,0,1,1,1,.31.31,0,0,0,.31.31.32.32,0,0,0,.32-.31,1,1,0,0,1,.94-1,.33.33,0,0,0,.23-.1l.37,1.58-.77.77a1.57,1.57,0,0,0-.46,1.11v3.1A.94.94,0,0,1,2.2,15L0,17.43l.47.42,2.2-2.48a1.56,1.56,0,0,0,.4-1V11.23a1,1,0,0,1,.28-.67L3.89,10l.77,2.06a.32.32,0,0,0,.41.18.23.23,0,0,0,.12-.08L7.83,9.27a.41.41,0,0,1,.57,0v0a.38.38,0,0,1,.05.5L6.9,12.11a.34.34,0,0,0-.05.17v.55a1,1,0,0,0-.31.71v1A2.87,2.87,0,0,1,5,15.9l-.47.18a.28.28,0,0,0-.17.15L3.11,18.75l.56.29,1.2-2.41.36-.14a3.48,3.48,0,0,0,1.31-.86V18a.94.94,0,0,0,.94.94h4.41a.94.94,0,0,0,.94-.94V15.63a3.48,3.48,0,0,0,1.31.86l.36.14L15.7,19l.56-.29L15,16.23A.32.32,0,0,0,14.83,16.08Zm-13-8.21a2.27,2.27,0,0,0-.31-.31,1.88,1.88,0,0,0,.31-.32,1.62,1.62,0,0,0,.32.32A1.88,1.88,0,0,0,1.81,7.87Zm10.08,4.51v.22H10.76l-.85-.86-.05,0,.48-1.66,0,.06ZM13.05.71l4.73,1.38L15.06,9.33l-.77,2-.51-.56.83-2.32L14,8.28l-.72,2L12.12,9l.34-1.17-.61-.18-.27.94a.87.87,0,0,0-.32-.06.88.88,0,0,0-.5.12ZM8.11,8.51a1.18,1.18,0,0,0-.42.1L7.43,7.44l-.61.13L7.15,9.1l-1.1,1.21L5.43,7.83,4.82,8l.72,2.89-.46.51-.76-2L2.51,1.51,6.61.69,8.3,8.52Zm.36-2.13a.63.63,0,1,1,.35.82.86.86,0,0,1-.2-.13ZM9,10.11a1,1,0,0,0,.06-1L8.79,7.84A1.26,1.26,0,1,0,8.3,5.6L7.91,3.76l.73-2.44L12,2.09,9.23,11.61l-1.1-.22ZM7.48,12.38,7.76,12,9,12.21l-.39.39H7.48ZM12.2,18a.31.31,0,0,1-.31.32H7.48A.31.31,0,0,1,7.17,18V13.54a.31.31,0,0,1,.31-.31H8.74A.29.29,0,0,0,9,13.14l.72-.72.73.72a.28.28,0,0,0,.22.09h1.26a.31.31,0,0,1,.31.31Z"/><rect class="cls-1" x="18.03" y="15.57" width="0.63" height="2.37" transform="translate(-6.49 16.42) rotate(-41.64)"/><path class="cls-1" d="M14,2.58l1.89.48L15.18,5l.6.21.81-2.28a.31.31,0,0,0-.19-.4h0L13.86,1.9a.32.32,0,0,0-.38.22l-.65,2.2.61.18Z"/><path class="cls-1" d="M13.78,7.56A1.26,1.26,0,1,0,12.52,6.3,1.25,1.25,0,0,0,13.78,7.56Zm0-1.89a.63.63,0,1,1-.63.63A.63.63,0,0,1,13.78,5.67Z"/><rect class="cls-1" x="12.66" y="8.12" width="0.81" height="0.63" transform="translate(0.94 18.16) rotate(-71.57)"/><rect class="cls-1" x="13.82" y="3.8" width="1.37" height="0.63" transform="translate(6.02 16.57) rotate(-71.57)"/><path class="cls-1" d="M18.19,14.8a.31.31,0,0,0-.32-.31h0a1,1,0,0,1-.94-1,.32.32,0,0,0-.63,0,1,1,0,0,1-1,1,.32.32,0,0,0,0,.63,1,1,0,0,1,1,.94.32.32,0,1,0,.63,0,.94.94,0,0,1,.94-.94.32.32,0,0,0,.32-.32Zm-1.58.32a1.57,1.57,0,0,0-.31-.32,1.52,1.52,0,0,0,.31-.31,1.57,1.57,0,0,0,.32.31A1.62,1.62,0,0,0,16.61,15.12Z"/><path class="cls-1" d="M11.27,3a.32.32,0,0,0-.22-.39h0L9.29,2.24a.32.32,0,0,0-.38.21L8.49,3.78l.6.19.34-1.05,1.15.27-.29,1,.6.17Z"/><path class="cls-1" d="M4.09,2.47l1.57-.23L6,3.77l.62-.14-.4-1.81a.31.31,0,0,0-.35-.24l-2.2.31a.32.32,0,0,0-.27.36,0,0,0,0,0,0,0L3.88,4.2l.61-.15Z"/><path class="cls-1" d="M5.59,4.72A1.26,1.26,0,1,0,6.85,6,1.26,1.26,0,0,0,5.59,4.72Zm0,1.89A.63.63,0,0,1,5,6,.63.63,0,1,1,6.22,6,.63.63,0,0,1,5.59,6.61Z"/><path class="cls-1" d="M17.24,7.24a.95.95,0,1,0,1-.94A.94.94,0,0,0,17.24,7.24Zm1.26,0a.31.31,0,0,1-.31.32.32.32,0,1,1,0-.63A.31.31,0,0,1,18.5,7.24Z"/><path class="cls-1" d="M11.26,14.17h-.32v-.31h-.63v.31H9.05v-.31H8.42v.31H8.11a.31.31,0,0,0-.31.32h0v2.83a.31.31,0,0,0,.31.32h3.15a.31.31,0,0,0,.31-.32h0V14.49a.31.31,0,0,0-.31-.32ZM10.94,17H8.42v-1h2.52Zm0-1.58H8.42V14.8h2.52Z"/></svg>