<?xml version="1.0" encoding="utf-8"?>
<!-- Generator: Adobe Illustrator 23.1.1, SVG Export Plug-In . SVG Version: 6.00 Build 0)  -->
<svg version="1.1" id="Layer_1" xmlns="http://www.w3.org/2000/svg" xmlns:xlink="http://www.w3.org/1999/xlink" x="0px" y="0px"
	 viewBox="0 0 256 246" style="enable-background:new 0 0 256 246;" xml:space="preserve">
<style type="text/css">
	.st0{fill:#F05B22;}
</style>
<path class="st0" d="M254,150.6v93.3H53.5V212h64.6v-28.7h60.7v-32.7H254z M113.2,18.9c0,9.3,7.5,16.8,16.8,16.8s16.8-7.5,16.8-16.8
	S139.3,2.1,130,2.1S113.2,9.6,113.2,18.9z M189.9,100.2c-1.6,3.7-6.1,5.3-9.8,3.5L148.9,89c-1.8-0.8-3.3-2.4-3.9-4.4l-5.3-14.9
	l-7.3,36.5l24.6,0.5c5.3,0.1,9.4,4.6,9.3,9.8l-1.3,51c-0.1,5.3-4.5,9.4-9.6,9.4c0,0-0.1,0-0.2,0c-5.4-0.1-9.5-4.6-9.4-9.8l1.1-41.5
	l-30.7-0.7l-7.1,35.1c-0.3,1.4-0.9,2.9-1.7,4.2L81.2,202c-3.3,4.9-9.8,5.9-14.7,2.5c-4.8-3.3-5.9-9.8-2.4-14.6L89,154.4l16-90.5
	L73.2,93.3c-0.6,0.5-1.2,0.9-1.8,1.2l3,3l-8.7,8.7l14.5,14.5l-11.6,11.6L22.3,85.9l11.6-11.6l14.5,14.5l8.7-8.7l4.8,4.8
	c0.4-0.8,0.9-1.5,1.6-2.2L103.1,45c5.2-4.5,13.7-7.2,21-6l6.9,1.3c9.2,1.6,16.3,7.9,19.2,16.1l7.5,20.6l28.4,13.4
	C189.9,92,191.5,96.4,189.9,100.2z M67.1,97.5L57,87.4l-5.1,5.1L62,102.6L67.1,97.5z M57,126.4l-2.9,2.9l-5.8-5.8l2.9-2.9
	l-17.4-17.4l-2.9,2.9l-5.8-5.8l2.9-2.9l-8.7-8.7L2,106.2l46.3,46.3l17.4-17.4L57,126.4z"/>
</svg>
