<?xml version="1.0" encoding="utf-8"?>
<!-- Generator: Adobe Illustrator 23.1.1, SVG Export Plug-In . SVG Version: 6.00 Build 0)  -->
<svg version="1.1" id="Layer_1" xmlns="http://www.w3.org/2000/svg" xmlns:xlink="http://www.w3.org/1999/xlink" x="0px" y="0px"
	 viewBox="0 0 122.9 95.6" style="enable-background:new 0 0 122.9 95.6;" xml:space="preserve">
<style type="text/css">
	.st0{fill-rule:evenodd;clip-rule:evenodd;fill:#F05B22;}
</style>
<g>
	<path class="st0" d="M5.7,0h111.4c1.6,0,3,0.6,4.1,1.7s1.7,2.5,1.7,4.1V77c0,1.6-0.6,3-1.7,4.1s-2.5,1.7-4.1,1.7h-2.4l-5-9.7
		c0.3-0.8,0.5-1.7,0.6-2.5l0.1-0.5c0.6-0.6,1.1-1.4,1.6-2.2c0.1-0.2,0.2-0.3,0.3-0.5c0.9-1.6,1.5-3.2,1.7-5c0-0.1,0-0.2,0.1-0.3
		l2.5-2.5V23.2l-17-17H23.2l-17,17v36.2l17,17h37.2l-3.1,5.9c0,0.1-0.1,0.2-0.2,0.3H5.7c-1.6,0-3-0.6-4.1-1.7c-1-1-1.7-2.5-1.7-4
		V5.7c0-1.6,0.6-3,1.7-4.1S4.2,0,5.7,0L5.7,0z M86,41.4c0.5,0,1,0.1,1.5,0.2c0.4,0.2,0.8,0.4,1.3,0.6c0.4,0.3,0.9,0.6,1.3,1l0,0
		c0.6,0.5,1.2,1,1.9,1.5c0.6,0.3,1.5,0.4,2.4,0.4c1.7,0.1,3.6,0.1,4.8,2l0,0c1.1,1.6,1.2,2.8,1.2,4l0,0.1c0,0.6,0.1,1.1,0.3,1.7
		c0.2,0.6,0.6,1.3,1.2,2.1l0,0c1.1,1.5,1.8,2.8,2.1,3.9c0.3,1.2,0.1,2.3-0.5,3.4l0,0c-0.5,0.8-1.1,1.4-1.7,1.9
		c-0.4,0.4-0.8,0.7-0.9,1c-0.3,0.7-0.3,1.4-0.3,2.1c0,1,0,1.9-0.7,3.2l0,0c-0.4,0.8-0.9,1.4-1.5,2c-0.6,0.5-1.4,0.9-2.2,1.2
		c-0.8,0.2-1.4,0.2-2.1,0.2c-0.6,0-1.1-0.1-1.5,0.1l-0.1,0c-0.8,0.3-1.6,0.9-2.2,1.5c-0.8,0.6-1.5,1.2-2.4,1.5l0,0
		c-0.6,0.2-1.2,0.3-1.8,0.3c-0.6,0-1.2-0.1-1.8-0.3l0,0c-0.8-0.3-1.6-0.9-2.3-1.5c-0.7-0.6-1.5-1.2-2.3-1.5C79.1,74,78.6,74,78,74.1
		c-0.7,0-1.4,0.1-2.1-0.2l0,0c-0.8-0.3-1.6-0.7-2.2-1.2c-0.6-0.5-1.1-1.2-1.5-2c-0.6-1.3-0.6-2.2-0.7-3.2c0-0.7,0-1.4-0.3-2.1l0,0
		c-0.1-0.3-0.5-0.6-1-1c-0.6-0.5-1.3-1.1-1.7-1.9l0,0c-0.6-1.1-0.8-2.2-0.5-3.4c0.3-1.2,0.9-2.4,2.1-3.9c0.6-0.8,1-1.5,1.2-2.1
		c0.2-0.6,0.3-1.2,0.3-1.8l0-0.1c0.1-1.2,0.2-2.5,1.2-4l0,0c1.2-1.8,3.1-1.9,4.8-1.9c0.9,0,1.8-0.1,2.4-0.4l0,0
		c0.7-0.4,1.3-1,1.9-1.5c0.5-0.4,0.9-0.8,1.3-1c0.4-0.3,0.8-0.5,1.3-0.6C85,41.4,85.5,41.4,86,41.4L86,41.4L86,41.4z M104.3,91.3
		l-4.5-0.8l-2.3,4.1c0,0,0,0.1-0.1,0.1c-0.9,1.2-1.8,1.1-2.6,0.5c-0.8-0.7-1.3-2.1-1.7-3l-0.1-0.4l-4.8-9.1c-0.2-0.3,0-0.6,0.2-0.8
		c0,0,0.1,0,0.1,0c0.5-0.2,1.1-0.5,1.7-1c0.6-0.5,1.3-1.1,2-1.7c0.1-0.1,0.3-0.2,0.4-0.2c1.3,0,2.6-0.1,3.7-0.4c1.1-0.4,2.1-1,3-2.2
		c0.2-0.3,0.6-0.3,0.8-0.1c0.1,0.1,0.1,0.1,0.2,0.2l5.5,10.7l0.5,1c0,0,0,0.1,0,0.1c0.2,0.8,0.3,1.5,0,2c-0.3,0.6-0.9,0.9-1.9,0.8
		C104.5,91.3,104.4,91.3,104.3,91.3L104.3,91.3L104.3,91.3z M72.2,90.5l-4.5,0.8c0,0-0.1,0-0.2,0c-1,0.1-1.6-0.2-1.9-0.8
		c-0.3-0.5-0.2-1.2,0-2l0-0.1l0.5-1l5.5-10.7c0-0.1,0.1-0.1,0.2-0.2c0.3-0.2,0.6-0.2,0.8,0.1c0.9,1.1,1.9,1.8,3,2.2
		c1.1,0.4,2.4,0.5,3.7,0.4c0.2,0,0.3,0,0.4,0.2c0.7,0.6,1.3,1.2,2,1.7c0.6,0.4,1.2,0.8,1.7,1l0.1,0c0.3,0.2,0.4,0.5,0.2,0.8l-4.8,9
		l-0.1,0.3c-0.3,0.9-0.9,2.3-1.7,3c-0.8,0.6-1.6,0.7-2.6-0.5c0,0,0,0-0.1-0.1L72.2,90.5L72.2,90.5L72.2,90.5z M93,52.4
		c-1.8-1.8-4.2-2.9-7-2.9s-5.2,1.1-7,2.9s-2.9,4.2-2.9,7c0,2.7,1.1,5.2,2.9,7s4.2,2.9,7,2.9c2.7,0,5.2-1.1,7-2.9s2.9-4.2,2.9-7
		C95.9,56.7,94.8,54.2,93,52.4L93,52.4L93,52.4z M31,51.2c-0.4,0-0.8-0.2-1-0.6c-0.3-0.4-0.4-1-0.4-1.6s0.2-1.2,0.4-1.6
		c0.3-0.4,0.6-0.6,1-0.6h17.1c0.4,0,0.8,0.2,1,0.6c0.3,0.4,0.4,1,0.4,1.6s-0.2,1.2-0.4,1.6c-0.3,0.4-0.6,0.6-1,0.6H31L31,51.2
		L31,51.2z M29.9,64.8c4.2-5.5,7.8-3,12.9,0.5c0.2,0.2,0.5,0.3,0.8,0.5c0.7,0.5,1.5,0.4,2.2,0c0.8-0.4,1.7-1.1,2.5-1.9l0,0
		c0.7-0.6,1.5-1.3,2.2-1.8c0.1-0.1,0.3,0,0.4,0.1l1.2,1.8c0.1,0.1,0,0.3-0.1,0.4c-0.6,0.4-1.2,1-1.9,1.5l0,0c-1.2,1-2.3,2.1-3.6,2.6
		c-1.3,0.6-2.8,0.6-4.4-0.6l-0.8-0.5c-1.9-1.4-3.6-2.5-5.1-2.9c-1.4-0.3-2.7,0.1-4.1,1.8c-0.1,0.1-0.3,0.2-0.4,0.1L30,65.2
		C29.9,65.1,29.8,65,29.9,64.8L29.9,64.8L29.9,64.8z M31,22.8c-0.4,0-0.8-0.2-1-0.6s-0.4-1-0.4-1.5c0-0.6,0.2-1.1,0.4-1.5
		c0.3-0.4,0.6-0.6,1-0.6h41.3c0.4,0,0.8,0.2,1,0.6c0.3,0.4,0.4,1,0.4,1.5c0,0.6-0.2,1.1-0.4,1.5c-0.3,0.4-0.6,0.6-1,0.6L31,22.8
		L31,22.8L31,22.8z M31,37.7c-0.4,0-0.8-0.2-1-0.7l0,0c-0.3-0.4-0.4-1-0.4-1.5c0-0.6,0.2-1.2,0.4-1.6c0.3-0.4,0.6-0.6,1-0.6h33.1
		c0.4,0,0.8,0.2,1,0.6l0,0c0.3,0.4,0.4,1,0.4,1.5c0,0.6-0.2,1.2-0.4,1.5l0,0c-0.3,0.4-0.6,0.6-1,0.6L31,37.7L31,37.7L31,37.7z"/>
</g>
</svg>
