<?xml version="1.0" encoding="utf-8"?>
<!-- Generator: Adobe Illustrator 23.1.1, SVG Export Plug-In . SVG Version: 6.00 Build 0)  -->
<svg version="1.1" id="Layer_1" xmlns="http://www.w3.org/2000/svg" xmlns:xlink="http://www.w3.org/1999/xlink" x="0px" y="0px"
	 viewBox="0 0 103.1 122.9" style="enable-background:new 0 0 103.1 122.9;" xml:space="preserve">
<style type="text/css">
	.st0{fill-rule:evenodd;clip-rule:evenodd;fill:#F05B22;}
</style>
<g>
	<path class="st0" d="M27.7,34l2.4,7.1l1.2-4.2l-0.6-0.7c-0.3-0.4-0.3-0.7-0.2-1c0.3-0.6,1-0.5,1.6-0.5c0.7,0,1.5-0.1,1.7,0.7
		c0.1,0.3,0,0.6-0.2,0.9l-0.6,0.7l1.2,4.2l2.2-7.1c1.6,1.4,6.3,1.7,8,2.7c0.5,0.3,1,0.7,1.5,1.2c1.2,1.6,1.2,1.9,1.5,4
		c-0.1,0.9-0.6,1.5-1.7,1.6H18.5c-1-0.1-1.6-0.6-1.7-1.6c0.2-2,0.2-2.3,1.5-4c0.4-0.5,0.9-0.9,1.5-1.2C21.5,35.7,26.1,35.4,27.7,34
		L27.7,34L27.7,34z M70.5,24.9c-1.1,0-2-0.9-2-2c0-1.1,0.9-2,2-2h16.7c1.1,0,2,0.9,2,2c0,1.1-0.9,2-2,2H70.5L70.5,24.9z M1.2,122
		c-0.7-0.3-1.2-1-1.2-1.8V2c0-1.1,0.9-2,2-2h19.4h79.7c1.1,0,2,0.9,2,2v107.7c0,0.1,0,0.2,0,0.3c-0.3,3.9-1.6,7-3.9,9.2
		c-2.3,2.2-5.5,3.4-9.7,3.6c-0.1,0-0.2,0-0.3,0H2.8C2.2,122.9,1.5,122.5,1.2,122L1.2,122z M99.1,109.7V4H21.4H4v114.9h85.3h0
		c3.2-0.2,5.6-1,7.2-2.6C98.1,114.8,98.9,112.6,99.1,109.7L99.1,109.7z M16.8,90.1c-1.1,0-2-0.9-2-2c0-1.1,0.9-2,2-2h70.5
		c1.1,0,2,0.9,2,2c0,1.1-0.9,2-2,2H16.8L16.8,90.1z M17.1,73.8c-1.1,0-2-0.9-2-2s0.9-2,2-2h70c1.1,0,2,0.9,2,2s-0.9,2-2,2H17.1
		L17.1,73.8z M16.8,57.5c-1.1,0-2-0.9-2-2s0.9-2,2-2h30.1c1.1,0,2,0.9,2,2s-0.9,2-2,2H16.8L16.8,57.5z M54.6,57.5c-1.1,0-2-0.9-2-2
		s0.9-2,2-2h32.5c1.1,0,2,0.9,2,2s-0.9,2-2,2H54.6L54.6,57.5z M57.9,41.2c-1.1,0-2-0.9-2-2c0-1.1,0.9-2,2-2h29.2c1.1,0,2,0.9,2,2
		c0,1.1-0.9,2-2,2H57.9L57.9,41.2z M70.5,106.4c-1.1,0-2-0.9-2-2c0-1.1,0.9-2,2-2h16.7c1.1,0,2,0.9,2,2c0,1.1-0.9,2-2,2H70.5
		L70.5,106.4z M26.4,23.7c0.2,0.1,0.5,0.1,0.7,0.1L26.8,21c0.2-0.7,0.5-1.2,0.8-1.6c0.4-0.4,0.9-0.6,1.4-0.8c0.7,0,1,0.5,1.7,1
		c2.3,1.4,4.2,1.9,7,2l-0.5,2.3c0.1,0,0.2,0,0.4,0c0,0,0.1,0,0.1,0c0.5,0,0.8,0,0.9,0.2c0.1,0.2,0,0.7-0.3,1.5l-1.5,2.5
		c-0.6,0.9-1.2,1.9-1.9,2.6c-0.7,0.7-1.6,1.1-2.8,1.1c-1.1,0-2-0.4-2.6-1.1c-0.7-0.6-1.3-1.5-1.8-2.4l-1.4-2.2l0,0l0,0
		c-0.4-0.6-0.6-1.2-0.7-1.6c0-0.1,0-0.3,0.1-0.4c0-0.1,0.1-0.2,0.2-0.2C26,23.8,26.2,23.7,26.4,23.7L26.4,23.7L26.4,23.7z
		 M38.6,23.3l0.1-3.6c-0.1-1.4-0.6-2.5-1.3-3.3c-1.8-2-5.3-2.5-7.9-1.6c-0.4,0.2-0.9,0.4-1.2,0.6c-1.1,0.7-1.9,1.7-2.3,2.9
		c-0.1,0.3-0.1,0.6-0.2,0.9c-0.1,1.2,0,2.8,0.1,3.9c-0.1,0-0.2,0.1-0.3,0.2c-0.2,0.1-0.4,0.3-0.5,0.5C25,24.1,25,24.3,25,24.5
		c0,0.5,0.3,1.2,0.8,1.9l1.4,2.2c0.6,0.9,1.2,1.8,2,2.5c0.8,0.7,1.8,1.2,3.1,1.2c1.4,0,2.4-0.5,3.2-1.3c0.8-0.8,1.4-1.7,2-2.7
		l1.5-2.5c0,0,0,0,0,0l0,0c0.4-0.9,0.5-1.6,0.3-2C39.1,23.6,38.9,23.4,38.6,23.3L38.6,23.3L38.6,23.3z"/>
</g>
</svg>
