<svg id="Layer_1" data-name="Layer 1" xmlns="http://www.w3.org/2000/svg" viewBox="0 0 15.01 18.14"><defs><style>.cls-1{fill:#f15b22;}</style></defs><title>Artboard 8</title><path class="cls-1" d="M.23,3.2a.76.76,0,0,1,.09-.69.75.75,0,0,1,.62-.32h.17L3.7,6.25H5.43A3.75,3.75,0,0,1,5.43,0H1.85A2.18,2.18,0,0,1,0,1.85V4.4a2.23,2.23,0,0,1,.74.25Z"/><polygon class="cls-1" points="8.43 6.88 7.28 6.88 5.69 9.38 6.88 11.26 8.43 6.88"/><path class="cls-1" d="M0,5V6.25H1.22A1.59,1.59,0,0,0,0,5Z"/><path class="cls-1" d="M1.88,14.38a1.88,1.88,0,1,0,1.87,1.88A1.88,1.88,0,0,0,1.88,14.38Zm0,2.82a.94.94,0,1,1,.93-.94A.94.94,0,0,1,1.88,17.2Z"/><path class="cls-1" d="M1.22,0H0V1.22A1.59,1.59,0,0,0,1.22,0Z"/><path class="cls-1" d="M15,1.22V0H13.79A1.58,1.58,0,0,0,15,1.22Z"/><path class="cls-1" d="M11.26,3.13A3.73,3.73,0,0,1,9.57,6.25h3.59A2.2,2.2,0,0,1,15,4.4V1.85A2.18,2.18,0,0,1,13.16,0H9.57A3.73,3.73,0,0,1,11.26,3.13Z"/><path class="cls-1" d="M4.38,3.13A3.13,3.13,0,1,0,7.5,0,3.12,3.12,0,0,0,4.38,3.13Zm4.69,0a.63.63,0,1,1-.63.62A.62.62,0,0,1,9.07,3.13Zm-1.24-2,.6.2L7.18,5.1l-.6-.2Zm-1.89.73a.63.63,0,1,1-.62.62A.63.63,0,0,1,5.94,1.88Z"/><path class="cls-1" d="M15,6.25V5a1.58,1.58,0,0,0-1.22,1.22Z"/><path class="cls-1" d="M2.79,13.93a2.6,2.6,0,0,1,.84.55L4.8,12.72,3.7,12.5Z"/><path class="cls-1" d="M8.76,14.38a1.88,1.88,0,1,0,1.87,1.88A1.88,1.88,0,0,0,8.76,14.38Zm0,2.82a.94.94,0,1,1,.93-.94A.94.94,0,0,1,8.76,17.2Z"/><path class="cls-1" d="M7.84,13.93l-7-11A.09.09,0,0,0,.82,3L4,11.92l1.51.31L7,14.48A2.6,2.6,0,0,1,7.84,13.93ZM4.69,11.26A.32.32,0,1,1,5,10.94.31.31,0,0,1,4.69,11.26Z"/></svg>