<?xml version="1.0" encoding="utf-8"?>
<!-- Generator: Adobe Illustrator 23.1.1, SVG Export Plug-In . SVG Version: 6.00 Build 0)  -->
<svg version="1.1" id="Layer_1" xmlns="http://www.w3.org/2000/svg" xmlns:xlink="http://www.w3.org/1999/xlink" x="0px" y="0px"
	 viewBox="0 0 1024 1024" style="enable-background:new 0 0 1024 1024;" xml:space="preserve">
<style type="text/css">
	.st0{fill:#F05B22;}
</style>
<path class="st0" d="M512,496.5c84.4,0,152.5-68.1,152.5-152.5S596.4,191.5,512,191.5S359.5,259.6,359.5,344S427.6,496.5,512,496.5z
	 M508.3,462.6c-14.9,0-26.9-12.1-26.9-26.9s12.1-26.9,26.9-26.9c14.9,0,26.9,12.1,26.9,26.9S523.2,462.6,508.3,462.6L508.3,462.6z
	 M552.8,262.3l-16.3,100.8c-5.4,32.7-49,32.7-51.7,0l-10.9-100.8C468.4,224.2,555.6,224.2,552.8,262.3z"/>
<path class="st0" d="M832,64H192c-17.6,0-32,14.4-32,32v832c0,17.6,14.4,32,32,32h640c17.6,0,32-14.4,32-32V96
	C864,78.4,849.6,64,832,64z M792,888H232V136h560V888z"/>
<path class="st0" d="M318,636h388c8.8,0,16-7.2,16-16v-28c0-8.8-7.2-16-16-16H318c-8.8,0-16,7.2-16,16v28
	C302,628.8,309.2,636,318,636z M318,774h388c8.8,0,16-7.2,16-16v-28c0-8.8-7.2-16-16-16H318c-8.8,0-16,7.2-16,16v28
	C302,766.8,309.2,774,318,774z"/>
</svg>
