<?xml version="1.0" encoding="utf-8"?>
<!-- Generator: Adobe Illustrator 23.1.1, SVG Export Plug-In . SVG Version: 6.00 Build 0)  -->
<svg version="1.1" id="Layer_1" xmlns="http://www.w3.org/2000/svg" xmlns:xlink="http://www.w3.org/1999/xlink" x="0px" y="0px"
	 viewBox="0 0 122.9 114.1" style="enable-background:new 0 0 122.9 114.1;" xml:space="preserve">
<style type="text/css">
	.st0{fill-rule:evenodd;clip-rule:evenodd;fill:#F05B22;}
</style>
<g>
	<path class="st0" d="M85.1,63.2V55c0.4-1.6,1.1-2.1,1.9-2.2C89.1,52.4,88.8,62.7,85.1,63.2L85.1,63.2L85.1,63.2L85.1,63.2z
		 M90,39.2l-0.4-13.3l-21.9,6.3c-2,0.4-3.9,0.6-5.8,0.7c-2,0-4.1-0.2-6-0.7l-20.9-6.4v13.5c0.1,0.9,0.4,1.6,1,2.4
		c-0.6,1.6-0.4,3.5,0.8,5.5c-0.1,1,0,2,0.1,2.9l1.2,0.7V52c-0.5-0.6-1.2-1-1.8-1.1c-1.4-0.3-2.4,0.5-3,2c-0.3,0.7-0.4,1.5-0.5,2.4
		c-0.1,0.8,0,1.8,0.1,2.7c0.4,3.4,1.9,6.9,4.8,7.3c0.2,0,0.3,0,0.5,0v0.8c0,0.1,0,0.2,0,0.3c1.2,5.9,6.1,10.5,10.6,14.3
		c10.5,8.7,22.5,4.9,29.9-2.8c4-4.2,6.5-7.4,6.3-12.1c0,0,0,0,0-0.1v-0.4c0.1,0,0.2,0,0.4,0c2.9-0.4,4.4-3.9,4.8-7.3
		c0.1-0.9,0.1-1.8,0.1-2.7c-0.1-0.9-0.2-1.7-0.5-2.4c-0.5-1.3-1.4-2.1-2.7-2l1.6-1c0-0.2,0-0.4,0-0.6c0.8-2.3,0.7-4.4-0.2-6.2
		c0.2-0.2,0.4-0.4,0.5-0.6C89.5,41.6,89.8,40.5,90,39.2L90,39.2z M41.4,45.1c6.6,2.5,16.4,3.5,20.4,3.7C65,49,74.2,48,81.1,46.2
		c0.6,1,1.1,2.1,1.6,3.2h0v16.3c-2.9,16.1-21.3,25.4-37,9.2c-3.6-3.5-4.3-3.3-5.5-8.8V48.2C40.4,47.1,40.9,46.1,41.4,45.1L41.4,45.1
		z M98.9,16.3v16.3h0.5c0.3,0,0.6,0.3,0.6,0.6v4.4c0,0.3-0.3,0.6-0.6,0.6h-0.5v1.5c0.7,0.1,1.2,0.7,1.2,1.4l0,0
		c0,0.8-0.6,1.4-1.4,1.4h-2.5c-0.8,0-1.4-0.6-1.4-1.4l0,0c0-0.7,0.5-1.3,1.2-1.4v-1.5h-0.5c-0.3,0-0.6-0.3-0.6-0.6v-4.4
		c0-0.3,0.3-0.6,0.6-0.6h0.5V17.3l-26.7,8.3c-4.8,1.1-9.7,1.2-14.5,0l-29.4-8.8L22.6,16c-3.3-1.4-2.5-4.5,0.6-5.3l33.3-9.9
		c3.4-1,6.9-1.1,10.3,0l32.7,9.8c3.6,0.9,4.2,4.2,0.1,5.5L98.9,16.3L98.9,16.3z M44.8,85.3c6.1,11.9,26.3,12.3,33.3,0
		c6,5.4,27.2,6.5,33.8,10.2c2.1,1.2,4,2.7,5.5,4.7c5,6.6,3.7,6.2,5.5,13.9H0c1.9-8.2,2.7-14,11-18.6C19.8,90.6,37.8,91.7,44.8,85.3
		L44.8,85.3z M66.4,52.7c-1.6,0.6-2,2-1.1,2.5c1.1,0.6,2.4-0.3,3.5-0.6c2.7-0.9,6-1,8.3,0.5c0.6,0.4,1.3,0.9,1.9,1.5
		c-0.2-0.9-0.6-1.7-1.2-2.3C75.5,51.2,69.5,51.1,66.4,52.7L66.4,52.7L66.4,52.7L66.4,52.7z M56,52.7c1.6,0.6,2,2,1.1,2.5
		c-1.1,0.6-2.4-0.3-3.5-0.6c-2.7-0.9-6-1-8.3,0.5c-0.6,0.4-1.3,0.9-1.9,1.5c0.2-0.9,0.6-1.7,1.2-2.3C46.9,51.2,52.9,51.1,56,52.7
		L56,52.7L56,52.7L56,52.7z M47.5,58.6c-0.3,0.1-0.7-0.1-0.9-0.5c-0.1-0.4,0.1-0.8,0.4-1c2.7-1,5.5-1,8.2,0c0.3,0.1,0.5,0.6,0.4,1
		c-0.1,0.4-0.5,0.6-0.8,0.5c-0.5-0.2-0.9-0.3-1.3-0.4c0,0.2,0.1,0.3,0.1,0.5c0,1-0.8,1.9-1.9,1.9c-1,0-1.9-0.8-1.9-1.9
		c0-0.3,0-0.5,0.1-0.7C49.1,58.1,48.3,58.3,47.5,58.6L47.5,58.6L47.5,58.6z M69.3,58.7c0,1,0.8,1.9,1.9,1.9s1.9-0.8,1.9-1.9
		c0-0.3-0.1-0.6-0.2-0.8c0.8,0.1,1.7,0.3,2.5,0.5c0.4,0.1,0.7-0.1,0.8-0.5s-0.1-0.8-0.5-1c-1.4-0.5-2.7-0.7-4.1-0.7
		c-1.3,0-2.7,0.2-4,0.7c-0.4,0.1-0.6,0.5-0.5,0.9c0.1,0.4,0.5,0.6,0.8,0.5c0.5-0.2,0.9-0.3,1.4-0.4C69.4,58.2,69.3,58.4,69.3,58.7
		L69.3,58.7z M59.1,68.8c-0.4-0.3-0.4-0.9-0.1-1.2s0.9-0.4,1.2-0.1c0.4,0.4,0.9,0.6,1.3,0.6c0.4,0,0.8-0.2,1.3-0.6
		c0.4-0.3,0.9-0.2,1.2,0.1c0.3,0.4,0.2,0.9-0.1,1.2c-0.8,0.7-1.6,1-2.4,1C60.6,69.7,59.8,69.3,59.1,68.8L59.1,68.8L59.1,68.8z
		 M56.4,74.4c-0.5-0.2-0.6-0.8-0.4-1.2c0.2-0.4,0.8-0.6,1.2-0.4c1.4,0.8,2.8,1.1,4.2,1.1c1.4,0,2.7-0.4,4.1-1.1
		c0.4-0.2,1-0.1,1.2,0.4c0.2,0.4,0.1,1-0.4,1.2c-1.7,0.9-3.3,1.4-5,1.3C59.6,75.8,57.9,75.3,56.4,74.4L56.4,74.4L56.4,74.4z
		 M37.8,63.2V55c-0.4-1.6-1.1-2.1-1.9-2.2C33.8,52.4,34,62.7,37.8,63.2L37.8,63.2L37.8,63.2L37.8,63.2z"/>
</g>
</svg>
