<svg id="Layer_1" data-name="Layer 1" xmlns="http://www.w3.org/2000/svg" viewBox="0 0 18.48 18.48"><defs><style>.cls-1{fill:#f15b22;}</style></defs><title>Artboard 14</title><path class="cls-1" d="M5.57,16.84A8.13,8.13,0,0,1,2.34,13.7a8.06,8.06,0,0,1-.73-1.65l1.24.48a.33.33,0,0,0,.41-.18.32.32,0,0,0-.18-.41l-1.9-.75a.33.33,0,0,0-.42.19L0,13.28a.33.33,0,0,0,.18.41l.12,0a.33.33,0,0,0,.3-.2l.43-1.12A8.82,8.82,0,0,0,1.78,14,8.93,8.93,0,0,0,5.27,17.4a.26.26,0,0,0,.15,0,.33.33,0,0,0,.28-.16A.34.34,0,0,0,5.57,16.84Z"/><path class="cls-1" d="M4.78,3.19a.37.37,0,0,0,.17,0,8.23,8.23,0,0,1,6.13-1l-1,.83a.32.32,0,0,0,0,.44.33.33,0,0,0,.25.12.31.31,0,0,0,.2-.07L12,2.16a.32.32,0,0,0,.05-.45L10.81.12a.32.32,0,1,0-.5.4l.75.93A8.87,8.87,0,0,0,4.61,2.6a.31.31,0,0,0-.1.43A.32.32,0,0,0,4.78,3.19Z"/><path class="cls-1" d="M2.87,6.85a.48.48,0,0,0,.48.48H3.5v-1H3.35A.48.48,0,0,0,2.87,6.85Z"/><path class="cls-1" d="M10.19,12.11a3.19,3.19,0,1,0,3.19,3.18A3.18,3.18,0,0,0,10.19,12.11ZM12,13.92l-1.5,1.5v.51h.64a.32.32,0,0,1,.32.32.32.32,0,0,1-.32.32h-.64v.95a.32.32,0,1,1-.63,0v-.95H9.24a.32.32,0,0,1-.32-.32.32.32,0,0,1,.32-.32h.64v-.51l-1.5-1.5a.31.31,0,0,1,0-.45.33.33,0,0,1,.45,0l1.36,1.37,1.37-1.37a.33.33,0,0,1,.45,0A.31.31,0,0,1,12,13.92Z"/><path class="cls-1" d="M15.29,8.28A3.19,3.19,0,1,0,12.11,5.1,3.19,3.19,0,0,0,15.29,8.28ZM13.06,4.14h.38A2.1,2.1,0,0,1,14,3.46a2.22,2.22,0,0,1,1.51-.59h1.11a.32.32,0,0,1,0,.63H15.46a1.58,1.58,0,0,0-1.27.64h2.06a.32.32,0,0,1,0,.64H13.9a1.13,1.13,0,0,0,0,.18,1.75,1.75,0,0,0,0,.46h2a.32.32,0,1,1,0,.63H14.18a.69.69,0,0,0,.11.13,1.57,1.57,0,0,0,1.17.51h1.11a.31.31,0,0,1,.31.32.32.32,0,0,1-.31.32H15.46a2.26,2.26,0,0,1-1.64-.72,2.31,2.31,0,0,1-.38-.56h-.38a.32.32,0,1,1,0-.63h.19a2.18,2.18,0,0,1,0-.51.57.57,0,0,1,0-.13h-.19a.32.32,0,0,1,0-.64Z"/><path class="cls-1" d="M3.82,4.46A3.19,3.19,0,1,0,7,7.65,3.19,3.19,0,0,0,3.82,4.46ZM4.3,7.33a1.12,1.12,0,1,1,0,2.23H4.14v.32a.31.31,0,0,1-.32.31.32.32,0,0,1-.32-.31V9.56h-1a.32.32,0,0,1-.32-.32.32.32,0,0,1,.32-.32h1V8H3.35a1.12,1.12,0,1,1,0-2.23H3.5V5.42a.32.32,0,0,1,.32-.32.32.32,0,0,1,.32.32v.31h1a.33.33,0,0,1,.32.32.32.32,0,0,1-.32.32h-1v1Z"/><path class="cls-1" d="M17.42,15.28l-1.18.18a8.64,8.64,0,0,0,1-1.44,9,9,0,0,0,1.2-4.71A.32.32,0,0,0,18.15,9a.31.31,0,0,0-.31.33,8.28,8.28,0,0,1-1.11,4.37,8,8,0,0,1-1.07,1.45l-.2-1.31a.32.32,0,0,0-.36-.27.33.33,0,0,0-.27.37l.31,2a.32.32,0,0,0,.32.27h0l2-.31a.32.32,0,0,0,.27-.36A.33.33,0,0,0,17.42,15.28Z"/><path class="cls-1" d="M4.14,8.92H4.3a.48.48,0,0,0,.48-.48A.49.49,0,0,0,4.3,8H4.14Z"/></svg>