<?xml version="1.0" encoding="utf-8"?>
<!-- Generator: Adobe Illustrator 23.1.1, SVG Export Plug-In . SVG Version: 6.00 Build 0)  -->
<svg version="1.1" id="Layer_1" xmlns="http://www.w3.org/2000/svg" xmlns:xlink="http://www.w3.org/1999/xlink" x="0px" y="0px"
	 viewBox="0 0 121 85.2" style="enable-background:new 0 0 121 85.2;" xml:space="preserve">
<style type="text/css">
	.st0{fill-rule:evenodd;clip-rule:evenodd;fill:#F05B22;}
</style>
<g>
	<path class="st0" d="M46.3,0c5.3,0,9.6,4.3,9.6,9.6s-4.3,9.6-9.6,9.6s-9.6-4.3-9.6-9.6C36.6,4.3,40.9,0,46.3,0L46.3,0z M18.5,25.3
		c3.8,0,6.8,3,6.8,6.8c0,3.8-3,6.8-6.8,6.8s-6.8-3-6.8-6.8C11.7,28.3,14.8,25.3,18.5,25.3L18.5,25.3z M9.3,42.1
		c0.5-0.7,1.3-1.1,2.1-1.2v0c4.7-0.7,9.4-0.7,14.1,0c0.8,0,1.6,0.4,2.2,1.2c3.1,4.2,4.4,7,6.4,11c0.6,1.3,1.3,2.8,1.9,3.9
		c0.7,1.4,0.1,3.1-1.3,3.8c-1.4,0.7-3.1,0.1-3.8-1.3c-0.9-1.8-1.5-3-2-4c-1.2-2.5-2.1-4.4-3.4-6.5v15.7v0.8v15.9
		c0,1.6-1.4,2.9-3.1,2.9l0,0c-1.7,0-3.1-1.3-3.1-2.9V65.6h-1.9v15.9c0,1.6-1.4,2.9-3.1,2.9l0,0c-1.7,0-3.1-1.3-3.1-2.9V65.6v-0.8
		V50.1c-1.3,2.1-2.2,4.1-3.4,6.6C7.4,57.8,6.8,59,5.8,61c-0.8,1.5-2.6,2.1-4.1,1.4c-1.5-0.8-2.1-2.6-1.4-4.1C1,57,1.7,55.4,2.4,54
		C4.5,49.6,5.9,46.7,9.3,42.1L9.3,42.1z M102.5,15.4c3.8,0,6.8,3,6.8,6.8c0,3.8-3,6.8-6.8,6.8s-6.8-3-6.8-6.8S98.8,15.4,102.5,15.4
		L102.5,15.4z M109.4,31.4c0.8,0,1.6,0.4,2.2,1.2c3.1,4.2,5.2,9.8,7.2,13.8c0.6,1.3,1.3,2.8,1.9,3.9c0.7,1.4,0.1,3.1-1.3,3.8
		c-1.4,0.7-3.1,0.1-3.8-1.3c-0.9-1.8-1.5-3-2-4c-1.2-2.6-2.6-5.8-4.2-8.9v2.4l4.8,21.1h-4.8v17.7c0,1.6-1.4,2.9-3.1,2.9l0,0
		c-1.7,0-3.1-1.3-3.1-2.9V63.6h-1.9v17.7c0,1.6-1.4,2.9-3.1,2.9l0,0c-1.7,0-3.1-1.3-3.1-2.9V63.6H91l4.3-20.7V41
		c-0.6,1.3-1.1,2.6-2.1,4.6c-0.5,1.1-0.7,1.7-1.7,3.6c-0.8,1.5-2.6,2.1-4.1,1.4c-1.5-0.8-2.1-2.6-1.4-4.1c0.6-1.2,1-2.1,1.7-3.5
		c2.1-4.4,2.2-5.6,5.5-10.2c0.5-0.7,1.3-1.1,2.1-1.2v0C99.8,30.6,104.5,30.6,109.4,31.4L109.4,31.4z M73.1,0c5.3,0,9.6,4.3,9.6,9.6
		s-4.3,9.6-9.6,9.6s-9.6-4.3-9.6-9.6C63.5,4.3,67.8,0,73.1,0L73.1,0z M74.4,67.1v14c0,2.3,2,4.1,4.4,4.1l0,0c2.4,0,4.4-1.8,4.4-4.1
		v-14h6.3l-3.1-14.9c-1.2-0.6-2-1.7-2.4-2.8c-0.4-1.2-0.3-2.5,0.3-3.8c0.2-0.4,0.4-0.7,0.5-1.1l-1.9-9v-0.8c1.3,2.1,2.3,4.2,3.5,6.4
		c0.3-0.7,0.6-1.4,0.9-2c1-2.2,1.7-3.8,3.8-6.8c-1.4-2.4-2.9-4.8-5.1-7.8c-0.8-1-1.9-1.6-3.2-1.7c-6.7-1.2-13.2-1.2-19.3,0v0
		c-1,0.1-1.9,0.5-2.6,1.2c2,2.8,3.5,5.2,4.8,7.5c1.4,2.5,2.6,5,4.1,8c0.5,1,0.9,2,1.4,3c0.5,1.1,1,2.1,1.3,2.8
		c0.7,1.4,0.8,2.9,0.3,4.3c-0.5,1.4-1.4,2.6-2.8,3.3s-2.9,0.8-4.3,0.3c-1.4-0.5-2.6-1.4-3.3-2.8c-0.6-1.1-3.2-6.5-3.6-7.3l-1.7,24h6
		v14c0,2.3,2,4.1,4.4,4.1l0,0c2.4,0,4.4-1.8,4.4-4.1v-14H74.4L74.4,67.1z M47.3,57.5v23.5c0,2.3,2,4.1,4.5,4.1l0,0
		c2.5,0,4.5-1.8,4.5-4.1V57.5l0,0V34.4c1.8,3,3.2,5.8,4.9,9.4c0.7,1.5,1.5,3.2,2.9,5.8c1,2,3.5,2.9,5.6,1.8c2-1,2.9-3.5,1.8-5.6
		c-0.8-1.7-1.9-3.8-2.8-5.7c-2.8-5.9-4.8-9.9-9.3-16c-0.8-1-1.9-1.6-3.1-1.7c-3.3-0.8-20.1-2.3-23,1.7c-4.2,5.7-6.1,9.5-8.6,14.7
		c0.4,0,0.8,0.1,1.1,0.2c0.6,0,1.3,0.2,1.9,0.5c0.6,0.3,1.2,0.8,1.6,1.4c0.8,1.1,1.5,2.1,2.1,3.1l0.1-0.2c1.9-3.9,3.3-7,5.5-10.4
		v21.2c0.3,0.6,0.5,1.1,0.8,1.5c0.6,1.2,0.6,2.5,0.3,3.6c-0.2,0.6-0.5,1.2-1,1.7v19.6c0,2.3,2,4.1,4.5,4.1l0,0
		c2.5,0,4.5-1.8,4.5-4.1V57.5H47.3L47.3,57.5z"/>
</g>
</svg>
