<svg id="Layer_1" data-name="Layer 1" xmlns="http://www.w3.org/2000/svg" viewBox="0 0 17.32 18.67"><defs><style>.cls-1{fill:#f15b22;}</style></defs><title>Artboard 13</title><path class="cls-1" d="M12.69,4.72V4.2a.33.33,0,0,0-.33-.33A.32.32,0,0,0,12,4.2v.52A1.26,1.26,0,0,0,11.09,6v.32a1.36,1.36,0,0,0,.73,1.21l.79.41a.74.74,0,0,1,.38.64v.32a.63.63,0,0,1-1.25,0v0a.32.32,0,0,0-.33-.32.32.32,0,0,0-.32.32v0A1.26,1.26,0,0,0,12,10.08v.52a.32.32,0,0,0,.32.33.33.33,0,0,0,.33-.33v-.52a1.26,1.26,0,0,0,1-1.23V8.53a1.36,1.36,0,0,0-.73-1.21l-.79-.42a.71.71,0,0,1-.38-.63V6A.63.63,0,0,1,13,6V6a.32.32,0,0,0,.33.32A.32.32,0,0,0,13.64,6V6A1.26,1.26,0,0,0,12.69,4.72Z"/><path class="cls-1" d="M5,5.55A2.78,2.78,0,1,0,2.25,2.77,2.79,2.79,0,0,0,5,5.55ZM5,.65A2.12,2.12,0,1,1,2.91,2.77,2.12,2.12,0,0,1,5,.65Z"/><path class="cls-1" d="M12.36,2.45A5,5,0,0,0,7.61,6a3,3,0,0,0-.84-.12H3.29A3.31,3.31,0,0,0,0,9.2v5a.32.32,0,0,0,.33.32H2v3.87a.32.32,0,0,0,.32.32H7.74a.32.32,0,0,0,.32-.32V14.48H9.72a.32.32,0,0,0,.33-.32V11.78a5,5,0,0,0,2.31.57,5,5,0,1,0,0-9.9ZM6.25,6.55,5,9.37,3.8,6.55ZM7.41,18H5.35V16A.32.32,0,0,0,5,15.7.33.33,0,0,0,4.7,16v2H2.64V14.48H7.41Zm2-4.19H8.06V11.55a.32.32,0,0,0-.32-.32.32.32,0,0,0-.33.32v2.28H2.64V11.55a.32.32,0,0,0-.33-.32.32.32,0,0,0-.32.32v2.28H.65V9.2A2.65,2.65,0,0,1,3.09,6.56l1.64,3.76a.31.31,0,0,0,.29.2.32.32,0,0,0,.3-.2L7,6.56l.51.09a2.89,2.89,0,0,0,0,.29V7a2.75,2.75,0,0,0,0,.39c0,.1,0,.2,0,.3s0,.13,0,.13a1,1,0,0,0,0,.17s0,.15,0,.15,0,.09,0,.14,0,.16,0,.16l0,.13,0,.16,0,.12,0,.09,0,.07a.56.56,0,0,0,0,.12l0,.09,0,.06a.61.61,0,0,0,0,.12.36.36,0,0,0,0,.09l0,.06,0,.11L8,9.82l.06.11.06.09,0,0,.07.11.07.1,0,0a.76.76,0,0,1,.08.11l.07.09,0,0,.08.1.09.1.11.12.08.08,0,0,.11.1.11.1.12.09.11.09,0,0Zm3-2.13a4.31,4.31,0,0,1-4.3-4.3,3.4,3.4,0,0,1,0-.45,3.5,3.5,0,0,1,.07-.45,4.3,4.3,0,1,1,4.2,5.2Z"/></svg>