<?xml version="1.0" encoding="utf-8"?>
<!-- Generator: Adobe Illustrator 23.1.1, SVG Export Plug-In . SVG Version: 6.00 Build 0)  -->
<svg version="1.1" id="Layer_1" xmlns="http://www.w3.org/2000/svg" xmlns:xlink="http://www.w3.org/1999/xlink" x="0px" y="0px"
	 viewBox="0 0 2792 1794" style="enable-background:new 0 0 2792 1794;" xml:space="preserve">
<style type="text/css">
	.st0{fill:#F05B22;}
</style>
<g transform="translate(0.000000,1794.000000) scale(0.100000,-0.100000)">
	<path class="st0" d="M6368,15679l-4498-2249v-658v-657l-934-465L2,11185l-1-1127L0,8930l470-235l470-235v-700v-700l-370-185
		c-203-102-370-188-370-193c0-4,2867-1440,6370-3192l6370-3185l4178,2088c2297,1149,4187,2095,4198,2102l22,14l-167,663l-166,663
		l-5-279l-5-278l-3950-1979c-2172-1088-3953-1979-3957-1979c-5,0-8,335-8,744v744l3848,1927c2116,1060,3851,1931,3857,1936
		c6,6,1,40-12,92c-22,84-62,243-202,802c-68,275-105,420-152,598c-9,35-16,40-132,98l-122,61l99,50c57,29,96,54,93,61
		c-2,7-30,119-63,250c-32,130-62,237-66,237c-5,0-1403-698-3108-1550l-3100-1550v748v747l2940,1470c1617,808,2940,1472,2940,1475
		s-9,39-20,80s-20,81-20,87c0,7,676,351,1502,764l1503,752l-5985,2993c-3292,1646-5992,2993-6000,2993S8841,16917,6368,15679z
		 M20063,7898c-3-205-6-374-7-374c0-1-1780-891-3953-1978l-3953-1976v748v747l490,245l490,245l375-188l375-187l3088,1544
		c1698,850,3090,1545,3093,1545C20065,8270,20066,8102,20063,7898z"/>
	<path class="st0" d="M23599,9836c-115-32-258-120-323-199c-56-69-87-147-93-235c-5-66,0-99,32-232c25-102,49-178,73-223
		c45-87,152-202,232-249c129-76,223-73,305,9c101,101,185,364,185,582c0,73-56,322-90,398C23860,9824,23746,9876,23599,9836z"/>
	<path class="st0" d="M25069,8876c-108-38-170-76-250-156c-102-101-124-153-123-300c1-87,7-127,36-237c45-166,83-237,178-333
		c168-170,331-197,440-73c89,101,170,373,170,572c0,67-61,324-94,396c-31,68-72,114-121,136C25248,8907,25152,8905,25069,8876z"/>
	<path class="st0" d="M22865,7775c-76-20-141-51-216-100c-133-89-200-198-207-340c-4-68,1-104,32-231c47-193,78-256,178-360
		c106-110,194-159,289-159c56,0,72,4,107,28c111,78,202,312,218,562c6,93,4,110-30,249c-45,182-75,253-131,305
		C23040,7789,22967,7803,22865,7775z"/>
	<path class="st0" d="M25765,7466c-92-15-171-36-270-73c-309-115-638-393-750-636c-43-92-42-113,14-332c28-109,53-200,55-202
		c6-6,1496,735,1496,744c0,4-23,96-50,203c-58,222-71,244-169,281C26021,7477,25873,7484,25765,7466z"/>
	<path class="st0" d="M23485,6345c-282-51-537-189-769-414c-110-107-171-187-215-281c-50-105-49-121,9-347l52-200l282,137
		c261,127,1207,599,1214,605c8,7-99,402-116,424c-26,35-66,57-137,75C23734,6363,23584,6364,23485,6345z"/>
</g>
</svg>
