<?xml version="1.0" encoding="utf-8"?>
<!-- Generator: Adobe Illustrator 23.1.1, SVG Export Plug-In . SVG Version: 6.00 Build 0)  -->
<svg version="1.1" id="Capa_1" xmlns="http://www.w3.org/2000/svg" xmlns:xlink="http://www.w3.org/1999/xlink" x="0px" y="0px"
	 viewBox="0 0 29 29" style="enable-background:new 0 0 29 29;" xml:space="preserve">
<style type="text/css">
	.st0{fill:#F05B22;}
</style>
<g>
	<g>
		<path class="st0" d="M28.7,13.3c-0.7-7.5-9.9-5.3-11.4-1c-0.7-2.1-3.3-3.6-5.8-3.9l-0.1,0.9c0.2,0.2,0.3,0.5,0.3,0.8
			c0,2.7-1.9,4.9-4.5,5.4c-0.1,0.8-0.4,1.4-0.8,2c1.3,4.1,4.7,7.2,7.4,9c1.3-1,1.9-2.8,2.2-4.6c-1.4-0.5-2.3-1.8-2.3-3.4
			c0-2,1.6-3.7,3.7-3.7s3.7,1.6,3.7,3.7c0,1.7-1.2,3.2-2.8,3.5c-0.4,2.7-1.3,4.5-2.4,5.7c1,0.6,1.6,0.9,1.6,0.9S29.5,22.9,28.7,13.3
			z"/>
		<path class="st0" d="M19.5,18.5c0-1.2-1-2.2-2.2-2.2c-1.2,0-2.2,1-2.2,2.2c0,1.1,0.8,1.9,1.8,2.1c-0.2,3.1-1.3,7.6-6.1,7.6
			c-0.5,0-1.1,0-1.6,0c-3.9,0.1-7.7,0.3-8.1-5.6c-0.1-1.5,0.9-2.2,2.2-3.1c1.4-1,3.1-2.1,3.3-4.8c2.5-0.2,4.4-2.2,4.4-4.7
			c0-0.2-0.1-0.4-0.3-0.6l0.9-7.4c0-0.2-0.1-0.3-0.2-0.4l-1.2-0.6c0,0,0-0.1,0-0.1C10.2,0.5,9.7,0,9.1,0C8.5,0,8,0.5,8,1.1
			c0,0.6,0.5,1.1,1.1,1.1c0.3,0,0.6-0.1,0.8-0.4l0.9,0.5L9.9,9.4c-0.3,0.1-0.4,0.4-0.4,0.7c0,1.8-1.5,3.3-3.3,3.3s-3.3-1.5-3.3-3.3
			c0-0.3-0.2-0.6-0.4-0.7L1.6,2.3l0.9-0.5C2.7,2.1,3,2.2,3.3,2.2c0.6,0,1.1-0.5,1.1-1.1C4.4,0.5,3.9,0,3.3,0C2.7,0,2.2,0.5,2.2,1.1
			c0,0,0,0.1,0,0.1L1,1.8C0.9,1.8,0.8,2,0.8,2.2l0.9,7.4c-0.2,0.1-0.3,0.3-0.3,0.6c0,2.5,1.9,4.5,4.3,4.7c-0.2,2.3-1.6,3.2-3,4.2
			c-1.3,0.9-2.6,1.8-2.5,3.8C0.8,28.4,4.1,29,7.5,29c0.6,0,1.1,0,1.7,0c0.5,0,1.1,0,1.6,0c4.1,0,6.3-2.8,6.8-8.3
			C18.7,20.5,19.5,19.6,19.5,18.5z"/>
	</g>
</g>
</svg>
