<svg id="Layer_1" data-name="Layer 1" xmlns="http://www.w3.org/2000/svg" viewBox="0 0 13.3 18.28"><defs><style>.cls-1{fill:#f15b22;}</style></defs><title>Artboard 9</title><path class="cls-1" d="M11.81,9.92A4.42,4.42,0,0,0,10.23,9c.75.09,1.41.21,1.41.21-1.5-.82-1.46-3.79-1.46-3.79C10.42.25,7.33,0,6.75,0h-.2C6,0,2.88.25,3.12,5.44c0,0,0,3-1.47,3.8,0,0,.41,0,1,0a4.38,4.38,0,0,0-2.6,4,2.34,2.34,0,0,0,.25,1.17,1.74,1.74,0,0,0,1.47.81v2.08a1,1,0,0,0,1,1h7.83a1,1,0,0,0,1-1V15.19a1.77,1.77,0,0,0,1.48-.81,2.34,2.34,0,0,0,.25-1.17A4.38,4.38,0,0,0,11.81,9.92Zm-7-1.56a2.63,2.63,0,0,0,1.88.85A2.65,2.65,0,0,0,8.49,8.4l-.39.81C8.22,9,8.63,9,9.14,9H9.3c-.09.56-.74,1-1.64,1.22l-1,1.65-1-1.65a2.31,2.31,0,0,1-1.54-.93c.6,0,1.1.16,1.24.37Zm.85-3.84A11.65,11.65,0,0,0,8.43,3l0,0,.06.11C8.66,3.3,9,4,8.4,4.3l1,.13h0l.18,0a3,3,0,0,1,0,.43,5.57,5.57,0,0,1-.54,2A2.8,2.8,0,0,1,6.65,8.7C5.16,8.7,3.93,7.08,3.74,5A11.53,11.53,0,0,0,5.62,4.52Zm5.45,12.75a.51.51,0,0,1-.51.5H2.73a.5.5,0,0,1-.5-.5V13.19a.5.5,0,0,1,.5-.5h7.83a.51.51,0,0,1,.51.5Z"/><path class="cls-1" d="M9.62,13.41H3.67a.64.64,0,0,1-.64.64v2.37a.64.64,0,0,1,.65.63h6a.63.63,0,0,1,.64-.63V14.05A.65.65,0,0,1,9.62,13.41ZM4.1,15.65a.42.42,0,1,1,0-.84.42.42,0,1,1,0,.84Zm2.55.85a1.27,1.27,0,1,1,1.28-1.27A1.28,1.28,0,0,1,6.65,16.5Zm2.54-.85a.42.42,0,1,1,.44-.42A.43.43,0,0,1,9.19,15.65Z"/><path class="cls-1" d="M7.22,15.75H6.6a.54.54,0,0,0,.1-.16.76.76,0,0,0,0-.17H7a0,0,0,0,0,0-.05v-.22a0,0,0,0,0,0-.05H6.69a.5.5,0,0,1,0-.17.19.19,0,0,1,.22-.22.9.9,0,0,1,.19,0h0a0,0,0,0,0,0,0l.07-.29h0a.69.69,0,0,0-.32-.07.56.56,0,0,0-.61.57c0,.07,0,.17,0,.19H6.11a0,0,0,0,0-.05.05v.22a0,0,0,0,0,.05.05h.21v.08c0,.16-.26.35-.26.35a.07.07,0,0,0,0,.06v.16a0,0,0,0,0,0,.05H7.22a0,0,0,0,0,0-.05v-.28A0,0,0,0,0,7.22,15.75Z"/></svg>