<svg id="Layer_1" data-name="Layer 1" xmlns="http://www.w3.org/2000/svg" viewBox="0 0 19.47 19.41"><defs><style>.cls-1{fill:#f15b22;}</style></defs><title>Artboard 5</title><path class="cls-1" d="M16.24,15.05v.7a.69.69,0,0,1-.31-.14l-.06,0a.22.22,0,0,1,0-.16C15.83,15.19,16,15.07,16.24,15.05Z"/><path class="cls-1" d="M16.76,16.57a1.7,1.7,0,0,0-.33-.16v.7c.31,0,.47-.11.47-.31A.35.35,0,0,0,16.76,16.57Z"/><path class="cls-1" d="M16.16,14.52h0v0S16.18,14.5,16.16,14.52Zm1.13-1.26a3.06,3.06,0,0,0-.41-.1,2.62,2.62,0,0,0-.57-.06,3.15,3.15,0,0,0-3.15,3.16,2.53,2.53,0,0,0,.06.56,3.06,3.06,0,0,0,.1.41,3.15,3.15,0,1,0,4-4Zm.15,3.89a.61.61,0,0,1-.23.27.94.94,0,0,1-.35.16,1.45,1.45,0,0,1-.41.06v.49H16.2v-.49a3.29,3.29,0,0,1-.61-.12,2.13,2.13,0,0,1-.52-.27l.27-.53a.76.76,0,0,0,.12.1,1.3,1.3,0,0,0,.21.12,1.25,1.25,0,0,0,.27.1,1.07,1.07,0,0,0,.32.05v-.74l-.08,0-.08,0a1.37,1.37,0,0,1-.39-.13.64.64,0,0,1-.27-.18l0,0a.43.43,0,0,1-.14-.21.58.58,0,0,1,0-.19v-.12a.85.85,0,0,1,.08-.39.72.72,0,0,1,.22-.29,1.38,1.38,0,0,1,.31-.2,2,2,0,0,1,.35-.08h0v-.44h.25v.44l.19,0a1.69,1.69,0,0,1,.34.1,2.07,2.07,0,0,1,.42.22l-.27.48-.1-.08a.82.82,0,0,0-.17-.09.72.72,0,0,0-.22-.08L16.43,15v.76l.12,0a2.19,2.19,0,0,1,.41.14.73.73,0,0,1,.31.17.87.87,0,0,1,.19.25,1,1,0,0,1,.08.35A1.2,1.2,0,0,1,17.44,17.15Z"/><path class="cls-1" d="M12.46,12.44,9.21,9.05l.1-3.81a.42.42,0,0,0-.41-.43.41.41,0,0,0-.43.41L8.39,8.1l0,1.26.8.94L11.82,13a.43.43,0,0,0,.33.15.45.45,0,0,0,.27-.1A.42.42,0,0,0,12.46,12.44Z"/><path class="cls-1" d="M14.89,2.34a8.89,8.89,0,1,0-6,15.45,9.18,9.18,0,0,0,3-.52c0-.18-.09-.37-.13-.55A8.34,8.34,0,1,1,8.9.56a8.27,8.27,0,0,1,5.6,2.17L12.85,4.38h3.39V1Z"/><path class="cls-1" d="M16.8,6h0a.48.48,0,0,1-.47-.47h0A.48.48,0,0,1,16.8,5h0a.48.48,0,0,1,.47.47h0A.48.48,0,0,1,16.8,6Z"/><path class="cls-1" d="M17.27,8.64h0a.47.47,0,0,1-.47-.46h0a.48.48,0,0,1,.47-.47h0a.48.48,0,0,1,.47.47h0A.47.47,0,0,1,17.27,8.64Z"/><path class="cls-1" d="M17.05,11.35h0a.47.47,0,0,1-.46-.47h0a.47.47,0,0,1,.46-.46h0a.47.47,0,0,1,.47.46h0A.47.47,0,0,1,17.05,11.35Z"/></svg>