<svg id="Layer_1" data-name="Layer 1" xmlns="http://www.w3.org/2000/svg" viewBox="0 0 16.7 19.96"><defs><style>.cls-1,.cls-2{fill:#f15b22;}.cls-2{fill-rule:evenodd;}</style></defs><title>Artboard 11</title><path class="cls-1" d="M7.06,3.77,4.48,5.06V8.28l2.58,1.3,2.58-1.3V5.06Zm0,1.17.82.41v.87l-.82.41-.81-.41V5.35Zm0,.51-.36.18v.31l.36.18.36-.18V5.63ZM5.66,6.67h.45v.74l.95.48,1-.48V6.67h.46v1l-1.41.7-1.4-.7Z"/><path class="cls-2" d="M3.45,10.89v.46h7.22v-.46Z"/><path class="cls-2" d="M3.45,12.67v.46H9.66a4.24,4.24,0,0,1,.49-.46Z"/><path class="cls-2" d="M0,0V18.68H9.28c-.1-.15-.2-.3-.29-.45H.46V.46H13.67V11.8a3.28,3.28,0,0,1,.45.11V0Z"/><path class="cls-2" d="M3.45,14.45v.46H8.64c0-.16.1-.31.16-.46Z"/><path class="cls-1" d="M12.87,12.31a3.83,3.83,0,1,0,3.83,3.82,3.83,3.83,0,0,0-3.83-3.82Zm0,.46a3.37,3.37,0,1,1-3.36,3.36,3.36,3.36,0,0,1,3.36-3.36Z"/><path class="cls-1" d="M12.65,14.14v.61a.82.82,0,0,0-.57.79.81.81,0,0,0,.79.82h0a.35.35,0,0,1,.32.22.43.43,0,0,1-.08.42.32.32,0,0,1-.36.08.38.38,0,0,1-.22-.35h-.45a.84.84,0,0,0,.49.77l.08,0v.61h.45v-.61a.84.84,0,0,0,.35-.21.87.87,0,0,0,.16-.9.8.8,0,0,0-.74-.5h0a.36.36,0,0,1-.34-.37.35.35,0,1,1,.69,0h.45a.82.82,0,0,0-.57-.78v-.61Z"/></svg>