<svg id="Layer_1" data-name="Layer 1" xmlns="http://www.w3.org/2000/svg" viewBox="0 0 18.07 18.07"><defs><style>.cls-1{fill:#f15b22;}</style></defs><title>Artboard 15</title><path class="cls-1" d="M17,8.47h-.07A2.25,2.25,0,0,1,16,9H17a.55.55,0,0,1,.54.55V13.7a.13.13,0,0,1-.13.13h-.43V12.14a.29.29,0,0,0-.57,0v5.23a.12.12,0,0,1-.12.13h-.72V15A.29.29,0,0,0,15,15V17.5h-.73a.13.13,0,0,1-.12-.13h0V12.14a.27.27,0,0,0-.28-.28.28.28,0,0,0-.28.28v1.69h-.43A.13.13,0,0,1,13,13.7h0V12.4a1.5,1.5,0,0,1-.57.27v1a.7.7,0,0,0,.7.7h.43v3a.7.7,0,0,0,.68.7h2a.71.71,0,0,0,.69-.7v-3h.43a.7.7,0,0,0,.7-.7V9.58A1.12,1.12,0,0,0,17,8.47Z"/><path class="cls-1" d="M15.24,8.61a1.7,1.7,0,1,0-1.69-1.69A1.7,1.7,0,0,0,15.24,8.61Zm0-2.82a1.13,1.13,0,1,1,0,2.26,1.13,1.13,0,1,1,0-2.26Z"/><path class="cls-1" d="M2.82,5.22a1.7,1.7,0,1,0,1.7,1.7A1.7,1.7,0,0,0,2.82,5.22Zm0,2.83a1.13,1.13,0,1,1,0-2.26,1.13,1.13,0,0,1,0,2.26Z"/><path class="cls-1" d="M13.55,9h.92a2.25,2.25,0,0,1-.86-.56h-.06Z"/><path class="cls-1" d="M3.83,18.07a.71.71,0,0,0,.69-.7v-3H5a.71.71,0,0,0,.7-.7v-1a1.5,1.5,0,0,1-.57-.27v1.3a.13.13,0,0,1-.13.13H4.52V12.14a.29.29,0,0,0-.57,0v5.23a.12.12,0,0,1-.12.13H3.11V15a.29.29,0,0,0-.57,0V17.5H1.81a.13.13,0,0,1-.12-.13h0V12.14a.27.27,0,0,0-.28-.28.28.28,0,0,0-.28.28v1.69H.7a.13.13,0,0,1-.14-.13h0V9.58A.55.55,0,0,1,1.11,9h.94a2.25,2.25,0,0,1-.86-.56H1.11A1.11,1.11,0,0,0,0,9.58V13.7a.7.7,0,0,0,.7.7h.43v3a.7.7,0,0,0,.68.7Z"/><path class="cls-1" d="M4.52,9V8.47H4.46A2.25,2.25,0,0,1,3.6,9Z"/><circle class="cls-1" cx="7.06" cy="7.62" r="0.28"/><circle class="cls-1" cx="11.01" cy="7.62" r="0.28"/><path class="cls-1" d="M9,4.52A2.26,2.26,0,1,0,6.78,2.26,2.26,2.26,0,0,0,9,4.52Zm0-4a1.7,1.7,0,1,1-1.69,1.7A1.7,1.7,0,0,1,9,.56Z"/><path class="cls-1" d="M13,11.26V7a.8.8,0,0,1-.57,0v4.25a.31.31,0,0,1-.32.31h-.81V8.89a.28.28,0,0,0-.56,0v8.3a.3.3,0,0,1-.29.31H9.32V12.7a.29.29,0,0,0-.57,0v4.8H7.62a.3.3,0,0,1-.28-.31V8.89a.29.29,0,0,0-.28-.28.28.28,0,0,0-.28.28v2.68H6a.3.3,0,0,1-.31-.31h0V5.71a.91.91,0,0,1,.91-.91H7.81A2.74,2.74,0,0,1,7,4.23H6.56A1.48,1.48,0,0,0,5.08,5.71v5.55a.88.88,0,0,0,.88.88h.82v5.05a.86.86,0,0,0,.84.88h2.82a.87.87,0,0,0,.85-.88h0V12.14h.81A.89.89,0,0,0,13,11.26Z"/><path class="cls-1" d="M13.39,4.68a.28.28,0,0,0-.26-.18h-.61l-.25-.65A.28.28,0,0,0,12,3.67a.28.28,0,0,0-.26.19l-.24.67h-.63a.28.28,0,0,0-.28.28.27.27,0,0,0,.09.21l.53.47-.16.66a.28.28,0,0,0,.22.33.26.26,0,0,0,.21,0L12,6.12l.56.33A.28.28,0,0,0,13,6.37a.31.31,0,0,0,0-.23l-.18-.66L13.33,5A.3.3,0,0,0,13.39,4.68Zm-1.09.5a.27.27,0,0,0-.08.28l0,.16-.12-.07a.26.26,0,0,0-.29,0l-.09,0,0-.14a.3.3,0,0,0-.09-.28l-.1-.09h.1A.28.28,0,0,0,12,4.9l0-.14.05.11a.27.27,0,0,0,.26.18h.09Z"/></svg>