<?xml version="1.0" standalone="no"?>
<!DOCTYPE svg PUBLIC "-//W3C//DTD SVG 20010904//EN"
 "http://www.w3.org/TR/2001/REC-SVG-20010904/DTD/svg10.dtd">
<svg version="1.0" xmlns="http://www.w3.org/2000/svg"
 width="256.000000pt" height="286.000000pt" viewBox="0 0 256.000000 286.000000"
 preserveAspectRatio="xMidYMid meet">

<g transform="translate(0.000000,286.000000) scale(0.100000,-0.100000)"
fill="#000000" stroke="none">
<path d="M452 2749 c-27 -14 -51 -36 -67 -64 -25 -41 -25 -45 -25 -273 0 -239
4 -268 43 -311 28 -30 93 -60 131 -61 48 0 115 38 144 83 l27 41 0 240 c0 211
-2 245 -17 273 -46 83 -151 115 -236 72z"/>
<path d="M1535 2756 c-37 -17 -80 -62 -94 -99 -7 -17 -11 -119 -11 -254 0
-247 4 -270 62 -318 88 -74 214 -48 266 55 21 42 22 56 22 267 0 243 -4 266
-56 315 -52 48 -127 62 -189 34z"/>
<path d="M0 1653 c0 -863 -1 -846 66 -974 46 -87 136 -177 223 -223 124 -65
132 -66 764 -66 l568 0 -74 72 c-42 42 -91 102 -113 141 l-38 67 -439 0 c-275
0 -454 4 -480 11 -63 15 -128 68 -162 130 l-30 54 -3 478 -3 477 791 0 790 0
0 -115 0 -115 28 7 c15 5 78 8 140 7 l112 0 0 413 0 413 -130 0 -130 0 -1
-137 c0 -79 -6 -152 -12 -170 -39 -106 -147 -183 -257 -183 -67 0 -110 13
-166 51 -89 61 -123 153 -124 337 l0 102 -254 0 -254 0 -4 -147 c-3 -128 -6
-153 -25 -188 -89 -166 -298 -206 -436 -85 -71 63 -90 119 -95 283 l-4 137
-124 0 -124 0 0 -777z"/>
<path d="M474 1636 c-46 -20 -56 -57 -52 -181 3 -103 4 -108 31 -131 26 -22
36 -24 143 -24 114 0 116 0 145 29 28 29 29 32 29 136 0 122 -12 157 -61 174
-44 15 -197 13 -235 -3z"/>
<path d="M964 1643 c-12 -2 -32 -15 -45 -29 -19 -20 -23 -38 -27 -108 -6 -106
3 -152 33 -182 23 -23 31 -24 143 -24 116 0 120 1 146 26 25 26 26 31 26 141
0 63 -5 123 -11 135 -18 33 -70 48 -161 47 -46 -1 -93 -4 -104 -6z"/>
<path d="M1423 1636 c-17 -8 -36 -23 -42 -35 -6 -11 -11 -71 -11 -134 l0 -115
31 -26 c17 -14 34 -26 38 -26 5 0 21 18 36 41 38 54 124 131 190 171 48 28 54
35 48 58 -3 14 -16 36 -29 50 -22 22 -32 25 -126 27 -74 3 -112 -1 -135 -11z"/>
<path d="M1861 1474 c-86 -23 -171 -73 -242 -144 -108 -106 -161 -236 -161
-390 0 -154 52 -280 162 -390 208 -208 543 -214 759 -15 309 286 204 788 -193
927 -68 23 -97 28 -176 27 -52 0 -119 -7 -149 -15z m109 -151 c0 -39 13 -55
41 -51 20 2 25 10 27 41 3 38 3 38 40 31 63 -10 159 -60 212 -110 56 -52 108
-148 117 -213 5 -39 4 -41 -20 -41 -21 0 -57 -22 -57 -35 0 -22 17 -35 47 -35
l36 0 -6 -45 c-22 -157 -162 -295 -334 -328 -32 -6 -33 -6 -33 28 0 23 -6 38
-18 44 -28 15 -52 -5 -52 -43 l0 -33 -45 8 c-152 28 -295 175 -320 326 l-7 42
39 3 c28 2 39 8 42 22 4 23 -24 46 -56 46 -22 0 -23 3 -17 38 24 144 161 288
307 322 53 13 57 11 57 -17z"/>
<path d="M1807 1202 c-10 -10 -17 -25 -17 -34 0 -8 29 -56 66 -107 36 -50 62
-96 59 -101 -10 -17 15 -79 38 -95 30 -21 80 -19 110 5 20 16 40 20 101 20 70
0 77 2 92 25 15 23 15 27 0 50 -15 23 -23 25 -87 25 -56 0 -76 4 -96 20 -14
11 -34 20 -44 20 -12 0 -37 25 -67 67 -73 103 -92 123 -116 123 -13 0 -30 -8
-39 -18z"/>
<path d="M453 1166 c-27 -23 -28 -28 -31 -131 -6 -171 16 -195 173 -195 157 0
179 24 173 195 -3 103 -4 108 -31 131 -26 22 -36 24 -142 24 -106 0 -116 -2
-142 -24z"/>
<path d="M927 1166 c-32 -30 -41 -74 -35 -182 4 -76 7 -88 31 -112 25 -24 36
-27 113 -31 107 -4 150 4 180 34 23 23 24 31 24 142 -1 164 -10 173 -178 173
-101 0 -111 -2 -135 -24z"/>
</g>
</svg>
