<?xml version="1.0" standalone="no"?>
<!DOCTYPE svg PUBLIC "-//W3C//DTD SVG 20010904//EN"
 "http://www.w3.org/TR/2001/REC-SVG-20010904/DTD/svg10.dtd">
<svg version="1.0" xmlns="http://www.w3.org/2000/svg"
 width="360.000000pt" height="360.000000pt" viewBox="0 0 360.000000 360.000000"
 preserveAspectRatio="xMidYMid meet">

<g transform="translate(0.000000,360.000000) scale(0.100000,-0.100000)"
fill="#000000" stroke="none">
<path d="M1580 2910 c-231 -49 -425 -153 -585 -314 -201 -202 -314 -447 -340
-738 l-7 -78 -144 0 c-79 0 -144 -3 -144 -8 0 -4 108 -115 240 -247 l240 -240
248 248 247 247 -155 0 -156 0 7 74 c18 191 109 372 251 501 84 75 172 127
288 166 89 31 104 33 235 33 108 0 155 -4 205 -18 99 -29 220 -91 292 -150
l65 -54 132 132 132 133 -58 50 c-160 138 -348 228 -554 268 -113 21 -329 19
-439 -5z"/>
<path d="M2517 2062 c-130 -130 -237 -239 -237 -242 0 -3 68 -5 151 -5 l152 0
-6 -66 c-8 -99 -33 -184 -85 -289 -39 -80 -61 -110 -137 -186 -101 -102 -190
-159 -307 -198 -261 -87 -533 -38 -748 135 l-63 51 -131 -132 -131 -131 50
-45 c343 -309 850 -381 1270 -180 371 178 628 549 654 946 l6 95 147 0 c82 0
148 2 148 5 0 10 -475 480 -485 480 -6 0 -117 -107 -248 -238z"/>
</g>
</svg>
