<?xml version="1.0" standalone="no"?>
<!DOCTYPE svg PUBLIC "-//W3C//DTD SVG 20010904//EN"
 "http://www.w3.org/TR/2001/REC-SVG-20010904/DTD/svg10.dtd">
<svg version="1.0" xmlns="http://www.w3.org/2000/svg"
 width="768.000000pt" height="768.000000pt" viewBox="0 0 768.000000 768.000000"
 preserveAspectRatio="xMidYMid meet">

<g transform="translate(0.000000,768.000000) scale(0.100000,-0.100000)"
fill="#000000" stroke="none">
<path d="M3795 7239 c-244 -41 -478 -221 -590 -453 -97 -202 -101 -486 -11
-691 79 -176 245 -343 424 -422 188 -83 460 -85 653 -4 208 87 387 281 459
498 39 117 51 274 30 400 -53 332 -318 606 -647 669 -81 15 -237 17 -318 3z"/>
<path d="M1866 6344 c-278 -62 -508 -288 -571 -559 -20 -85 -20 -264 -1 -347
54 -235 224 -436 446 -529 71 -30 213 -59 290 -59 75 0 216 28 283 56 161 68
316 212 392 367 55 112 75 199 75 338 0 180 -49 324 -159 462 -99 125 -243
222 -386 262 -86 24 -282 29 -369 9z"/>
<path d="M5787 5940 c-94 -24 -185 -98 -229 -187 -19 -41 -23 -63 -23 -148 0
-89 3 -105 27 -150 86 -162 283 -235 440 -163 75 35 141 98 175 167 25 49 28
67 28 151 0 83 -3 101 -27 145 -35 68 -102 133 -165 162 -59 27 -166 38 -226
23z"/>
<path d="M1032 4350 c-123 -33 -206 -83 -308 -185 -75 -75 -99 -107 -132 -176
-153 -318 -50 -684 247 -880 116 -76 207 -102 361 -103 104 -1 138 3 200 22
117 37 195 85 291 181 146 148 206 301 197 510 -8 183 -72 326 -205 458 -75
74 -157 125 -255 159 -103 37 -290 43 -396 14z"/>
<path d="M6595 4086 c-113 -27 -226 -119 -275 -223 -52 -110 -50 -255 6 -365
35 -69 116 -148 189 -184 56 -27 68 -29 175 -29 110 0 119 2 181 32 80 40 159
120 197 200 24 52 27 69 27 168 0 102 -2 115 -31 176 -84 178 -279 271 -469
225z"/>
<path d="M1870 2365 c-164 -45 -317 -170 -393 -320 -85 -170 -86 -382 -1 -554
52 -105 171 -224 274 -275 193 -94 431 -85 598 24 133 85 220 195 267 335 22
63 27 99 28 179 0 56 -5 126 -12 156 -45 191 -203 366 -396 440 -79 30 -281
38 -365 15z"/>
<path d="M5787 2239 c-131 -19 -281 -128 -341 -247 -74 -146 -74 -317 1 -454
42 -76 137 -164 222 -205 66 -32 86 -37 171 -41 160 -8 270 37 377 151 116
124 156 272 118 435 -58 244 -295 400 -548 361z"/>
<path d="M3813 1476 c-85 -21 -162 -65 -238 -138 -151 -143 -206 -333 -155
-534 25 -98 68 -171 146 -249 108 -107 226 -155 385 -155 117 0 199 22 285 78
198 128 295 349 251 567 -25 120 -67 197 -156 285 -81 81 -147 119 -246 145
-70 18 -199 18 -272 1z"/>
</g>
</svg>
