<?xml version="1.0" standalone="no"?>
<!DOCTYPE svg PUBLIC "-//W3C//DTD SVG 20010904//EN"
 "http://www.w3.org/TR/2001/REC-SVG-20010904/DTD/svg10.dtd">
<svg version="1.0" xmlns="http://www.w3.org/2000/svg"
 width="512.000000pt" height="512.000000pt" viewBox="0 0 512.000000 512.000000"
 preserveAspectRatio="xMidYMid meet">

<g transform="translate(0.000000,512.000000) scale(0.100000,-0.100000)"
fill="#000000" stroke="none">
<path d="M2474 4451 c-33 -15 -168 -156 -609 -638 -313 -340 -576 -631 -586
-648 -56 -91 -17 -225 81 -275 54 -28 135 -27 188 3 27 14 171 164 419 436
l378 414 5 -1034 c4 -823 8 -1040 18 -1064 31 -70 112 -125 187 -125 75 0 156
55 187 125 10 24 14 241 18 1064 l5 1034 374 -409 c206 -225 390 -420 409
-434 26 -19 49 -25 100 -28 81 -3 130 20 176 86 25 35 30 53 31 100 0 31 -6
71 -13 89 -8 17 -271 312 -585 655 -441 480 -582 628 -617 646 -54 27 -111 28
-166 3z"/>
<path d="M605 2066 c-41 -18 -92 -77 -105 -123 -8 -26 -10 -223 -8 -640 l3
-601 30 -43 c17 -23 48 -52 70 -63 l40 -21 1905 -3 c1368 -2 1918 0 1950 8 61
15 108 54 131 106 19 41 19 71 17 657 l-3 613 -24 36 c-50 73 -143 105 -224
79 -45 -15 -102 -78 -116 -128 -7 -24 -11 -210 -11 -515 l0 -478 -1695 0
-1695 0 0 488 c0 453 -2 490 -19 527 -22 47 -64 89 -104 104 -38 15 -105 13
-142 -3z"/>
</g>
</svg>
