<svg id="Layer_1" data-name="Layer 1" xmlns="http://www.w3.org/2000/svg" viewBox="0 0 1669.78 481.46"><defs><style>.cls-1{fill:#008d45;}.cls-2{fill:#f16522;}.cls-3{fill:#058f47;}</style></defs><title>Humica_ copy</title><path class="cls-1" d="M225.23,134.93q25.53,25.33,25.53,76.39V340.85H156.93V227.51q0-39-27.81-39-15.78,0-25.54,11t-9.75,34.66v106.7H0V0H93.83V132q26.15-22.41,63.93-22.41Q199.69,109.61,225.23,134.93Z"/><path class="cls-1" d="M548,109.61V336.7H458.75V315.11a80.15,80.15,0,0,1-29.06,19.3,96.83,96.83,0,0,1-35.29,6.44q-43.18,0-69.33-26.36T298.92,235V109.61h93.82V218.8q0,23.25,7.47,33.21t22,10q13.69,0,22.83-11t9.13-34.67V109.61Z"/><path class="cls-1" d="M964.22,134.93q24.69,25.33,24.69,76.39V340.85H895.09V227.51q0-39-25.33-39-13.29,0-21.38,10T840.29,230V340.85H746.46V227.51q0-39-25.33-39-13.27,0-21.38,10T691.66,230V340.85H597.83V113.76h89.26v21.17q25.32-25.32,64.35-25.32,22.83,0,41.11,8.5a72,72,0,0,1,29.88,26,92.4,92.4,0,0,1,33.22-25.53,101.72,101.72,0,0,1,42.76-8.92Q939.51,109.61,964.22,134.93Z"/><rect class="cls-1" x="1037.9" y="113.76" width="93.83" height="227.09"/><path class="cls-2" d="M1138.4,21.45C1133,1.19,1108.91-6.62,1092.14,6.36c-2.59,2-4.92,4.33-7.3,6.45-2.52-2.26-4.79-4.54-7.3-6.51C1061.72-6,1038.1.65,1031.85,19.43c-3.8,11.42-1.35,22.2,5.61,31.69,13,17.68,30.81,30.19,47.31,44.37,4.37-3.58,8.53-6.92,12.6-10.37,11.54-9.75,23.35-19.23,32.84-31.12C1137.85,44.43,1141.66,33.7,1138.4,21.45Z"/><path class="cls-1" d="M1234.48,325.91Q1204,311,1186.73,284t-17.23-61q0-34,17.23-60.82t47.75-41.73q30.51-14.94,69.12-14.94,41.52,0,71,17.84t40.69,49.41l-72.66,35.71q-13.29-29.89-39.44-29.9-16.61,0-27.61,11.63t-11,32.8q0,21.59,11,33.21t27.61,11.62q26.16,0,39.44-29.89l72.66,35.7q-11.22,31.57-40.69,49.41t-71,17.85Q1265,340.85,1234.48,325.91Z"/><path class="cls-1" d="M1638.23,132.23q31.53,26.79,31.55,82.41V336.7h-87.19V306.8q-16.18,34.05-64.34,34.05-27,0-45.88-9.34t-28.65-25.32a67.6,67.6,0,0,1-9.75-35.91q0-33.63,25.73-51.07t78-17.44h37.78q-4.56-26.57-42.75-26.57a107.47,107.47,0,0,0-31.14,4.77,87.64,87.64,0,0,0-27,13.08l-29.89-61.86q19.5-12,47.12-18.89a228,228,0,0,1,55-6.84Q1606.68,105.46,1638.23,132.23ZM1564.33,279q7.88-5.39,11.62-16.19V247H1552.7q-28.65,0-28.65,19.1a16.53,16.53,0,0,0,6,13.08q6,5.19,16.39,5.19A30.9,30.9,0,0,0,1564.33,279Z"/><path class="cls-3" d="M1441.51,415.88q8.12,8.07,8.12,24.33v41.25h-29.88v-36.1q0-12.42-8.85-12.42a10.37,10.37,0,0,0-8.14,3.51c-2.06,2.33-3.11,6-3.11,11v34h-29.88v-98.1h29.88V415q8.34-7.14,20.37-7.14Q1433.37,407.82,1441.51,415.88Z"/><path class="cls-3" d="M1480.77,476.59A36.64,36.64,0,0,1,1460.08,443a36.47,36.47,0,0,1,5.49-19.84,37.2,37.2,0,0,1,15.2-13.61,48.43,48.43,0,0,1,22-4.87q13.23,0,22.61,5.81a30.14,30.14,0,0,1,13,16.12l-23.15,11.65q-4.23-9.75-12.56-9.76a11.48,11.48,0,0,0-8.79,3.8q-3.51,3.79-3.5,10.7c0,4.69,1.16,8.31,3.5,10.83a11.43,11.43,0,0,0,8.79,3.79q8.34,0,12.56-9.75l23.15,11.65a30.08,30.08,0,0,1-13,16.11q-9.37,5.83-22.61,5.83A48.56,48.56,0,0,1,1480.77,476.59Z"/><path class="cls-3" d="M1661.91,415.88q7.86,8.07,7.87,24.33v41.25H1639.9v-36.1q0-12.42-8.07-12.42a8.39,8.39,0,0,0-6.82,3.17q-2.58,3.18-2.57,10.05v35.3h-29.88v-36.1q0-12.42-8.07-12.42a8.36,8.36,0,0,0-6.81,3.17q-2.58,3.18-2.58,10.05v35.3h-29.88V409.14h28.43v6.74q8.07-8.06,20.5-8.06a30.84,30.84,0,0,1,13.08,2.7,22.92,22.92,0,0,1,9.52,8.27,29.64,29.64,0,0,1,10.58-8.13,32.41,32.41,0,0,1,13.62-2.84Q1654,407.82,1661.91,415.88Z"/></svg>