<?xml version="1.0" encoding="utf-8"?>
<!-- Generator: Adobe Illustrator 23.1.1, SVG Export Plug-In . SVG Version: 6.00 Build 0)  -->
<svg version="1.1" id="Layer_1" xmlns="http://www.w3.org/2000/svg" xmlns:xlink="http://www.w3.org/1999/xlink" x="0px" y="0px"
	 viewBox="0 0 1161 1024" style="enable-background:new 0 0 1161 1024;" xml:space="preserve">
<style type="text/css">
	.st0{fill:#F05B22;}
</style>
<path class="st0" d="M82.7,614.4l-1.9-3.7L26.3,622l1.9,3.7c24.4,109,86.4,206.7,172.9,279.9c71.4,58.3,155.9,97.7,246.1,112.7v-62
	c-176.6-31.9-321.2-163.5-362.6-342H82.7z M903.8,150.3C806.1,52.6,674.5,0,535.5,0C363.7-0.1,202.9,84.2,105.2,225.5l-31.9,47
	V112.7c0-9.3-7.5-16.9-16.8-16.9c0,0-0.1,0-0.1,0H16.9C7.6,95.8,0,103.3,0,112.6c0,0,0,0.1,0,0.1v251.8c0,9.3,7.5,16.9,16.8,16.9
	c0,0,0.1,0,0.1,0h255.5c9.3,0,16.9-7.5,16.9-16.8c0,0,0-0.1,0-0.1v-35.7c0-9.3-7.5-16.9-16.8-16.9c0,0-0.1,0-0.1,0H114.6l15-26.3
	c80.8-142.8,234.9-233,402.1-233c253.7,0,460.3,204.8,460.3,454.7c0,22.7-1.9,45.3-5.6,67.6h63.9c1.9-20.7,3.7-41.3,3.7-62
	c0-137.2-54.5-264.9-152.2-362.6L903.8,150.3z M554.3,574.9c2-0.2,3.6-1.7,3.7-3.7V274.3c-0.2-2-1.7-3.6-3.7-3.7H511
	c-2,0.2-3.6,1.7-3.7,3.7v251.8H311.9c-2,0.2-3.6,1.7-3.7,3.7v43.3c0.2,2,1.7,3.6,3.7,3.7h244.2L554.3,574.9z M514.8,663.2h533.6
	v52.6H514.8L514.8,663.2z M514.8,817.3h533.6v52.6H514.8L514.8,817.3z M514.8,971.4h533.6v52.6H514.8L514.8,971.4z"/>
</svg>
