<svg id="Layer_1" data-name="Layer 1" xmlns="http://www.w3.org/2000/svg" viewBox="0 0 39.25 36.75"><defs><style>.cls-1{fill:#f05b22;}</style></defs><title>Artboard 8</title><path class="cls-1" d="M6.21,17.49A4,4,0,0,0,7,17.12c.43-.37.81-.51,1.19.06s.59,1.08,0,1.59c-.9.73-1.78,1.49-2.74,2.14a1.29,1.29,0,0,1-1.16,0,18.41,18.41,0,0,1-2.59-2.14,2.21,2.21,0,0,1-.37-1.4c0-.21.44-.62.62-.59a6.52,6.52,0,0,1,1.42.62c.17-1,.28-1.92.48-2.84C5.52,6.28,12.57.76,21.32.87a17.38,17.38,0,0,1,2.94,34.41,21.84,21.84,0,0,1-3.34.32,1.25,1.25,0,0,1-1.44-1.26c-.06-.84.46-1.24,1.21-1.36,1.34-.22,2.71-.28,4-.62,6.33-1.63,11.2-8,10.82-14.44-.37-6.22-3.89-12.59-11.87-14A14.54,14.54,0,0,0,6.22,16.11,8.87,8.87,0,0,0,6.21,17.49Z"/><path class="cls-1" d="M19.13,15.63c0-1,0-2,0-3s.66-.92,1.32-.92,1.31,0,1.29,1c0,1.48.06,3,0,4.44a3,3,0,0,0,1.21,2.82c.41.31.73.75,1.14,1.06.85.66.92,1.26.14,2.06s-1.29.5-2-.11C19.92,21,18.43,18.79,19.13,15.63Z"/><path class="cls-1" d="M7.61,21c1.2,1.18,1.22,1.43.13,2.38S5.83,25,4.81,25.81c-1.2-1-2.37-1.87-3.47-2.84-.62-.53-.57-.58.58-1.95.44.36.9.7,1.33,1.09,1.27,1.18,1.71,1.19,3,0Z"/></svg>