<?xml version="1.0" encoding="utf-8"?>
<!-- Generator: Adobe Illustrator 23.1.1, SVG Export Plug-In . SVG Version: 6.00 Build 0)  -->
<svg version="1.1" id="Layer_1" xmlns="http://www.w3.org/2000/svg" xmlns:xlink="http://www.w3.org/1999/xlink" x="0px" y="0px"
	 viewBox="0 0 256 240" style="enable-background:new 0 0 256 240;" xml:space="preserve">
<style type="text/css">
	.st0{fill:#F05B22;}
</style>
<path class="st0" d="M84.6,20.3c18.4,0,33.3,14.9,33.3,33.3S103,86.8,84.6,86.8S51.3,71.9,51.3,53.5S66.3,20.3,84.6,20.3z M31,145
	c0-2.5,1.6-4.2,4.2-4.2s4.2,1.6,4.2,4.2v93h91.5v-93c0-2.5,1.6-4.2,4.2-4.2c2.5,0,4.2,1.6,4.2,4.2v93h29.1V136.6
	c0-22.9-18.7-41.6-41.6-41.6h-8.4l-24.5,38L91,104.6l4-9.6H77l4,9.6l-3.1,28.6L53.4,95h-9.8C20.7,95,2,113.8,2,136.6V238h29.1
	L31,145L31,145L31,145z M224.7,82.5c-4.6-1.9-6.6-2.8-6.6-4.9c0-1.9,1.6-3.4,5.1-3.4c3.4,0,6.1,0.9,7.4,1.6l1.8-6.4
	c-1.7-0.7-3.6-1.3-6.3-1.6v-5.2h-9.1v6.1c-4.6,1.6-7.3,5.2-7.3,9.7c0,5.1,3.7,8.4,9.8,10.5c4.3,1.5,5.9,2.8,5.9,4.9
	c0,2.3-2,3.7-5.6,3.7c-3.4,0-6.7-1.2-8.8-2.1l-1.6,6.6c1.6,0.9,4.5,1.7,7.5,2v5.1h9.1v-6c5.1-1.9,7.5-5.6,7.5-10.1
	C233.8,87.9,230.9,84.8,224.7,82.5z M201.7,34.8h39.5v6.6h-39.5V34.8z M201.7,21.6h39.5v6.6h-39.5V21.6z M254,19.7
	c-0.2-9.4-7.6-16.9-16.8-17.5c-0.3,0-0.7-0.1-1-0.1c0,0-58.2-0.1-58.5-0.1c-3.7,0-7.3,1.1-10.1,3.1c-2.4,1.7-4.5,3.9-5.8,6.6
	c-1.3,2.4-2,5.2-2,8.2c0,0.1,0,0.2,0,0.3c0,0.1,0,0.1,0,0.2c0,9.8,7.9,17.8,17.8,17.8c4.3,0,8.2-1.6,11.3-4.1v6.2v30.5v6.6v23v19.7
	H254V21.6C254,21,254,20.2,254,19.7z M247.5,21.6v12.1v79.8h-52c0,0,0.1-93.1,0.1-93.6c0-4.2-1.6-8.2-4.1-11.3h45.1
	C242.7,9.8,247.4,15.2,247.5,21.6C247.4,21.6,247.5,21.6,247.5,21.6z M201.7,47.9h39.5v6.6h-39.5V47.9z"/>
</svg>
