<?xml version="1.0" encoding="utf-8"?>
<!-- Generator: Adobe Illustrator 23.1.1, SVG Export Plug-In . SVG Version: 6.00 Build 0)  -->
<svg version="1.1" id="Layer_1" xmlns="http://www.w3.org/2000/svg" xmlns:xlink="http://www.w3.org/1999/xlink" x="0px" y="0px"
	 viewBox="0 0 16.3 13.7" style="enable-background:new 0 0 16.3 13.7;" xml:space="preserve">
<style type="text/css">
	.st0{fill:#F05B22;}
</style>
<title>HR Payroll</title>
<g id="vXpysO.tif">
	<path class="st0" d="M16.3,10.4c-1.1,0.5-2.2,0.7-3.4,0.7v-0.3c0-0.5,0-1-0.2-1.6c-0.3-1.1-1.2-2-2.3-2.4h-0.2
		c0.5-0.5,0.9-1.2,0.9-2h2.1c1.5,0,2.7,1.1,2.9,2.6c0,0,0,0.1,0,0.1L16.3,10.4z"/>
	<path class="st0" d="M4.9,0.1c0.9,0.3,1.6,1.2,1.6,2.2c0,0.1,0,0.2-0.1,0.2c-0.5,0.4-0.9,1-1,1.7c0,0.1-0.1,0.1-0.1,0.2
		C4.1,5.1,2.6,4.7,2,3.5S1.7,0.9,2.9,0.3C3.2,0.1,3.5,0,3.9,0C4.2,0,4.6,0,4.9,0.1z"/>
	<path class="st0" d="M12.8,0.1c1.1,0.3,1.9,1.3,1.8,2.5c-0.1,1.1-0.9,2-1.9,2.2c-0.4,0.1-0.9,0-1.3-0.1c-0.1,0-0.2-0.1-0.2-0.2
		c-0.1-0.7-0.4-1.4-1-1.8L10,2.5C9.8,2.4,9.8,2.3,9.8,2.1C10,1,10.9,0.1,12,0C12.3,0,12.5,0,12.8,0.1z"/>
	<path class="st0" d="M4.2,11.5v-1.1c0.1-1.6,1.4-2.9,3.1-2.9c0.8,0,1.5,0,2.2,0c1.6,0.1,2.8,1.4,2.8,2.9c0,0.8,0,1.6,0,2.5
		c0,0.1-0.1,0.1-0.1,0.1c-0.6,0.3-1.3,0.5-1.9,0.6c-2,0.3-4.1,0.1-6-0.5c-0.1,0-0.1-0.1-0.1-0.2C4.2,12.3,4.2,11.9,4.2,11.5
		L4.2,11.5z"/>
	<path class="st0" d="M5.3,4.9c0,0.8,0.4,1.5,0.9,2c-1.8,0.6-2.9,2.4-2.6,4.2H3c-1-0.1-1.9-0.3-2.9-0.6C0,10.5,0,10.4,0,10.3V8
		c0-1.5,1.1-2.8,2.6-3C2.8,5,3,5,3.1,5L5.3,4.9L5.3,4.9z"/>
	<path class="st0" d="M5.9,4.8c0-1.3,1.1-2.4,2.4-2.4c1.3,0,2.4,1.1,2.4,2.4c0,1.3-1.1,2.4-2.4,2.4c0,0,0,0,0,0
		C6.9,7.2,5.9,6.1,5.9,4.8z"/>
</g>
</svg>
