<svg id="Layer_1" data-name="Layer 1" xmlns="http://www.w3.org/2000/svg" viewBox="0 0 46 30.5"><defs><style>.cls-1{fill:#f05b22;}</style></defs><title>Artboard 6</title><path class="cls-1" d="M26.61,30.5a14.09,14.09,0,0,0-1.7-.21c-7.33,0-14.65,0-22,0C.77,30.27.5,30,.57,27.82a8.19,8.19,0,0,1,5.78-7.55A2.93,2.93,0,0,1,10,21.38c.7.91,1.25,1.94,1.92,2.88.18.26.56.37.85.55a3.25,3.25,0,0,0,.5-.88,18.11,18.11,0,0,0,.47-3.17c0-1.34.66-1.52,1.86-1.22.17,1.36.33,2.74.55,4.11a4.68,4.68,0,0,0,.54,1.16,4,4,0,0,0,1-.72c.67-.94,1.24-1.95,1.88-2.92a2.2,2.2,0,0,1,3.07-1c3.25,1.27,5.74,3.21,6.29,7,.3,2.08.07,2.64-1.8,3.39Z"/><path class="cls-1" d="M21.05,7.84a14.51,14.51,0,0,1-3,8.05,4.1,4.1,0,0,1-6.48.12,25.29,25.29,0,0,1-3-5.47c-.9-2-.05-4,.84-5.74a4.75,4.75,0,0,1,4.28-2.53,12.75,12.75,0,0,1,3.09.14A5.37,5.37,0,0,1,21.05,7.84Z"/><path class="cls-1" d="M33.62,21.9c.84-1.13,1.56-2.07,2.25-3,1.05-1.46,2-1.87,3.61-1.13A25,25,0,0,1,44,20.4a4.66,4.66,0,0,1,1.63,4,1.91,1.91,0,0,1-2,2.1c-3.81,0-7.61,0-11.42.09a1.12,1.12,0,0,1-1.27-1,9.75,9.75,0,0,0-4.54-6.09,3.26,3.26,0,0,1-.69-.89,7.83,7.83,0,0,1,.92-.45c.35-.12.73-.15,1.08-.26a3.3,3.3,0,0,1,4.07,1.47C32.33,20.14,32.92,20.92,33.62,21.9Z"/><path class="cls-1" d="M34.73.54c3.63-.42,5.93,3.23,6,6.86,0,4.28-3.19,7.9-7,7.93s-7-3.57-7-7.95C26.62,3.41,30,.57,34.73.54Zm-5.35,8a7.44,7.44,0,0,0,2.3,5.09C33.16,15,35,15,36,13.27A21.7,21.7,0,0,0,38,8c.3-1.06-.53-1.87-1.74-2.15a4.57,4.57,0,0,1-1.66-.45c-1.4-1-2.39-.45-3.37.6-.39.43-.88.77-1.22,1.23A7.12,7.12,0,0,0,29.38,8.54Z"/></svg>