<?xml version="1.0" encoding="utf-8"?>
<!-- Generator: Adobe Illustrator 23.1.1, SVG Export Plug-In . SVG Version: 6.00 Build 0)  -->
<svg version="1.1" id="Layer_1" xmlns="http://www.w3.org/2000/svg" xmlns:xlink="http://www.w3.org/1999/xlink" x="0px" y="0px"
	 viewBox="0 0 122.9 115.4" style="enable-background:new 0 0 122.9 115.4;" xml:space="preserve">
<style type="text/css">
	.st0{fill-rule:evenodd;clip-rule:evenodd;fill:#F05B22;}
</style>
<title>builder</title>
<path class="st0" d="M43.8,71.3l9.7,28.6l4.9-17l-2.4-2.6c-1.1-1.6-1.3-3-0.7-4.2c1.3-2.6,4-2.1,6.5-2.1s5.9-0.5,6.7,2.8
	c0.2,1.2-0.1,2.5-0.8,3.4l-2.4,2.6l4.9,17L79,71.3c6.4,5.7,25.2,6.9,32.2,10.8c2.3,1.2,4.3,2.9,5.9,5c4.4,5.8,4.7,15,5.8,22.1
	c-0.4,3.8-2.5,6-6.7,6.3H6.7c-4.2-0.3-6.4-2.5-6.7-6.3c1.1-7.2,1.5-16.4,5.8-22.1c1.6-2,3.6-3.7,5.8-4.9
	C18.6,78.2,37.5,77,43.8,71.3L43.8,71.3z M53.1,6c-0.2,0-0.5,0-0.7-0.1C46.2,8.7,41.2,14.8,39.8,25c-0.2,1.1-1.2,1.9-2.4,1.8
	c-1.1-0.1-2-1.1-1.9-2.2c0,0,0,0,0,0c1.6-11.9,7.7-19,15.2-22.3c3.8-1.6,7.9-2.4,12-2.1c4.1,0.2,8.1,1.3,11.8,3.2
	c7.7,4,13.6,11.5,14,21.4c0,1.2-0.9,2.2-2.1,2.2s-2.2-0.9-2.2-2.1C84,17.1,79.4,10.3,72.5,6.9c-0.3-0.1-0.6-0.3-0.8-0.4
	c-0.2,0.1-0.5,0.1-0.8,0.1c-1.9,0-2.4,3.4-2.6,8.1c0,2.1,0,4.4,0,6.7c0,1.9,0.1,3.8,0.1,5c0,1.2-1,2.1-2.1,2.1
	c-1.2,0-2.1-0.9-2.1-2.1c0-2.1,0-3.5-0.1-5c0-2.4-0.1-4.7,0-6.9c0.1-4.2,0.6-7.8,2.2-9.9c-1.2-0.3-2.5-0.4-3.8-0.5
	C61,4,59.4,4,57.8,4.3c1.4,2.2,1.9,5.7,2,9.8c0.1,2.2,0,4.7,0,7.1c0,1.5,0,3,0,5.1c-0.1,1.1-1.1,2-2.2,1.9c-1-0.1-1.8-0.9-1.9-1.9
	c0-1.3,0-3.2,0.1-5.2c0-2.5,0.1-4.8,0-7C55.6,9.5,55.1,6,53.1,6z M86.5,33.8c0.2,0.4,0.3,0.8,0.4,1.2l0,0c0.2,0.6,0.4,1.2,0.6,1.8
	v0.1c0.2,1.2,0.4,1.8,0.5,2.2l0,0c0.1,0.2,0.1,0.4,0.1,0.6c0,0.2,0,0.4,0,0.8s0,1.1,0,2.1l0,0c-0.1,0.8-0.2,1.6-0.3,2.3
	c-0.2,0.8-0.4,1.6-0.7,2.4l0,0c-0.4,1.3-1.1,2.5-2,3.6c-0.5,0.7-1.3,1.3-2.2,1.5l-0.4,1.7c-1.3,4.9-4,9.3-7.8,12.6l0,0
	c-3.5,3-7.9,4.6-12.5,4.5c-4.7,0-9.2-1.8-12.7-4.9c-3.9-3.6-6.7-8.2-8.1-13.4c-0.1-0.3-0.2-0.7-0.3-1.1c-1.4-0.3-2.6-1.2-3.2-2.5
	c-1.1-1.9-1.8-4.1-2-6.3c-0.1-1.6,0.1-3.2,0.5-4.8c0.4-1.4,0.8-2.7,1.4-4c-0.4-0.2-0.8-0.5-1.2-0.7c-2-1.1-3.6-2.8-4.6-4.9l3.9-1.7
	l0,0c0.7,1.3,1.8,2.4,3.1,3.1c4.7,3,13.1,4.4,21.7,4.4s17.4-1.4,23.1-4c1.9-0.8,3.5-2,4.8-3.7l3.7,2.1
	C90.7,31.2,88.8,32.8,86.5,33.8L86.5,33.8z M41.5,36.1c-1.4,1.4-1.8,3.9-1.7,6.3c0.1,1.4,0.4,2.8,0.8,4.1c0.2,0.9,0.7,1.7,1.4,2.3
	l0,0c0.1,0.1,0.3,0.1,0.4,0.1c0.3-0.1,0.7-0.1,1,0.1c0.3,0.2,0.5,0.4,0.6,0.8c0.2,0.7,0.5,1.4,0.7,2.1c1.4,4.9,4.5,9.2,8.7,12.1
	c2.7,1.8,5.8,2.8,9,2.9c3.1,0,6.2-0.9,8.8-2.7c3.7-2.7,6.4-6.6,7.6-11c0.2-0.7,0.3-1.2,0.5-1.9l0.2-0.8c0.1-0.3,0.3-0.6,0.5-0.8l0,0
	c0.3-0.2,0.6-0.3,0.9-0.2c0.4,0.1,0.8-0.2,1.2-0.7c0.6-0.8,1.2-1.7,1.5-2.6c0.5-1.8,0.6-3.6,0.4-5.5c-0.3-1.7-0.8-3.5-1.4-5.1
	c0-0.1,0-0.2,0-0.2v0C71.8,39.5,53.2,40.2,41.5,36.1L41.5,36.1z"/>
</svg>
