<svg id="Layer_1" data-name="Layer 1" xmlns="http://www.w3.org/2000/svg" viewBox="0 0 36.75 31.25"><defs><style>.cls-1{fill:#f05b22;}</style></defs><title>Artboard 4</title><path class="cls-1" d="M36.73,29.25c-1.11,0-2.23-.08-3.34,0s-1.23-.36-1.14-1.28c.24-2.3.41-4.6.61-6.9.13-1.44-.17-1.84-1.56-1.85q-8.31,0-16.61,0c-1.28,0-1.64.4-1.54,1.68q.27,3.64.65,7.26c.09.81-.09,1.11-1,1.08-1.7-.05-3.39,0-5.09,0-.88,0-1.24-.34-1.26-1.24-.06-2.46.22-3,2.51-3.84.49-.19.44-.52.52-.85.23-1,.41-2,.69-3a3.79,3.79,0,0,1,2.45-2.58c1.84-.72,3.67-1.47,5.47-2.29s1.94-1.29.82-2.78c-2.18-2.91-2-6.12-1.24-9.31C18.17,1.41,19.9.57,21.79.22A16.54,16.54,0,0,1,24.12.15a4.51,4.51,0,0,1,4.75,4.6A7.71,7.71,0,0,0,29,6.11a7.5,7.5,0,0,1-1.14,5.77C26.31,14.2,26.45,14.5,29,15.61c1.36.58,2.71,1.23,4.12,1.68,2.16.69,3,2.3,3.33,4.33a23.65,23.65,0,0,0,.25,2.67Z"/><path class="cls-1" d="M24.33,0a1.7,1.7,0,0,0,0,.22l-2.58,0a.66.66,0,0,1,.06-.2Z"/><path class="cls-1" d="M32,21.71c-.19,2.28-.36,4.45-.56,6.63,0,.34.05.82-.46.88s-.84.19-1-.42-.66-.39-1-.4c-4,0-8,0-12,0-.35,0-.86-.23-1,.45s-.55.38-.89.37-.45-.4-.48-.74c-.15-1.51-.31-3-.45-4.55-.09-1-.15-2-.26-3-.08-.67.09-1,.84-1q8.25,0,16.49,0C32.93,20,31.69,21.25,32,21.71Z"/><path class="cls-1" d="M7.92,1.23a7.32,7.32,0,1,1,0,14.64A7.32,7.32,0,0,1,.48,8.39,7.24,7.24,0,0,1,7.92,1.23Z"/><path class="cls-1" d="M22.91,30.88c-2.35,0-4.7,0-7.06,0-.45,0-1.14.3-1.2-.61s.62-.59,1.08-.75c4-1.45,8.14-.22,12.18-.69,1.23-.15,2,.93,3.2.79.28,0,.31.43.29.72,0,.5-.41.55-.81.55H22.91Z"/><path class="cls-1" d="M11.93,9.17c-1.27,0-2.55,0-3.82.06-.73,0-1-.32-1-1,0-.9,0-1.8,0-2.71,0-.47.17-.79.67-.86s.82.37.88.8a9.87,9.87,0,0,1,0,2c0,.59.19.8.78.78.82,0,1.64,0,2.46,0A.69.69,0,0,1,11.93,9.17Z"/><path class="cls-1" d="M11.93,9.17v-1c.43-.09.86-.08.86.48S12.35,9.25,11.93,9.17Z"/></svg>