<?xml version="1.0" encoding="utf-8"?>
<!-- Generator: Adobe Illustrator 23.1.1, SVG Export Plug-In . SVG Version: 6.00 Build 0)  -->
<svg version="1.1" id="Layer_1" xmlns="http://www.w3.org/2000/svg" xmlns:xlink="http://www.w3.org/1999/xlink" x="0px" y="0px"
	 viewBox="0 0 479.3 479.3" style="enable-background:new 0 0 479.3 479.3;" xml:space="preserve">
<style type="text/css">
	.st0{fill:#F05B22;}
</style>
<title>Setup</title>
<g>
	<path class="st0" d="M405.4,107.7c-4.1-5.2-8.5-5.9-14-2.1c-6.2,4.3-12.4,4-17.1-0.8s-4.8-10.6-0.6-16.7c3.9-5.7,3.3-10-2.3-14.3
		C334,44.5,291.5,29.1,243.9,27.9c-32.8-0.8-65.4,6.1-95,20.3c-5.7,2.7-7.7,7.5-5.4,12.3c2.2,4.7,7.1,6.1,12.6,3.8
		c1.2-0.5,2.5-1.1,3.7-1.6c25.4-11.5,52.1-17.1,82-17.3c39,0.5,76.4,12.2,110.1,35.6c2.7,1.9,3.5,3.4,2.5,6.8
		c-3.2,11.3-0.6,21.4,7.7,29.6s18.2,10.6,29.3,7.4c3.4-1,4.9-0.3,6.8,2.5c29.2,42.5,40.6,89.2,33.5,140.3
		c-4.3,30.9-15.8,58.9-33.7,84.4c-1.6,2.3-3,3.1-6.1,2.4c-4.5-1.1-9.1-1.5-13.7-0.9c-11.6,1.7-19.6,8.6-23.5,19.6
		c-3.7,10.8-1.8,21,5.8,29.7c4.6,5.3,12.6,4,15-2.4c1.3-3.5,0.2-6.6-2-9.6c-4.2-5.8-3.7-12.1,0.9-16.7s10.7-4.8,16.4-1
		c6.5,4.4,10.3,3.7,15.2-2.6c25.8-33,40.9-70.2,44.5-112C455.3,202.6,440.1,152.2,405.4,107.7z"/>
	<path class="st0" d="M315.3,418.6c-1.4,0.5-2.8,1.1-4.2,1.6c-22.9,9.1-46.6,13.5-74.2,13.6c-38-0.4-75.4-12.1-109.2-35.5
		c-2.8-2-3.7-3.6-2.7-7.1c3.2-11.1,0.6-21.1-7.5-29.3s-18.5-10.8-29.7-7.6c-3.2,1-4.7,0.2-6.5-2.3c-47.6-66.5-47.6-158.3-0.2-224.7
		c1.9-2.7,3.5-3.4,6.8-2.4c12.6,3.8,26.2-1.2,33.3-12.2c7.1-10.8,6.5-25-1.4-35.2c-3.9-4.9-9-6-13.2-2.7c-4,3.1-4.4,8.1-1,13.1
		c4.2,6.2,4,12.5-0.8,17.1s-10.7,4.7-16.7,0.6c-5.8-3.9-9.9-3.3-14.3,2.3c-26,33-41.3,70.3-44.9,112.2C24,276.5,39.2,327.1,74,371.7
		c4.1,5.2,8.5,5.8,14,2c6.2-4.2,12.4-4,17,0.8s4.7,10.7,0.6,16.7c-3.8,5.6-3.4,10,2,13.9c8.5,6.1,16.8,12.4,25.9,17.6
		c40.6,23.5,84.4,32.3,131,27.2c19.8-2.2,39.1-7.3,57.4-15.1c5.2-2.2,7.3-6.9,5.4-11.7S320.6,416.8,315.3,418.6z"/>
	<path class="st0" d="M64.8,387.9c-14.6,0-26.4,11.9-26.4,26.5c0,14.6,11.9,26.4,26.5,26.4s26.4-11.9,26.4-26.5
		C91.3,399.7,79.4,387.8,64.8,387.9z M64.8,423.2c-4.9,0-8.8-4-8.7-8.9c0-4.9,4-8.8,8.9-8.7c4.8,0,8.7,3.9,8.7,8.8
		C73.7,419.2,69.7,423.2,64.8,423.2L64.8,423.2z"/>
	<path class="st0" d="M414.7,91.1c14.6,0,26.4-11.9,26.4-26.5c0-14.6-11.9-26.4-26.5-26.4l0,0c-14.6,0-26.4,11.9-26.4,26.5
		C388.2,79.3,400.1,91.1,414.7,91.1z M414.5,55.9c4.9-0.1,8.9,3.8,9,8.6s-3.8,8.9-8.6,9c-4.9,0.1-8.9-3.8-9-8.6c0-0.1,0-0.2,0-0.4
		C406,59.8,409.8,56.1,414.5,55.9L414.5,55.9z"/>
	<path class="st0" d="M54.5,107.2c4.8-0.2,8.6-4.2,8.4-9c-0.2-4.8-4.2-8.6-9-8.4c-4.8,0.2-8.5,4.1-8.4,8.9c0.1,4.8,4,8.6,8.8,8.6
		C54.4,107.2,54.4,107.2,54.5,107.2z"/>
	<path class="st0" d="M380.9,416.3c-4.9,0-8.8,3.9-8.8,8.8c0,4.9,3.9,8.8,8.8,8.8c4.9,0,8.8-3.9,8.8-8.8c0,0,0-0.1,0-0.1
		c0.1-4.8-3.8-8.7-8.5-8.7C381,416.3,380.9,416.3,380.9,416.3z"/>
	<path class="st0" d="M81,63c4.8-0.1,8.7-4.2,8.6-9s-4.2-8.7-9-8.6c-4.8,0.1-8.7,4.1-8.6,9C72.1,59.3,76.2,63.1,81,63z"/>
	<path class="st0" d="M425.2,389.8c-4.8,0-8.8,3.9-8.8,8.8c0,4.7,3.7,8.5,8.4,8.8c4.8,0.2,9-3.5,9.2-8.4s-3.5-9-8.4-9.2
		C425.5,389.8,425.4,389.8,425.2,389.8z"/>
	<path class="st0" d="M360,327.1c-5.6-9-11.2-18-17-26.9c-1.4-2.1-1.4-3.8-0.3-6.1c3-6.6,5.8-13.4,8.4-20.2c0.9-2.3,1.9-3.6,4.5-4.1
		c10.4-2.1,20.7-4.5,31-6.9c7.4-1.7,9.3-4.1,9.3-11.8c0-3.9,0-7.8,0-11.7l0,0c0-4,0-8.1,0-12.1c0-6.8-2.1-9.4-8.7-10.9
		c-10.5-2.4-20.9-4.8-31.5-7c-2.6-0.5-3.7-1.7-4.6-4c-2.6-6.8-5.3-13.6-8.4-20.2c-1.2-2-1-4.6,0.5-6.5c6-9.1,11.8-18.4,17.5-27.6
		c3.2-5,2.7-8.6-1.4-12.9c-5.9-6-11.8-11.9-17.8-17.8c-4.8-4.8-8.2-5.1-13.9-1.5c-9.1,5.7-18.2,11.5-27.2,17.3
		c-1.7,1.4-4.1,1.6-6,0.4c-6.7-3.1-13.8-5.7-20.5-8.8c-1.7-0.8-3-2.3-3.7-4.1c-2.6-10.6-4.9-21.2-7.3-31.8
		c-1.4-6.3-4.1-8.5-10.6-8.6c-8.2-0.1-16.4-0.1-24.7,0c-7.1,0-9.6,2.1-11.1,9c-2.4,10.5-4.6,21-7.2,31.4c-0.6,1.8-1.9,3.3-3.6,4.2
		c-6.8,3.1-13.8,5.6-20.6,8.7c-1.9,1.1-4.3,0.9-6.1-0.4c-9.1-5.9-18.3-11.8-27.6-17.5c-5.3-3.3-8.8-2.9-13.2,1.4
		c-6,5.9-11.9,11.8-17.8,17.8c-4.6,4.6-5,8.1-1.5,13.6c5.7,9.1,11.4,18.3,17.3,27.2c1.7,2.5,1.4,4.3,0.2,6.9
		c-2.9,6.2-5.5,12.6-7.9,19c-1,2.7-2,4.4-5.2,5c-10.1,2-20.1,4.4-30.2,6.7c-7.7,1.7-9.6,3.9-9.6,12c0,7.8,0,15.5,0,23.3
		c0,7.3,2.1,9.8,9.3,11.4c10.3,2.3,20.6,4.8,31,6.9c2.7,0.5,3.6,1.8,4.5,4.1c2.6,6.8,5.4,13.6,8.4,20.2c1.1,2.3,1.1,4-0.3,6.1
		c-5.9,9-11.6,18.1-17.3,27.2c-3.7,5.8-3.3,9.1,1.4,13.9c5.8,5.8,11.6,11.6,17.4,17.4c4.7,4.6,8,5.1,13.6,1.6
		c9.2-5.8,18.4-11.6,27.6-17.5c2.1-1.4,3.8-1.3,6.1-0.3c6.8,3.1,13.8,5.6,20.6,8.7c1.6,0.8,2.9,2.1,3.4,3.8
		c2.6,10.7,4.9,21.5,7.4,32.3c1.4,6.1,4.1,8.3,10.3,8.4c8.2,0.1,16.4,0.1,24.7,0c7.3,0,9.8-2,11.4-9.2c2.4-10.5,4.6-21,7.2-31.4
		c0.6-1.7,1.8-3,3.4-3.8c6.9-3.1,14-6,21.1-8.7c1.8-0.6,3.8-0.5,5.5,0.4c9.2,5.5,18.2,11.4,27.3,17.1c5.9,3.7,9.2,3.4,14.3-1.7
		c5.6-5.6,11.2-11.2,16.8-16.8C363.7,336.6,364,333.5,360,327.1z M281.6,266.1h-26.4c-3.1,0-6.4-0.2-6.5-4.3s3-4.5,6.2-4.5
		c11.9,0,23.8,0,35.8,0C289.6,265,288.4,266.2,281.6,266.1L281.6,266.1z M293.9,239.6c-12.9,0-25.9,0-38.8,0c-2.7-0.1-5.4,0.2-8,0.8
		c-11.7,3.1-18.7,15.1-15.6,26.8c2.5,9.4,10.9,16,20.6,16.3c6,0.1,12.1,0,18.7,0c-10.7,11.1-35.8,13.8-52.9,6.2
		c-20.2-9-34.2-30.2-32.7-50.2c11.2,0,22.1,0.2,33-0.1c12.1-0.4,21.6-10.6,21.2-22.8c-0.4-9.9-7.2-18.3-16.9-20.6
		c-1.1-0.2-2.2-0.4-3.3-0.5c-3.3-0.3-6.7-0.2-10-0.4l0,0c5.1-5.7,16.3-9.8,28.4-10.3c1.2-0.1,2.4-0.1,3.7,0s2.5,0.1,3.7,0.2
		s2.5,0.2,3.7,0.4c3.7,0.5,7.3,1.5,10.8,2.9C280.1,196.7,296.2,220,293.9,239.6L293.9,239.6z M197.9,213.1c6.1,0,12.2,0,18.4,0
		c3,0,5.5,0.9,5.5,4.4s-2.5,4.4-5.5,4.4c-8.8,0-17.6,0-26.4-0.1c-0.4-0.1-0.8-0.2-1.2-0.4C189.9,214.1,191,213.2,197.9,213.1
		L197.9,213.1z"/>
</g>
</svg>
