<?xml version="1.0" encoding="utf-8"?>
<!-- Generator: Adobe Illustrator 23.1.1, SVG Export Plug-In . SVG Version: 6.00 Build 0)  -->
<svg version="1.1" id="Layer_1" xmlns="http://www.w3.org/2000/svg" xmlns:xlink="http://www.w3.org/1999/xlink" x="0px" y="0px"
	 viewBox="0 0 1417.3 1417.3" style="enable-background:new 0 0 1417.3 1417.3;" xml:space="preserve">
<style type="text/css">
	.st0{fill:#F05B22;}
</style>
<title>Customer</title>
<path class="st0" d="M482,553c0.3,0,0.5,0.5,0.8,0.9l0,0C482.6,553.6,482.3,553,482,553z"/>
<path class="st0" d="M833.2,1289.7c4.5-3.3,6.4-6.8,6.4-12.6c-0.2-91.2-0.1-182.5-0.2-273.7c-0.2-4.4,1.6-8.7,4.9-11.7
	c39.8-39.6,79.5-79.5,119.4-119c5.1-5,7.3-10.2,7.9-17.2c3.8-40.8,8-81.6,12.1-122.4c4.1-41,8-82,12.3-123c0.5-5.2-1.2-6.9-5.8-8.4
	c-69.6-22-140.4-37.9-213-45.9c-51-5.7-102.5-5.5-153.4,0.6c-65.5,7.9-130,22.6-192.5,43.8c-13,4.4-10.8,1.3-9.4,14.9
	c7.9,81.2,16,162.3,24.4,243.4c0.5,4.3,2.4,8.4,5.4,11.5c40.1,40.5,80.5,80.9,121,121c3.6,3.3,5.5,8,5.3,12.8
	c-0.2,91.4-0.2,182.9,0,274.3c0,3,1.2,7,3.3,8.7c24.7,20,52.2,34.8,82.8,43.3c10,2.8,20.3,4.4,30.5,6.5h28.2c0.7-0.4,1.5-0.8,2.3-1
	C765.6,1331.1,800.8,1313.6,833.2,1289.7z"/>
<path class="st0" d="M917.8,290C918,174.6,824.7,80.8,709.2,80.5c-115.7-0.4-209.4,93-209.8,209c-0.4,115.5,93.3,209.6,209,209.9
	C823.9,499.6,917.8,405.8,917.8,290z"/>
<path class="st0" d="M482,553c-3-0.3-5.9-0.6-8.9-0.7c-96.1-3.8-188.5,13.8-278.2,47.7c-10.2,3.9-10,3.9-8.9,14.5
	c4.2,41.2,8.3,82.4,12.4,123.6c4.1,40.8,8.1,81.6,12.5,122.3c0.6,3.7,2.3,7.1,4.9,9.7c40.3,40.6,80.8,81.1,121.4,121.4
	c3.3,3,5.1,7.2,4.9,11.7c-0.2,56.8-0.1,113.6,0.1,170.5c0.1,4.1,1.5,8.2,4.1,11.4c21.7,26.9,50.1,42.3,84.3,45.9
	c46.7,4.9,86.3-9.7,116.9-46.1c2.5-3.3,3.9-7.3,4-11.5c0.2-56.8,0.1-113.7,0.3-170.5c0.1-4.2-1.6-8.3-4.7-11.1
	c-40.8-40.6-81.4-81.2-121.9-121.9c-2.1-2.1-4.3-5.1-4.6-7.9c-3.7-38.9-7.1-77.8-10.6-116.7c-3.6-40-7.3-80-11-119.9
	c-1.4-15.7-2.8-31.4-4.2-48.1l88.3-23.4C482.6,553.6,482.3,553,482,553z"/>
<path class="st0" d="M482.8,553.9L482.8,553.9l-88.3,23.4L482.8,553.9z"/>
<path class="st0" d="M1226,601.2c-91.6-34.8-186.1-53-284.4-48.8c-4,0.2-7.9,0.7-13.5,1.1l94.5,23.6c0,2.4,0.1,3.7,0,4.9
	c-3.5,38.3-6.9,76.6-10.4,114.8c-4.9,54-10,108-14.8,162c-0.2,4.4-2.1,8.6-5.3,11.6c-40.7,40.5-81.4,81.2-121.9,121.9
	c-2.5,2.7-4,6.2-4.2,9.8c-0.3,57.2-0.3,114.5,0,171.8c0,3.6,1.1,7,3.2,9.9c48.8,64.4,155.4,63.9,203.6-0.9c1.7-2.6,2.6-5.7,2.5-8.8
	c0.2-57,0.2-114.1,0-171.1c-0.1-4.4,1.7-8.7,5-11.6c40.6-40.4,81-80.9,121.3-121.5c2.6-2.6,4.3-6,4.9-9.7
	c3.7-34.2,7-68.4,10.4-102.6c4.9-49.1,9.9-98.1,14.9-147.2C1232.2,605.6,1231,603.1,1226,601.2z"/>
<path class="st0" d="M477.8,336.4c-11.9-59.1-1.6-114.5,28.4-167c-73.7-27.4-171.6-1.2-219.4,83.7c-46.1,81.7-22,185.8,56.1,239.9
	c76.8,53.2,172.7,35.9,225-14.3C520.7,442,489.6,395.2,477.8,336.4z"/>
<path class="st0" d="M1079.8,489.1c75.7-56.1,96.3-160.5,47.6-241.1c-50.2-83.2-146.9-104.6-216-78.5c66.2,112.2,26,245-62,309.3
	C907.3,532.7,1005.3,544.7,1079.8,489.1z"/>
</svg>
