<?xml version="1.0" encoding="utf-8"?>
<!-- Generator: Adobe Illustrator 23.1.1, SVG Export Plug-In . SVG Version: 6.00 Build 0)  -->
<svg version="1.1" id="Layer_1" xmlns="http://www.w3.org/2000/svg" xmlns:xlink="http://www.w3.org/1999/xlink" x="0px" y="0px"
	 viewBox="0 0 15.4 13.7" style="enable-background:new 0 0 15.4 13.7;" xml:space="preserve">
<style type="text/css">
	.st0{fill:#F05B22;}
</style>
<title>Systems</title>
<g id="dkybg2.tif">
	<path class="st0" d="M15.4,13.3c-0.1,0.3-0.4,0.4-0.7,0.4h-3c-0.5,0-0.7-0.1-0.7-0.7V9.9c0-0.5,0.2-0.7,0.7-0.7h0.9h0.1V7.7H8.2
		v1.5h1.1c0.3,0,0.5,0.1,0.6,0.4c0,0.1,0,0.1,0,0.2v3.3c0,0.3-0.2,0.5-0.4,0.6c0,0-0.1,0-0.1,0H6c-0.3,0-0.5-0.2-0.6-0.4
		c0,0,0-0.1,0-0.1V9.8c0-0.4,0.2-0.6,0.6-0.6h1V7.7H2.8v1.5h1c0.5,0,0.6,0.2,0.6,0.6c0,1.1,0,2.2,0,3.2c0,0.3-0.2,0.5-0.4,0.6
		c0,0-0.1,0-0.1,0H0.6c-0.3,0-0.5-0.2-0.6-0.4c0,0,0-0.1,0-0.1V9.8c0-0.3,0.1-0.5,0.4-0.6c0.1,0,0.1,0,0.2,0h1.1V7.3
		c0-0.5,0.1-0.7,0.7-0.7h4.8V5.1H4.2C3.5,5.1,3.4,5,3.4,4.3V0.7C3.4,0.1,3.6,0,4.1,0h7.1C11.8,0,12,0.1,12,0.7c0,1.3,0,2.5,0,3.7
		c0,0.5-0.1,0.7-0.7,0.7h-3v1.5H13c0.5,0,0.7,0.2,0.7,0.7s0,1.2,0,1.8c0.6,0.2,1.2-0.2,1.7,0.3L15.4,13.3z M10.9,1H4.5v3h6.5V1z
		 M3.4,10.3H1v2.3h2.4V10.3z M6.5,10.3v2.3h2.3v-2.3H6.5z M12,12.6h2.4v-2.3H12V12.6z"/>
</g>
</svg>
