<svg id="Layer_1" data-name="Layer 1" xmlns="http://www.w3.org/2000/svg" viewBox="0 0 36.25 36"><defs><style>.cls-1{fill:#f05b22;}</style></defs><title>Artboard 9</title><path class="cls-1" d="M18.07,35.17a17,17,0,0,1-17.18-17,17.14,17.14,0,1,1,34.28,0C35.14,27,27.74,35.36,18.07,35.17Zm0-32.75A15.68,15.68,0,1,0,33.75,18.07,15.7,15.7,0,0,0,18.11,2.42Z"/><path class="cls-1" d="M27.4,9.86v3.8c0,4.6,0,9.2,0,13.8,0,.9-.28,1.15-1.16,1.14-5.52,0-11,0-16.55,0-.66,0-1.13,0-1.13-.92,0-5.76,0-11.51,0-17.27a3.36,3.36,0,0,1,.08-.54h2.79c.18,1.44.34,3,2.3,3,1.35,0,1.86-.63,2.42-3h3.62C20.4,12.32,21,13,22.37,12.89s1.81-.72,2.17-3Zm-9.31,3.88c-2.51,0-5,0-7.55,0-.83,0-1.12.3-1.12,1.12,0,3.88,0,7.75,0,11.63,0,.87.3,1.21,1.18,1.21q7.43,0,14.85,0c.82,0,1.12-.31,1.12-1.14,0-3.87,0-7.75,0-11.63,0-1-.41-1.21-1.29-1.19C22.88,13.77,20.49,13.74,18.09,13.74Z"/><path class="cls-1" d="M15.39,9.79a5.85,5.85,0,0,1-.71,1.78,1.22,1.22,0,0,1-1.89-.07,3.65,3.65,0,0,1,0-3.37A1.18,1.18,0,0,1,14.64,8,6.07,6.07,0,0,1,15.39,9.79Z"/><path class="cls-1" d="M23.57,9.81a7.53,7.53,0,0,1,0,.95,1.35,1.35,0,0,1-2.07,1c-1-.61-1-3.29.05-3.89a1.33,1.33,0,0,1,2,.91,7.63,7.63,0,0,1,0,1.07Z"/><path class="cls-1" d="M16.85,23.51h2.21a4.54,4.54,0,0,1-.37,1.68,1.35,1.35,0,0,1-1.32,0C17,24.85,17,24.2,16.85,23.51Z"/><path class="cls-1" d="M22.19,23.52h2.13c-.1.62,0,1.3-.33,1.65a1.42,1.42,0,0,1-1.41,0C22.27,24.85,22.32,24.16,22.19,23.52Z"/><path class="cls-1" d="M12.56,17l1.88-1.73.38.38a18.91,18.91,0,0,1-2.14,2.06c-.18.13-.87-.43-1.32-.66l.19-.39Z"/><path class="cls-1" d="M16.76,16.49c1.7,1.25,1.91-1.13,3.32-.91a23.12,23.12,0,0,1-2.2,2.12c-.13.1-.81-.51-1.23-.79Z"/><path class="cls-1" d="M22.88,21.76l-1.17-1.08,0-.42c1.73,1.16,2-1,3.15-1.17l.22.26Z"/><path class="cls-1" d="M21.86,16.5c1.72,1.28,1.89-1.23,3.35-.91a17.22,17.22,0,0,1-2.14,2.05c-.21.15-.9-.4-1.37-.63Z"/><path class="cls-1" d="M12.34,21.65l-1-1c1.72.59,2-1.14,3-1.65C14.61,19.61,13.94,20.52,12.34,21.65Z"/><path class="cls-1" d="M17.72,21.78l-1.07-1.14c1.74.83,1.94-1.48,3.35-1.27Z"/><path class="cls-1" d="M14.68,23.17l-2.2,2.35-1.11-1.05V24.1C13.08,25.26,13.31,23,14.68,23.17Z"/></svg>