<svg id="Layer_1" data-name="Layer 1" xmlns="http://www.w3.org/2000/svg" viewBox="0 0 61.75 71.5"><defs><style>.cls-1{fill:#f05b22;}</style></defs><title>Artboard 3</title><path class="cls-1" d="M14.19,71.5c-1.79-.27-3.61-.41-5.37-.84C6.22,70,3.65,69.22,1.1,68.4a1.63,1.63,0,0,1-.84-1.13c-.53-3.19.74-5.41,3.61-6.92,2.08-1.1,4-2.45,6-3.74a8,8,0,0,0,3.26-8.54A6,6,0,0,0,12,46.39c-.88-1.14-1.83-2.23-2.63-3.42a16,16,0,0,1-1.73-3.13,6.78,6.78,0,0,1,.23-5.06,8,8,0,0,0,.66-2.72c0-4,1.72-6.27,5.61-7.21A8.36,8.36,0,0,1,20.88,26a5.34,5.34,0,0,1,2.76,5.08,6.46,6.46,0,0,0,1,4.34,4.14,4.14,0,0,1-.17,4.39c-.52.78-.86,1.68-1.35,2.49a13.3,13.3,0,0,1-2.33,3.46A4.85,4.85,0,0,0,19,49.9,7.53,7.53,0,0,0,22.75,57c2.21,1.31,4.38,2.69,6.58,4,2.83,1.71,2.75,4,2.39,6.63-.06.4-.77.84-1.27,1a38.53,38.53,0,0,1-11.21,2.55,8.75,8.75,0,0,0-1.31.28Z"/><path class="cls-1" d="M61.18,31.5c0,9,0,17.91,0,26.87a6.52,6.52,0,0,1-.51,2.52c-.64,1.4-2,1.64-3.37,1.63H45.7c-3,0-6.05,0-9.08,0a2,2,0,0,1-1.83-1.13,13.4,13.4,0,0,0-3.08-3.33c-2.29-1.64-4.76-3-7.15-4.52A3.53,3.53,0,0,1,22.72,50a2.69,2.69,0,0,1,.4-1.13,67.85,67.85,0,0,1,4-6.11c1.73-2.16,1.69-4.56,1.55-7.06a2.18,2.18,0,0,0-.18-.84A19.29,19.29,0,0,1,27,29.14c-.75-4.3-3.65-6.56-7.61-7.63-1.13-.31-1.6-.75-1.45-1.94s-.25-2.66.34-3.33,2.1-.23,3.22-.26c1.86-.06,3.72-.08,5.59-.16,3.72-.17,6.35-3.22,6.45-7.5.05-2.25,0-4.5,0-6.75,0-1,.3-1.3,1.29-1.29,7.46,0,14.93,0,22.4,0,2.59,0,3.9,1.34,3.91,3.94,0,6.34,0,12.67,0,19ZM52.6,18a5.73,5.73,0,0,0-2.92-4.78,2.25,2.25,0,0,1-1.45-2.32,2.76,2.76,0,0,0-.11-.74,1.7,1.7,0,0,0-3.36.08,4.82,4.82,0,0,0-.14,1,1.83,1.83,0,0,1-1.17,1.84,5.88,5.88,0,0,0-3,6.4A6.1,6.1,0,0,0,46,24.57a5.91,5.91,0,0,1,1.33.26A2.25,2.25,0,0,1,49,27.07a2.49,2.49,0,0,1-1.69,2.39c-1.59.62-2.85-.28-3.37-2.42-.31-1.3-1-1.85-2.06-1.67a1.93,1.93,0,0,0-1.54,2.22,5.16,5.16,0,0,0,2.19,4.16c1.41.88,2.31,1.83,2.31,3.59a1.37,1.37,0,0,0,1.6,1.38,3.81,3.81,0,0,0,1.67-1.23,1.36,1.36,0,0,0,.19-1,2.12,2.12,0,0,1,1.37-2.23,5.88,5.88,0,0,0,2.93-5.89A6,6,0,0,0,48,21.19c-.59-.16-1.22-.18-1.83-.29A2.55,2.55,0,0,1,44,18a2.47,2.47,0,0,1,3.23-1.9c1.32.33,1.55,1.44,1.82,2.57a1.72,1.72,0,0,0,1.92,1.55C52,20.1,52.59,19.3,52.6,18ZM46.38,54.22h0c1.16,0,2.32,0,3.48,0,1.49,0,3-.06,4.47-.14A1.68,1.68,0,0,0,56,52.43a1.71,1.71,0,0,0-1.54-1.82,6.14,6.14,0,0,0-1.35-.15H39.72c-1.86,0-2.88.66-2.9,1.85s.94,1.87,2.85,1.9C41.9,54.25,44.14,54.22,46.38,54.22Zm0-8.75h6.71a7.66,7.66,0,0,0,1.59-.17c.87-.2,1.51-.83,1.33-1.67A3.53,3.53,0,0,0,54.74,42c-.26-.23-.8-.19-1.2-.19-4.72,0-9.45,0-14.17,0-1.59,0-2.51.69-2.55,1.79s.9,1.82,2.58,1.89h7Z"/><path class="cls-1" d="M21.34,12l8.38-8.28c0,1.95.11,4.12,0,6.28a2.12,2.12,0,0,1-2.09,2C25.46,12.06,23.34,12,21.34,12Z"/></svg>