<?xml version="1.0" encoding="utf-8"?>
<!-- Generator: Adobe Illustrator 23.1.1, SVG Export Plug-In . SVG Version: 6.00 Build 0)  -->
<svg version="1.1" id="Layer_35" xmlns="http://www.w3.org/2000/svg" xmlns:xlink="http://www.w3.org/1999/xlink" x="0px" y="0px"
	 viewBox="0 0 512 512" style="enable-background:new 0 0 512 512;" xml:space="preserve">
<style type="text/css">
	.st0{fill:#F05B22;}
</style>
<path class="st0" d="M96,168c39.7,0,72-32.3,72-72s-32.3-72-72-72S24,56.3,24,96S56.3,168,96,168z M136,88h16v16h-16V88z M96,104
	c-13.2,0-24-10.8-24-24V56h16V40h16v17.5c9.3,3.3,16,12.1,16,22.5h-16c0-4.4-3.6-8-8-8h-8v8c0,4.4,3.6,8,8,8c13.2,0,24,10.8,24,24
	v24h-16v16H88v-17.5c-9.3-3.3-16-12.1-16-22.5h16c0,4.4,3.6,8,8,8h8v-8C104,107.6,100.4,104,96,104z M40,88h16v16H40V88z"/>
<path class="st0" d="M344,256c0-57.3-46.7-104-104-104s-104,46.7-104,104s46.7,104,104,104S344,313.3,344,256z M152,256
	c0-48.5,39.5-88,88-88s88,39.5,88,88s-39.5,88-88,88S152,304.5,152,256z"/>
<path class="st0" d="M31.6,427.7c-4.9,4.9-7.6,11.4-7.6,18.3c0,14.3,11.6,25.9,25.9,25.9c6.9,0,13.4-2.7,18.3-7.6l80.4-80.4
	L112,347.3L31.6,427.7z"/>
<path class="st0" d="M149.1,334.2L135.3,348l12.7,12.7l13.8-13.8C157.3,342.9,153.1,338.7,149.1,334.2z"/>
<path class="st0" d="M312,256c0-39.7-32.3-72-72-72s-72,32.3-72,72s32.3,72,72,72S312,295.7,312,256z M280,248h16v16h-16V248z
	 M200,264h-16v-16h16V264z M216,272h16c0,4.4,3.6,8,8,8h8v-8c0-4.4-3.6-8-8-8c-13.2,0-24-10.8-24-24v-24h16v-16h16v17.5
	c9.3,3.3,16,12.1,16,22.5h-16c0-4.4-3.6-8-8-8h-8v8c0,4.4,3.6,8,8,8c13.2,0,24,10.8,24,24v24h-16v16h-16v-17.5
	C222.7,291.2,216,282.4,216,272z"/>
<path class="st0" d="M357.6,280c-7,34.2-28.6,63.1-58,80H424v-80H357.6z"/>
<path class="st0" d="M320,40h80c4.4,0,8-3.6,8-8v-8h-96v8C312,36.4,315.6,40,320,40z"/>
<path class="st0" d="M232,464c0,13.2,10.8,24,24,24h208c13.2,0,24-10.8,24-24v-24H232V464z M328,456h64v16h-64V456z"/>
<path class="st0" d="M464,24h-40v8c0,13.2-10.8,24-24,24h-80c-13.2,0-24-10.8-24-24v-8h-40c-13.2,0-24,10.8-24,24v88.4
	c2.7-0.2,5.3-0.4,8-0.4s5.3,0.2,8,0.4V88c0-8.8,7.2-16,16-16h192c8.8,0,16,7.2,16,16v304c0,8.8-7.2,16-16,16H264
	c-8.8,0-16-7.2-16-16v-16.4c-2.7,0.2-5.3,0.4-8,0.4s-5.3-0.2-8-0.4V424h256V48C488,34.8,477.2,24,464,24z"/>
<path class="st0" d="M264,373.6V392h192V88H264v50.4c54.7,11.2,96,59.6,96,117.6c0,2.7-0.2,5.3-0.4,8H440v112H280v-7
	C274.8,370.8,269.5,372.5,264,373.6z M440,216h-64v-16h64V216z M440,184h-64v-16h64V184z M344,104h96v16h-96V104z M296,120h-16v-16
	h16V120z M328,120h-16v-16h16V120z M344,152v-16h96v16H344z M376,248v-16h64v16H376z"/>
</svg>
