<svg id="Layer_1" data-name="Layer 1" xmlns="http://www.w3.org/2000/svg" viewBox="0 0 34 34.25"><defs><style>.cls-1{fill:#f05b22;}</style></defs><title>Artboard 7</title><path class="cls-1" d="M34,17.37c-.46.31-.9.81-1.4.89A1.81,1.81,0,0,0,31,19.92c-1.42,6-5.21,9.59-11.14,11-.85.21-1.28.5-1.36,1.42a1.31,1.31,0,0,1-1.33,1.36c-1,0-1.34-.68-1.4-1.42-.06-.89-.47-1.15-1.27-1.34-6-1.39-9.77-5.06-11.21-11.07-.2-.8-.39-1.41-1.44-1.44A1.32,1.32,0,0,1,.47,16.86,1.36,1.36,0,0,1,2,15.52c.91,0,1.08-.49,1.24-1.17C4.65,8.2,8.44,4.4,14.62,3c.66-.14,1.11-.35,1.1-1.18A1.32,1.32,0,0,1,17.11.3a1.3,1.3,0,0,1,1.43,1.48c0,.8.39,1.08,1.07,1.23,6.3,1.38,10.11,5.27,11.52,11.51.16.71.53.89,1.1,1.11a14.07,14.07,0,0,1,1.77,1ZM15.4,28.19c.35-.27.76-.81,1-.76.72.13,1.79-.73,2.18.65.05.19.56.41.83.37,4.13-.5,8.57-4.84,9.1-8.89a1.3,1.3,0,0,0-.4-1.1c-1.09-.53-.59-1.45-.58-2.18,0-.38.57-.76,1-1.32-.09-3.79-4.17-8.37-8.53-9.37-1-.23-1.6-.16-1.65,1H15.89L16,6.21c-.47-.23-1-.73-1.41-.67-4.07.61-8.25,4.77-8.93,8.8a1.38,1.38,0,0,0,.15,1c1.32,1.29,1.28,2.55-.19,3.46C5.94,23.54,10.61,28.13,15.4,28.19Z"/><path class="cls-1" d="M16.2,17.22l.93-.81.83.7c.6-.5,1.07-1.17,1.68-1.35a1.25,1.25,0,0,1,1.7,1.37,46.89,46.89,0,0,1-.39,5.3,1.7,1.7,0,0,1-1.26,1c-1.69.13-3.39.06-5.09.05-.92,0-1.32-.54-1.37-1.42-.1-1.48-.2-3-.31-4.44-.07-.85,0-1.61,1-1.89a1.48,1.48,0,0,1,1.89,1A4,4,0,0,0,16.2,17.22Z"/><path class="cls-1" d="M21.84,22.5c.13-1.67.18-3.14.39-4.6a3,3,0,0,1,2.59-2,1.2,1.2,0,0,1,1.38,1.35c-.06,1.35-.24,2.7-.37,4.05a1.15,1.15,0,0,1-1.3,1.16C23.71,22.49,22.9,22.5,21.84,22.5Z"/><path class="cls-1" d="M12.38,22.49a11.8,11.8,0,0,1-2.62,0,1.87,1.87,0,0,1-1.22-1.1,23.92,23.92,0,0,1-.34-4.06c0-1,.79-1.66,1.64-1.25A4.12,4.12,0,0,1,12,18,20.78,20.78,0,0,1,12.38,22.49Z"/><path class="cls-1" d="M19.61,13a2.46,2.46,0,1,1-4.92,0,2.46,2.46,0,1,1,4.92,0Z"/><path class="cls-1" d="M22.82,15.65a2,2,0,0,1-2.13-2.06,2.17,2.17,0,0,1,2.14-2.1A2.19,2.19,0,0,1,25,13.6,2.06,2.06,0,0,1,22.82,15.65Z"/><path class="cls-1" d="M11.36,15.65a2,2,0,0,1-2-2.07,2.09,2.09,0,0,1,2.16-2.09,2.14,2.14,0,0,1,2.06,2.18A2,2,0,0,1,11.36,15.65Z"/></svg>