<?xml version="1.0" encoding="utf-8"?>
<!-- Generator: Adobe Illustrator 23.1.1, SVG Export Plug-In . SVG Version: 6.00 Build 0)  -->
<svg version="1.1" id="Ebene_1" xmlns="http://www.w3.org/2000/svg" xmlns:xlink="http://www.w3.org/1999/xlink" x="0px" y="0px"
	 viewBox="0 0 64 64" style="enable-background:new 0 0 64 64;" xml:space="preserve">
<style type="text/css">
	.st0{fill:#F05B22;}
</style>
<g>
	<path class="st0" d="M2,40h6.6l1.2,3.5l-5.1,5.1c-0.8,0.8-0.8,2,0,2.8l8,8c0.8,0.8,2,0.8,2.8,0l5.1-5.1l3.5,1.2V62c0,1.1,0.9,2,2,2
		h12c1.1,0,2-0.9,2-2v-6.6l3.5-1.2l5.1,5.1c0.8,0.8,2,0.8,2.8,0l8-8c0.8-0.8,0.8-2,0-2.8l-5.1-5.1l1.2-3.5H62c1.1,0,2-0.9,2-2V26
		c0-1.1-0.9-2-2-2h-6.6l-1.2-3.5l5.1-5.1c0.8-0.8,0.8-2,0-2.8l-8-8c-0.8-0.8-2-0.8-2.8,0l-5.1,5.1L40,8.6V2c0-1.1-0.9-2-2-2H26
		c-1.1,0-2,0.9-2,2v6.6l-3.5,1.2l-5.1-5.1c-0.8-0.8-2-0.8-2.8,0l-8,8c-0.8,0.8-0.8,2,0,2.8l5.1,5.1L8.6,24H2c-1.1,0-2,0.9-2,2v12
		C0,39.1,0.9,40,2,40z M4,28h6c0.9,0,1.6-0.6,1.9-1.4l2-6c0.2-0.7,0.1-1.5-0.5-2L8.8,14L14,8.8l4.6,4.6c0.5,0.5,1.3,0.7,2,0.5l6-2
		c0.8-0.3,1.4-1,1.4-1.9V4h8v6c0,0.9,0.6,1.6,1.4,1.9l6,2c0.7,0.2,1.5,0.1,2-0.5L50,8.8l5.2,5.2l-4.6,4.6c-0.5,0.5-0.7,1.3-0.5,2
		l2,6c0.3,0.8,1,1.4,1.9,1.4h6v8h-6c-0.9,0-1.6,0.6-1.9,1.4l-2,6c-0.2,0.7-0.1,1.5,0.5,2l4.6,4.6L50,55.2l-4.6-4.6
		c-0.5-0.5-1.3-0.7-2-0.5l-6,2c-0.8,0.3-1.4,1-1.4,1.9v6h-8v-6c0-0.9-0.6-1.6-1.4-1.9l-6-2c-0.7-0.2-1.5-0.1-2,0.5L14,55.2L8.8,50
		l4.6-4.6c0.5-0.5,0.7-1.3,0.5-2l-2-6c-0.3-0.8-1-1.4-1.9-1.4H4V28z"/>
	<path class="st0" d="M32,40c4.4,0,8-3.6,8-8s-3.6-8-8-8s-8,3.6-8,8S27.6,40,32,40z M32,28c2.2,0,4,1.8,4,4s-1.8,4-4,4s-4-1.8-4-4
		S29.8,28,32,28z"/>
</g>
</svg>
