<?xml version="1.0" encoding="utf-8"?>
<!-- Generator: Adobe Illustrator 23.1.1, SVG Export Plug-In . SVG Version: 6.00 Build 0)  -->
<svg version="1.1" id="Layer_1" xmlns="http://www.w3.org/2000/svg" xmlns:xlink="http://www.w3.org/1999/xlink" x="0px" y="0px"
	 viewBox="0 0 1417.3 1417.3" style="enable-background:new 0 0 1417.3 1417.3;" xml:space="preserve">
<style type="text/css">
	.st0{fill:#F05B22;}
</style>
<title>SYSTEMS</title>
<path class="st0" d="M1292.7,906.6c-29-0.5-58-0.1-89.2-0.1c0-53.9,0.2-103.2,0-152.5c-0.2-45.2-14.1-59.5-58.5-59.5
	c-103.7-0.2-207.3-0.2-311-0.1h-80.5V567.1c86,0,169.5,0.2,253-0.1c39-0.2,55.3-15,55.4-52c0.5-107.2,0.5-214.4,0-321.7
	c-0.2-34-16.1-50.2-49.8-50.3c-202.7-0.4-405.3-0.5-608-0.2c-31.6,0-48.7,15.9-48.9,47.4c-0.4,109.6-0.6,219.1,0.1,328.7
	c0.2,32.6,17.2,47.7,52.1,47.9c74.2,0.5,148.5,0.1,222.7,0.2c11.3,0,22.7,1,33.2,1.5v125.7c-131.2,0-259.6,0-388,0
	c-49.6,0-61.6,12.3-61.7,63c-0.1,49,0,98,0,144.9c-5.7,2.5-6.7,3.3-7.8,3.4c-27.1,0.3-54.2,0.4-81.2,1c-36.6,0.7-52,15.1-52.2,51.1
	c-0.5,88.4-0.5,176.7,0,265.1c0.2,34.3,15.7,50.9,48.9,51.1c89.5,0.7,179.1,0.7,268.6,0c33.5-0.2,49.5-16.6,49.7-50.4
	c0.6-88.4,0.6-176.7,0-265.1c-0.2-35.8-16-51-52-51.7c-29-0.6-58-0.1-86.5-0.1V781.2h363.4v125.4c-30.1,0-57-0.3-84,0.1
	c-40.6,0.5-55.6,14.9-55.8,55c-0.4,86-0.4,172,0,258c0.2,38.5,15.3,54.1,52.9,54.3c87.2,0.5,174.4,0.5,261.6,0
	c36.3-0.2,52.6-15.7,52.8-50.9c0.6-88.4,0.6-176.7,0-265.1c-0.2-36.1-15.7-50.8-52-51.3c-29-0.5-58-0.1-86.5-0.1V781.2h364.9v125.4
	c-31.7,0-58.6-0.3-85.5,0.1c-40.6,0.5-55.6,14.9-55.8,55.1c-0.4,86-0.4,172,0,258c0.2,38.4,15.3,54.1,53,54.3
	c87.2,0.5,174.4,0.5,261.6,0c36.3-0.2,52.6-15.7,52.8-51c0.6-88.4,0.6-176.7,0-265.1C1344.6,921.9,1329.1,907.2,1292.7,906.6z
	 M353.3,993.5v194.3H159.6V993.5H353.3z M442.5,479.5V229.3h532.8v250.2L442.5,479.5z M805.3,994.1v192.3H610.4V994.1H805.3z
	 M1258.3,1186.5h-193.6V992.9h193.6V1186.5z"/>
</svg>
