<?xml version="1.0" encoding="utf-8"?>
<!-- Generator: Adobe Illustrator 23.1.1, SVG Export Plug-In . SVG Version: 6.00 Build 0)  -->
<svg version="1.1" id="Layer_1" xmlns="http://www.w3.org/2000/svg" xmlns:xlink="http://www.w3.org/1999/xlink" x="0px" y="0px"
	 viewBox="0 0 122.9 120" style="enable-background:new 0 0 122.9 120;" xml:space="preserve">
<style type="text/css">
	.st0{fill:#F05B22;}
</style>
<title>timetable</title>
<path class="st0" d="M69.8,4.1C69.8,1.8,72,0,74.7,0s5,1.8,5,4.1v17.7c0,2.2-2.2,4.1-5,4.1s-4.9-1.8-4.9-4.1V4.1z M87.1,75.5
	c-0.1-1.7,1.2-3.2,3-3.3c1.7-0.1,3.2,1.2,3.3,3c0,0.1,0,0.2,0,0.4v13.8h9.9c1.7-0.1,3.2,1.2,3.3,3c0.1,1.7-1.2,3.2-3,3.3
	c-0.1,0-0.2,0-0.4,0h-13c-1.7,0-3.2-1.4-3.2-3.2L87.1,75.5L87.1,75.5z M14.4,78h11.3c0.7,0,1.3,0.6,1.3,1.3v8.4
	c0,0.7-0.6,1.3-1.3,1.3H14.4c-0.7,0-1.3-0.6-1.3-1.3v-8.4C13.1,78.6,13.6,78,14.4,78z M57.8,54.2h11.3c0.3,0,0.7,0.1,0.9,0.4
	c-4.4,2.8-8.3,6.4-11.4,10.6h-0.9c-0.7,0-1.3-0.6-1.3-1.3c0,0,0,0,0,0v-8.4C56.5,54.8,57.1,54.2,57.8,54.2z M36.1,54.2h11.3
	c0.7,0,1.3,0.6,1.3,1.3c0,0,0,0,0,0v8.4c0,0.7-0.6,1.3-1.3,1.3H36.1c-0.7,0-1.3-0.6-1.3-1.3c0,0,0,0,0,0v-8.4
	C34.8,54.8,35.4,54.2,36.1,54.2C36.1,54.2,36.1,54.2,36.1,54.2z M14.4,54.2h11.3c0.7,0,1.3,0.6,1.3,1.3v8.4c0,0.7-0.6,1.3-1.3,1.3
	H14.4c-0.7,0-1.3-0.6-1.3-1.3l0,0v-8.4C13.1,54.8,13.6,54.2,14.4,54.2C14.4,54.2,14.4,54.2,14.4,54.2z M36.1,78h11.3
	c0.7,0,1.3,0.6,1.3,1.3v8.4c0,0.7-0.6,1.3-1.3,1.3H36.1c-0.7,0-1.3-0.6-1.3-1.3v-8.4C34.8,78.6,35.4,78,36.1,78z M103.5,59.5
	c16,6.6,23.6,25,17,41s-25,23.6-41,17c-11.7-4.9-19.4-16.3-19.4-29c0.1-12.8,7.8-24.3,19.5-29.2C87.3,56.4,95.8,56.5,103.5,59.5z
	 M110.1,70.4c-13-13-35-9.3-42.6,7c-6.1,13.2-0.4,28.9,12.8,35s28.9,0.4,35-12.8c3.3-7.2,3.3-15.5-0.2-22.6
	C113.9,74.5,112.2,72.3,110.1,70.4L110.1,70.4z M25.3,4.1c0-2.2,2.2-4.1,5-4.1s4.9,1.8,4.9,4.1v17.7c0,2.2-2.2,4.1-5,4.1
	s-5-1.8-5-4.1C25.3,21.8,25.3,4.1,25.3,4.1z M99.7,38.8V18.4c0-0.7-0.3-1.3-0.7-1.8c-0.5-0.5-1.1-0.7-1.8-0.7h-9
	c-1.5,0-2.7-1.2-2.7-2.7c0-1.5,1.2-2.7,2.7-2.7c0,0,0,0,0,0h9c4.4,0,8,3.6,8,8v32.4c-1.8-0.6-3.7-1.1-5.6-1.5v-5.1H5.4v52.9
	c0,0.7,0.3,1.3,0.7,1.8c0.5,0.5,1.1,0.7,1.8,0.7h44.8c0.5,1.9,1.1,3.7,1.9,5.5H8c-4.4,0-8-3.6-8-8V18.4c0-4.4,3.6-8,8-8h9.6
	c1.5,0,2.7,1.2,2.7,2.7c0,1.5-1.2,2.7-2.7,2.7c0,0,0,0,0,0H8c-0.7,0-1.3,0.3-1.8,0.7c-0.5,0.5-0.7,1.1-0.7,1.8v20.4H99.7z
	 M43.1,15.9c-1.5,0-2.7-1.2-2.7-2.7s1.2-2.7,2.7-2.7h18.4c1.5,0,2.7,1.2,2.7,2.7c0,1.5-1.2,2.7-2.7,2.7c0,0,0,0,0,0L43.1,15.9z"/>
</svg>
