<?xml version="1.0" encoding="utf-8"?>
<!-- Generator: Adobe Illustrator 23.1.1, SVG Export Plug-In . SVG Version: 6.00 Build 0)  -->
<svg version="1.1" id="Layer_1" xmlns="http://www.w3.org/2000/svg" xmlns:xlink="http://www.w3.org/1999/xlink" x="0px" y="0px"
	 viewBox="0 0 122.9 103" style="enable-background:new 0 0 122.9 103;" xml:space="preserve">
<style type="text/css">
	.st0{fill:#F05B22;}
</style>
<g>
	<path class="st0" d="M10.3,12.1c-1.1,0-2.1-0.9-2.1-2.1s0.9-2.1,2.1-2.1h54.9V2.1c0-1.2,0.9-2.1,2.1-2.1s2.1,0.9,2.1,2.1v5.8h51.1
		c1.2,0,2.1,0.9,2.1,2.1s-0.9,2.1-2.1,2.1h-4.8v59.4h5c1.2,0,2.1,0.9,2.1,2.1s-0.9,2.1-2.1,2.1H69.8v9.2c0.1,0.1,0.2,0.1,0.3,0.2
		l12.6,12c0.8,0.8,0.9,2.1,0.1,2.9s-2.1,0.9-2.9,0.1l-10-9.6v10.5c0,1.2-0.9,2.1-2.1,2.1s-2.1-0.9-2.1-2.1V90.1L55.1,100
		c-0.8,0.8-2.1,0.8-2.9-0.1s-0.8-2.1,0.1-2.9l12.6-12c0.2-0.2,0.4-0.3,0.7-0.4v-9h-28c-1.2,0-2.1-0.9-2.1-2.1s0.9-2.1,2.1-2.1h74.1
		V12.1H10.3L10.3,12.1z M0,51.8c-0.3-5.8,4.4-7.2,10.9-6.9l8.1,9l7.9-8.9L46.5,45c7.4,0.8,5.9,8.6,0,8.9H33.7l-3,18.2l-2.3,18.5
		c-0.6,1.9-1.8,3.2-3.5,3.9l-11.2,0.1c-2.2-0.3-3.6-1.7-4-4L7.9,74.1c-4.6,0.4-6.1-2.8-6.6-7.5L0,51.8L0,51.8z M18.5,20.4
		c5.5,0,10,4.5,10,10c0,5.5-4.5,10-10,10c-5.5,0-10-4.5-10-10C8.5,24.8,13,20.4,18.5,20.4L18.5,20.4z M18.9,49.7l-6.3-6.9l1.9-1.5
		c2.7,1.1,5.4,1.2,8.1,0l2.5,1.5L18.9,49.7L18.9,49.7z"/>
</g>
</svg>
