<svg id="Layer_1" data-name="Layer 1" xmlns="http://www.w3.org/2000/svg" viewBox="0 0 32.75 27.25"><defs><style>.cls-1{fill:#f05b22;}</style></defs><title>Artboard 2</title><path class="cls-1" d="M32.09,24.8A3,3,0,0,1,29,26.27c-8.41,0-16.82,0-25.22,0-1.75,0-2.14-.28-2.56-1.83.43,0,.84-.11,1.25-.11,2.46,0,4.92,0,7.38,0,1.14,0,2.37-.33,3.35.68.17.17.61.11.92.11,1.43,0,2.86.07,4.28,0a11.44,11.44,0,0,0,2.16-.61,3.7,3.7,0,0,1,.92-.16H32.09Z"/><path class="cls-1" d="M3.13,23.62c0-5.05,0-10,0-15,0-1,.53-1.43,1.51-1.42a32.5,32.5,0,0,0,3.56,0,1.49,1.49,0,0,0,1.05-.8C10.47,2.77,13.05.82,16.66.83a7.28,7.28,0,0,1,7.2,5.45,1.07,1.07,0,0,0,1.26.9c1.15,0,2.3,0,3.45,0A1.2,1.2,0,0,1,30,8.55q0,7.18,0,14.37c0,.56-.17.87-.82.87q-12.78,0-25.56,0A2.52,2.52,0,0,1,3.13,23.62Zm13.38-1.35H26.74c1.79,0,1.85-.06,1.85-1.9V11.7c0-3.35.31-3.09-3.17-3.13-.93,0-1.33.27-1.49,1.21a6.7,6.7,0,0,1-4.13,5.28c-1.55.66-3.19,1.06-4.34,2.42a1.16,1.16,0,0,1-.62.32c-.33.09-.86.24-1,.11a1.25,1.25,0,0,1-.17-1.05c.36-1,0-1.6-.93-2.09a6.76,6.76,0,0,1-3.31-4c-.71-2.17-.72-2.17-3-2.16H6C5,8.53,4.6,9,4.61,10c0,3.6,0,7.2,0,10.81,0,1.07.34,1.48,1.43,1.46C9.53,22.24,13,22.27,16.51,22.27ZM14.7,16.7l.29,0a14.41,14.41,0,0,1,1.16-1.06,3.36,3.36,0,0,1,1.34-.76,6.88,6.88,0,0,0,5.83-6.65,6.92,6.92,0,0,0-5.53-6.56A6.76,6.76,0,0,0,10.38,5.8a6.51,6.51,0,0,0,2.52,8C14,14.51,15,15.11,14.7,16.7Z"/><path class="cls-1" d="M21.15,7.18a9.17,9.17,0,0,1-9.11,0A9.37,9.37,0,0,1,21.15,7.18Z"/><path class="cls-1" d="M13.72,8.31a6.51,6.51,0,0,0,5.91-.13c.61,2,.4,2.47-1.51,2.8a8.38,8.38,0,0,1-2.69,0C13.51,10.7,13.42,10.49,13.72,8.31Z"/></svg>