<?xml version="1.0" encoding="utf-8"?>
<!-- Generator: Adobe Illustrator 23.1.1, SVG Export Plug-In . SVG Version: 6.00 Build 0)  -->
<svg version="1.1"
	 id="svg2" xmlns:cc="http://creativecommons.org/ns#" xmlns:dc="http://purl.org/dc/elements/1.1/" xmlns:inkscape="http://www.inkscape.org/namespaces/inkscape" xmlns:rdf="http://www.w3.org/1999/02/22-rdf-syntax-ns#" xmlns:sodipodi="http://sodipodi.sourceforge.net/DTD/sodipodi-0.dtd" xmlns:svg="http://www.w3.org/2000/svg"
	 xmlns="http://www.w3.org/2000/svg" xmlns:xlink="http://www.w3.org/1999/xlink" x="0px" y="0px" viewBox="0 0 32 32"
	 style="enable-background:new 0 0 32 32;" xml:space="preserve">
<style type="text/css">
	.st0{fill:#F05B22;}
</style>
<sodipodi:namedview  bordercolor="#666666" borderopacity="1" gridtolerance="10" guidetolerance="10" id="namedview3378" inkscape:current-layer="svg2" inkscape:cx="16" inkscape:cy="16" inkscape:pageopacity="0" inkscape:pageshadow="2" inkscape:window-height="480" inkscape:window-maximized="0" inkscape:window-width="640" inkscape:window-x="53" inkscape:window-y="24" inkscape:zoom="7.375" objecttolerance="10" pagecolor="#ffffff" showgrid="false">
	</sodipodi:namedview>
<path id="path3376" class="st0" d="M26.1,22c0-0.1,0-0.3,0-0.4c0-0.7-0.1-1.5-0.6-2.3C25.1,18.6,24.2,18,23,18
	c-1.2,0-2.1,0.6-2.6,1.3c-0.5,0.8-0.6,1.6-0.6,2.3c0,0.1,0,0.3,0,0.4H19v5h8v-5H26.1z M21.8,21.6c0-0.5,0.1-1,0.3-1.2
	c0.2-0.2,0.3-0.4,0.9-0.4c0.6,0,0.7,0.2,0.9,0.4c0.2,0.2,0.3,0.7,0.3,1.2c0,0.1,0,0.3,0,0.4h-2.3C21.8,21.9,21.8,21.7,21.8,21.6z
	 M22.4,7.5c0.1,0,0.1,0.1,0.2,0.1C23,7.9,23.5,8,24,8c1.7,0,3-1.3,3-3s-1.3-3-3-3s-3,1.3-3,3C21,6.1,21.6,7,22.4,7.5z M8,20
	c0-2,0-10,0-10s0-0.4,0.2-1C6.2,9,4,9,4,9s-2,0-2,2v7c0,2,2,2,2,2v10h6v-8C10,22,8,22,8,20z M16,8c1.7,0,3-1.3,3-3s-1.3-3-3-3
	s-3,1.3-3,3S14.3,8,16,8z M8,8c0.5,0,1-0.1,1.4-0.4c0.1,0,0.1-0.1,0.2-0.1C10.4,7,11,6.1,11,5c0-1.7-1.3-3-3-3S5,3.3,5,5S6.3,8,8,8z
	 M30,17.3c0-2.3,0-6.4,0-6.4s0-2-2-2h-4.2C24,9.5,24,10,24,10s0,1.9,0,4.1c-0.3,0-0.7-0.1-1-0.1s-0.7,0-1,0.1c0-1.6,0-3.1,0-3.1
	s0-2-2-2c-0.5,0-8,0-8,0s-2,0-2,2v7c0,2,2,2,2,2v10h5.4c1.5,1.2,3.5,2,5.6,2c5,0,9-4,9-9C32,20.9,31.2,18.9,30,17.3z M23,30
	c-3.9,0-7-3.1-7-7c0-3.9,3.1-7,7-7c3.9,0,7,3.1,7,7C30,26.9,26.9,30,23,30z"/>
</svg>
