<?xml version="1.0" encoding="utf-8"?>
<!-- Generator: Adobe Illustrator 23.1.1, SVG Export Plug-In . SVG Version: 6.00 Build 0)  -->
<svg version="1.1" id="Layer_1" xmlns="http://www.w3.org/2000/svg" xmlns:xlink="http://www.w3.org/1999/xlink" x="0px" y="0px"
	 viewBox="0 0 150 21.7" style="enable-background:new 0 0 150 21.7;" xml:space="preserve">
<style type="text/css">
	.st0{fill:#010101;}
	.st1{fill:#84D3E6;}
	.st2{fill:#0E0F32;}
	.st3{fill:#00C0F0;}
</style>
<g>
	<path class="st0" d="M-1172.6-2874.3h24.2v152.4h-24.2V-2874.3z"/>
	<path class="st0" d="M-1135.4-2772.7c0-7.7,1.4-14.6,4.1-20.9c2.8-6.3,6.5-11.6,11.2-16c4.7-4.4,10.3-7.9,16.7-10.3
		c6.5-2.4,13.3-3.6,20.6-3.6s14.1,1.2,20.6,3.6c6.4,2.4,12,5.8,16.7,10.3c4.7,4.4,8.4,9.8,11.2,16c2.8,6.3,4.1,13.2,4.1,20.9
		c0,7.7-1.4,14.6-4.1,20.9c-2.8,6.3-6.5,11.6-11.2,16c-4.7,4.4-10.3,7.9-16.7,10.3c-6.5,2.4-13.3,3.6-20.6,3.6s-14.1-1.2-20.6-3.6
		c-6.5-2.4-12-5.8-16.7-10.3c-4.7-4.4-8.4-9.8-11.2-16C-1134-2758.1-1135.4-2765-1135.4-2772.7z M-1111.2-2772.7
		c0,3.8,0.6,7.4,1.9,10.9c1.3,3.5,3.2,6.6,5.6,9.3c2.5,2.7,5.5,4.8,9,6.5c3.5,1.6,7.5,2.4,11.9,2.4c4.4,0,8.4-0.8,11.9-2.4
		c3.5-1.6,6.5-3.8,9-6.5c2.5-2.7,4.4-5.8,5.6-9.3c1.3-3.5,1.9-7.1,1.9-10.9c0-3.8-0.6-7.4-1.9-10.9c-1.3-3.5-3.2-6.6-5.6-9.3
		c-2.5-2.7-5.5-4.8-9-6.4c-3.5-1.6-7.5-2.4-11.9-2.4c-4.4,0-8.4,0.8-11.9,2.4c-3.5,1.6-6.5,3.8-9,6.4c-2.5,2.7-4.4,5.8-5.6,9.3
		C-1110.6-2780.1-1111.2-2776.4-1111.2-2772.7z"/>
	<path class="st0" d="M-929.3-2724.3h-23v-15.5h-0.4c-2.3,4.8-5.8,9-10.5,12.6c-4.7,3.6-11.1,5.3-19.2,5.3c-6.5,0-11.9-1-16.4-3.1
		c-4.5-2.1-8.2-4.9-11-8.5c-2.8-3.6-4.8-7.6-6-12.2c-1.2-4.6-1.8-9.3-1.8-14.3v-61.1h24.2v49c0,2.7,0.1,5.7,0.4,9
		c0.3,3.3,1,6.4,2.1,9.3c1.1,2.9,2.9,5.3,5.2,7.3c2.4,2,5.7,2.9,10,2.9c4,0,7.4-0.7,10.2-2c2.8-1.3,5-3.2,6.9-5.4
		c1.8-2.3,3.1-4.9,3.9-7.9c0.8-3,1.2-6,1.2-9.3v-52.8h24.2V-2724.3z"/>
	<path class="st0" d="M-830.2-2738.8h-0.4c-3.5,5.9-8.2,10.2-14.1,12.9c-5.9,2.7-12.3,4-19.2,4c-7.5,0-14.2-1.3-20.1-3.9
		c-5.8-2.6-10.9-6.2-15-10.8c-4.2-4.6-7.3-9.9-9.5-16.1c-2.1-6.2-3.2-12.8-3.2-20c0-7.1,1.1-13.8,3.4-20c2.3-6.2,5.5-11.6,9.6-16.1
		c4.1-4.6,9-8.2,14.8-10.8c5.8-2.6,12.1-3.9,19-3.9c4.6,0,8.6,0.5,12.1,1.4c3.5,0.9,6.6,2.1,9.3,3.6c2.7,1.5,5,3.1,6.9,4.7
		c1.9,1.7,3.4,3.3,4.6,4.9h0.6v-67.9h24.2v152.4h-23V-2738.8z M-887.5-2772.7c0,3.8,0.6,7.4,1.9,10.9c1.3,3.5,3.2,6.6,5.6,9.3
		c2.5,2.7,5.5,4.8,9,6.5c3.5,1.6,7.5,2.4,11.9,2.4c4.4,0,8.4-0.8,11.9-2.4c3.5-1.6,6.5-3.8,9-6.5c2.5-2.7,4.4-5.8,5.6-9.3
		c1.3-3.5,1.9-7.1,1.9-10.9c0-3.8-0.6-7.4-1.9-10.9c-1.3-3.5-3.2-6.6-5.6-9.3c-2.5-2.7-5.5-4.8-9-6.4c-3.5-1.6-7.5-2.4-11.9-2.4
		c-4.4,0-8.4,0.8-11.9,2.4c-3.5,1.6-6.5,3.8-9,6.4c-2.5,2.7-4.4,5.8-5.6,9.3C-886.9-2780.1-887.5-2776.4-887.5-2772.7z"/>
	<g>
		<path class="st1" d="M-784.7-2876.7h34l46.4,118.6l44.4-118.6h31.4l-60.8,154.8h-32.3L-784.7-2876.7z"/>
		<path class="st1" d="M-613.4-2851.7c0-3.6,1.3-6.7,3.9-9.4s5.7-3.9,9.4-3.9c3.6,0,6.8,1.3,9.4,3.9c2.6,2.6,3.9,5.7,3.9,9.4
			c0,3.6-1.3,6.8-3.9,9.4c-2.6,2.6-5.7,3.9-9.4,3.9c-3.6,0-6.7-1.3-9.4-3.9C-612.1-2845-613.4-2848.1-613.4-2851.7z M-609.2-2817.4
			h18.1v95.6h-18.1V-2817.4z"/>
		<path class="st1" d="M-558.5-2765.4c0,4.2,0.9,8,2.7,11.4c1.8,3.4,4.2,6.4,7.2,8.8c3,2.4,6.4,4.3,10.3,5.6c3.9,1.3,7.9,2,12.1,2
			c5.7,0,10.5-1.3,14.7-3.9c4.2-2.6,8-6.1,11.5-10.4l13.7,10.5c-10.1,13-24.2,19.6-42.3,19.6c-7.5,0-14.3-1.3-20.5-3.8
			c-6.1-2.5-11.3-6.1-15.5-10.6c-4.2-4.5-7.5-9.8-9.8-15.9c-2.3-6.1-3.4-12.7-3.4-19.9c0-7.1,1.2-13.7,3.7-19.9
			c2.5-6.1,5.9-11.4,10.3-15.9c4.4-4.5,9.6-8,15.6-10.6c6-2.6,12.6-3.8,19.8-3.8c8.5,0,15.6,1.5,21.5,4.4c5.8,3,10.7,6.8,14.4,11.6
			c3.8,4.8,6.5,10.2,8.2,16.1c1.7,6,2.5,12.1,2.5,18.2v6.5H-558.5z M-501.3-2779.9c-0.1-4-0.8-7.7-1.9-11.1
			c-1.1-3.4-2.9-6.3-5.1-8.8s-5.1-4.4-8.6-5.8c-3.4-1.4-7.4-2.1-12-2.1c-4.4,0-8.5,0.8-12.2,2.5c-3.7,1.7-6.8,3.9-9.4,6.6
			c-2.6,2.7-4.5,5.7-6,9c-1.4,3.3-2.1,6.6-2.1,9.8H-501.3z"/>
		<path class="st1" d="M-476.9-2817.4h20.4l21.5,71.4h0.4l22.9-71.4h19.4l24.2,71.4h0.4l20.4-71.4h19.4l-30.8,95.6h-18.3l-25.3-71.4
			h-0.4l-23.1,71.4h-19.4L-476.9-2817.4z"/>
	</g>
	<g>
		<path class="st1" d="M-1216.1-2721.9c-22.4,0-53.1-1.4-68.3-8.4c-19.6-9.1-65.4-30.3-56.1-95.5c6.2-43.4,40.5-61.3,66-66.6
			c0.5-14.5,4.2-37,19.6-54.7c14.5-16.5,35.5-25,62.7-25.1c0.2,0,0.4,0,0.6,0c26.3,0,47.3,8.1,62.6,24.2
			c16.1,16.9,21.6,38.8,23.5,53.8c1.1,9-6.1,16.8-15.1,16.3l0,0c-7-0.4-12.6-5.7-13.5-12.7c-1.3-10.7-5.1-26.4-15.9-37.7
			c-9.6-10-23.6-15.1-41.5-15.1c-0.2,0-0.3,0-0.5,0c-18.5,0.1-32.3,5.2-41.1,15.3c-15.5,17.7-12.3,46.2-12.3,46.5l2,15.8l-15.9,0.5
			c-0.1,0-12.7,0.6-25.5,6.8c-15.8,7.6-24.7,19.6-27.2,36.9c-6.3,43.9,20.3,56.2,39.7,65.2c10.1,4.7,40.7,6.1,65.4,5.7
			c7.8-0.1,14.3,6,14.6,13.7l0,0c0.4,8.1-6,15-14.1,15.1C-1209.4-2721.9-1212.7-2721.9-1216.1-2721.9z"/>
		<path class="st1" d="M-1306.1-2810.4c-1.7,0-3.1-1.4-3-3.1c0.7-12.1,7-23.6,18.5-33.6c6.3-5.5,12.5-9.2,16-11
			c1.5-0.8,3.3-0.2,4,1.4l0,0c0.6,1.4,0.1,3-1.2,3.7c-7.5,4-30.2,18-31.4,39.9C-1303.4-2811.6-1304.6-2810.4-1306.1-2810.4
			L-1306.1-2810.4z"/>
		<path class="st1" d="M-1237.1-2895.6L-1237.1-2895.6c-1.7-0.3-2.7-1.9-2.3-3.6c3-11.7,11.5-21.8,24.6-29.4
			c7.2-4.2,14.1-6.6,17.8-7.7c1.6-0.5,3.3,0.5,3.6,2.1l0,0c0.3,1.5-0.5,3-1.9,3.4c-8.1,2.5-33.1,11.8-38.5,33.1
			C-1234.2-2896.2-1235.6-2895.3-1237.1-2895.6z"/>
	</g>
</g>
<g>
	<path class="st2" d="M14.7,5.9c-0.7-0.8-1.4-1.3-2.1-1.6c-0.7-0.3-1.4-0.4-2.1-0.4c-1,0-2,0.2-2.8,0.6C6.9,4.8,6.2,5.3,5.6,6
		C5,6.6,4.5,7.4,4.2,8.3c-0.3,0.9-0.5,1.8-0.5,2.8c0,1.1,0.2,2.1,0.5,3c0.3,0.9,0.8,1.7,1.4,2.3c0.6,0.7,1.3,1.2,2.1,1.6
		c0.8,0.4,1.8,0.6,2.8,0.6c0.8,0,1.6-0.2,2.3-0.6c0.8-0.4,1.5-1,2.1-1.9l2.9,2.1c-0.9,1.2-2,2.2-3.3,2.7s-2.7,0.8-4.1,0.8
		c-1.5,0-2.9-0.2-4.2-0.8C5,20.5,3.9,19.8,3,18.9c-0.9-0.9-1.6-2-2.2-3.3C0.3,14.3,0,12.9,0,11.3c0-1.6,0.3-3.1,0.8-4.4
		C1.3,5.6,2,4.5,3,3.6s2-1.6,3.3-2.1c1.3-0.5,2.7-0.8,4.2-0.8c1.3,0,2.6,0.2,3.7,0.7s2.2,1.3,3.2,2.4L14.7,5.9z"/>
	<path class="st2" d="M19.3,0.3h3.4v21.4h-3.4V0.3z"/>
	<path class="st2" d="M66.3,21.4h-3.2v-2.2h-0.1c-0.3,0.7-0.8,1.3-1.5,1.8c-0.7,0.5-1.5,0.8-2.7,0.8c-0.9,0-1.7-0.1-2.3-0.4
		c-0.6-0.3-1.1-0.7-1.5-1.2c-0.4-0.5-0.7-1.1-0.8-1.7c-0.2-0.6-0.3-1.3-0.3-2V7.8h3.4v6.9c0,0.4,0,0.8,0.1,1.3
		c0,0.5,0.1,0.9,0.3,1.3c0.2,0.4,0.4,0.7,0.7,1c0.3,0.3,0.8,0.4,1.4,0.4c0.6,0,1-0.1,1.4-0.3c0.4-0.2,0.7-0.4,1-0.8s0.4-0.7,0.5-1.1
		c0.1-0.4,0.2-0.8,0.2-1.3V7.8h3.4V21.4z"/>
	<path class="st2" d="M80.1,19.4L80.1,19.4c-0.5,0.8-1.2,1.4-2,1.8c-0.8,0.4-1.7,0.6-2.7,0.6c-1,0-2-0.2-2.8-0.6
		c-0.8-0.4-1.5-0.9-2.1-1.5c-0.6-0.6-1-1.4-1.3-2.3s-0.4-1.8-0.4-2.8c0-1,0.2-1.9,0.5-2.8c0.3-0.9,0.8-1.6,1.3-2.3
		c0.6-0.6,1.3-1.1,2.1-1.5c0.8-0.4,1.7-0.6,2.6-0.6c0.6,0,1.2,0.1,1.7,0.2c0.5,0.1,0.9,0.3,1.3,0.5c0.4,0.2,0.7,0.4,1,0.7
		c0.3,0.2,0.5,0.5,0.6,0.7h0.1V0h3.4v21.4h-3.2V19.4z M72.1,14.6c0,0.5,0.1,1,0.3,1.5c0.2,0.5,0.4,0.9,0.8,1.3
		c0.3,0.4,0.8,0.7,1.2,0.9c0.5,0.2,1,0.3,1.7,0.3c0.6,0,1.2-0.1,1.7-0.3c0.5-0.2,0.9-0.5,1.2-0.9c0.3-0.4,0.6-0.8,0.8-1.3
		c0.2-0.5,0.3-1,0.3-1.5c0-0.5-0.1-1-0.3-1.5c-0.2-0.5-0.4-0.9-0.8-1.3c-0.3-0.4-0.8-0.7-1.2-0.9c-0.5-0.2-1-0.3-1.7-0.3
		c-0.6,0-1.2,0.1-1.7,0.3c-0.5,0.2-0.9,0.5-1.2,0.9c-0.3,0.4-0.6,0.8-0.8,1.3C72.2,13.6,72.1,14.1,72.1,14.6z"/>
	<path class="st3" d="M27.8,21.7c-0.2,0-0.4,0-0.5-0.1c-1.4-0.6-2.3-1.9-2.3-3.5c0-1.6,1-3,2.4-3.5c0.6-1.2,1.7-2.1,3-2.5
		c0.5-3.4,3.4-5.9,6.8-5.9c2.4,0,4.6,1.2,5.8,3.2C43.7,9.2,44.4,9,45.2,9c3.5,0,6.4,2.9,6.4,6.4c0,2.9-2,5.4-4.7,6.2
		c-0.2,0.1-0.4,0.1-0.6,0.1L27.8,21.7z M28.9,19.8h16.4l0.1,0c2.2-0.2,4.1-2,4.1-4.3c0-2.4-1.9-4.4-4.3-4.4c-0.7,0-1.5,0.2-2.1,0.6
		l-1,0.6l-0.5-1.1c-0.8-1.8-2.5-2.9-4.4-2.9c-2.6,0-4.7,2.1-4.8,4.7l0,0.9L31.4,14c-1,0.1-1.9,0.8-2.3,1.8l-0.2,0.5l-0.5,0.1
		c-0.8,0.2-1.3,0.8-1.4,1.6c0,0.9,0.7,1.7,1.6,1.7L28.9,19.8z"/>
	<polygon class="st3" points="104.2,0 97.6,17.6 90.8,0 86.6,0 95.4,21.7 99.6,21.7 108,0 	"/>
	<path class="st3" d="M110.4,3.5c0-0.5,0.2-0.9,0.5-1.3c0.4-0.4,0.8-0.6,1.3-0.6c0.5,0,0.9,0.2,1.3,0.6c0.4,0.4,0.5,0.8,0.5,1.3
		c0,0.5-0.2,0.9-0.5,1.3c-0.4,0.4-0.8,0.6-1.3,0.6c-0.5,0-0.9-0.2-1.3-0.6C110.6,4.5,110.4,4,110.4,3.5z M111,8.3h2.5v13.4H111V8.3z
		"/>
	<path class="st3" d="M118,15.6c0,0.6,0.1,1.1,0.4,1.6c0.3,0.5,0.6,0.9,1,1.2c0.4,0.3,0.9,0.6,1.4,0.8c0.5,0.2,1.1,0.3,1.7,0.3
		c0.8,0,1.5-0.2,2-0.6c0.6-0.4,1.1-0.9,1.6-1.5L128,19c-1.4,1.8-3.4,2.7-5.9,2.7c-1,0-2-0.2-2.8-0.5c-0.8-0.4-1.6-0.9-2.2-1.5
		c-0.6-0.6-1-1.4-1.4-2.2c-0.3-0.9-0.5-1.8-0.5-2.8c0-1,0.2-1.9,0.5-2.8c0.3-0.9,0.8-1.6,1.4-2.2c0.6-0.6,1.3-1.1,2.2-1.5
		c0.8-0.4,1.8-0.5,2.7-0.5c1.2,0,2.2,0.2,3,0.6s1.5,1,2,1.6c0.5,0.7,0.9,1.4,1.1,2.3c0.2,0.8,0.4,1.7,0.4,2.6v0.9H118z M126,13.6
		c0-0.6-0.1-1.1-0.3-1.6c-0.2-0.5-0.4-0.9-0.7-1.2c-0.3-0.3-0.7-0.6-1.2-0.8c-0.5-0.2-1-0.3-1.7-0.3c-0.6,0-1.2,0.1-1.7,0.4
		c-0.5,0.2-0.9,0.5-1.3,0.9c-0.4,0.4-0.6,0.8-0.8,1.3c-0.2,0.5-0.3,0.9-0.3,1.4H126z"/>
	<path class="st3" d="M129.3,8.3h2.8l3,10h0.1l3.2-10h2.7l3.4,10h0.1l2.8-10h2.7l-4.3,13.4h-2.5l-3.5-10h-0.1l-3.2,10h-2.7
		L129.3,8.3z"/>
</g>
<path class="st0" d="M-585.2-1211.4"/>
</svg>
