<svg id="Layer_1" data-name="Layer 1" xmlns="http://www.w3.org/2000/svg" viewBox="0 0 1125.59 1184.64"><defs><style>.cls-1{fill:none;}</style></defs><title>Landed Cost Code</title><path class="cls-1" d="M42.46,698.69c2.53-.1,5.33-.14,8.41-.16C47.79,698.55,45,698.59,42.46,698.69Z"/><path class="cls-1" d="M42.46,698.69c-12.64.5-18.55,2.38-20.15,9C23.91,701.07,29.82,699.19,42.46,698.69Z"/><path d="M625.19,327.87c-15.12-32.89-56.12-54.09-86.29-79.81C476.27,194.69,413.31,141.73,350.44,88.55c-5.64,3.68-9.24,5.5-12.23,8C253.48,168.32,168.45,239.7,84.66,312.52c-8.94,7.77-14.72,24-14.88,36.32C68.57,443.55,69.07,538.3,69.2,633c0,8.71,1.15,17.43,1.72,25.45H363.44V392.84H560.13V658h69.63c0-72.37.15-142.49-.06-212.61C629.58,405.71,640.33,360.77,625.19,327.87Zm-402.48,93.5h43.42v43.49H222.71Zm-85.34.33h42.35v42.75H137.37Zm42.36,128.65H137.37V507.6h42.36Zm86.5-.63H222.34V507.38h43.89Z"/><path d="M1050.94,547.54c-34.12,30.89-64.52,56-91.73,84.23-10.55,11-19.51,28.82-19.64,43.62-1.38,159.79-.86,319.59-.86,479.4v29.85h186.45V622.36h-74.22Z"/><path d="M940.48,435.12h118.83L490.85,955.06,285.11,782c-83.37,57.93-165.21,114.79-247,171.67-29.58,20.56-29.91,21.56-20,61.57l265-184.71,208.74,175.69L1091,458.35V584.2h34.64V398.15H940.48Z"/><path d="M640.06,923.35c-5.17,4.81-9,13.83-9.06,20.93-.63,79.12-.4,158.25-.4,238.66H818.31V765.49c-4.53,1.56-7.76,1.75-9.62,3.44C752.3,820.21,695.88,871.46,640.06,923.35Z"/><path d="M342.08,930.6c-5.46-4.57-12.11-7.72-19.16-12.12v265.66H508.36V1055.6c-13.38-5.2-25.19-6.89-33.11-13.35C430.38,1005.63,386.5,967.79,342.08,930.6Z"/><path d="M193.47,941c-57.05,39.17-114.11,78.32-170.71,118.14-4.92,3.47-9.29,11.4-9.44,17.36-.88,35.35-.43,70.74-.43,106.85H200.67V941.19C197.26,941,194.74,940.08,193.47,941Z"/><path d="M50.87,698.53c-3.08,0-5.88.06-8.41.16-12.64.5-18.55,2.38-20.15,9-1.39,5.75.45,15.06,4,30.14h648V698.49H643.16q-294.55,0-589.1,0Z"/><path d="M22.31,707.7c-1.39,5.75.45,15.07,4,30.16q324,0,648,0h-648C22.76,722.76,20.92,713.45,22.31,707.7Z"/><path d="M349.22,36.9,680.8,317.73,697.64,295,349.15,0,0,295.93l18.5,21.2Z"/><path d="M530.09,560.83V500H493.8v60.87Z"/></svg>