<svg id="Layer_1" data-name="Layer 1" xmlns="http://www.w3.org/2000/svg" viewBox="0 0 1417.32 1417.32"><title>FINANCE</title><path d="M1219.27,908.93c-2.49-.93-5-1.91-9.26-3.57l111.85-132.73c-18.62-3.13-35.23-6.73-52-8.45-10.51-1.08-12.36-5.53-11-14.8,15.89-112.23-1.29-219.17-52.93-320.12-12.89-25.19-28.51-49-43-73.58,77.92-80.55,44.9-199-34-242.66-78.46-43.4-189.05-12.32-223.32,93.41L773.37,94.87c-3.18,18.52-6.81,35-8.6,51.77-1.09,10.2-5,12.6-14.53,11.29Q540.08,129.16,365.4,249.7c-7.12,4.92-10.94,4-17.19-1.33-90.27-77.56-226-31.89-250.76,84.16-1.41,6.59-2.69,13.2-4,19.8V374c2.18,9.67,3.88,19.48,6.64,29,14.23,48.9,45.33,82.7,92.33,102,4.31,1.77,8.7,3.35,15,5.77L95.45,643.39c18.65,3.14,35.27,6.69,52.07,8.5,10.42,1.12,12.35,5.62,11.07,14.9q-28.92,210.14,91.88,384.58c5,7.27,3.67,11.09-1.57,17.19-77.48,90.27-31.81,225.8,84.27,250.65,6.59,1.41,13.2,2.71,19.8,4.06H374.6c5.78-1.26,11.56-2.49,17.33-3.77q83.79-18.59,114.89-98.57,1.74-4.42,3.58-8.8c.12-.28.65-.38,2.6-1.41,42.73,36,86,72.51,131,110.48,3.15-18.59,6.74-35.2,8.53-52,1.11-10.45,5.63-12.36,14.86-11.1q210.14,28.83,384.61-91.91c7.26-5,11.1-3.68,17.2,1.59,89.83,77.67,225.74,31.87,250.64-84.27,1.41-6.59,2.71-13.2,4.06-19.8v-21.63c-1.26-5.78-2.49-11.57-3.77-17.35C1307.49,967.86,1273.68,929.42,1219.27,908.93ZM1056.74,169c42.06.57,76.07,36.09,75.41,78.75-.67,43.6-35.67,76.89-80.31,76.38-42-.48-75.68-35.83-75.09-78.85C977.35,201.38,1012,168.38,1056.74,169ZM169.61,362.24c.22-44,34.73-78,78.87-77.71,42.17.31,76.32,35.23,76.29,78,0,43.32-34.41,77.52-77.8,77.4C203.29,439.8,169.39,405.76,169.61,362.24Zm193.11,884.83a77.3,77.3,0,0,1-77.56-77.84c.12-43.59,35.1-77.66,79.39-77.32,42.44.32,76.2,34.94,76,77.94C440.38,1213.55,406.49,1247.16,362.72,1247.07Zm658.1-162.48c1.6,7.68.17,12.24-6.49,17-88.63,63.13-187.34,91.77-295.83,87-14.35-.63-28.61-3.06-42.94-4.47-6.64-.65-8.83-3.61-7.56-10.37,3.18-16.87,5.8-33.84,9.15-53.8L517.7,1183.22c-2.26-17.51-3.06-33.92-6.65-49.7-18-79.22-98.79-130.42-178.35-113.39-8.23,1.76-13.05.07-18-6.92C251.5,924.1,223,824.94,228.14,716c.63-13.55,3.06-27,4.36-40.53.7-7.29,3.86-9.31,11.15-7.91,16.78,3.22,33.7,5.64,53,8.78-21.47-54.14-42.27-106.6-63.16-159.26,17.65-2.32,34.38-3.13,50.44-6.85,78.44-18.16,129.76-99.25,112.7-177.78-2-9,.39-13.74,7.54-18.81C492.54,251,591,222.71,699,227.41c14.36.63,28.62,3.07,43,4.48,6.82.68,8.7,4,7.31,10.55-1.82,8.59-2.87,17.34-4.32,26-1.38,8.25-2.85,16.48-4.78,27.58l158.45-62.81c3.8,21.58,5,42.68,11.38,62.08,24.25,73.85,99.34,116.09,176,100.37,7.35-1.51,11.61.2,16,6.33,49.17,68.94,79.62,145.14,85.14,229.8,2.33,35.7-1.31,71.77-2.18,107.68-.21,8.66-4,10.47-12.41,8.71-16.32-3.41-32.93-5.48-51.82-8.49,21.44,54,42.24,106.48,63.2,159.32-16.82,2.12-32.71,2.84-48,6.28A151.52,151.52,0,0,0,1020.82,1084.59Zm148.93,46.87c-43.54-.1-77.44-35-77.2-79.47.23-42.28,35.2-76.26,78.07-75.88,43.82.39,77.15,34.14,77,78C1247.52,1097.48,1213.21,1131.56,1169.75,1131.46Z"/><path d="M709.71,420.3c-158.24-.71-288.44,128.82-288.77,287.28C420.61,865.45,549.5,995,707.63,995.73s288.44-128.8,288.74-287.26C996.67,550.54,867.82,421,709.71,420.3ZM824.18,782.5c-4.37,42.25-30,68.32-69,82.29-3,1.07-6.1,1.9-9.19,2.69-8.55,2.19-12.29,7.62-12.69,16.46-1.14,24.95-3,26.58-27.06,26.63-23.32,0-24.23-.68-27.12-22.92-1.09-8.38-5.87-12-14.05-13.76-19.47-4.15-39-8.37-58-14.16-15.7-4.78-17.66-10.08-13.83-26.27,1.65-7,3.47-14,5.3-20.9,5-18.86,10.23-21.51,28.13-14.41,23.7,9.41,48.17,14.8,73.78,12.62a75.5,75.5,0,0,0,22-4.91c22.87-9.41,27.11-34.47,7.56-49.71C719.53,748,706.43,743,694.19,737.29c-18.79-8.75-38.52-15.68-56.68-25.55-30.07-16.35-47-42.26-46.07-77.09,1-37.19,19.22-64.33,52.41-81.27,2.85-1.46,5.64-3.46,8.67-4,19.05-3.64,30.61-12.87,26.8-34.28a4.57,4.57,0,0,1,.31-2.36c7.78-19,24.48-10.7,37.71-11.68,9.79-.72,15.09,5.92,16,15.75,1.71,19.31,3.23,19.9,23.08,22.92,13.72,2.08,27.22,6.13,40.51,10.29,8.83,2.76,12.32,9.83,10,19.06-2.45,9.68-4.85,19.37-7.77,28.91-3.85,12.59-10.08,15.59-22.76,11.21-24.43-8.43-49.13-14.32-75.2-9-12.43,2.54-23,7.56-25.84,21.42-2.55,12.45,2.22,22.23,16.92,29.88,15.9,8.29,32.74,14.76,49.17,22,9.12,4,18.47,7.65,27.33,12.2C810.9,707.3,828.87,737.21,824.18,782.5Z"/></svg>