<svg id="Layer_1" data-name="Layer 1" xmlns="http://www.w3.org/2000/svg" viewBox="0 0 479.34 479.34"><title>Fix Asset Booking</title><rect x="234.56" y="100.62" width="125.14" height="19.2" rx="7.95"/><rect x="234.8" y="164.4" width="125.14" height="19.2" rx="7.95"/><rect x="54.45" y="255.65" width="125.14" height="19.2" rx="7.95"/><path d="M438.51,280.6c-16.32-17.93-34-34.6-51.24-51.73a82.27,82.27,0,0,0-9.82-8.34c-6-4.33-12.75-4.29-17.82-.28-6.4,5.06-8.68,11.7-5.87,18.69a44.41,44.41,0,0,0,5.42,9,56.5,56.5,0,0,0,5.21,5.53c1.22,1.29,2.16,2.62.46,4.25-1.48,1.42-2.83,1.33-4.29-.09-1.73-1.7-3.62-3.24-5.38-4.91-9.25-8.85-18.4-17.8-27.78-26.5a15.41,15.41,0,0,0-6.88-3.59c-6.43-1.38-13.1,2.22-16.92,8.52-3.93,6.51-3.72,10.81,1,17a54.42,54.42,0,0,0,4,4.82c5.92,6.24,11.93,12.41,17.84,18.66a23.62,23.62,0,0,1,3.41,4.44,2.75,2.75,0,0,1-.39,2.59,2.84,2.84,0,0,1-2.6.41,13,13,0,0,1-3.45-2.52c-8.76-8.4-17.44-16.88-26.23-25.25-3.35-3.19-6.84-6.25-10.39-9.22A12.39,12.39,0,0,0,276,239.39c-6.76,1.32-11.23,5.31-13.6,11.7-2.24,6-.72,11.1,3.68,15.7,10.6,11.08,21.07,22.29,31.55,33.49a28.47,28.47,0,0,1,3.63,4.7,2.51,2.51,0,0,1-.33,2.45,3.14,3.14,0,0,1-2.83.29,27.84,27.84,0,0,1-4.19-3.74c-18.69-18.44-37.32-37-56.09-55.32C227,238.09,215.94,227.74,205,217.35a15,15,0,0,0-4.07-2.77c-5.56-2.49-12.67-.42-17.1,5.1-5,6.2-6.41,11.93-1.8,17.37,6.63,7.81,13.32,15.61,20.5,22.92,31.17,31.72,62.56,63.22,93.78,94.88,7.44,7.54,14.67,15.29,21.77,23.15,5.49,6.08,3.52,11.39-4.56,12.92a29.92,29.92,0,0,1-5.26.48c-5.3.06-10.59,0-15.89,0v-.06c-5.85,0-11.71-.27-17.54.06-8.81.5-17.65,1.34-25.55,5.83-11.56,6.55-12.65,16.93-2.82,25.82.49.45,1,.86,1.52,1.28,8.27,6.72,17.92,9.4,28.36,9.08s20.92-1.37,31.39-1.67c30-.85,60-1.49,90-2.24a9.7,9.7,0,0,0,4.18-.62c4.34-2.37,9.16-4.34,12.65-7.66,9.09-8.65,18.24-17.39,26.13-27.1,11.2-13.8,16.17-30.5,18.1-47.95C461.47,321.51,455.24,299,438.51,280.6Z"/><path d="M256,328.77l.47-1c-6.3-6.16-12.56-12.36-18.94-18.42a5.16,5.16,0,0,0-3.31-.94c-13.46,0-26.92.06-40.39,0q-71.16-.26-142.33-.61c-7.32,0-9.9-2.67-10.13-9.93-.29-9.15-.63-18.31-.65-27.46q-.11-80.94,0-161.88c0-11,.62-22.05,1.29-33.05.41-6.65,1.85-7.77,8.39-7.84,18.54-.2,37.07-.47,55.61-.48q78.78-.06,157.57.1c37,.12,73.92.6,110.88.94,5.19.05,7.64,2.43,7.84,7.63.28,7.06.6,14.12.64,21.17.21,37,.32,73.93.54,110.9,0,1.52.27,3.54,1.23,4.47,5.93,5.76,12.09,11.28,18.92,17.57v-4.76c-.23-49.33-.58-98.65-.55-148A28.31,28.31,0,0,0,397.72,60c-5.7-8-13.3-13-23.27-13.13-28.57-.47-57.14-.92-85.72-1q-91.7-.15-183.38.15c-19.2.05-38.4.29-57.58.9a26.44,26.44,0,0,0-25.69,23.6,267.44,267.44,0,0,0-1.49,27.73c-.26,66-.23,132-.61,198-.05,8.59,3.06,15.4,8.18,21.6S39.41,328.31,48,328c5.06-.19,10.15.4,15.22.41q94.83.23,189.67.37Z"/><path d="M140.94,103.18H109a6.66,6.66,0,0,0-6.64,6.64v3.42H89.2A7.74,7.74,0,0,0,81.48,121V172.7a7.74,7.74,0,0,0,7.72,7.72h75a7.74,7.74,0,0,0,7.72-7.72V121a7.74,7.74,0,0,0-7.72-7.72H147.58v-3.42A6.66,6.66,0,0,0,140.94,103.18Zm2.76,9.56a3,3,0,0,1-.12.79H108.86a3,3,0,0,1-.12-.79v-1.19a3.09,3.09,0,0,1,3.08-3.09h28.8a3.1,3.1,0,0,1,3.08,3.09Z"/></svg>