<svg id="Layer_1" data-name="Layer 1" xmlns="http://www.w3.org/2000/svg" viewBox="0 0 946.95 1262.93"><defs><style>.cls-1{fill:none;}</style></defs><title>Recipe</title><path d="M118.36,1262.74c92,.26,184,.08,276.05.08q238.4,0,476.81.11c20.66,0,39.32-4.43,54.61-18.88,17.35-16.39,21.13-37.34,21.12-60.25q-.3-552.09-.14-1104.19c0-3.08.06-6.17,0-9.25C945.41,27.87,918,.19,875.57.15Q495.84-.16,116.11.16c-29,0-55.2,9-77.52,28.4C16.61,47.71,5.94,72.64,0,100.26V1162.41c3.8,12.07,6.1,24.9,11.68,36.08C33.49,1242.17,70.19,1262.61,118.36,1262.74Zm107.56-111.67c17.48-3.69,44.62,5.5,43.41-24.76-1.09-27.15-26-19.78-43.37-22.33v-43.26c17.68-3.39,44.59,5.59,43.34-24.71-1.11-26.59-25-19.85-42.93-22V970.52c17.38-3.06,42.36,5.52,43.35-24.67.5-15-8.5-19.17-43.34-22v-43.3c17.27-3.11,42.14,5.15,43.35-24.72.61-15-8.16-19.06-43.28-22V790.59c17.26-3.23,43.77,4.71,42.85-25-.84-27.07-25-19.68-42.86-21.71V700.42c17-3.42,43,4.75,42.91-24-.1-28-25-20.66-43-22.81V610.13c17.2-3.34,42.48,4.76,43-23.07.54-29.11-25.43-21-43.22-24.41V519.4c7.58-.35,14.92-.44,22.2-1.1,13.06-1.19,20.93-8.88,21.61-20.62.71-12.3-6.72-21.42-20-23.42-7.68-1.15-15.54-1.07-23.94-1.58V429.42c17.63-3.51,44.63,5.62,43.34-24.73-1.13-26.55-25.05-19.88-42.94-22.09V339.17c17.4-3.17,44.21,5.56,42.91-24.68-1.14-26.55-24.95-20-42.94-21.64V249.09c17.42-3,42.33,5.46,43.38-24.67.53-15-8.34-19.07-43.32-22V159.17c17.34-3.12,43.81,4.8,42.89-24.85-.84-27.13-25.1-19.46-42.86-21.83V45.73c4.39-.21,9-.62,13.65-.62q314.35-.06,628.7,0c26,0,32.88,6.86,32.88,32.78q0,553.41,0,1106.83c0,26.31-6.68,33.1-32.45,33.11H225.92ZM101.12,47.26c25.48-2.92,51.56-.57,78.18-.57v66c-18.09,1.7-43.63-4.74-43.1,23.4.5,26.53,24.88,21.36,43.16,22.42v44.76c-6.73,0-13.59-.29-20.41.07-13.78.72-23.32,9.8-23.57,22-.24,12,9.34,21.77,22.85,22.72,6.54.47,13.15.08,20.8.08v44.29C161.67,295,135.3,288,136.26,317.08c.86,26.19,24.87,20.1,42.85,21.64V382.6c-17.77,2-43.17-4.05-42.9,23.8.26,27.06,24.91,21,43.06,22.24v44.92c-6.27,0-12.64-.35-19,.07-15.55,1.06-25.51,10.67-24.85,23.52.65,12.68,10.09,20.73,25.4,21.4,5.66.25,11.34,0,18.12,0V563c-17.34,2.49-43.06-4.24-42.76,23.76.29,27,25,21,43.09,22.93v44.6c-6.38,0-12.76-.26-19.1.05-15.06.74-24.58,9.34-24.78,22-.19,12.37,9.45,21.66,24.21,22.82,6.11.49,12.28.08,19.45.08v44.68c-17.56,1.87-43.26-4.9-42.91,23.23.33,26.75,24.81,21.35,42.67,23v44c-33.22,1.68-43,6.85-43.43,22.35-.45,16,10.13,21.89,44.69,23.72v44.45c-6.71,0-12.68-.15-18.65,0-15.67.46-25.94,9.28-26.1,22.28s10.21,22.19,25.65,22.66c5.67.17,11.35,0,18.06,0v44.32c-17.44,2.11-42.93-4.15-42.87,23.54.06,27.16,24.76,21.11,43,22.76v43.84c-17.85,1.86-42.47-3.77-43,22.82-.55,28.18,25,21.75,43.2,23.56v68.88c-29.16-1.72-58.82-.55-87.21-6-26.15-5-41-25.87-45.83-52.36a109.75,109.75,0,0,1-1.28-19.71Q45,631.47,45,121.71C45,80.72,65.6,51.33,101.12,47.26Z"/><path d="M431.89,482.75c22.32,5.21,26.62,10.65,26.6,33.34q-.06,64,0,127.93c0,4,.35,8,.55,12.16h258.8V643l.06-125.67c0-24.15,4.16-29.37,27.72-34.85,44.28-10.29,72.09-55.28,60.89-98.47-12-46.08-57.66-72.72-102.22-59.6-25.53,7.51-30,5.38-42.81-18.46-13.8-25.75-35.24-41-64.5-43.69-36.23-3.36-66.72,14.43-82.66,47.28-9.37,19.29-17.23,22.62-38,16.38-5.39-1.63-10.87-3.37-16.43-4-43.2-5.14-84.06,24.44-90.83,65.5C361.58,432.93,387.6,472.43,431.89,482.75Z"/><path d="M772.68,750.79A71,71,0,0,0,760,750q-58.69-.07-117.41,0v.06c-41.61,0-83.21-.16-124.82.11-12,.07-19.65,7.53-19.72,17.69-.06,9.56,7.28,16.83,18.46,18.12a65.13,65.13,0,0,0,7.4.19q118.47,0,236.94-.06a50.47,50.47,0,0,0,13.57-1.5c8.6-2.43,12.65-9.12,12.19-17.59S781.51,752.42,772.68,750.79Z"/><path d="M446.12,750.64c-6.62-.68-13.37-.14-20.06-.14v-.09c-6.69,0-13.43-.45-20.07.11-9.87.83-15.13,7.09-16.14,16.57-.92,8.48,5.26,17.15,14.45,17.83a281,281,0,0,0,43.13-.09c9.22-.73,14.95-9.32,14-18.08C460.49,757.65,455.45,751.6,446.12,750.64Z"/><path class="cls-1" d="M583.3,856.27h59.24q27,0,54,0-27,0-54,0Z"/><path d="M509.71,854.47c3.15,2.59,9.46,1.71,14.36,1.72q29.61.09,59.23.08h59.24q27,0,54,0c24,0,48,.2,71.92-.25,11.34-.21,18.53-7.67,18.6-17.59.07-9.37-6.66-16.45-17.32-18a60.79,60.79,0,0,0-8.44-.35q-118.47,0-236.94,0a53.23,53.23,0,0,0-13.58,1.5c-8.18,2.2-13.23,8.9-12,16.44C499.78,844.1,504.76,850.4,509.71,854.47Z"/><path d="M772.82,965.69a70,70,0,0,0-12.64-.75q-58.71-.08-117.42,0V965c-41.6,0-83.21-.16-124.81.1-12,.08-19.65,7.54-19.72,17.7-.07,9.55,7.28,16.83,18.46,18.11a67.34,67.34,0,0,0,7.39.2q118.47,0,236.94-.06a50.47,50.47,0,0,0,13.57-1.5c8.6-2.44,12.66-9.12,12.2-17.59S781.64,967.32,772.82,965.69Z"/><path d="M402.82,893.71c-8.52,2.38-12.93,8.68-12.79,17.26.13,8.11,4.48,14.21,12.53,16.41,4.35,1.18,9.08,1.26,13.63,1.28q20.64.08,41.28.07l41.28,0c27.17,0,54.34,0,81.51,0a55.1,55.1,0,0,0,12.59-1.11c8.6-2.09,13.08-8.06,13.15-16.84s-4.36-14.78-12.89-17.07a44.78,44.78,0,0,0-11.52-1.15q-83.62-.11-167.24,0A44,44,0,0,0,402.82,893.71Z"/><path d="M498.75,928.71l-41.28,0,41.28,0c27.17,0,54.34,0,81.51,0C553.09,928.76,525.92,928.71,498.75,928.71Z"/><path d="M764.6,892.54c-33.11-.26-66.21-.09-99.31-.06a39.14,39.14,0,0,0-6.3.57c-10.07,1.66-16.23,8.39-15.82,17.81.43,9.71,5.57,16.58,15.34,17,18.62.74,37.29.21,55.94.21v.66c16.9,0,33.81,0,50.71,0,9,0,16.87-2.32,20.49-11.68C790.73,903.83,781.39,892.67,764.6,892.54Z"/><path d="M448.14,821.57a289.32,289.32,0,0,0-44.16-.12c-9.31.66-13.73,8.09-14,17.14-.27,8.67,6.39,16.08,15.57,17,6.62.7,13.37.14,20.06.14v-.07c7,0,14.16.65,21.11-.16,9.3-1.09,14.44-7.35,14.83-16.49S457.35,822.34,448.14,821.57Z"/><path d="M446.26,965.53c-6.62-.68-13.37-.13-20.06-.13,0,0,0-.06,0-.09-6.69,0-13.42-.45-20.07.11-9.87.83-15.12,7.09-16.14,16.57-.91,8.48,5.26,17.14,14.46,17.82a282.13,282.13,0,0,0,43.12-.08c9.23-.73,15-9.33,14-18.08C460.63,972.55,455.59,966.49,446.26,965.53Z"/></svg>