<svg id="Layer_1" data-name="Layer 1" xmlns="http://www.w3.org/2000/svg" viewBox="0 0 1417.32 1417.32"><defs><style>.cls-1{fill:none;}</style></defs><title>Customer</title><path class="cls-1" d="M482,553c.29,0,.53.55.79.86h0C482.56,553.58,482.32,553,482,553Z"/><path d="M833.24,1289.68c4.53-3.34,6.39-6.84,6.38-12.64-.21-91.23-.11-182.46-.25-273.68a14.94,14.94,0,0,1,4.9-11.67c39.85-39.62,79.45-79.48,119.38-119,5.07-5,7.29-10.22,7.94-17.22,3.79-40.82,8-81.6,12.1-122.39,4.09-41,8-82,12.33-123,.53-5.16-1.16-6.88-5.84-8.36-69.56-22-140.4-37.9-213-45.89a668.41,668.41,0,0,0-153.44.63,950.89,950.89,0,0,0-192.47,43.85c-13,4.41-10.76,1.28-9.44,14.9Q433.68,737,446.24,858.65a20.59,20.59,0,0,0,5.41,11.53q60.21,60.8,121,121.05a16.34,16.34,0,0,1,5.31,12.81q-.24,137.16,0,274.32c0,3,1.17,7,3.28,8.73,24.66,20,52.15,34.78,82.8,43.26,10,2.77,20.33,4.36,30.52,6.48h28.2a9.34,9.34,0,0,1,2.27-1C765.64,1331.12,800.79,1313.63,833.24,1289.68Z"/><path d="M917.85,290A209.18,209.18,0,0,0,709.23,80.49c-115.65-.38-209.41,93-209.8,209C499,405,592.71,499.1,708.38,499.37,823.89,499.64,917.77,405.81,917.85,290Z"/><path d="M482,553c-3-.29-5.94-.59-8.91-.71C377,548.5,284.55,566.07,194.9,600c-10.2,3.86-10,3.92-8.87,14.47,4.22,41.2,8.28,82.42,12.42,123.63,4.09,40.78,8.11,81.58,12.48,122.33a17.64,17.64,0,0,0,4.89,9.7Q276.33,931,337.23,991.56a14.88,14.88,0,0,1,4.94,11.65q-.26,85.23.07,170.46a19.66,19.66,0,0,0,4.07,11.44C368,1212,396.4,1227.43,430.59,1231c46.73,4.92,86.29-9.72,116.85-46.11a19.3,19.3,0,0,0,4-11.47c.25-56.82.12-113.65.28-170.47A14.37,14.37,0,0,0,547,991.83Q485.87,931,425.07,869.93c-2.11-2.11-4.33-5.12-4.6-7.89-3.74-38.89-7.11-77.82-10.64-116.73q-5.46-60-11-119.91c-1.43-15.71-2.77-31.43-4.24-48.13l88.26-23.39C482.56,553.57,482.32,553,482,553Z"/><path d="M482.82,553.89h0l-88.26,23.39Z"/><path d="M1226,601.21c-91.64-34.82-186.09-53-284.42-48.81-4,.17-7.91.66-13.55,1.14l94.49,23.63c0,2.41.1,3.69,0,4.94q-5.19,57.42-10.42,114.83c-4.94,54-10,108-14.76,162A17.11,17.11,0,0,1,992,870.57q-61.11,60.78-121.89,121.91a15.56,15.56,0,0,0-4.23,9.85q-.39,85.87-.05,171.75A17.48,17.48,0,0,0,869,1184c48.85,64.39,155.41,63.94,203.6-.86a15.65,15.65,0,0,0,2.54-8.79q.23-85.54,0-171.1a14.93,14.93,0,0,1,5-11.64Q1141,931,1201.47,870.1a17.64,17.64,0,0,0,4.87-9.71c3.7-34.17,7-68.38,10.42-102.58q7.4-73.6,14.93-147.2C1232.21,605.58,1231,603.11,1226,601.21Z"/><path d="M477.77,336.38c-11.91-59.06-1.6-114.52,28.44-167C432.5,142,334.64,168.17,286.78,253.08c-46.06,81.71-22,185.77,56.07,239.88,76.78,53.23,172.66,35.9,225-14.33C520.74,442,489.64,395.17,477.77,336.38Z"/><path d="M1079.83,489.11A182.57,182.57,0,0,0,1127.42,248c-50.23-83.22-146.88-104.59-216-78.54,66.25,112.25,26,245-62,309.34C907.27,532.69,1005.31,544.72,1079.83,489.11Z"/></svg>