<svg id="Layer_1" data-name="Layer 1" xmlns="http://www.w3.org/2000/svg" viewBox="0 0 1417.32 1417.32"><title>Master Data</title><path d="M1236.2,523.23c-58.44,3.39-107.86,51-114.57,110.46-6.75,59.75,32.06,115.63,91.75,132.12,3.57,1,7.09,2.12,10.11,3V934.6H1038.68c0-59.29,0-117.67,0-176.05,0-22.92-6.24-29.24-28.76-29.24H915.84v-42h102.1V562.68c72.25-15.78,108.34-76.61,102.67-134.14-5.91-59.94-55.83-108.21-114.82-111.55-61.23-3.47-116.7,37.81-129.2,96.18-6.35,29.69-2.91,58.18,11.51,84.93C907.19,533.48,937.64,554,976,562.47v85.14H873.36v80.9H730.08V356.19c73.86-16.29,108.45-79.75,101.53-135.65-7.66-61.9-58.71-108.63-118.91-110-61.38-1.35-115,41.75-125.42,100.75-12,68.2,23.47,119.8,100,145.29v371.7H543.33V647H441v-84.2c78.86-18.49,108-84.06,101.92-135.26-7.32-61.54-57.34-108.2-117-110.54-60.71-2.38-114.81,39-126.95,97.39-6.19,29.71-2.3,58.1,12.37,84.78C330.52,534,360.73,554,399.52,562.63v125H501.37v41.59c-32.84,0-64.62,0-96.4,0-19.16,0-26.31,7.24-26.31,26.5q0,82.49,0,165v13.79H193.56V768.82c4.11-1.15,7.79-2.2,11.49-3.22a123.77,123.77,0,0,0,90.84-127.94c-4-57.91-48.86-105-108.38-113.77-55-8.08-111.37,26.55-131.12,80.65-2.89,7.94-5.13,16.12-7.67,24.19v36.09c.92,2.76,2,5.48,2.75,8.3,11.78,46.15,40.41,76.6,85.45,91.72,4.74,1.59,9.66,2.64,15.18,4.13V976.89h227v206.78H629.84c-1.32,12.08-1.64,22.88-3.81,33.28-5.3,25.35-34.5,48.56-60,48.56-13.32,0-26.64-.17-40,0-14.17.24-23.23,8.24-23.46,20.25s8.9,20.86,22.78,20.87q183,.18,366,0c13.85,0,23.14-8.77,23-20.71s-9.49-20.28-23.37-20.45c-16.75-.2-33.51,0-50.26-.11-3.37,0-7.11.1-10-1.25-29.53-13.62-46.4-46.81-40.77-81.41h249.11V976.39h226.4V769c52.09-14.91,82.89-41.67,96.78-83.5,2.27-6.83,4.21-13.76,6.31-20.64V628.73a85.36,85.36,0,0,1-2.77-8.27C1352,560.19,1298,519.65,1236.2,523.23ZM914.91,439.49c.38-45.72,37.68-82,83.8-81.43,45.11.53,81.3,37.47,81.16,82.85A82.41,82.41,0,0,1,996.65,523C950.88,522.71,914.51,485.55,914.91,439.49Zm-577.44,1.22a82.46,82.46,0,1,1,164.91.27c-.18,45.57-37.53,82.36-83.26,82A82.32,82.32,0,0,1,337.47,440.71ZM90,646.57a82.25,82.25,0,0,1,83-82.25c45.72.23,82.16,37.3,82,83.34-.22,45.49-37.79,82.11-83.69,81.59A82.26,82.26,0,0,1,90,646.57ZM626.22,233.13c.3-45,37.3-81.4,82.63-81.28a82.44,82.44,0,1,1-1,164.88C662,316.33,625.91,279.34,626.22,233.13ZM420.51,771.24H996.32v287.1H420.51ZM642,1264.89c30-19.88,25.46-51.25,27-81h78.33c1.51,15.29.63,30.9,5.12,44.77,4.29,13.24,14.17,24.67,21.21,36.25Zm354.37-124H420.54v-39.7H996.33ZM1244,729.25a82.48,82.48,0,1,1,83.31-82A82.3,82.3,0,0,1,1244,729.25Z"/></svg>