<svg id="Layer_1" data-name="Layer 1" xmlns="http://www.w3.org/2000/svg" viewBox="0 0 1005.62 1279.59"><title>Good Receipt</title><path d="M850.35,368.6V304.44H527.68V588.89c-73-70.39-135.38-61.17-209.66-1.73v-284H6.15C3.77,310.83.82,315.93.81,321,.47,514.59.79,708.15,0,901.7c-.19,46.13,28.52,48.92,63.23,48.87,240.09-.4,480.18-1.22,720.25.59,51.42.38,68.31-18.35,67.68-68.89C849,711.07,850.34,539.83,850.35,368.6Z"/><path d="M620.81,1124.77c-55.75,8.07-111.8,14.06-167.72,20.93q-2.58-12-5.15-24c17.36-5,34.6-13.54,52.09-14.1,23.86-.75,48.12,7.82,71.81,6.26,17.73-1.17,34.83-12,52.21-18.57-12.18-12-22.24-28.92-36.86-35.11-157.28-66.65-317-31.1-433,92.34-24.15,25.71-27.29,48.53-1.36,71.12,26.94,23.46,48.94,78.42,92.53,45.93,56.74-42.3,117.25-34,179.22-41.89,102-12.94,202.64-37.84,303.14-60.82,12.7-2.9,21.08-24.67,31.47-37.69-15.37-7.75-31.09-22.54-46-21.79C682.19,1108.93,651.84,1120.28,620.81,1124.77Z"/><path d="M817.26,264.06c-79.68-117.59-188-137-315.91-110.4,9.11,35.93,18.49,72.94,28,110.4Z"/><path d="M214,266.88c111.21.12,111.22.16,132-108.06.32-1.71-.57-3.65-1.47-8.8C173.11,134.79,93.42,164.46,34.79,266.87,95.85,266.87,154.92,266.81,214,266.88Z"/><path d="M767.24,43.84l42.57,54.94,60.41-41.72L815.53,0Z"/><path d="M827.26,121.29,809.81,98.78l-13.1,9Z"/><path d="M878.68,65.88q4.05-10.12,8.11-20.25L870.22,57.06Z"/><path d="M746.42,62.75l20.82-18.91q-2.82-3.63-5.63-7.27Z"/><path d="M923.84,242.1l44.09,46.72,37.69-40.2L975.4,205.26Z"/></svg>