<svg id="Layer_1" data-name="Layer 1" xmlns="http://www.w3.org/2000/svg" viewBox="0 0 857.07 1284.77"><defs><style>.cls-1{fill:none;}</style></defs><title>Approve PR &amp;amp; Quotation</title><path class="cls-1" d="M235.94,314.93q95.83.12,191.69.05,97.14,0,194.27,0-97.14,0-194.27,0Q331.78,315,235.94,314.93Z"/><path d="M.07,735.49q0,203.37,0,406.74C.14,1225.89,59,1284.7,142.77,1284.72q285.75.09,571.5,0c83.7,0,142.71-58.81,142.74-142.46q.13-406.75-.07-813.49a188,188,0,0,0-2.51-30.71c-10.66-64.09-70-113-134.9-112-9.49.14-13.06,3.37-12.78,12.8.46,15.44.31,30.9,0,46.34-.16,8.29,2.25,12.29,11.61,12.67,43.38,1.78,67.51,27,67.52,70.61q.12,408,0,816.06c0,42.2-27.19,68.72-69.51,68.72q-287.69,0-575.36,0c-42.34,0-69.74-26.41-69.76-68.51q-.19-408.68,0-817.34c0-42.53,24.67-67.77,67.34-69.59,8-.34,11.85-2.76,11.71-11.2-.29-16.29-.34-32.61,0-48.9.21-9.23-4.3-13-12.6-11.4-19.62,3.83-40.74,4.91-58.34,13.25C25.73,225,.28,269.86.16,328.75Q0,379.6,0,430.44-.07,583,.07,735.49Z"/><path d="M.09,1142.23Q0,938.86.07,735.49q0-152.52,0-305Q-.08,583,.07,735.49.07,938.86.09,1142.23Z"/><path d="M235.94,314.93q95.83.12,191.69,0,97.14,0,194.27,0c32.38,0,49.72-17.57,49.72-50.3,0-29.16.07-58.32,0-87.48-.11-30.11-17.93-48.09-47.88-48.24s-60-.23-90.06.09c-8.75.09-12.52-3-12.32-11.92A310.41,310.41,0,0,0,520.56,85C517,40.73,482.05,4.7,439.12.49c-46.26-4.55-87.71,23.2-99.46,67.59-2.91,11-3.59,22.83-3.8,34.31-.56,30.32,2.44,26.32-27.26,26.45-24.45.11-48.89,0-73.33.07-32.58.09-49.65,17.31-49.74,50.29q-.12,42.45,0,84.91C185.59,298,202.28,314.89,235.94,314.93ZM427.78,57.48c19-.62,35.4,15.18,35.86,34.51.47,20.08-15.29,36.68-34.92,36.78-18.61.09-34.57-15.28-35.19-33.9C392.85,74.51,407.85,58.14,427.78,57.48Z"/><path d="M701.42,598.08q-272.13.54-544.26.29c-4.95,0-9.9.44-14.81.67v43.05H715.54c0-10.92-.77-20.39.19-29.7C716.92,600.89,712.74,598.05,701.42,598.08Z"/><path d="M142.37,537.29H715.06V495.21H142.37Z"/><path d="M715.11,704.31H142.45v41.82H715.11Z"/><path d="M155.69,852.46q273.35-.53,546.68-.26c4.11,0,8.21-.51,12.71-.81V809H141.59c0,10.5.77,20-.2,29.21C140.17,849.75,144.42,852.48,155.69,852.46Z"/><path d="M584.74,913.29H142.43v42H584.74Z"/><path d="M522.24,1146c5.16,5.94,13.62,9,22,14.33,8.56-5,16.54-8.17,22.53-13.53,8.57-7.68,15.69-17,23.42-25.58Q648.61,1056.15,707,991.13c6.74-7.48,11.59-15.12,5.91-25.29-6.25-11.2-19.09-12.14-30.4-1.92-42,37.9-84.12,75.67-125.62,114.1-9.72,9-16.53,8.73-26.1.18-21.73-19.41-44.32-37.84-66.45-56.79-8.67-7.43-17.64-9.38-26.27-.88s-7.08,17.61.27,26.34C466.26,1080,493.84,1113.34,522.24,1146Z"/><path d="M371.67,389.87H142.36v42.7H371.67Z"/></svg>