<svg id="Layer_1" data-name="Layer 1" xmlns="http://www.w3.org/2000/svg" viewBox="0 0 1279.45 1280.24"><title>Good Transfer</title><path d="M166.76,1152.33c40.45.19,74,15.85,100.65,46.31,6.71,7.68,13.11,15.64,19.77,23.38,31.11,36.15,70.17,57.68,118.14,57.8q348.21.87,696.44.12c63.24-.1,114.93-54.27,114.53-118-.39-62.87-52.58-116-115.17-116.1q-268.32-.4-536.64.24c-5.49,0-12.78,3.45-16.18,7.72C512,1099.52,448,1104.05,406.56,1063c-32.48-32.17-64.71-64.6-97-97-2.74-2.74-5.18-5.78-7.85-8.8l13.52-14.86c4.54,4.29,8.12,7.49,11.51,10.88,31.08,31.06,61.94,62.35,93.24,93.2,31,30.53,75.84,31,104.74,1.64,28.63-29.09,27.89-73.16-2.25-103.71q-58-58.78-116.51-117c-25.08-25.08-55.53-37.37-91-37.36q-151.12,0-302.27,0c-4.25,0-8.49.38-12.69.57v361.61H15C65.56,1152.27,116.16,1152.09,166.76,1152.33Z"/><path d="M1042.34,236.78H703v339.3h339.3ZM945.48,402.1l-51-37.82V512.4H852.1V363.69L800.48,402.1l-25.36-33.74c10.61-8.09,20.63-15.79,30.73-23.39,17.35-13.07,34.79-26,52.13-39.13,8.16-6.16,17.2-8.8,25.83-2.53,29,21.07,57.49,42.73,87.07,64.82Z"/><path d="M870.82,42.74V0L781.4,10.78c3.63,15.65,6.51,28.06,9.6,41.4Z"/><path d="M1049.78,772.79l76.64-48.86c-10.44-13-18.88-23.48-26.68-33.2L1031,734.21C1036.77,746.09,1042.8,758.46,1049.78,772.79Z"/><path d="M1157.36,633.13l33.35,26.65,48.54-76.8-38.49-18.7Z"/><path d="M476.77,497.88c10.28,29.16,20,56.79,30.18,85.64l38.47-18.68c-9.18-26-17.93-50.68-27.09-76.54Z"/><path d="M782.91,803c3.57-15.9,6.52-29,9.36-41.64l-76.68-26.84L697,773Z"/><path d="M873.91,812.94l89.73-10.29c-3.75-16.34-6.6-28.76-9.52-41.51l-80.21,9.2Z"/><path d="M714.09,79.17l-18.7-38.46L618.73,89.62l26.87,33.09Z"/><path d="M588,180.46,554.25,154,506.5,231l38.27,18.36Z"/><path d="M1227.6,487.46l41.85,9.14c3.41-31.26,6.6-60.49,10-91.74l-42.72,2C1233.66,434,1230.69,460.14,1227.6,487.46Z"/><path d="M1268.89,314.4c-10.36-29-20.3-56.84-30.6-85.66l-38.17,18.84c9.13,25.74,17.93,50.53,27.14,76.48Z"/><path d="M1048,40,962.23,9.78c-3.58,15.91-6.54,29.05-9.42,41.86L1029.5,78.2Z"/><path d="M554.39,661.45c21.88,22.19,42.24,42.85,64.11,65l25.89-32.61-57.74-58.31Z"/><path d="M1189.61,151.84l-64.55-63.9-23.53,30.25,57,58.95C1167.09,170.19,1177.29,161.88,1189.61,151.84Z"/><path d="M518.16,326.45l-41.82-9.3c-3.38,31.05-6.5,59.74-9.66,88.71h42.5C512.22,379,515.13,353.19,518.16,326.45Z"/></svg>