<svg id="Layer_1" data-name="Layer 1" xmlns="http://www.w3.org/2000/svg" viewBox="0 0 479.34 479.34"><title>AR</title><path d="M438.88,338.23c-15.22-25-30.77-49.79-46-74.43,1.77-1.71,2.35-2.56,3.15-3,37.9-21.11,50.49-61.9,43.48-105.12-6.42-39.59-35.05-69.47-78.13-74.12-42.53-4.6-85.82-2.32-128.77-2.69-10.33-.09-7.74,7.85-6.74,13.77,5.44,32.16,35.48,57.81,68.15,58.25,14,.19,28-.32,42,.16,18.78.64,29.24,10.78,28.93,27.15-.28,15.42-10.19,25-27.38,25.33-23.51.4-47,.1-74.39.1,37.77,60.95,72.28,119,109.36,175.42,17.63,26.8,59.21,29,82.23,7.23,2.94-2.78,4.54-10.35,2.91-14C452.4,360.5,445.63,349.32,438.88,338.23Z"/><path d="M77.65,254.19c10.09,10.6,20.7,19.33,28.15,30.23,7.58,11.11,12,24.34,18.58,38.16L165.2,241.7a33.37,33.37,0,0,1,2.71,3.64c18.39,36.65,38.55,72.55,54.63,110.2,17,39.8,51.08,51.79,103.11,42.72l-160-320Z"/><path d="M103,351c.35-22.77-18-41.87-40.46-42.09S21.42,327.34,21,350.12c-.4,22,17.87,40.86,39.69,41.07C83.82,391.41,102.62,373.54,103,351Z"/></svg>