<svg id="Layer_1" data-name="Layer 1" xmlns="http://www.w3.org/2000/svg" viewBox="0 0 1315.65 1075.27"><title>Inventory</title><path d="M1288.5,297Q986.22,152.72,684.61,7c-19.92-9.66-34.69-9.14-54.28.35Q330.42,152.59,29.38,295.51C7.89,305.72-.11,317.44,0,341.85c1,232.86.6,465.74.69,698.61,0,11.12,1,22.23,1.42,32.62h335.7V538.22H974.17V1074h339.48c.61-7.93,1.26-12.45,1.26-17,.06-241-.34-481.89.74-722.83C1315.75,311.81,1305.1,305,1288.5,297Z"/><path d="M558.53,873.75c-3.08,12.86-5.61,23.42-7.9,33H509.8c-2.48-11.83-4.71-22.44-6.9-32.86H430.71v201.42H632.09V873.75ZM531.4,1023.26A31.29,31.29,0,1,1,562.69,992,31.29,31.29,0,0,1,531.4,1023.26Z"/><path d="M811,873.75c-3.08,12.86-5.61,23.42-7.9,33H762.29c-2.48-11.83-4.7-22.44-6.89-32.86H683.21v201.42H884.59V873.75ZM783.9,1023.26A31.29,31.29,0,1,1,815.19,992,31.3,31.3,0,0,1,783.9,1023.26Z"/><path d="M558.7,617.8c-3.08,12.85-5.61,23.41-7.89,33H510c-2.48-11.82-4.71-22.43-6.89-32.85H430.89V819.31H632.27V617.8ZM531.58,767.31A31.3,31.3,0,1,1,562.87,736,31.3,31.3,0,0,1,531.58,767.31Z"/><path d="M811.2,617.8c-3.08,12.85-5.61,23.41-7.9,33H762.47c-2.48-11.82-4.71-22.43-6.89-32.85h-72.2V819.31H884.76V617.8ZM784.07,767.31a31.3,31.3,0,1,1,31.3-31.3A31.29,31.29,0,0,1,784.07,767.31Z"/></svg>