<svg id="Layer_1" data-name="Layer 1" xmlns="http://www.w3.org/2000/svg" viewBox="0 0 479.34 479.34"><title>Fixe Asset Preference</title><path d="M243.77,115.94c-1.1,29.4-13.09,53.83-37.25,71.91A69.31,69.31,0,0,1,170,201.77a67.28,67.28,0,0,1-41.19-9.88c-22.92-14-36.72-34.5-41.8-60.67-4.08-21-.6-41,11.33-59,12.86-19.43,30.94-31.11,54-35A75.48,75.48,0,0,1,175.64,37a79.12,79.12,0,0,1,65.75,59.59,84.71,84.71,0,0,1,1.68,9.37C243.46,109.05,243.52,112.19,243.77,115.94Z"/><path d="M249.1,235.94c-10.28,3.38-16.24,10.3-18.28,20.37-2.84-1.22-5.55-2.76-8.46-3.55-9-2.45-17.17-.51-24,6-6.47,6.19-12.79,12.55-19,19a25,25,0,0,0-2.65,31c.23.35.45.71.6.95-2.75,1.06-5.63,1.81-8.15,3.21-8.43,4.64-12.93,11.92-13.21,21.54-.23,7.84-.06,15.69-.07,23.54v1.87H154l-110.27,0c-6.74,0-13.48.05-20.21,0a8,8,0,0,1-7.76-6.14,10,10,0,0,1-.23-3A149.07,149.07,0,0,1,66.89,246.09a195.49,195.49,0,0,1,18-13.32,132.37,132.37,0,0,1,34.07-16.07A8.35,8.35,0,0,1,129,220q15.47,21.19,30.89,42.41c1.49,2,3,4.09,4.64,6.3.59-.79,1.13-1.49,1.65-2.2l34-46.44c2.64-3.6,5.92-4.7,10.18-3.35a144,144,0,0,1,38.08,18.71C248.61,235.55,248.76,235.68,249.1,235.94Z"/><path d="M363.77,334.52c0-3.65-3.31-7.24-6.92-7.83-5.38-.87-10.72-2.06-16.12-2.63-3.4-.36-5.42-1.67-6.07-5a2,2,0,0,0-.31-.73,2.2,2.2,0,0,1,.23-2.85c3.65-5.08,7.24-10.2,10.83-15.32,2.84-4.05,2.45-8.28-1.05-11.77Q336,280,327.6,271.61c-3.51-3.52-7.69-3.9-11.75-1-4.76,3.36-9.55,6.69-14.25,10.15-1.51,1.11-2.8,1.59-4.52.48-1-.63-2.18-.84-3.18-1.41a2.67,2.67,0,0,1-1.28-1.52q-1.71-9.21-3.25-18.45c-.85-5.13-3.9-7.84-9.11-7.86q-11.86,0-23.72,0c-.53,0-1.06,0-1.58.09a8.28,8.28,0,0,0-7.3,6.73c-1,5.52-2.06,11-2.85,16.58-.39,2.78-1.08,4.95-4.25,5.44a5,5,0,0,0-1.88.83,1.89,1.89,0,0,1-2.43-.23c-5.21-3.74-10.42-7.48-15.72-11.08a26.41,26.41,0,0,0-4.71-2,10.77,10.77,0,0,0-6.14,2.92q-8.67,8.67-17.32,17.34c-3.34,3.36-3.73,7.46-1,11.37,3.09,4.5,6.09,9.07,9.45,13.36,2,2.51,2.64,4.72.72,7.42A3.56,3.56,0,0,0,201,322c-.21.92-.76,1.23-1.66,1.39q-9.78,1.68-19.53,3.47a8.11,8.11,0,0,0-6.85,8.26q-.07,12.4-.07,24.82a8.05,8.05,0,0,0,6.5,8.28c6.12,1.23,12.28,2.27,18.45,3.2,2.08.32,3.59.88,4,3.14a8,8,0,0,0,1,2.34,1.85,1.85,0,0,1-.23,2.28c-3.76,5.26-7.49,10.54-11.14,15.88a10.69,10.69,0,0,0-1.68,3.87c-.61,3.1.61,5.69,2.8,7.88q8.38,8.37,16.76,16.76c3.45,3.45,7.65,3.83,11.64,1,5-3.54,10.07-7.06,15-10.7,1.42-1.05,2.62-1.52,4.22-.48a9.74,9.74,0,0,0,2.65,1.06c.92.25,1.19.78,1.33,1.67,1.1,6.58,2.22,13.16,3.41,19.72a8.3,8.3,0,0,0,8.67,7.22h24.35a8.39,8.39,0,0,0,8.72-7.38c1-5.85,2.09-11.68,2.9-17.54.34-2.42,1.13-4,3.68-4.43a5.39,5.39,0,0,0,1.75-.75,1.76,1.76,0,0,1,2.14.2c5.25,3.77,10.55,7.48,15.82,11.23,4.23,3,8.47,2.68,12.16-1q8.37-8.38,16.71-16.81c3.44-3.48,3.73-7.63.89-11.63-3.22-4.54-6.26-9.22-9.67-13.6-1.83-2.34-2.35-4.39-.67-6.88a4.35,4.35,0,0,0,.53-1.32c.24-1,.86-1.26,1.82-1.42,6.52-1.07,13.05-2.15,19.55-3.38a8.15,8.15,0,0,0,6.94-8.42Q363.88,347.25,363.77,334.52Zm-95.34,68.63a55.6,55.6,0,1,1,55.6-55.6A55.6,55.6,0,0,1,268.43,403.15Z"/><path d="M366.06,182.28a5.28,5.28,0,0,0-4.24-4.8c-3.29-.53-6.57-1.26-9.88-1.61-2.08-.22-3.32-1-3.71-3.07a1.2,1.2,0,0,0-.19-.45,1.34,1.34,0,0,1,.14-1.75c2.24-3.11,4.43-6.25,6.63-9.38a5.21,5.21,0,0,0-.64-7.21L343.9,143.74a5.17,5.17,0,0,0-7.2-.63c-2.91,2.06-5.85,4.1-8.72,6.22a2.15,2.15,0,0,1-2.77.29c-.59-.38-1.34-.51-1.95-.86a1.61,1.61,0,0,1-.78-.93q-1.05-5.64-2-11.3c-.52-3.15-2.39-4.81-5.58-4.82-4.84,0-9.68,0-14.53,0a7.89,7.89,0,0,0-1,.06,5.06,5.06,0,0,0-4.47,4.12c-.61,3.38-1.26,6.75-1.74,10.15-.24,1.71-.67,3-2.61,3.33a3.22,3.22,0,0,0-1.15.52,1.18,1.18,0,0,1-1.49-.14c-3.19-2.29-6.38-4.59-9.63-6.8a16.42,16.42,0,0,0-2.88-1.23,6.49,6.49,0,0,0-3.76,1.79q-5.31,5.3-10.61,10.62a5.08,5.08,0,0,0-.64,7c1.89,2.76,3.73,5.56,5.79,8.19,1.2,1.53,1.62,2.89.44,4.54a2.31,2.31,0,0,0-.33.81c-.12.56-.46.76-1,.85-4,.69-8,1.39-12,2.13a5,5,0,0,0-4.2,5.06q0,7.61-.05,15.2a5,5,0,0,0,4,5.08c3.75.75,7.52,1.39,11.3,2,1.28.19,2.2.53,2.48,1.92a4.7,4.7,0,0,0,.59,1.43,1.15,1.15,0,0,1-.14,1.4c-2.3,3.22-4.59,6.45-6.82,9.72a6.83,6.83,0,0,0-1,2.38,5.19,5.19,0,0,0,1.72,4.82q5.13,5.13,10.27,10.27a5.16,5.16,0,0,0,7.13.63c3.08-2.17,6.16-4.32,9.2-6.55a2,2,0,0,1,2.58-.3,5.91,5.91,0,0,0,1.63.65c.56.15.72.48.81,1q1,6,2.09,12.08a5.08,5.08,0,0,0,5.31,4.42h14.92a5.15,5.15,0,0,0,5.34-4.52c.6-3.58,1.28-7.15,1.78-10.75.2-1.48.69-2.46,2.25-2.71a3.47,3.47,0,0,0,1.07-.46,1.07,1.07,0,0,1,1.31.12c3.22,2.31,6.46,4.59,9.69,6.88a5.29,5.29,0,0,0,7.45-.62q5.13-5.15,10.24-10.3a5.12,5.12,0,0,0,.54-7.12c-2-2.79-3.83-5.65-5.92-8.34-1.12-1.43-1.44-2.68-.41-4.21a2.59,2.59,0,0,0,.32-.81c.15-.59.53-.77,1.12-.87,4-.65,8-1.31,12-2.07a5,5,0,0,0,4.25-5.16C366.13,192.67,366.1,187.47,366.06,182.28Zm-58.4,42a34.06,34.06,0,1,1,34.06-34.06A34.06,34.06,0,0,1,307.66,224.32Z"/><path d="M463.73,261.07a5.28,5.28,0,0,0-4.24-4.79c-3.29-.54-6.56-1.26-9.88-1.61-2.08-.22-3.31-1-3.71-3.08a1.23,1.23,0,0,0-.19-.44,1.34,1.34,0,0,1,.14-1.75c2.24-3.11,4.43-6.25,6.63-9.38a5.21,5.21,0,0,0-.64-7.21l-10.27-10.27a5.17,5.17,0,0,0-7.2-.63c-2.91,2.06-5.85,4.1-8.72,6.22a2.15,2.15,0,0,1-2.77.29c-.59-.39-1.34-.51-1.95-.86a1.64,1.64,0,0,1-.78-.93q-1-5.64-2-11.31c-.52-3.14-2.39-4.8-5.58-4.81-4.84,0-9.68,0-14.52,0a8.06,8.06,0,0,0-1,.06,5.05,5.05,0,0,0-4.46,4.12c-.61,3.38-1.27,6.75-1.75,10.15-.24,1.7-.67,3-2.61,3.33a3.38,3.38,0,0,0-1.15.51,1.16,1.16,0,0,1-1.49-.14c-3.19-2.29-6.38-4.58-9.63-6.79a16.42,16.42,0,0,0-2.88-1.23,6.52,6.52,0,0,0-3.76,1.79q-5.31,5.3-10.61,10.62a5.08,5.08,0,0,0-.64,7c1.89,2.76,3.73,5.56,5.79,8.19,1.2,1.53,1.62,2.89.44,4.54a2.31,2.31,0,0,0-.33.81c-.12.56-.46.76-1,.85-4,.69-8,1.39-12,2.13a5,5,0,0,0-4.2,5.06q0,7.59-.05,15.2a5,5,0,0,0,4,5.08c3.75.75,7.52,1.38,11.3,1.95,1.28.2,2.2.54,2.48,1.93a4.7,4.7,0,0,0,.59,1.43,1.15,1.15,0,0,1-.14,1.4c-2.3,3.22-4.59,6.45-6.82,9.72a6.83,6.83,0,0,0-1,2.38,5.19,5.19,0,0,0,1.72,4.82l10.27,10.27a5.16,5.16,0,0,0,7.13.63c3.08-2.17,6.17-4.32,9.2-6.56a2,2,0,0,1,2.59-.29,5.73,5.73,0,0,0,1.62.65c.56.15.72.48.81,1q1,6,2.09,12.07a5.09,5.09,0,0,0,5.31,4.43h14.92a5.15,5.15,0,0,0,5.34-4.53c.6-3.58,1.28-7.15,1.78-10.74.21-1.48.69-2.46,2.25-2.71a3.37,3.37,0,0,0,1.07-.46,1.07,1.07,0,0,1,1.31.12c3.22,2.31,6.46,4.59,9.69,6.88a5.3,5.3,0,0,0,7.45-.62q5.13-5.15,10.24-10.3a5.14,5.14,0,0,0,.54-7.13c-2-2.78-3.83-5.64-5.92-8.33-1.12-1.43-1.44-2.68-.41-4.21a2.59,2.59,0,0,0,.32-.81c.15-.59.53-.77,1.12-.87,4-.65,8-1.32,12-2.07a5,5,0,0,0,4.25-5.16C463.8,271.47,463.77,266.27,463.73,261.07Zm-58.4,42.05a34.06,34.06,0,1,1,34.06-34.06A34.06,34.06,0,0,1,405.33,303.12Z"/><path d="M286.47,346.13c-3.09-2.28-6.77-3.8-10.27-5.49-3.71-1.8-7.56-3.32-11.27-5.12-2.57-1.26-4.57-3.17-4.11-6.37s2.89-4.45,5.64-5.19a8.23,8.23,0,0,1,3.22-.34c5.76.79,11.5,1.7,17.63,2.64.76-2.88,1.8-6.39,2.51-10a3,3,0,0,0-1.57-2.48,65.51,65.51,0,0,0-10.11-2.42c-4.42-.61-4.45-.41-4.46-5v-5.29H262.82v10.34c-2.6.91-4.81,1.52-6.88,2.44-5,2.25-9.08,5.65-11.08,10.95-3.85,10.2.16,19.5,10.66,24.45,5.2,2.45,10.66,4.34,15.9,6.72,3.25,1.48,5.07,4.8,4.69,7.52-.5,3.58-2.95,5.35-6.14,5.88a26.46,26.46,0,0,1-8.64.3c-5.06-.88-10-2.41-15.31-3.75-.71,2.61-1.46,5.53-2.28,8.43-1.14,4.07-1,4.53,3.11,5.69,5,1.39,10.06,2.45,15.46,3.74v10.15a52.77,52.77,0,0,1,6.81,0c3.48.48,4.21-1,4.12-4.19-.21-6.84,0-6.7,6.38-9.24,7.08-2.82,12.15-7.69,13.55-15.48C294.52,357.54,292.82,350.81,286.47,346.13Z"/></svg>