<svg id="Layer_1" data-name="Layer 1" xmlns="http://www.w3.org/2000/svg" viewBox="0 0 1417.32 1417.32"><defs><style>.cls-1{fill:none;}</style></defs><title>dashboard</title><path class="cls-1" d="M282.44,820.9c-.72.16-1.45.39-2.17.58.72-.19,1.45-.42,2.17-.58l9.12-9.07Z"/><path class="cls-1" d="M218.08,886.53h0l41.31.05h0Z"/><path d="M1267.46,383.14q-46.73,0-93.46,0H694.55q-224.32,0-448.64.05a50.66,50.66,0,0,0-7.38,1.06l22.37,22.19c2.69.43,5.39,1.25,8.08,1.25q91.64.13,183.28.09h8.64v601.08H158.74v-6.73c0-16.57,0-33.13-.06-49.7,0-2.21-.76-4.42-1.17-6.64l-22.28,22.26a46.73,46.73,0,0,0-1,6.88c-.09,14.41,0,28.83,0,43.25,0,12,3.77,15.89,15.65,15.9q175.91.08,351.8.12,259.73,0,519.46-.1,123.62,0,247.24-.06c10.47,0,14.9-4.48,14.9-14.86q0-32.23,0-64.48v-200q0-177.79,0-355.6C1283.21,387.2,1279.21,383.14,1267.46,383.14Zm-8.93,625.66H480.93V407.93h777.6Z"/><path d="M158.68,777.32q.07-156.81,0-313.63c0-16.33.27-32.66-.15-49-.15-5.91,1.84-7.1,7.35-7,29.46.26,58.92.15,88.38.06,2.2,0,4.39-.84,6.59-1.28l-22.37-22.19c-1.42-.37-2.84-1.07-4.26-1.07q-42.54-.09-85.1,0c-10.81,0-15,4.31-15,15.3q0,44.79,0,89.6,0,132.52,0,265.05a66.82,66.82,0,0,0,1,8.17l22.49,22.14A37.87,37.87,0,0,0,158.68,777.32Z"/><path d="M158.67,939q.12-74.36,0-148.7a46.71,46.71,0,0,0-1-6.89L135.2,761.27a43.7,43.7,0,0,0-1,6.73q-.07,96.35,0,192.7a50.23,50.23,0,0,0,1,7.35l22.28-22.26C157.91,943.53,158.67,941.26,158.67,939Z"/><path d="M660.24,762.18C737.67,772.74,799.94,723,818.53,673c-10.33-4.6-20.68-9.24-31-13.84-33.74-15-67.45-30-101.25-44.85-4.52-2-6.21-4.44-6.18-9.61.26-46,.16-92.07.16-138.11v-6.82C615.75,458.06,537,505.65,528.7,600.52,522,677.57,577.26,750.86,660.24,762.18Z"/><path d="M1137.85,672.78h-90.22V961.19h90.22Z"/><path d="M718.42,587.75c19.69,9.08,39.51,17.84,59.32,26.65,24.88,11.06,49.78,22.09,75.77,33.62,21-54.6,16.83-105.54-17.46-152.26-29.8-40.61-71.13-60.18-121.52-61.83a32,32,0,0,0-.47,3.41c0,48.18-.08,96.37.14,144.55C714.21,583.9,716.47,586.85,718.42,587.75Z"/><path d="M799,961.27h90V791.33H799Z"/><path d="M550.28,961.08h89.58V837.93H550.28Z"/><path d="M1013,886.06H923.47v75.19H1013Z"/><path d="M674.32,961.29h89.74V886.1H674.32Z"/><path d="M209.49,493.27H405.17V474.45H209.49Z"/><path d="M405,736.65H209.35v19H405Z"/><path d="M405,539.75H209.51v19H405Z"/><path d="M209.49,690H405.16V671.36H209.49Z"/><path d="M404.9,605.74H209.33v18.47H404.9Z"/><path d="M246.71,867.38a21.15,21.15,0,0,0-4.23.85l16.91,18.35h0c3,.2,6,.59,9,.59q65.14.06,130.29,0c2.09,0,4.19-.2,6.36-.31V867.62c-1.65-.11-2.9-.25-4.15-.25Q323.79,867.34,246.71,867.38Z"/><path d="M305.56,801.67a13.14,13.14,0,0,0-3.65.76l-1.22.33-9.13,9.07-9.12,9.07a27.69,27.69,0,0,0,4.86.91q56.42.08,112.84,0a42.2,42.2,0,0,0,4.93-.54V802c-1.59-.15-2.83-.38-4.08-.38Q353.28,801.6,305.56,801.67Z"/><path d="M301.91,802.43l-1.22.33h0Z"/><path d="M291.56,811.83l9.13-9.07c-1.37-.38-2.73-1.1-4.09-1.1q-41.55-.09-83.1,0c-1.24,0-2.47.22-3.95.36v19.43a23.62,23.62,0,0,0,2.85.39q32.85,0,65.7,0a8.53,8.53,0,0,0,2.17-.34c.72-.19,1.45-.42,2.17-.58Z"/><path d="M300.69,802.76h0l-9.13,9.07Z"/><path d="M259.39,886.58l-16.91-18.35-7.5,0-16.9,18.26Z"/><path d="M259.39,886.58l-16.91-18.35,16.91,18.35Z"/><path d="M235,868.27,209.55,867v20.38l6.51-.64,2-.2Z"/><path d="M216.06,886.73l2-.2h0Z"/><path d="M218.08,886.53,235,868.27l-16.9,18.26Z"/></svg>