<svg id="Layer_1" data-name="Layer 1" xmlns="http://www.w3.org/2000/svg" viewBox="0 0 1325.81 1015.03"><title>Staff</title><path d="M186,753.7c-8.62-113.25,34.29-192.86,137.82-233.54C313.1,503,300.16,486.46,292,467.87s-11.6-39.25-17.26-59.56c-38.59,0-78.7-2-118.56.42-76,4.55-136.41,58.08-152.69,132-1,4.49-2.31,8.91-3.48,13.36V712.06c32.32,10,64.2,22,97.08,29.54C125.3,748.1,154.66,749.65,186,753.7Z"/><path d="M892.87,831.93c-1.66-73.55-53.63-139.8-125.22-155.47-31.6-6.91-64.94-5.91-97.49-8.5-.06.87-.12,1.75-.19,2.62-20.7,0-41.42-.47-62.11.08-85.54,2.26-157.79,73.81-159.94,159.24-1.13,45.27-.15,90.59-.68,135.87-.1,8.22,3.21,11,10.37,13.1,93.35,27.9,188.2,42.7,285.85,33.36,47.85-4.57,94.55-14.09,138.79-33.69,6.49-2.88,11.36-5.45,11.22-14.61C892.81,919.93,893.86,875.91,892.87,831.93Z"/><path d="M554.52,647.53c-10.63-16.93-23.36-33-31.36-51.12-8.2-18.58-11.78-39.21-17.75-60.25a87.51,87.51,0,0,0-9.44-.81c-38,0-75.92-.94-113.82.28-94.41,3-163.76,74.77-164.54,169.38-.34,41.39.28,82.79-.32,124.18-.14,9.29,3.1,12.94,11.55,14.83,40.3,9,80.35,19.2,120.82,27.34,21.29,4.28,43.26,5.23,67.29,7.95C407.83,767,451.74,688.45,554.52,647.53Z"/><path d="M1109.87,706.58c-1-88.14-58.39-158.15-143.85-168.85-43.27-5.43-87.72-1.45-131.64-1.65-.65,0-1.3,1-2.62,2.06-1.68,41.85-19,77.8-48.14,108.55,106.2,42.46,149,121.64,140.12,232.89,12.15-.72,22-1,31.84-1.94,49.56-4.6,97.89-14.38,143.79-34.41,7.52-3.28,11-7.4,10.84-16.37C1109.62,786.77,1110.33,746.67,1109.87,706.58Z"/><path d="M1201.61,410.07c-27.7-6.3-57.22-5.1-85.95-6.26-22.28-.91-44.63-.18-67.71-.18C1045.44,447.31,1029.49,484,999,515c106.87,41.85,149.33,122.21,140.59,233.65,21-2,39.48-3.37,57.8-5.65,40.8-5.07,80.4-15,117.94-31.94,4.35-2,9.65-8.06,9.7-12.3.6-45.69,1.39-91.43-.12-137.08C1322.59,490.87,1270.6,425.77,1201.61,410.07Z"/><path d="M664.26,283.87A141.94,141.94,0,0,0,663.15,0C585.07.14,522,63.36,521.85,141.71S586.17,284.54,664.26,283.87Z"/><path d="M670,660.94c71.77.17,131-59,130.88-130.66-.12-71-58.82-130.16-129.76-130.86S540,458.35,539.39,529.82C538.76,601,598.34,660.76,670,660.94Z"/><path d="M441,525.88c.36,1.16.73,2.32,1.09,3.48,19.5-6.06,39.27-11.41,58.32-18.66,5.12-1.95,10.24-9.13,11.62-14.82,8.28-34.17,24.77-63.28,51.33-86.22,6.77-5.85,8.66-11.81,8.15-20.17-5.2-86.65-88.07-143.92-171-118-60,18.79-99.06,81.33-89.27,143.12C321.38,478.49,377.26,526.41,441,525.88Z"/><path d="M345.72,271.73c5.91-4.25,8.14-8.39,7.42-16-6.7-70.05-66.83-121.53-138.85-118.36-66.48,2.92-121.88,62.37-121.77,130.67.15,89.74,90.38,153.35,174.28,122.87,6.53-2.37,11.77-4.57,13.2-13.47C287.08,333.21,309.33,297.88,345.72,271.73Z"/><path d="M866.11,524.26c6.84.74,13.68,1.4,20.52,2.09.16.51.33,1,.49,1.52,13.76-3.08,27.81-5.23,41.24-9.39,91.85-28.48,120.05-152.29,49.06-217-39.9-36.34-86.36-47.58-137.57-27.64-48.31,18.81-74.69,56-83.16,106.54-1.4,8.35.31,14,8,19.47,31,21.87,54.17,50.93,60.65,88.32C829.86,514.18,844.05,521.87,866.11,524.26Z"/><path d="M972.59,249.11c-1.07,9.54,1.8,14.63,9.32,20.09,34.29,24.94,55.58,58.78,62.9,100.4,2,11.16,7.21,15.2,16.3,18.22,83.94,27.91,171.87-35.52,173.5-124.39-2.63-13-4.26-26.34-8.08-39-17.2-57.07-75.75-96.74-133.52-91.14C1029.07,139.48,979.45,187.56,972.59,249.11Z"/><path d="M306.56,136.6c13.79,12.19,28.11,24.16,39.85,38.21,18,21.58,26,48.05,30,77.11,47.21-20.34,93-18.71,137.93,5.23l14.18-16.3c-37.21-54.28-44.2-111.42-18.62-171.49-67-62.7-180.23-33.13-208.16,53.53C299.5,129.84,301.84,132.43,306.56,136.6Z"/><path d="M803.74,226.23c-6.86,11.44,4.27,14.85,7.61,21.7,3.62,7.44,8.84,2.94,14.15,1.71,18.75-4.37,37.6-10.67,56.55-11.19,20.63-.56,41.42,4.5,63.14,7.23,7.13-54.58,35.68-96.33,85.75-123.6C1000.61,35,889.33,6.89,823.63,68.54c-3.27,3.06-6.39,10-5.16,13.57C835.72,132.55,831.1,180.64,803.74,226.23Z"/><path d="M728.3,378.89l28.76-82.95a1400.19,1400.19,0,0,0-191.41.44c19.77,28.7,28.66,57.77,30.26,90.33C641.1,364,685.72,362.13,728.3,378.89Z"/></svg>