<svg id="Layer_1" data-name="Layer 1" xmlns="http://www.w3.org/2000/svg" viewBox="0 0 479.34 479.34"><title>Disposal Method</title><path d="M318.51,403.72c-48.62,23.45-98.67,24.81-148.57,4.22-44.62-18.42-76.79-50.38-96.79-94.35A163.31,163.31,0,0,1,58.21,244c6,5.24,11.34,10.88,16.85,16.31,3.88,3.84,8.59,3.9,11.8.5s2.93-7.72-.76-11.45Q71,234.06,55.65,218.93c-4.25-4.17-8.12-4-12.53.26-5,4.83-9.82,9.78-14.72,14.68-5.36,5.37-10.83,10.64-16,16.16-3.29,3.48-3,8.07.11,11.07s7.25,2.94,10.74,0c1.51-1.27,2.84-2.76,4.24-4.16L41.4,243c.62,105.5,90.8,198.31,204.86,194.42C344.8,434.08,412.81,361.23,429.37,294l-14.24-4.1C398.87,341.82,367.08,380.3,318.51,403.72Z"/><path d="M456.17,218.15a43.8,43.8,0,0,0-4.24,4.16c-4.31,4.65-8.57,9.35-12.85,14l-1.51-1c-1.15-34.45-10-66.66-27.65-96.3a196.73,196.73,0,0,0-71.71-70.87,193.12,193.12,0,0,0-96.68-26.37C143.4,41,71.78,108.37,51.08,180.72l14.28,4.51C97.42,84.93,202.57,35.31,296.74,66.6c45.48,15.11,79.78,44.24,103,86.14a168.91,168.91,0,0,1,21.42,82.52c-6.11-5.31-11.53-11-17.17-16.55-3.68-3.58-8.3-3.54-11.45-.31s-3.15,7.64.24,11.1q15.6,15.9,31.52,31.49c3.28,3.21,7.38,3.41,10.69.19Q451.3,245.3,467.19,229a7.39,7.39,0,0,0-.28-10.7C463.94,215.36,459.65,215.25,456.17,218.15Z"/><path d="M146.59,316.75c.16.28.37.54.73,1.06-.74-8.19,1.49-15.37,5.33-22.08,9.27-16.15,18.63-32.24,27.95-48.36l.78-1.32,18.55,10.62c-.24-.5-.3-.65-.38-.79q-14.09-25.38-28.14-50.77a1.38,1.38,0,0,0-1.46-.78l-57.14,1.12c-.38,0-.76.06-1.45.1l18.16,10.32c-.3.56-.53,1-.77,1.41-3.4,5.95-6.88,11.86-10.18,17.88-2.67,4.87-6.2,9.32-7.34,15V254a39.88,39.88,0,0,0,2.28,5.74Q130,288.3,146.59,316.75Z"/><path d="M280.37,284.06a6.08,6.08,0,0,1-.87-.11V263.19l-.26-.1c-.17.26-.36.51-.52.77Q264,288.51,249.2,313.13a1.54,1.54,0,0,0,.12,1.86q14.74,24.57,29.45,49.16c.15.26.35.48.72,1v-21H281c10.38,0,20.77.06,31.15-.07a14.43,14.43,0,0,0,12.94-7.7q16.56-28.77,33.05-57.55c.17-.29.29-.6.57-1.19a33.53,33.53,0,0,1-20.61,6.45Z"/><path d="M305.27,190.12q13.82-24.83,27.66-49.62c.19-.34.35-.69.67-1.34l-18,10.63c-.28-.45-.52-.83-.74-1.21-5.18-8.84-10.41-17.65-15.53-26.53-3.07-5.33-7.66-7.84-13.71-7.84q-33,0-66.09,0c-.34,0-.67,0-1.35.06a34.35,34.35,0,0,1,16.14,15l28.56,49.67c.19.34.36.69.56,1.07l-17.89,10.17a1.15,1.15,0,0,0,.82.29q28.5.39,57,.8A1.79,1.79,0,0,0,305.27,190.12Z"/><path d="M168.09,283.49a1.5,1.5,0,0,0-1.51.93c-2.85,5.14-5.9,10.18-8.58,15.4-3.6,7-5.42,14.38-3.59,22.34,2.83,12.24,14.16,21.75,26.72,21.88,16.72.17,33.44.06,50.15.07A5.05,5.05,0,0,0,232,344V283.56c-.4,0-.64-.05-.88-.05Q199.61,283.51,168.09,283.49Z"/><path d="M227.72,130.92c-7.24-11.46-18.94-16.39-32.05-13.49-7.89,1.75-13.52,6.58-17.51,13.49q-8.9,15.44-17.87,30.83l-6.9,11.93,52.27,30.39a3.41,3.41,0,0,0,.28-.33q15.9-27.47,31.75-54.93a1.5,1.5,0,0,0,0-1.29C234.38,142,231.16,136.37,227.72,130.92Z"/><path d="M340.09,192.86c-.21-.38-.46-.73-.7-1.11l-52.31,29.87c4.17,7.22,8.25,14.29,12.34,21.35l19.42,33.62c.3.52.53,1,1.34,1,7.06-.12,14.14,0,21.2-.31a25.24,25.24,0,0,0,12.11-3.55c12.53-7.53,19.57-24.35,10.57-39.55C355.94,220.48,348.07,206.64,340.09,192.86Z"/></svg>