<svg id="Layer_1" data-name="Layer 1" xmlns="http://www.w3.org/2000/svg" viewBox="0 0 1204.63 1199.91"><title>Vendors</title><path d="M1118.63,1079.86V498.72l-90.06-29.58c-43.33,28-93.32,34.29-143.86,9.66-18.37-9-30.9-9.35-49.12,0C790.15,502,744,497.81,700,472.79c-8.08-4.59-13.89-5.13-22.47-.3-49.46,27.85-99.64,28.59-149.28.5-8.83-5-14.81-5.28-23.85-.17-50.17,28.39-100.55,27.47-150.79-.77-4.35-2.45-12-4-15.68-1.87-56,32.78-111.11,30.72-161.86-.91l-89,29v581.45c-40.9-5.21-71.64,6.91-87,45.79v30.12c1.08,1.08,2.67,2,3.18,3.27,11.05,28.37,31.85,41.07,62.13,41,128.82-.26,257.64,0,386.46,0q107.07,0,214.14-.08h20.54c0-32.18,0-63.2,0-94.22q-.08-176.47-.1-352.95c.07-49,23.84-72.1,73.21-72.14q98.72-.07,197.42,0c42.36.09,67,25.45,67,67.89q-.18,217.49-.13,435v15.73c44.87,0,88.28,1.9,131.42-.7,26.38-1.58,40.5-22.54,49.39-46.12v-26.77C1189.26,1087.33,1159.57,1074.34,1118.63,1079.86ZM202.84,604c1.33-14.72,12-23.73,27.54-24,23.37-.36,46.75-.09,75.18-.09l-103.2,90.17C202.36,645.58,201,624.62,202.84,604Zm-1.15,126.74c.26-4.64,4.25-10,8-13.37q74.47-65.69,149.54-130.7c3.87-3.35,9.48-6.36,14.4-6.55,19.37-.74,38.78-.3,63.45-.3L201.31,786.21C201.31,764.78,200.73,747.69,201.69,730.69ZM579,872.63c-.08,18.56-12.31,28.53-33.62,28.62q-19.22.09-38.44.1c-38.43.06-76.87,0-115.31,0q-57,0-114,0-19,0-38,.07c-15.41,0-29.27-2.62-35.53-18.87-7.19-18.67-2.77-42.72,9.19-53.19q138.23-121,276.65-241.79c4.89-4.25,12.49-6.84,19.07-7.4,13.27-1.13,26.72-.6,40.08-.26,18.18.47,29.9,11,30,28.72Q579.49,740.61,579,872.63Z"/><path d="M1020.2,0C741.65,1.2,463.09.39,184.53.39,123.79.39,90.79,25.75,73.75,83.73c-21.48,73-43.56,145.91-65.41,218.84C5.67,311.46,2.78,320.28,0,329.13v30.11c7.18,13.52,12.15,28.95,21.92,40.24,42.51,49.14,121.19,34.5,144.64-26.05,1.94-5,3.48-10.17,5.5-16.14C191.3,407,218,430,258.52,428.9c45-1.23,72.2-26.61,85.49-72.22,14.38,46.19,42.71,73.41,89.17,71.84C478,427,505,399.85,514.58,361.73c10.28,14.5,20.33,32.75,34.27,47.25,14.66,15.24,35.12,20.87,56.68,20.18,39.62-1.28,72.21-30.33,82.47-75.56,11.63,47.45,40,75.25,87.24,74.94,44.71-.29,72.38-27,85.34-73.5,12.56,47.69,40.83,72.84,86.82,73.82,39.69.84,66.24-22.31,85-71.05,3.42,8.76,5.71,17.31,9.87,24.82,17.16,30.94,43.75,47.65,79.18,46.2,35.19-1.44,60.85-19.26,75.67-51.68,2.69-5.89,5-11.94,7.5-17.91V329.13c-24.57-81.8-50.14-163.31-73.31-245.5C1118.57,38.43,1084.44-.28,1020.2,0Z"/><path d="M765,924.35c-18.45-.17-32.65,13.78-33,32.44-.37,19.28,14.63,34.72,33.3,34.29,17.67-.4,32.28-15.68,32.36-33.83C797.74,938.84,783.53,924.52,765,924.35Z"/></svg>