<svg id="Layer_1" data-name="Layer 1" xmlns="http://www.w3.org/2000/svg" viewBox="0 0 1296.56 766.33"><title>Shipment</title><path d="M1081,91c-26.64.73-53.32.12-79.09.12C992.93,15.28,982.05.41,933.53.32Q582.16-.37,230.79.29c-36.73.06-47.51,12.28-47.95,50.31-.36,30.31-.08,60.62-.08,93.19-20.61,0-38.36-4.48-51.8,1.22-14.29,6.05-32.07,20.22-34.75,33.57-4.3,21.39,13.33,35.14,35.58,36.34,23.81,1.3,47.74.72,71.62.44,39.55-.46,50.55-11.21,51.2-50.69.5-30.11.1-60.24.1-89.59H925c0,85.83-.37,168.72.16,251.61.28,42.93,22.14,64.46,65.16,66.05,13.63.51,27.29.12,40.94.12H1220c0,50.93-1.62,97.44.6,143.75,1.36,28.35-10.11,38.67-35.51,33-12.86-2.85-27.19-9.36-35.95-18.78-57.08-61.42-142.91-63.71-197.8-1.61-14.56,16.47-28.76,21.55-49.44,21.38q-150.07-1.25-300.19,0c-19.72.16-32.68-5.06-46.15-20.77C506.61,492.81,420,484.43,371.47,539.41c-35.44,40.2-72.66,29.21-116.85,29.14,0-34.77.44-67.45-.14-100.11-.48-27.21-13.73-42.13-42.42-41.54-27.28.56-55.31-3.47-81.56,1.79-13.61,2.72-24.06,21.17-35.94,32.51,11.51,11.79,21.07,28.26,35.07,34.08,14.2,5.9,32.77,1.3,52.35,1.3,0,31.35,0,58.41,0,85.48.09,51.83,6.42,58,59.55,58.1,27.15.05,54.3,0,80.7,0,21.45,83.23,63.55,123.4,129.84,126,65.65,2.6,105.2-32.43,140.12-124.86H916.5c20,81.85,64.47,123.38,131,124.9,66.83,1.53,111.07-38.25,136.73-123.38,2.86-.77,6-2.17,9.26-2.39,75.76-5.07,97.55-31.53,101.56-106.35,6.54-122.28-6.08-238.51-66.69-348.84C1194.42,123.57,1151.69,89.08,1081,91Zm-54.86,233.51c-7.71,0-15.42-1-25.27-1.73V163.39c35.34,0,69.45-2.86,102.7,1.23,16.07,2,37.13,13.43,44.49,26.85,22.59,41.2,39.64,85.43,60.92,133.12C1143.75,324.59,1084.94,324.65,1026.12,324.52ZM516.87,642.7C515.26,674.23,487,700.58,456,699.57c-32.89-1.07-59.09-30.11-57.4-63.66,1.59-31.75,29.59-57.95,60.77-56.87C492.05,580.17,518.56,609.5,516.87,642.7Zm531.6,56.88c-30.93-.89-57.91-28.21-58.51-59.25-.63-32.29,27.64-61.25,59.83-61.28s60.46,28.52,60.1,60.92S1080.49,700.51,1048.47,699.58Z"/><path d="M675.14,372.68c-13.81,9.72-28.72,18.21-41.16,29.44-17.59,15.89-21.53,35.65-3.74,53.73s37,14.33,54-2.39q51-50.19,101.29-101.12c16.84-17.08,19.36-36.87,2.53-54.52-34.47-36.18-70-71.44-106-106.08-16.14-15.53-35.48-16.34-51.43.35-14.82,15.5-13.47,33.71,1.29,48.71,12.4,12.59,27,23,40.64,34.41l-6.26,10.09h-605c-9.09,0-20.65-3.32-26.76,1-13.36,9.42-31.24,21.3-34,34.85-4,20,10.38,36.3,33.81,38.15,10.17.8,20.44.28,30.67.29q299.85,0,599.72,0Z"/></svg>