<svg id="Layer_1" data-name="Layer 1" xmlns="http://www.w3.org/2000/svg" viewBox="0 0 1417.32 1417.32"><defs><style>.cls-1{fill:none;}</style></defs><title>CONFIGURATIONS</title><path class="cls-1" d="M804.77,680.76q0,23.6,0,47.2,0-23.6,0-47.2c0-16.19.05-32.37,0-48.56C804.83,648.39,804.78,664.57,804.77,680.76Z"/><path d="M727.15,913.08c7.24-7.25,7.88-17.77,1.45-26q-22.8-29-45.92-57.84c-2-2.5-2.4-4.17-.75-7.08a251.7,251.7,0,0,0,23.65-56.73c1.2-4.27,3.13-5.82,7.33-6.26,23.46-2.42,46.89-5.09,70.34-7.64,11.88-1.29,18.77-8.9,18.79-20.9q0-23.59,0-47.2c0-16.18.06-32.37,0-48.55,0-9.28-6.92-17.46-15.47-18.61-4.89-.66-9.8-1.2-14.71-1.76-20.27-2.33-40.55-4.58-60.8-7.09-1.64-.2-4-1.86-4.44-3.32a310.3,310.3,0,0,0-25.09-60.58,5.23,5.23,0,0,1,.4-4.68c15.25-19.33,30.66-38.54,46-57.76,6.68-8.34,6.65-19.73-.47-26.9q-33.57-33.81-67.34-67.42c-5.42-5.42-12.08-8-19.43-5.85-4.46,1.31-8.72,4.09-12.45,7-18.09,14.15-35.93,28.62-54,42.79a6.16,6.16,0,0,1-5.44.4c-18.89-10-38.36-18.56-59-24.24-2.91-.8-4.15-2.24-4.48-5.25-2.6-23.89-5.45-47.74-8-71.64-1.27-12-8.84-19.21-21-19.28-7.56-.05-15.13-.06-22.69,0-11.28.15-22.56.57-33.83.57-13.14,0-26.29-.72-39.41-.43-10.75.24-17.79,7.87-18.73,18.51-1.18,13.37-2.45,26.73-4,40.07-1.23,10.72-3.05,21.38-4.27,32.1-.36,3.1-1.58,4.49-4.44,5.29a276.75,276.75,0,0,0-58.48,24.22c-2.5,1.38-4.2,1.36-6.42-.45-12.21-9.89-24.52-19.66-36.81-29.46-6.85-5.46-13.58-11.08-20.62-16.29-9.54-7.07-19.81-6.09-28.21,2.29l-5.46,5.45q-30.47,30.47-60.92,61c-7.27,7.3-8.1,18.93-2,26.51q22.74,28.51,45.58,57c2.29,2.83,2.84,5,.94,8.44a260.32,260.32,0,0,0-23.77,57.69c-.82,2.93-2.32,4.1-5.34,4.42-14.28,1.54-28.53,3.34-42.8,5-9.85,1.13-19.73,2.06-29.58,3.2-9.44,1.1-18.43,9.65-18.41,18.55,0,5.11,0,10.21,0,15.32q0,39.71,0,79.42c0,14.14,6.79,21.21,21,22.67,23,2.37,46,5.06,69,7.52,3.43.37,5.22,1.72,6.23,5.25a270.51,270.51,0,0,0,24,57.58c1.57,2.81,1.41,4.59-.66,7.15-14.94,18.41-29.67,37-44.47,55.51C126,892,124,900,128.41,908.39c1.91,3.65,5,6.77,8,9.75,20.13,20.29,40.41,40.43,60.55,60.71,10,10.12,20.73,10.76,31.78,1.87q27.72-22.31,55.65-44.35c1.14-.9,3.61-1.47,4.72-.86,19.41,10.71,39.86,18.82,61,25.32,1.32.4,2.74,2.34,3.05,3.8a152.28,152.28,0,0,1,2.5,15.61c1.15,10.72,2,21.47,3.09,32.19.92,8.87,2.08,17.72,3.12,26.58a19.06,19.06,0,0,0,19,17.24q48.56.11,97.12,0c10,0,17.8-7.19,19.15-17.14.32-2.39.6-4.8.87-7.2,2.51-22.23,5-44.46,7.63-66.67.2-1.64,1.72-4.08,3.1-4.48A298.69,298.69,0,0,0,569,935.88a6.26,6.26,0,0,1,5.52.56c6.9,5.14,13.53,10.66,20.27,16,12.4,9.9,24.86,19.73,37.19,29.72,7.52,6.11,20.54,6.08,28-1.62C682,957.75,704.73,935.57,727.15,913.08ZM429.65,797.93c-65.37-.49-117.9-52.22-119.18-116.51-1.33-67.09,51.67-121.5,118.94-121.6A118.61,118.61,0,0,1,548.59,677.56C549.36,743.67,495.32,797.77,429.65,797.93Z"/><path d="M1353.26,962a41,41,0,0,0-14.73-4.83c-17.68-2.31-35.43-4.13-53.18-5.92-4.3-.43-6.57-2.11-7.82-6.41a234.47,234.47,0,0,0-18.67-45.17c-.7-1.3,0-4.11,1-5.44,12.2-15.56,24.58-31,37-46.44,7-8.76,6.44-19.79-1.56-27.8q-27.56-27.6-55.12-55.18c-10-10-20-10.48-30.93-1.72q-22.26,17.89-44.7,35.55c-1.38,1.08-4.25,1.93-5.5,1.24-15.13-8.41-31.16-14.55-47.6-19.78a5.87,5.87,0,0,1-3.35-4q-3.74-29.91-7-59.89c-1.17-10.62-8.67-18.28-19.44-18.36q-40.85-.31-81.69,0C989,698,981.21,705.24,980,715.39c-2.29,19.82-4.63,39.63-6.76,59.46-.37,3.4-1.89,4.67-5,5.89-14.72,5.8-29.38,11.79-43.83,18.23-3.6,1.6-5.84,1.6-8.83-.82-15.15-12.26-30.43-24.36-45.7-36.48-8.4-6.68-19.63-6.21-27.21,1.34q-28.32,28.14-56.47,56.47c-8.74,8.81-9.23,19.31-1.58,28.91q18.35,23,36.79,46c1.48,1.85,1.75,3.25.73,5.63q-9.88,23.09-19.21,46.41c-1.18,2.94-2.58,4.24-5.76,4.57-19.09,2-38.15,4.29-57.24,6.32-12.51,1.32-19.54,8.41-19.63,21.1q-.26,39.48,0,79c.11,13.32,6.83,20.17,20.1,21.62,18.79,2,37.56,4.15,56.35,6.13,3.39.35,5,1.79,6.3,5.16,5.77,14.91,11.82,29.73,18.28,44.35,1.52,3.45,1.55,5.43-.78,8.31-12.29,15.13-24.52,30.3-36.39,45.76-2.7,3.51-3.9,8.17-5.79,12.31l1.15.54a18.21,18.21,0,0,0,5.63,14.31c19.2,19.28,38.33,38.62,57.67,57.76a20.26,20.26,0,0,0,25.49,2c3.3-2.39,6.45-5,9.65-7.53q19.13-15.26,38.24-30.54c2.36-1.89,4.28-1.95,7.31-.61,14.91,6.56,30,12.73,45.14,18.73,2.77,1.1,4.12,2.19,4.45,5.24,2.17,19.68,4.57,39.33,6.8,59,1.28,11.2,8.67,18.08,20,18.1q40.62.08,81.23,0c11.29,0,18.62-6.93,19.88-18.15,2.23-19.83,4.53-39.65,7-59.44a6.25,6.25,0,0,1,3.47-4.33,238.4,238.4,0,0,0,46.28-19.4c2.48-1.38,4.25-1.35,6.51.48,15.05,12.12,30.21,24.12,45.34,36.15,10.8,8.59,20.8,8,30.61-1.88q27.23-27.3,54.49-54.56c8.63-8.62,9.24-19.43,1.69-28.88-12.25-15.34-24.4-30.76-36.69-46.07-1.74-2.18-1.73-3.8-.62-6.4,6.49-15.1,12.74-30.31,18.86-45.57,1.12-2.79,2.15-4.29,5.53-4.65q30.42-3.25,60.79-7.12a18.43,18.43,0,0,0,16.24-18.34c.13-27.68.07-55.37,0-83.05C1360.57,970.76,1358.54,965.06,1353.26,962Zm-309.09,150.4c-56.82,2.1-103.59-45.7-101.83-100.26.54-50.77,42.24-96.21,98-96.51,51.94-.29,98.65,42.56,98.46,98.58C1138.58,1066.49,1095.62,1110.52,1044.17,1112.43Z"/><path d="M735.27,419.39c16.36,2,32.72,3.9,49.11,5.62,3.35.35,4.76,1.71,5.94,4.84,4.15,11,8.33,22,13.35,32.64,2.59,5.47,3.33,9.64-1.52,13.93-1.78,1.58-3.07,3.71-4.56,5.61-8.51,10.79-17.2,21.45-25.47,32.42-5.46,7.24-4.47,18.34,1.9,24.64q25.77,25.47,51.74,50.75c8.75,8.47,18,8.62,27.53,1,12.88-10.25,25.75-20.53,38.77-30.61a6.6,6.6,0,0,1,5.43-1c12.77,5,25.35,10.53,38.11,15.57,2.86,1.13,4.06,2.63,4.37,5.5,1.76,16.23,3.62,32.44,5.4,48.67,1.39,12.62,8.58,19.14,21.34,19.18,11.5,0,23,0,34.49,0v0q17,0,34,0c13.26,0,20.47-6.54,21.92-19.68,1.8-16.22,3.69-32.43,5.42-48.66.32-3,1.7-4.16,4.52-5.24,12.26-4.69,24.43-9.61,36.43-14.92,3-1.31,4.63-1.42,7.16.63,13.41,10.81,26.89,21.54,40.55,32,7.92,6.1,18.49,5.15,25.6-1.92q25.23-25.11,50.37-50.32c8.19-8.2,8.75-18.68,1.58-27.76-10.48-13.28-21-26.52-31.36-39.9a5.75,5.75,0,0,1-.84-4.75c5.1-12.89,10.51-25.66,15.7-38.52,1-2.52,2.32-3.76,5.2-4.07q25.24-2.67,50.45-5.77c11.14-1.35,17.88-9,17.92-20.27q.12-34.26,0-68.53c0-14.32-6.42-21.38-20.71-23-15.33-1.71-30.63-3.59-46-5-4.58-.41-6.16-2.53-7.71-6.52-4.4-11.32-9.4-22.4-14.29-33.52-1.3-3-1.81-5.38.54-8.29,10.52-13,20.82-26.26,31.18-39.42,6.74-8.57,6.45-19.95-1.23-27.65-17-17-34.16-33.82-51.31-50.66-4.91-4.82-11.08-6.65-17.55-4.7a38.57,38.57,0,0,0-12.17,6.57c-12.43,9.62-24.53,19.65-36.89,29.36a5.65,5.65,0,0,1-4.76.61c-12.7-5.16-25.25-10.71-38-15.74-3-1.21-4.13-2.65-4.46-5.76-1.75-16.38-3.67-32.74-5.61-49.1-1.37-11.49-8.52-18.43-19.2-18.46q-36.76-.12-73.53,0a18.93,18.93,0,0,0-18.61,16.6q-3,25.46-5.58,50.94c-.33,3.12-1.61,4.61-4.62,5.79-12.37,4.82-24.67,9.85-36.81,15.22-2.83,1.26-4.49,1.18-6.8-.68-13.18-10.62-26.4-21.2-39.74-31.62-7.8-6.09-18.71-6.16-25.48.42q-26.68,25.91-52.76,52.44a19,19,0,0,0-1.21,25C783,227.09,793.75,240.56,804.49,254c1.84,2.31,2.21,4.2,1,7-5.23,12.18-10.45,24.38-15.21,36.75-1.26,3.28-2.85,4.33-6.07,4.66q-24.36,2.5-48.68,5.37c-12.4,1.47-18.88,8.92-18.88,21.29q0,34.71,0,69.44C716.69,410.83,722.93,417.91,735.27,419.39ZM1001.11,275.7c47.84.21,82.38,36.18,84.65,81.35,2.36,47-36.24,87.48-84.68,87.48-46.61,0-82.76-37.33-84.14-82.23C915.78,316.18,952.29,275.48,1001.11,275.7Z"/></svg>