<svg id="Layer_1" data-name="Layer 1" xmlns="http://www.w3.org/2000/svg" viewBox="0 0 899.87 1277.55"><title> Vendors Price</title><path d="M897.72,49.87c-.08-14.93-8.52-35.36-20-43.39-17.94-12.58-38.42-4-54.7,11.63-20.79,19.94-42.42,39-68.46,62.82C736,60.08,719.6,39.7,701.09,21.5c-27.76-27.28-42-28.13-73.16-5.21-26.95,19.84-52.79,41.19-79,61.82C525.34,56.23,503.31,36,481.54,15.46c-21.31-20.11-42.43-20.25-63.78-.25q-32.62,30.56-65.31,61.08C328.16,55,304.4,35.23,282,14.07c-20.14-19-39.17-17.66-58.93-.63-24.79,21.37-49.48,42.86-74.83,64.83C123.45,57.76,100,37.69,75.77,18.52c-15-11.93-30.2-24.78-52.17-15C.22,14,.18,34.56.17,55.05Q0,640.64,0,1226.21c0,19.2,1.78,36.75,22,46.25,21.26,10,37.36.29,52.17-13.33,21-19.28,41.48-39.07,62.29-58.75,23.39,20.86,44.7,40.47,66.67,59.3,27.58,23.63,39.67,23.94,68.15.28,23-19.12,44.77-39.73,68.9-61.31,24.31,21.67,47.88,41.66,70.25,62.91,21.89,20.8,42.42,18.66,63.74-.18,23.7-21,47.65-41.64,72-62.88,26.12,21.65,50.21,42.44,75.19,62.11,27.24,21.44,43.39,21.86,68.78-2.3,20.22-19.24,36.93-42.15,56-64.39,30.37,25.51,53.79,45.47,77.53,65,15.14,12.48,30.49,23.72,52.25,14.12,21.2-9.35,21.24-28,22.12-46.27.92-19.29,1.14-38.64,1.2-58,.28-104.36.68-208.72.56-313.08C899.56,587.13,899.33,318.49,897.72,49.87Zm-755.81,395c70.56-.58,141.13-.5,211.7-.14,22,.11,35.31,12.95,34.19,34.44-1.13,21.68-13.52,34.68-37.86,34q-12.68-.35-25.36-.42c-25.37-.19-50.76.19-76.14.19-26.1,0-52.21-.27-78.31-.13q-13,.06-26.1.29c-23.28.42-34.53-13.24-35.83-33.21C106.81,458.47,119.93,445,141.91,444.83ZM351,931.28q-102.93.38-205.87,1c-24,.12-36.8-15.88-36.92-35.95-.12-21.13,14.18-34.28,38.28-33.66q12.67.33,25.36.4c25.37.19,50.75-.18,76.13-.18s50.75.41,76.12.21q12.67-.11,25.36-.45c24.33-.7,37,12.44,38.22,33.84C389,919.58,374.42,931.2,351,931.28Zm92.53-214.49c-50.1-.14-100.2,0-150.3,0-43,0-86-.57-129,0q-9.21.12-18.42.32c-22.74.5-35.49-9.39-36.85-30.81s10.26-35,32.74-35.24c101.13-.85,202.26-1.67,303.39-1.38,20.48.06,30.77,14.81,30.34,34.59S465.56,716.86,443.57,716.79Zm329.59,67.5c-5.09,45.88-32.24,73.42-75.16,85-18.83,5.09-28.94,11.63-32.46,33-1.78,10.88-18.4,24.95-29.92,26.65-7.87,1.16-24.12-15.26-26.69-26.16-4.5-19.11-12-27.08-30.86-34.68-26-10.48-49.77-28.26-71.74-46.28-16.73-13.72-19-34.32-3.37-51.46,16.14-17.67,32.91-11.56,51.51.12,23.21,14.56,48,27.9,73.93,36.29,14.14,4.58,33,.76,47.86-4.46,26.88-9.41,31-44.85,6.47-59.5-22.08-13.22-47.13-21.51-71-31.76-15.91-6.84-32.52-12.24-47.88-20.11-41.21-21.11-58.43-55-52.85-106.07,4.42-40.45,31.91-63.37,67.55-75,17.95-5.88,25.8-13,30.2-31.73,2.77-11.85,18.1-20.75,27.79-31,10.37,10.94,27,20.58,29.62,33.12,3.8,18.55,11.46,23.72,27.9,29.95,21.94,8.31,42.52,22.09,61.09,36.79,16.88,13.37,16.53,32.71,2.6,48.79-13.49,15.57-29.62,13.47-47,3.75-22.86-12.79-46.9-23.45-70.44-35L636.91,570c-9.45,1.51-20.24.69-28,5.14-9.12,5.21-20.66,14.31-21.84,23s6.84,22.31,14.89,27.76c14.08,9.52,31.22,14.53,47.16,21.25,23.9,10.08,48.79,18.28,71.62,30.38C763.22,700,778.35,737.63,773.16,784.29Z"/></svg>