<svg id="Layer_1" data-name="Layer 1" xmlns="http://www.w3.org/2000/svg" viewBox="0 0 479.34 479.34"><title>Depreciation Method</title><path d="M442.81,192.45c-13.81-1.16-27.65-3.23-41.44-3-11.15.2-16.33-4.4-19-14.37-.81-3-1-4.84,1.12-7.29,11.08-12.63,22-25.42,32.91-38.19,4.52-5.27,4.44-8.71-.44-13.56q-26.38-26.23-52.85-52.38c-4.72-4.66-8.19-4.84-13.22-.62-11.25,9.43-22.83,18.53-33.5,28.57-6,5.61-11.18,7.34-18,2.55a8.29,8.29,0,0,0-3.15-1.28c-3.55-.68-4.42-2.94-4.65-6.27-1.15-16.76-2.48-33.5-3.83-50.24-.49-6.05-3-8.33-9.11-8.34q-37.94,0-75.88,0c-6.05,0-8.59,2.32-9.09,8.37-1.17,13.81-3.27,27.65-3,41.44.23,11.22-4.53,16.25-14.4,19-3,.84-4.83,1-7.26-1.12-12.64-11.08-25.42-22-38.19-32.91-5.3-4.53-8.71-4.41-13.57.48Q90,89.69,63.8,116.14c-4.61,4.65-4.76,8.18-.52,13.22,8.49,10.13,16.5,20.74,25.76,30.11,7.67,7.76,10.53,14.86,4.17,24.72-1.83,2.83-3.24,4.2-6.51,4.43-16.59,1.15-33.17,2.45-49.75,3.8-6.67.54-8.73,2.92-8.74,9.74q0,37.44,0,74.9c0,6.48,2.17,8.95,8.47,9.48,13.81,1.17,27.64,3.21,41.44,3,10.86-.14,16.08,4.08,18.79,14,1,3.46.82,5.47-1.48,8.1-11,12.53-21.74,25.2-32.53,37.87-4.34,5.1-4.26,8.56.38,13.21q26.26,26.37,52.62,52.62c4.63,4.61,8.32,4.72,13.26.58,10.76-9,21.87-17.64,32.08-27.23,6.64-6.23,12.72-9.37,20.87-3.45a4.31,4.31,0,0,0,1.8.73c3.77.65,4.67,3.06,4.91,6.61,1.12,16.75,2.47,33.49,3.82,50.23.46,5.72,3.08,8.09,8.84,8.1q38.19.06,76.37,0c5.75,0,8.35-2.4,8.84-8.12q1.94-22.9,3.72-45.82c.4-5,.91-10.08,1-15.13a7.91,7.91,0,0,0-7.5-8.13c-4-.21-7.33,2.58-8.11,6.91a54.56,54.56,0,0,0-.71,5.83c-.77,10.57-1.44,21.15-2.23,31.71-.43,5.64-1,11.26-1.53,16.87H208c-.23-2.48-.47-4.72-.64-7-1.21-15.11-2.49-30.22-3.53-45.35-.36-5.15-2.93-7.69-7.69-9.35a169.86,169.86,0,0,1-20.22-8.51c-5-2.52-8.84-1.87-12.83,1.79-5.3,4.84-10.85,9.4-16.3,14.06-7.64,6.53-15.29,13-22.09,18.83l-45.17-45c11.07-12.82,22.42-26.07,33.9-39.2,3.08-3.51,3.55-6.93,1.61-11.18-3.3-7.24-6.44-14.58-9.24-22-1.58-4.19-4.07-6.37-8.54-6.69-11.23-.79-22.44-1.74-33.65-2.64-6.47-.51-12.93-1-19.54-1.58v-63.4c2.39-.24,4.62-.52,6.87-.7,15.11-1.2,30.22-2.5,45.35-3.52,5.39-.36,7.94-3.06,9.64-8a151.53,151.53,0,0,1,8.34-19.75c2.62-5.12,2.13-9-1.68-13.25C101.2,149.83,90.15,136.76,79.12,124l45-44.92c.92.74,2.08,1.61,3.18,2.56,12.11,10.45,24.27,20.83,36.27,31.39,3.82,3.36,7.4,3.76,12,1.55,7-3.37,14.29-6.29,21.59-9,4-1.5,6.19-3.83,6.51-8.13.83-11.38,1.79-22.75,2.7-34.13q.78-9.66,1.59-19.32h63.44c.23,2.46.47,4.7.65,6.95,1.22,15.28,2.49,30.55,3.6,45.83.32,4.5,2.53,7,6.66,8.61,7.57,2.93,15.11,6,22.49,9.4,4.13,1.89,7.42,1.47,10.74-1.49,4.5-4,9.14-7.88,13.73-11.8l26.07-22.25,45,45c-11.47,13.2-22.75,26.29-34.19,39.25-3.2,3.63-3.82,7.11-1.74,11.58,3.35,7.22,6.41,14.59,9.24,22,1.52,4,3.86,6.17,8.15,6.49,15.77,1.18,31.52,2.63,47.31,3.57,4.48.27,6.19,1.39,6.11,6.19-.28,17.3-.33,34.6,0,51.89.1,5.17-1.54,6.53-6.49,6.82-15.79.92-31.54,2.38-47.3,3.63-4.29.34-7.05,2.48-7.61,6.84-.72,5.56,3.07,9.29,9.44,8.83,19.84-1.43,39.67-3,59.49-4.67,6.09-.5,8.35-3.05,8.35-9.11q0-37.94,0-75.88C451.12,195.51,448.82,193,442.81,192.45Z"/><path d="M270.71,237.05c-5.3-3.9-11.6-6.5-17.59-9.41-6.37-3.08-13-5.68-19.33-8.77-4.41-2.15-7.83-5.44-7-10.91s4.95-7.63,9.67-8.91a14.26,14.26,0,0,1,5.52-.58c9.87,1.36,19.71,2.93,30.23,4.52,1.29-4.92,3.08-11,4.29-17.1.25-1.25-1.42-3.86-2.69-4.25a112.06,112.06,0,0,0-17.33-4.16c-7.58-1-7.63-.69-7.64-8.64v-9.06H230.17v17.73c-4.46,1.56-8.24,2.61-11.79,4.18-8.64,3.85-15.57,9.69-19,18.76-6.6,17.5.26,33.43,18.27,41.92,8.92,4.2,18.28,7.44,27.25,11.53,5.58,2.53,8.7,8.22,8,12.89-.86,6.14-5,9.16-10.53,10.07-4.85.8-10,1.36-14.8.53-8.68-1.52-17.17-4.15-26.25-6.45-1.21,4.48-2.51,9.48-3.9,14.46-1.95,7-1.79,7.77,5.32,9.75,8.54,2.38,17.24,4.2,26.51,6.41V319c4.28,0,8-.41,11.68.09,6,.83,7.22-1.68,7.05-7.17-.36-11.74,0-11.49,10.94-15.84,12.14-4.84,20.84-13.18,23.23-26.55C284.51,256.62,281.59,245.09,270.71,237.05Z"/><path d="M379.55,342.83c-5.31-5.3-11.87-9.3-19.24-7.85-8.88,1.74-14.14-2.09-19.15-8.2-1.63-2-3.94-3.41-6.2-5.31,53.54-67.61,26.61-147.16-20.13-182.29-49.4-37.13-119.47-32.82-164.21,11.22C106.35,194,101,264.17,138.3,314.37c18.22,24.5,42.37,40.62,72.11,47.35,40.5,9.17,77.08-.19,110-26.28,4.08,4.17,8.17,7.8,11.51,12,1.6,2,2.85,5.35,2.42,7.75-1.76,9.67,1,17.68,7.73,24.41q31.91,31.85,64,63.53c11,10.81,27.05,10.84,37.48.46s10.25-26.33-.72-37.41Q411.3,374.37,379.55,342.83ZM238.47,344c-57.08-.34-104.1-47.83-103.93-105,.17-57.31,47.94-104.61,105.29-104.25,57.09.36,104.1,47.85,103.93,105C343.58,297.1,295.82,344.39,238.47,344ZM428,428.68c-3.16,2.94-6,.91-8.45-1.58-20.75-20.8-41.56-41.54-62.18-62.48-1.52-1.54-2.29-4.45-2.22-6.69.05-1.29,2.49-2.5,4.19-4.05a42.64,42.64,0,0,1,5,3.65q31.25,31.08,62.41,62.24C429.47,422.47,431.48,425.45,428,428.68Z"/></svg>