<svg id="Layer_1" data-name="Layer 1" xmlns="http://www.w3.org/2000/svg" viewBox="0 0 942.67 1257.16"><defs><style>.cls-1{fill:none;}</style></defs><title>Purchase Receipt</title><path class="cls-1" d="M191.88,314.49l278.49,0H191.88Z"/><path class="cls-1" d="M315.47,890.78c42.11,0,84.21-.08,126.31.05-42.1-.13-84.2,0-126.31-.05-31.88,0-63.77-.23-95.64,0C251.7,890.55,283.59,890.78,315.47,890.78Z"/><path d="M942.67,1147.83V1015.29q0-453.46,0-906.92c0-55.71-35.81-98.55-90.2-106.87C838.82-.58,824.69.75,810.81.24c-14.5-.55-23.85,6-29.44,19.28-9,21.35-25.22,32.89-48.55,32.73s-39.28-12-48.15-33.37C679.35,6,670,.11,656.07.2c-36,.24-72,.17-108,0-13.89-.05-22.89,6-28.31,19-8.89,21.23-25,33-48.42,33.06s-39.56-11.82-48.42-33.06C417.26,5.65,407.68.08,393.38.19c-33.95.27-67.92.6-101.86-.13-17.28-.37-28.16,5.56-35.15,22.1-8.34,19.73-24.74,30-46.51,30.16s-38.51-9.86-46.92-29.5C155.68,5.87,144.77-1.35,127,.21c-5.28.46-10.63.07-16,.07C44.54.31,0,44.63,0,110.82q0,513,0,1026c0,67.57,23.17,99.16,87.51,119.52.34.1.57.56.86.86h56.46c6-7.78,12.91-15.05,17.87-23.45,10.85-18.42,25.95-28.92,47.64-28.58,21.15.34,35.67,10.93,46.13,29,4.86,8.42,12.23,15.38,18.47,23h130.1c6.45-7.46,14.25-14.14,19.05-22.54,10.69-18.66,25.54-29.48,47.24-29.49s36.56,10.81,47.23,29.49c4.8,8.39,12.6,15.08,19,22.54H667.72c6.23-7.62,13.62-14.58,18.47-23,10.44-18.12,25-28.7,46.12-29,21.67-.35,36.8,10.16,47.65,28.58,4.95,8.41,11.85,15.67,17.87,23.45h56.46a20.62,20.62,0,0,1,4.23-2.11C911.41,1242.23,942.67,1202.44,942.67,1147.83ZM832.1,1204.75c-4.11-.15-9.5-2.67-11.94-5.88-47.35-62.2-127.52-62.38-173.77-.37-2.42,3.25-7.63,6.1-11.62,6.21q-32.49.9-65,0c-4-.11-9.27-3-11.72-6.25-46.52-62-126.31-61.82-173.66.49-2.28,3-7.08,5.69-10.77,5.78q-33.11.8-66.26,0c-3.68-.09-8.68-2.64-10.7-5.65-42.24-62.83-133.82-61.57-174.38.32a13.64,13.64,0,0,1-8.6,5.37c-31.51,4-58.37-17.8-61.28-49.51-.3-3.25-.21-6.54-.21-9.81q0-516.69,0-1033.39c0-37.8,23-61.14,59-59.35,4,.2,9.21,3.1,11.66,6.38,45.76,61.43,127.85,61.58,173.09.36,2.6-3.52,8.26-6.56,12.59-6.69q31.88-1,63.8,0c4.36.14,10,3.21,12.66,6.75,44.91,60.69,128.06,61,172.4.55,2.8-3.8,8.88-7.11,13.55-7.28,21.25-.77,42.55-.66,63.8-.06a17.22,17.22,0,0,1,11.65,6.17c46.32,62,126.49,61.91,173.7-.33,2.14-2.82,6.16-5.54,9.55-5.89,33.59-3.47,60.08,19.93,60.78,53.81.48,22.9.1,45.82.1,68.73v454.1q0,258.35,0,516.69C890.48,1183.15,867.83,1206.07,832.1,1204.75Z"/><path d="M707.62,865.56c-12-1.91-24.46-1-36.72-1.15-24.92-.32-42.48-16.59-42.43-39.48s17.71-39,42.76-39.07c27.82-.09,55.64,0,83.46-.05,18.71,0,30.62-10.1,30.84-25.81.21-15.92-11.42-26.15-30.18-26.3-15.82-.12-31.64,0-48.42,0,0-10.56.51-19.54-.12-28.44A26.16,26.16,0,0,0,680.6,681c-13.55.15-24.61,10.72-25.59,24.76a89.35,89.35,0,0,0-.06,15.94c1,9.15-1.72,13.21-11.6,15.74-44.61,11.42-72.26,54.45-66.34,101.21,5.42,42.87,43.3,76.5,87.77,77.81,9.81.28,19.66-.24,29.45.26,17.91.91,32.12,11.61,37,27.28,7.87,25-9.5,50.27-35.88,50.88-29.85.69-59.73,0-89.59.29-18.5.17-29.84,11-29.43,27.18.39,15.05,11.43,25.15,28.65,25.5,16.2.33,32.41.07,49.86.07,0,9.81-.26,17.92.06,26,.62,15.18,11.15,25.84,25.38,26.09,14.55.27,26-10.88,26.59-26.31.33-8.55.06-17.13.06-26.66l9.21-2.57c43.75-12.06,71.21-49.17,69.28-93.62C783.61,908.16,751.61,872.55,707.62,865.56Z"/><path d="M179.63,314.2c4,.56,8.17.29,12.25.29H750.09a104.32,104.32,0,0,0,12.26-.24,26.39,26.39,0,0,0,23.09-23.45c1.13-11.54-6-23.55-17.09-26.86-5.34-1.59-11.29-1.55-17-1.55q-279.1-.11-558.21,0c-4.09,0-8.2-.14-12.26.22a25.65,25.65,0,0,0-23.77,25.11A26.31,26.31,0,0,0,179.63,314.2Z"/><path d="M761.55,523.56c13.54-1.2,23.55-11.69,24-25a26.23,26.23,0,0,0-22.29-26.66c-4.41-.64-9-.34-13.47-.34q-139.25,0-278.49,0-139.86,0-279.71,0c-4.09,0-8.24-.26-12.25.34a26.43,26.43,0,0,0-22,23.14c-1.22,11.58,5.81,23.59,16.89,27,5.32,1.63,11.28,1.63,17,1.63q280.32.12,560.65.06C755,523.76,758.3,523.85,761.55,523.56Z"/><path d="M749.74,471.6q-139.25,0-278.49,0-139.86,0-279.71,0,139.86,0,279.71,0Q610.5,471.58,749.74,471.6Z"/><path d="M174.9,731.73c4.92,1.61,10.44,1.87,15.69,1.89q30.66.11,61.32.09h61.33c41.29,0,82.59.07,123.88-.09,5.66,0,11.64-.23,16.89-2,11.18-3.83,17.13-12.44,17.18-24.25s-6-20.37-17.06-24.36c-4.85-1.74-10.41-2-15.66-2q-123.87-.18-247.76,0A57,57,0,0,0,175,682.76a24.85,24.85,0,0,0-17.8,25.06C157.72,719.62,163.63,728.06,174.9,731.73Z"/><path d="M313.24,733.7h0c41.29,0,82.59.07,123.88-.09C395.83,733.77,354.53,733.7,313.24,733.7Z"/><path d="M441.78,890.83c-42.1-.13-84.2,0-126.31-.05-31.88,0-63.77-.23-95.64,0q-15.95.11-31.88.38a41.87,41.87,0,0,0-23.2,8c-8.32,6.35-9.89,16.63-5.75,26.79,4.91,12,14.27,17,27.05,17q128.15-.13,256.29-.09c17.35,0,29.1-11,29-26.4S459.77,890.89,441.78,890.83Z"/></svg>