<svg id="Layer_1" data-name="Layer 1" xmlns="http://www.w3.org/2000/svg" viewBox="0 0 1417.32 1417.32"><title>SYSTEMS</title><path d="M1292.73,906.63c-29-.47-58-.1-89.15-.1,0-53.89.17-103.19,0-152.5-.2-45.18-14.08-59.45-58.51-59.55q-155.52-.32-311-.07H753.54V567.14c86,0,169.49.24,253-.11,39-.16,55.25-15,55.42-51.95q.78-160.82,0-321.66c-.17-34-16.1-50.2-49.77-50.27q-304-.63-608-.21c-31.59,0-48.74,15.92-48.86,47.4-.42,109.57-.6,219.15.11,328.72.21,32.64,17.22,47.67,52.11,47.91,74.23.52,148.45.1,222.68.25,11.33,0,22.66,1,33.19,1.51V694.41c-131.18,0-259.56,0-387.95,0-49.64,0-61.62,12.32-61.73,63-.1,49,0,98,0,144.86-5.71,2.51-6.73,3.35-7.76,3.36-27.08.35-54.17.4-81.25,1-36.59.74-52,15.07-52.21,51.09q-.81,132.54,0,265.1c.2,34.33,15.68,50.87,48.9,51.14q134.31,1.08,268.64,0c33.48-.25,49.47-16.58,49.7-50.45q.92-132.54,0-265.1c-.22-35.8-16-51-52-51.74-29-.57-58-.11-86.52-.11V781.16h363.4V906.53c-30.08,0-57-.27-84,.06-40.62.5-55.62,14.92-55.79,55q-.56,129,0,258c.17,38.46,15.26,54.14,52.92,54.35q130.78.75,261.56,0c36.34-.2,52.59-15.66,52.84-50.94q.9-132.55,0-265.1c-.22-36.1-15.7-50.76-52-51.35-29-.48-58-.1-86.46-.1V781.18h364.93V906.53c-31.66,0-58.6-.27-85.54.06-40.59.5-55.59,14.94-55.75,55.07q-.56,129,0,258c.17,38.44,15.27,54.1,53,54.31q130.78.73,261.57,0c36.32-.2,52.55-15.67,52.79-51q.9-132.55,0-265.11C1344.57,921.86,1329.08,907.22,1292.73,906.63ZM353.27,993.54v194.25H159.64V993.54Zm89.28-514.07V229.27H975.38v250.2ZM805.26,994.06v192.32H610.43V994.06Zm453,192.46H1064.68V992.93h193.58Z"/></svg>