<svg id="Layer_1" data-name="Layer 1" xmlns="http://www.w3.org/2000/svg" viewBox="0 0 1309.19 1127.28"><title>Stock Item</title><path d="M.42,684.23c0,116.65-.17,233.3.1,350,.13,55.63,37.85,92.88,93.17,93,18.81,0,37.63,0,56.44,0h29.79v-17.43q0-268.8,0-537.62c0-25.42,6.49-32.07,31.35-32.07q443.79,0,887.57,0c24,0,30.71,7,30.71,31.26q0,256.81,0,513.64v42.2c28.65,0,55,0,81.28,0,62.45-.08,98.19-35.6,98.2-97.85q.06-397.93.15-795.86c0-44.36-19-75.11-59.77-93A1874.76,1874.76,0,0,0,956.81,39.8c-169-43.17-339.2-53.25-511.15-20.21-130.06,25-255.39,64.87-377.2,116.83C20.81,156.74-.41,189.5,0,241.15,1.19,388.83.42,536.53.42,684.23ZM920.86,314.15q95.22.17,190.45,0c12.22,0,18.33,5.6,18.3,17.89,0,18.34-.13,36.68,0,55,.12,13-6.18,18.76-19,18.69-32-.18-64-.06-95.93-.06-30.57,0-61.14.1-91.7,0-15.56-.06-20.23-4.7-20.37-20.05-.17-17.39.17-34.8-.11-52.19C902.3,320.71,907.68,314.13,920.86,314.15Zm-361.37,0q95.22.12,190.44,0c12.14,0,18.36,5.65,18.35,17.93,0,18.33-.13,36.67,0,55,.12,13-6.18,18.75-19,18.68-31.51-.19-63-.06-94.52-.06v-.05c-31,0-62.07.07-93.1,0-15.64,0-20.26-4.58-20.39-19.92-.15-17.4.16-34.8-.1-52.19C541,320.84,546.3,314.15,559.49,314.16ZM180,334c.14-14.89,4.62-19.65,19.11-19.69,63-.13,126,0,189-.15,12.91,0,19,5.81,18.86,18.8-.22,17.39.11,34.79-.06,52.18-.16,16.12-4.68,20.5-21.34,20.57-31,.12-62.05,0-93.08,0-30.56,0-61.12.08-91.67,0-16.35-.06-20.7-4.43-20.84-20.95Q179.74,359.37,180,334Z"/><path d="M295.08,631.69c-15,.31-23.44,8.86-23.5,24.1q-.36,88.15,0,176.29c.07,15.11,8.73,23.89,23.69,24q88.14.42,176.28,0c15.15-.06,24.27-8.64,24.35-23.37.33-59.23.19-118.46.11-177.69,0-11.85-6.18-21.58-17.44-22.34-23.61-1.61-47.4-.49-72.32-.49V721H360.74V631.58C337.3,631.58,316.18,631.26,295.08,631.69Z"/><path d="M563.68,631.8c-12.89.43-21.1,9.88-21.15,23.59q-.35,88.15,0,176.31c.07,15.71,9,24.38,24.77,24.43q87.45.3,174.9-.06c15.89-.07,24.65-8.7,24.73-24.46.28-58.78.2-117.55.08-176.32,0-12.38-6.5-22.13-18.58-22.9-23.19-1.48-46.54-.43-71-.43v88.7h-46v-89C607.71,631.61,585.67,631.09,563.68,631.8Z"/><path d="M475.43,903c-22.37-1.07-44.82-.3-68.95-.3v89.24h-46V902.51H347c-17.4,0-34.81-.32-52.19.13-14.12.36-23.2,9-23.27,23q-.45,88.86,0,177.73c.08,14.92,9.06,23.67,24,23.74q88.16.36,176.31-.06c15-.07,24-8.8,24-23.69q.49-88.86,0-177.73C495.91,912.59,488.36,903.61,475.43,903Z"/><path d="M746.44,902.94c-22.36-1.1-44.81-.3-69-.3v89.28h-46V902.56c-22.91,0-43.58-.27-64.25.08-15.94.28-24.64,8.63-24.71,24.43q-.42,88.15,0,176.32c.06,14.26,8.63,23.49,22.66,23.59q89.56.6,179.14.06c13.3-.07,22.5-9.06,22.58-22.25q.54-89.57,0-179.14C766.87,912.62,759.37,903.58,746.44,902.94Z"/><path d="M1020.59,903.6c-23.62-1.59-47.41-.48-72.36-.48V992h-45.5V902.57c-22.89,0-43.53-.24-64.17.07-16.56.25-25,8.73-25,25.55q-.27,86.74,0,173.48c.05,16.71,8.5,25.34,25.16,25.4q87.45.33,174.9,0c15.23-.06,24.24-8.52,24.32-23.33.31-59.24.2-118.48.06-177.71C1038,914.32,1032,904.36,1020.59,903.6Z"/></svg>