<svg id="Layer_1" data-name="Layer 1" xmlns="http://www.w3.org/2000/svg" viewBox="0 0 479.34 479.34"><title>Ledger</title><path d="M34.15,369.81c7.55,1.91,15.57,2,23.39,2.85a24.31,24.31,0,0,1,3.94.38l-2.77.33c.2,4.63.31,9.24.62,13.84.65,9.57,1.42,19.1,6,27.87,8.83,17.05,22.27,28.66,40.68,34.12,4.35,1.29,9.16,1.4,13.76,1.43q68,.38,136.08.48c34.08,0,68.17-.83,102.23-.25,30,.52,53.8-24,59.44-46.21,1.45-5.67,1.45-11.8,1.49-17.72q.38-53.67.42-107.33,0-85.32-.26-170.63c0-9.19-.5-18.38-1-27.56C417.55,69.08,411.7,59,403.88,50A60.4,60.4,0,0,0,374.82,30.9c-5.39-1.56-11.25-1.8-16.92-2-12.67-.37-25.34-.31-38-.45-.91,0-1.82-.16-2.73-.25h-173c-4.93.13-9.87.24-14.8.38-7.47.22-15-.6-22.35,1.51-23.18,6.66-38.65,21.55-45.39,44.6-2.17,7.4-1.86,15.6-2.15,23.45-.46,12.43-.47,24.88-.66,37.32,0,.6.06,1.21.1,2.16,1,0,1.87,0,2.77,0,7.88.28,15.82,0,23.61,1,15.37,1.94,22.08,11.72,20.57,25.45-1.29,11.73-8.68,18.6-21,19.93-2.11.23-4.23.38-6.41.57A72.09,72.09,0,0,0,85,179.72c4.66-4.36,6.29-9.68,3.87-15.78s-6.86-9.63-13.5-10c-5.55-.29-11.12-.52-16.68-.51a26,26,0,0,1-13.82-4A3.35,3.35,0,0,1,43.73,147c-.25-7.18-.37-14.37-.54-21.56,0-.75-.09-1.51-.15-2.42-8.46,1.22-16.23,3.65-22.6,9.44a22.62,22.62,0,0,0-7.54,15.9c-.09,1.54-.29,3.06-.44,4.59v.93c.2,2.06.3,4.14.62,6.19,1.67,10.68,8.37,17,18.07,20.67,6.3,2.39,13,2.65,19.58,3.27,2.67.26,5.34.58,8.22.9v46.93c2.92,0,5.61-.12,8.28,0,6.93.37,14,.15,20.74,1.48,8.7,1.72,15.83,6.45,17.4,16,1.47,8.9.95,17.56-7.38,23.57a30.53,30.53,0,0,1-19.3,5.69,50.76,50.76,0,0,0,6.06-4.27c4.75-4.46,6.49-9.95,4.12-16.2S82,248.45,75.22,248.11c-5.4-.28-10.81-.53-16.21-.5a26.36,26.36,0,0,1-14.07-3.91,3.32,3.32,0,0,1-1.21-2.39c-.25-7.11-.37-14.22-.53-21.32,0-.84-.08-1.67-.13-2.7-9.56,2-18.86,3.87-25.06,12.31a26.91,26.91,0,0,0-5.1,12.49c-.1.76-.3,1.5-.45,2.25v6.95c.34,1.73.62,3.48,1,5.19A23.7,23.7,0,0,0,26,272.59c6.61,3.49,13.8,4.81,21.12,5.59,3.83.4,7.67.68,11.73,1v46.59c1.11.06,2,.11,2.89.14,7.87.31,15.75.43,23.61,1,10.38.71,18.6,7.65,20.13,17.08,2.67,16.53-5.17,26-21.1,28.36a24.91,24.91,0,0,1-6.8.07c.64-.19,1.29-.36,1.92-.59a14.31,14.31,0,0,0,10-11.72A15,15,0,0,0,83.61,345c-3.17-2.46-7.08-2.45-10.84-2.74-7.08-.54-14.19-.78-21.26-1.44-5.82-.55-7.78-2.7-8-8.46-.23-6.1-.19-12.2-.26-18.3,0-.77,0-1.53,0-3-4.42,1.23-8.65,2-12.59,3.57-10.1,3.93-16.71,10.87-17.8,22.15a6.18,6.18,0,0,1-.4,1.31v8.82c.22,1,.45,1.93.65,2.9C15.49,361.27,23.75,367.16,34.15,369.81Zm275.27-71c-1.22,14.35-9.45,23.76-22.11,29.53-7.54,3.43-15.48,5.74-24.58,5.65v22.93h-30.9V335.13c-4.38-.31-8.27-.24-12-.9-10.25-1.8-20.48-3.75-30.64-6-4.64-1-5.57-2.95-4-7.48,1.86-5.3,4.14-10.46,6.21-15.69.78-2,2-2.61,4.15-2.07,7.1,1.79,14.21,3.62,21.39,5,12.37,2.4,24.81,3.41,37.23.25,5.08-1.29,9.75-3.45,13.36-7.44,4.07-4.5,4-8.71-.29-13-3.91-3.93-8.85-6.21-13.89-8.16-9.63-3.74-19.39-7.13-29-10.82-8.15-3.11-16.18-6.51-23.45-11.45-.39-.26-.76-.53-1.15-.78-12.45-8-15.67-19.67-13.17-33.43,1.21-6.69,5.22-12,10.14-16.51,8.36-7.71,18.45-11.92,29.43-14.23,5.52-1.16,5.49-1.15,5.53-6.73,0-4.49.18-9,.22-13.45,0-1.84.64-2.88,2.67-2.85,8.33.15,16.67.17,25,.4,2.4.06,3.22,1.23,3.31,4.16.13,4.09.09,8.19.11,12.28,0,.92,0,1.85,0,3,3.67.42,7.28.62,10.81,1.29,8.25,1.55,16.5,3.16,24.66,5.1,3.74.88,4.51,2.66,3.17,6.24-2,5.33-4.3,10.56-6.44,15.84-.8,2-2.19,2.61-4.23,2.18-6.64-1.4-13.25-3-19.95-4.08-11-1.74-22-2.71-32.74,1.2A37,37,0,0,0,228,222.69c-4.64,3.68-4.51,8.61.55,11.61a137.92,137.92,0,0,0,18.67,9c11,4.46,22.35,8.1,33.25,12.77,6.19,2.64,12,6.39,17.6,10.12,4.44,2.93,7.52,7.31,9.7,12.19a16.81,16.81,0,0,1,1.5,5.76A106,106,0,0,1,309.42,298.77ZM81.67,90a9.93,9.93,0,0,1-1.34.81l-.55-.3c.54-1.5,1-3,1.63-4.47,5.5-11.57,13.87-20.27,26.06-24.6,3.75-1.33,8-1.5,12.1-1.53q38.25-.36,76.49-.38c18.78,0,37.56.07,56.34.1,36.78,0,73.56.15,110.34,0A25.85,25.85,0,0,1,376,63a51.77,51.77,0,0,1,22.41,25.41c.28.68.41,1.42.81,2.87-1.56-1.07-2.58-1.68-3.51-2.4A64.5,64.5,0,0,0,373.5,77.68a50.12,50.12,0,0,0-12.57-1.58q-46.83-.45-93.65-.58-76.27-.13-152.54,0a18.74,18.74,0,0,0-4.75.74C99.69,79.07,90,83.13,81.67,90Z"/><path d="M465.67,206a208.75,208.75,0,0,0,0-42.34,22.71,22.71,0,0,0-3.16-9.77c-6.15-9.58-15-15.13-26.68-15.83v93.93c3.19-.71,6.24-1,9-2.06C456,225.62,464.32,218.49,465.67,206Z"/><path d="M451.9,323.18A37.14,37.14,0,0,1,435.75,326v62.81a64.91,64.91,0,0,0,8.05-1.7c11.81-4.11,20.78-11.38,21.76-24.56,1.09-14.84.91-29.78,1.24-44.67a22.58,22.58,0,0,0-.51-3.46C462,319,457,321.18,451.9,323.18Z"/><path d="M435.76,247.76v62.47c1.32-.19,2.45-.38,3.59-.52,12.66-1.6,26.88-13.08,26.79-29.35-.07-12.89.5-25.79.74-38.68,0-1.69-.25-3.37-.42-5.42A47.92,47.92,0,0,1,435.76,247.76Z"/></svg>