<svg id="Layer_1" data-name="Layer 1" xmlns="http://www.w3.org/2000/svg" viewBox="0 0 1417.32 1417.32"><title>Non-Stock Item</title><path d="M694.73,651.07c7.76,4.46,23,2.69,31.49-2,54-29.92,107.07-61.46,160.43-92.51C1001,490,1115.34,423.4,1232.74,355.06c-5.82-4.72-7.8-6.9-10.24-8.22C1057,257.21,891.74,167.3,725.62,78.92c-10.17-5.41-29-2.9-40.06,3C551.05,153.39,417.24,226.18,283.27,298.69c-32.06,17.35-64,34.88-98.64,53.75,5.79,4.71,8.37,7.42,11.47,9.24Q445.19,506.78,694.73,651.07ZM578.05,196.85,702.31,324.72c46.8-48.28,87.35-90.13,130.83-135l32,32.42L738.61,347.27l134.18,132-36,26.8L714.53,382.42,586,517l-29.49-36L680.65,358,544.92,231.47Z"/><path d="M158,736.78c0,95,.67,182.74-.51,270.43-.27,19.6,5.91,30.18,22.71,39.91,138.81,80.45,277.07,161.85,415.49,243,28.08,16.46,56.15,32.94,87.46,51.31V773.06c-47,73.9-90,141.62-135,212.33Z"/><path d="M1259.31,753.56,869.21,985.43,735.09,774.61v565.52c11.78-6.58,20.48-11.24,29-16.23,138.37-81.06,274.73-165.87,416-241.54,61.42-32.89,88.93-69.23,80.71-139.87C1253.73,882.05,1259.31,820.14,1259.31,753.56Z"/><path d="M883.52,918.59l488.24-287.32c-34-82.58-66.49-161.56-100.5-244.19L742.23,696Z"/><path d="M675.15,695.93,146,387.07C111.82,462,79.3,533.34,45.56,607.33l488.27,311.2Z"/></svg>