<svg xmlns="http://www.w3.org/2000/svg" viewBox="0 0 487.06 472.12"><title>Asset 5</title><g id="Layer_2" data-name="Layer 2"><g id="Layer_1-2" data-name="Layer 1"><path d="M427,352.24l-184.09,0H237.1c-2.64-18-4.95-23.9-12.84-31.95q-21.66-22.1-43.46-44c-13.31-13.37-29.38-20-48.38-19.89-39.41.17-78.82.05-118.23.06C5,256.45,0,261.46,0,270.58q0,69.6,0,139.19c0,9.45,4.94,14.35,14.47,14.36,17.13,0,34.33,1,51.36-.27,19.74-1.44,34.24,4.91,46.41,20.87,13.68,17.95,33.32,27.09,55.95,27.17q129.72.5,259.43.09c32.53-.06,59.5-27.64,59.43-60.18C487,379.53,459.48,352.24,427,352.24Zm11,94.16a43,43,0,0,1-11.78,1.6q-128.46.13-256.91,0c-15.31,0-27.93-6.16-38.19-17.56-6-6.64-11.87-13.56-18.78-19.14-9.83-7.94-21.66-11.26-34.39-11.19-17.77.08-35.53,0-53.62,0V280.4H29.7c34.25,0,68.51.13,102.76-.07,12.74-.07,23.2,4.21,32,13.41C178.21,308,192.24,322,206.14,336.05c7.86,8,8.73,18.53,2.11,25.82a20.38,20.38,0,0,1-28.33,1.53,55,55,0,0,1-4.51-4.65q-20.78-22.9-41.54-45.83c-1.1-1.21-2.26-2.38-3.55-3.74L112.74,325.1c3.92,4.4,7.73,8.71,11.59,13q17.38,19.23,34.82,38.45c18,19.94,47.38,20.66,66.55,1.81,1.4-1.37,4.05-2,6.13-2q73.57-.17,147.16-.09c16.46,0,32.92-.17,49.38.06,18,.25,32.09,13.24,34.51,31.24C465.23,425.05,454.77,441.57,438,446.4Z"/><path d="M261.12,80.78c-8.4,0-13.61,5.27-13.61,13.73q0,61.89,0,123.76c0,9.19,5,14.21,14.09,14.21q61.88,0,123.75,0c8.72,0,13.86-5.2,13.86-14q0-30.93,0-61.87h0q0-30.94,0-61.88c0-8.85-5.06-14-13.84-14Q323.24,80.76,261.12,80.78ZM375,208.12H271.85V105H375Z"/><path d="M244.36,262.39,242,263.85l-25.61-26.71-17,13.57c11.1,15,24.86,26.65,39.76,37.18a31.47,31.47,0,0,0-3.44-7.66c-2.12-3.18-1.58-5.6.93-8.29C239.45,269,241.81,265.59,244.36,262.39Z"/><path d="M409,257.86l-31.58,19.93c3.17,6.56,6.53,13.53,10.29,21.3l30.71-18.15c.8,1.35,1.78,3,2.77,4.68l.76-.62V269.11C414.45,268.36,413.43,260.62,409,257.86Z"/><path d="M425,80.08,448,61.67,417.46,31.34,402.29,50.53c5.46,5.07,10.77,9.8,15.86,14.77C422,69,426.51,72.52,425,80.08Z"/><path d="M326.68,24V0L284.17,5l5.48,23.34Z"/><path d="M424.58,242.35l18.07,14.44a156.66,156.66,0,0,0,22.94-36.88l-21.13-9.12C437.77,221.4,431.26,231.73,424.58,242.35Z"/><path d="M479.9,152.51H456c-1.49,13-2.86,25-4.28,37.49l23.47,5.3C476.85,180.49,478.38,166.46,479.9,152.51Z"/><path d="M394.08,17.83c-13.42-6.5-26.77-11.44-40.86-13.92l-4.49,22.55,35.44,12.21Z"/><path d="M319.76,312.31A153,153,0,0,0,362,307.36c-1.81-7.92-3.49-15.31-5.11-22.39l-37.11,4.28Z"/><path d="M269.1,35.59c-3.28-6.72-6.65-13.65-10.28-21.08-6.79,3.85-13.24,7.22-19.38,11.1-5.58,3.52-10.82,7.59-16.76,11.82l14.66,18.23Z"/><path d="M453.41,130.49l23.45-5.44c-4.89-13.72-9.56-26.87-14.41-40.49L440.87,95.1C445.09,107,449.12,118.39,453.41,130.49Z"/><path d="M169.79,187.89c4.88,13.77,9.49,26.81,14.35,40.53l21.57-10.5L193.27,182.5Z"/><path d="M292.62,310.32c2-8.9,3.63-16.41,5.19-23.49l-35.4-12.39c-3.24,6.74-6.55,13.66-10.39,21.68Z"/><path d="M222,71.09,203.11,56.15c-7.72,12.4-15.07,24.24-22.68,36.46L202,102.93Z"/><path d="M194.92,123.54l-23.44-5.27c-1.6,14.43-3.12,28.25-4.67,42.29h23.94C192.18,147.92,193.52,136,194.92,123.54Z"/><path d="M311.54,148.77v51.48h24V148.88L351.3,160.6l14.4-19.18c-12.29-9.15-24.12-18.23-36.28-26.85-4.29-3-9.28-2.31-13.54.84C304.41,123.9,293,132.5,281,141.46l14.33,19.09Z"/></g></g></svg>