<svg id="Layer_1" data-name="Layer 1" xmlns="http://www.w3.org/2000/svg" viewBox="0 0 479.34 479.34"><title>Fix Asset Type</title><path d="M212.05,169.78c-6.52-31.14-25.4-54.33-57.36-68.08-9.79-4.21-13.44-9-12.44-18.5,1.07-10.27.24-20.7.24-31.21H95.89c0,10.06-.92,19.86.24,29.47,1.32,10.84-3,16.71-14.19,21.1C55.47,113,38.48,131.62,30.07,156A63.55,63.55,0,0,0,27,182.07c1.66,17.76,12.88,31.89,27.93,42.41,18.77,13.1,39.3,24.2,59,36.26,15.26,9.35,30.62,18.6,45.43,28.49,3.23,2.16,5.61,6.72,6.16,10.44,2.66,17.94-9.13,35.34-27.34,41.51-20.85,7.07-46.24,1.59-57.25-13.15-3.69-4.94-5.31-11.15-7.57-16.88-1.06-2.69-1.39-5.6-2-8.24H25c1.2,5.67,1.86,10.88,3.43,15.86,8.63,27.44,27.77,47.28,56.44,59.37,8.6,3.63,12,7.85,11.23,16.37-.94,10.78-.23,21.68-.23,32.87h46.6c0-13,.22-25.72-.12-38.39-.11-4.31,1.67-6.4,5.82-8.3,8.35-3.84,16.82-7.7,24.41-12.59C210.08,344,235,289,177.19,249.12c-17.62-12.18-37.62-21.59-56.4-32.44q-18.87-10.92-37.33-22.38C73.28,188,71.28,178.94,73.25,168.38c3.69-19.75,20.88-32.85,44.53-33.26,24.57-.43,42.58,11.58,47,31.34.74,3.32,1.4,6.64,2.11,10h45.68c0-1.49.07-2.39,0-3.28A27.86,27.86,0,0,0,212.05,169.78Z"/><path d="M454.32,246.91c0-8.24-3.59-14-10.73-17.85-25.22-13.61-50.31-27.46-75.71-40.72-3.92-2.05-9.22-2.09-13.83-1.9-2.86.11-5.64,2.4-8.49,3.73a5.41,5.41,0,0,1-.26-1.1c0-16.68,0-33.36-.17-50a30.06,30.06,0,0,0-1.8-10.77,18.74,18.74,0,0,0-21.18-11.14c-9.79,2.06-15.78,9.44-15.81,20.08-.1,30.63,0,61.26,0,91.89q0,31.26,0,62.51l-1,.33c-2-2.65-4-5.28-6-7.94-9.64-13-19.19-26.07-28.93-39-5.34-7.09-13.31-9.6-21.31-7.16a19.2,19.2,0,0,0-13.54,16.95c-.59,6,1.93,10.84,5.42,15.44,18.14,23.86,36.17,47.81,54.33,71.65,9.61,12.61,19.47,25,29.06,37.65.94,1.22,1.14,3.24,1.16,4.89.1,9.94-.05,19.89.09,29.83.12,8.17,5.23,13.1,13.33,13.11q36.09,0,72.17,0c8.32,0,13.31-5.12,13.34-13.58,0-7.05.09-14.11-.07-21.17a7.69,7.69,0,0,1,3.11-6.88c17.18-14.3,26.67-32.54,26.79-55.12C454.42,302.72,454.23,274.82,454.32,246.91Z"/><path d="M321.6,92.15c10.63-.06,20-9.41,20-20a20.13,20.13,0,0,0-40.25-.1A20.31,20.31,0,0,0,321.6,92.15Z"/><path d="M231,135.84A19.62,19.62,0,0,0,250.88,156a20,20,0,0,0,20.28-20,20.43,20.43,0,0,0-20.35-20.1A19.87,19.87,0,0,0,231,135.84Z"/><path d="M391.62,92.13A20.17,20.17,0,0,0,411.9,72.05a20.12,20.12,0,0,0-40.23,0A20.5,20.5,0,0,0,391.62,92.13Z"/><path d="M250.82,92.14A20.57,20.57,0,0,0,271.16,72a20.14,20.14,0,0,0-19.8-20A19.83,19.83,0,0,0,231,71.21C230.77,82.77,239.62,92.09,250.82,92.14Z"/><path d="M392,115.92a20.4,20.4,0,0,0-20.3,20.13A20.14,20.14,0,0,0,392,156a19.9,19.9,0,0,0,20-19.73A20.14,20.14,0,0,0,392,115.92Z"/><path d="M251.15,219.75a20,20,0,1,0-.12-40,20,20,0,1,0,.12,40Z"/></svg>