<svg id="Layer_1" data-name="Layer 1" xmlns="http://www.w3.org/2000/svg" viewBox="0 0 479.34 479.34"><title>Fix Asset Class</title><path d="M343.22,390.86c-18.5-.1-37,.55-55.49-.17-21.32-.83-38.8,3.87-45.88,27.92-6.07-18.94-16.32-28.14-32-28.36-24.56-.34-49.13-.41-73.68,0-16.19.29-30.7,13-31.66,27.82-.79,12.36-.06,24.82,0,37.23h26.84V420.86l4.3-.22q.74,17.34,1.45,34.69H208q.65-17.54,1.27-35.09l4.48.11v35h55.6V421.22l4.59-.1q.57,17.11,1.16,34.21h70.93l1.65-34.26,3.89-.12q1.06,17.19,2.12,34.38h26.84c-.23-9.55-.38-19.11-.7-28.67C379.1,403.21,366.64,391,343.22,390.86Z"/><path d="M52.78,363.19h4.33V398c18.89-1.78,36.79,5.51,50.71-12.28,5.15-6.58,16.38-8.4,25-12.47-6.65-12.43-6.72-25.72-1-40H66.56C40.64,333.23,33,338.28,24,361.4v36.42H52.78Z"/><path d="M413.32,333.89H355.18c-.68,14.64-1.3,27.91-1.95,42a49.32,49.32,0,0,1,33.1,19.84,5.82,5.82,0,0,0,4,1.93c10.09.16,20.18.08,29.92.08,3.16-12-2-23.86,3.22-34.33l3.48.08v34.29h28.36v-34.5C446.84,338.72,439.94,333.9,413.32,333.89Z"/><path d="M101.44,60.44c4.39,11.85,17.66,19.33,29.84,16.81,13.67-2.82,22.35-14.2,21.52-28.36C152,35.17,143.15,28.3,131.36,24h-11.5c-1.86,1-3.7,2.12-5.58,3.13C102,33.79,96.65,47.5,101.44,60.44Z"/><path d="M160.51,301.61c-.44-12.75-.17-25.53-.17-38.31q0-69.44.07-138.88c0-3.39,1-6.76,1.58-10.14l3.4.53c.2,3,.54,6.08.57,9.12.15,12.45,0,24.91.35,37.35.45,14.93,9.67,20.05,22.27,12.43,13.64-8.24,27.16-16.67,40.65-25.16,8.43-5.3,10.91-12.4,7-19.07-4.12-7.07-11.69-8-20.81-2.47L192,141.19c0-7.75.06-13.47,0-19.19-.28-24-12.34-35.56-36.24-35.33-5.28,0-8,1.53-9.8,6.66-3.12,8.91-7.11,17.51-10.73,26.24-.58-4.27.27-8.09-.19-11.75-.8-6.48-2.39-12.87-3.85-20.31H119.06c1,4.59,3,8.79,2.62,12.73-.75,7.1-3,14-4.29,19.92-3-7.81-6.64-17.62-10.79-27.18-1.07-2.45-3.68-5.52-6-5.93-22.87-4-39.69,10.06-39.88,33.24-.24,29.37-.28,58.75-.32,88.12,0,10.58,4.77,16.78,12.73,16.87s12.67-5.82,12.78-16.68c.28-27.77.42-55.55.72-83.32,0-3.55.63-7.09,1-10.64l3.44.07c2.54,14.64.77,29.6,1.08,44.38.33,15.64.08,31.29.08,46.93v43.86L123,260.71c0-14.62-.12-29.51.15-44.39,0-1.91,2.15-3.78,3.31-5.67,1.08,1.91,3.08,3.8,3.11,5.73.26,15.64.09,31.29.21,46.93,0,3.12-.12,6.71,1.29,9.27,8,14.49,8.12,29.08,1.42,43.77,8.52,6.63,14.14-1.09,21-3.33C159.55,311,160.71,307.46,160.51,301.61Z"/><path d="M415.2,38.36q-101.11,0-202.24,0c-8,0-11.53,3.87-11.47,11.81.13,20.77,0,41.54.08,62.3a37.06,37.06,0,0,0,.78,5.42c17.34-6.41,17.34-6.41,17.34-23.24V57.33H407.83V191.47H219.6v-19.6c-17.41,6.45-18.78,8.77-18.14,26.56.28,7.78,3.24,11.73,11.51,11.71q101.11-.18,202.24,0c8.05,0,11.62-3.5,11.6-11.56q-.13-74.28,0-148.56C426.84,41.87,423.06,38.35,415.2,38.36Z"/><path d="M212.56,373.69,242.63,387c9.9-4.09,20.21-8.37,28.44-11.78V334.1H214.31C213.7,348,213.12,361,212.56,373.69Z"/><path d="M311.76,324.79a28.53,28.53,0,1,0,28.83,28C340.41,336.72,327.94,324.62,311.76,324.79Z"/><path d="M172,323.89a28.52,28.52,0,1,0,.41,57c16.12-.07,28.3-12.41,28.23-28.6A28.38,28.38,0,0,0,172,323.89Z"/><path d="M385.14,267.47a28.41,28.41,0,0,0,.88,56.81A27.83,27.83,0,0,0,413.65,296C413.62,280,400.83,267.19,385.14,267.47Z"/><path d="M94.12,267.41c-16.19-.12-28.45,12.1-28.41,28.32a28.1,28.1,0,1,0,28.41-28.32Z"/><path d="M247,267.41c-15.67.07-27.71,12.11-27.84,27.86-.13,16.19,12.13,28.6,28.17,28.52a28.19,28.19,0,0,0-.33-56.38Z"/><path d="M281.36,90.14c-3.36-.23-7.77-2-9.9-.46-10.61,7.48-20.61,15.81-31.06,24,3.18,3.77,5.8,6.88,9.07,10.74,10.42-8.16,20.5-15.48,29.76-23.73C281.37,98.8,280.72,93.75,281.36,90.14Z"/></svg>