<svg id="Layer_1" data-name="Layer 1" xmlns="http://www.w3.org/2000/svg" viewBox="0 0 1417.32 1417.32"><title>DISTRIBUTIONS</title><path d="M643.68,500.29c-.64,0-1.27.06-1.91.1h0C642.41,500.35,643,500.31,643.68,500.29Z"/><path d="M1019.65,1204.26c11.3-6.13,22-13.45,35.53-21.84l-71.87-70.31,14.38-11.74,73.38,71.33-14.81,12.15c14.36,18.45,14.36,18.45,35,18.45,32.54,0,65.08.26,97.62-.17,8.69-.11,13.95,1.75,18.68,10.14,9.05,16,27.41,22.1,44.38,17,16.64-5,29.13-21.89,28.61-38.59-.53-17.15-13.21-32.94-30.16-37.57-16.74-4.58-33.75,3.2-44.22,18.62-2.77,4.07-9.12,8-13.9,8q-50.77,1-101.57.07c-6.15-.11-12.22-4.08-20-6.85,148.09-113.67,221.33-260.05,221.64-443.34-3.68-.7-5.37-1.3-7.05-1.31-75.2-.07-150.39,0-225.59-.25-9,0-9.11,4.62-9.48,11.65-1,20-1.2,40.37-5.06,59.92-37.64,190.92-248.28,286.2-416.73,194.22-22.87-12.49-43.33-29.37-65.89-44.9l-119.08,209c1.26,1.56,1.9,2.79,2.9,3.55,62.74,48,132.7,80.52,210,96.53,27.68,5.74,55.94,8.71,83.93,12.94h50.14c3.8-.84,7.58-2.18,11.42-2.43C879.27,1263.25,951.66,1241.13,1019.65,1204.26Zm220.69-36.86c14.17-.22,24.28,9.33,24.63,23.26.36,14.56-9.63,24.89-24.27,25.08a24.44,24.44,0,0,1-25.06-24.64C1215.89,1177.94,1226.64,1167.62,1240.34,1167.4Z"/><path d="M70,451.71c16.83,1.09,29-6.81,38.21-21,2.52-3.9,9.45-6.92,14.4-7,45.22-.53,90.45-.65,135.67-.06,10.47.14,20.9,3.44,31.35,5.28.11,1.28.23,2.56.34,3.85l10.71-15.93c-7.4-12.62-16.93-15.65-29.58-15.47-48.29.68-96.6,0-144.89.46-9.6.08-16-1.64-21-11-6-11.38-16.67-17.37-30.09-17.68-22.77-.54-35.24,12.11-42,32.27v15.83a48.89,48.89,0,0,1,2.39,4.3C42.09,440.73,53.13,450.62,70,451.71Zm2.84-63.42c14.77.16,25.21,10.49,24.82,24.54-.4,14.25-11.3,24.19-26,23.72-13.3-.43-24.13-11.78-23.75-24.91S59.39,388.15,72.87,388.29Z"/><path d="M447.34,687.55C461.93,556.4,565.06,453.29,696,437.37c11.09-1.34,22.3-1.76,33.41-2.61V196.58c-140.41-15-368,102.7-425.74,220.07,2.51,2.68,5.1,5.61,7.85,8.38,11.48,11.53,22.8,23.24,34.71,34.32,2.1,1.95,6.95,2.19,10.17,1.51,12.43-2.64,24.22-2.24,35,5.24,16.34,11.36,21.77,34.1,12.49,51.71S373.35,543.22,354,536.24c-18.42-6.63-28.87-27.19-24.36-47.22,1-4.25,2.51-10.6.41-13-12.49-14-26-27.05-39.34-40.65-139.23,200.87-115.2,520,116.62,698.62a47.89,47.89,0,0,0,3.84-5.07q56.29-98.34,112.65-196.65c4.31-7.49,2.89-12.11-2.63-18.19C462.6,849.72,437.74,773.81,447.34,687.55Z"/><path d="M1110.41,249.65c-14.53,14.58-29,29.36-43.77,43.77-5.11,5-7.37,8.86-4.56,16.85,5.6,15.93.86,30.5-12,41.5s-27.8,12.61-43.1,5.47c-18.59-8.68-27.08-29.23-20.68-48.54,6.48-19.54,25.55-30,47.31-26.22,4,.68,9.72,1.62,12-.46,16.14-14.67,31.6-30.09,47.57-45.57-88.86-62.64-214.52-96.28-294.31-89.08V385.8c76.12,1.27,141.27,26.75,195.6,78.27,54.59,51.77,83.27,116,88.66,190.78h240.05C1322.68,506.09,1240.9,340.4,1110.41,249.65Z"/><path d="M1018.08,628.31c-9.61-19.69-19.27-39.37-29.8-58.57a47.61,47.61,0,0,0-14.81-16.31c-19.68-13-41.9-19.83-65.08-14.79-29.19,6.34-58.31,16.29-67.57,49.23-13.48,48,1,94.31,63.86,98.27,4.38.28,8.78.43,13.16.33,24.56-.58,35,7.78,33.27,32.32-1.42,20.26-7.75,40.17-11.88,60.25-4.72,23-10,45.89-13.76,69-1.35,8.37.08,17.63,2.33,25.92,1,3.66,8.89,9.25,10.75,8.29,16.2-8.26,37.13-14.11,46.48-27.68,30-43.54,48.84-92.18,46.52-148.45C1031.83,680.58,1030.36,653.46,1018.08,628.31Z"/><path d="M715.37,773.36c-11-7.3-24-13.19-36.93-15.48-19.47-3.45-33.78-11.4-44.57-28.38-12-18.86-29.7-32-52.52-33.68-29.7-2.25-38.09,4-42,30.22-1,6.49-1.68,13-2.23,17.37,1.89,34,4.94,64.51,29.79,89.25,18.22,18.15,28.43,41.59,31.21,68.06,3.29,31.39,17.47,57.69,41.8,77.95,3.7,3.09,9.67,3.45,14.59,5.08.75-5.19,2.53-10.5,2-15.55-.61-5.54-2.9-11.06-5.28-16.21-8.82-19.08-4.86-35.46,8.89-50.74,10.85-12,21.68-24.31,30.95-37.57,12.24-17.51,24.15-35.46,33.9-54.4C732.12,795.35,728.48,782.07,715.37,773.36Z"/><path d="M737,451.54c-18.71,1.71-37.54,3-56,6.16-60.52,10.42-113.17,34.86-148.5,87.88-14.93,22.42-25.82,46.65-30.17,75.51,6,20.72,13.32,42,27.58,60.34a10.17,10.17,0,0,0,5.36,3.54,7.88,7.88,0,0,0,5.9-1.2c6.76-5.35,3.84-38.11-4.31-39.69-17.17-3.33-12.06-15.08-8.06-22.59s12.63-13,20.38-17.29c2.16-1.21,8.69,4.38,12.63,7.57,9.9,8.05,15,6.54,20.53-5.46,7.17-15.5,14.13-31.22,22.85-45.85,9.35-15.69,23.3-25.86,42.37-28,11.28-1.27,22.78-2.69,33.47-6.21,6.23-2,15-7.9,15.56-12.87.85-7.19-2.83-17.12-8.14-22-3.43-3.18-13.37-.15-20.11,1.38-4.06.93-7.3,5.22-11.38,6.37s-8.77,1-13.26,1.2c-.64,0-1.27.06-1.91.1h0c.25-.61.48-1.26.69-1.94.43-1.35.81-2.81,1.21-4.23a41.07,41.07,0,0,1,1.3-4.05c.74-1.84,1.66-3.3,3-3.93,15.58-7.47,31.51-15.23,48.2-19.09,18.22-4.22,20.33-1.17,24.59,17.46,3.21,14,9.9,18,23.69,14.05s28.34-20.84,26.29-30.79C768.42,456.73,754.87,449.9,737,451.54Z"/><path d="M643.67,494.22c-.4,1.42-.78,2.88-1.21,4.23C642.89,497.1,643.27,495.64,643.67,494.22Z"/><path d="M641.77,500.39c.25-.61.48-1.26.69-1.94-.21.68-.44,1.33-.69,1.94Z"/><path d="M645,490.17a41.07,41.07,0,0,0-1.3,4.05A41.07,41.07,0,0,1,645,490.17Z"/><path d="M1358.18,174.87c-17.79-6.8-36.55-1.07-46.74,16.15-4.58,7.76-9.69,9.4-17.77,9.35q-77.14-.42-154.3.06c-5.22,0-11.55,1.43-15.43,4.58-10.89,8.83-20.75,18.9-31.52,29,4.63,3.57,7.32,5.77,10.14,7.78s5.73,3.8,9.4,6.21c6.32-6.58,11.87-13.57,18.68-19,4.36-3.48,10.56-6.5,16-6.55q74.51-.75,149,.07c4.75.05,11.22,4,13.85,8.15,8.88,13.87,21.21,21.49,37.1,21.06,19-.52,34.24-15.95,37.25-35.14C1386.46,199.73,1375.15,181.34,1358.18,174.87Zm-13.56,61.55c-13.15.37-24.39-10.28-25-23.65-.58-13.87,10.34-25.14,24.54-25.33,13.72-.18,25.42,11.37,25.17,24.85C1369.13,225.24,1358.06,236,1344.62,236.42Z"/><path d="M392.4,499.19c.2-13.73-9.5-23.57-23.61-24-13.07-.36-24.46,10.5-24.61,23.47s10.59,23.73,24.23,24.13S392.19,513.11,392.4,499.19Z"/><path d="M1023.79,297.15c-12.44.3-24.75,12.71-24.46,24.67.3,12.31,12.72,24,25.31,23.82,13.17-.19,24.19-11.56,23.89-24.66S1036.88,296.83,1023.79,297.15Z"/></svg>