<svg id="Layer_1" data-name="Layer 1" xmlns="http://www.w3.org/2000/svg" viewBox="0 0 1160 1275.9"><title>Material Requirement Planning</title><path d="M867,421.24c-21.38.47-42.78.11-64.17.2-3.49,0-7,.59-11.19,1v82.33H367.93V422.12c-5-.29-8.92-.68-12.81-.7-17.77-.07-35.54-.15-53.31,0-23.44.19-20.73-2.79-20.74,20.26q-.12,214.74,0,429.46c0,3.29,0,6.59,0,9.88.58,29.21,17.95,46.29,47.14,46.29,167.5,0,335-.35,502.51.39C855.75,927.81,879,911,879,880q-.42-223.62,0-447.23C879,423.45,875.64,421.05,867,421.24ZM535.57,785.81c0,2.66-1.23,6.12-3.12,7.8-33.39,29.62-67,59-101.24,89.11-20.49-18-40-35.09-59.36-52.36-1.74-1.56-3.34-4.34-3.36-6.57-.25-21.56-.15-43.11-.15-66.68,4,3.17,6.51,5,8.86,7.07,14.34,12.55,28.54,25.26,43,37.69,12.9,11.1,8.76,11.61,22.42-.29q42-36.58,83.76-73.41c2.2-1.93,4.5-3.73,7.45-6.17.78,2,1.77,3.32,1.78,4.66C535.71,746.38,535.81,766.1,535.57,785.81ZM507.3,648.86c-26.43,19.86-50.21,43.26-76.11,66-20.44-18-40.19-35.25-59.75-52.74a10.19,10.19,0,0,1-3-6.74c-.23-21.3-.13-42.61-.13-66.63l62.9,54.9,104.53-91.55c0,13-1.32,23.19.26,32.9C540.56,613,529.68,632,507.3,648.86ZM791.75,814.53c-.9,8.38-.19,16.92-.19,26.29H538.23c0-11.71-.16-23.08.19-34.43.05-1.43,2.6-3.47,4.36-4,2.42-.74,5.2-.39,7.83-.39,76.24,0,152.48.17,228.72-.22C789.34,801.73,792.82,804.49,791.75,814.53Zm0-168.06c-1,8.37-.2,16.95-.2,26.5H538.22c0-11.53-.16-22.88.19-34.21,0-1.5,2.44-3.63,4.16-4.19,2.41-.77,5.2-.41,7.82-.42,76.25,0,152.49.14,228.73-.2C788.74,633.91,793,636,791.76,646.47Z"/><path d="M418.29,466.35q161.77-.17,323.54,0c7.07,0,9.77-2.23,9.62-9.7-.44-22-.65-44.07.07-66.08.32-9.63-3.41-11.64-12-11.38-16.68.51-33.4.15-50.93.15-.76-8.54-1.24-15.4-2-22.23-3.74-33.44-15-47.51-47.73-55.18a255.77,255.77,0,0,0-118.08.06c-32.27,7.62-43.85,21.92-47.37,54.38-.8,7.4-1.51,14.8-2.34,23-18.17,0-35.56.25-52.93-.11-7.2-.15-9.82,2.21-9.69,9.61.38,22.68.44,45.38,0,68C408.26,464.65,411.49,466.35,418.29,466.35Zm161.4-125.84c22.73-.07,41.35,17.7,41.79,39.86s-18.76,41.08-41.79,40.94c-22.66-.14-41.35-18.46-41.28-40.46S557.09,340.58,579.69,340.51Z"/><path d="M755.61,25.31C492.87-44.34,271,31.51,87.8,231.22L0,177.06,52.77,401.57,277.25,349l-87.69-54.69C296.26,178.92,425.49,116.25,581,118,798,120.4,953.14,226.06,1055.19,415.39L1160,366.19C1073.14,193.81,941.23,74.51,755.61,25.31Z"/><path d="M876.32,936.41l84,56.7c-75.85,89.17-209.24,160-350.16,164.35-228.27,7-392.39-97.8-501.26-296.32L4.47,910.63c87.11,171.17,218.22,290.13,402.8,339.67,253.76,68.1,471.57-1.23,654.18-189.31l85.71,57.32c-15.29-77.64-29.84-151.54-44.57-226.39Z"/></svg>