<svg id="Layer_1" data-name="Layer 1" xmlns="http://www.w3.org/2000/svg" viewBox="0 0 1178 1178"><title>Purchasing</title><path d="M912,399a19,19,0,0,1-19-19H855a56.92,56.92,0,0,0,38,53.5V475h38V433.5A56.86,56.86,0,0,0,912,323a19,19,0,1,1,19-19h38a56.92,56.92,0,0,0-38-53.5V209H893v41.5A56.86,56.86,0,0,0,912,361a19,19,0,0,1,0,38Z"/><path d="M266,76H722v38H266Z"/><path d="M266,152h38v38H266Z"/><path d="M342,152H722v38H342Z"/><path d="M266,228H665v38H266Z"/><path d="M1178,893a57.08,57.08,0,0,0-57-57H961.74a74.62,74.62,0,0,0-99.49,0H798V517a207.67,207.67,0,0,0,114,34c115.23,0,209-93.77,209-209s-93.77-209-209-209a207.67,207.67,0,0,0-114,34.05V0H201.13L0,201.13V1064H676.62l.2.58a54.51,54.51,0,0,0,29,32.29l9.48,38A57,57,0,0,0,770.68,1178h282.66a57,57,0,0,0,55.31-43.17l9.48-37.94a54.55,54.55,0,0,0,29-32.31l2.87-8.58a54.74,54.74,0,0,0-9-50.94l17.34-69.4A56.71,56.71,0,0,0,1178,893Zm-64,151-2.87,8.61c-3.46,10.34-17.46,14.61-26.13,7.91L952.24,957.22a76.06,76.06,0,0,0,28-31.41l128.14,99.68A16.73,16.73,0,0,1,1114,1044Zm-375,16.52c-8.61,6.7-22.67,2.43-26.13-7.91L710,1044a16.73,16.73,0,0,1,5.59-18.48L843.74,925.8a76.14,76.14,0,0,0,28,31.4Zm98-177.54L799.63,912H703a19,19,0,0,1,0-38H838.7A72.54,72.54,0,0,0,837,882.93ZM750.77,950l-35.53,27.65L708.33,950Zm322.44,0h42.46l-6.93,27.65ZM1140,893a19,19,0,0,1-19,19h-96.63L987,882.93A73.25,73.25,0,0,0,985.3,874H1121A19,19,0,0,1,1140,893ZM912,855a38,38,0,1,1-38,38A38,38,0,0,1,912,855Zm171-513c0,94.29-76.72,171-171,171S741,436.29,741,342s76.72-171,171-171S1083,247.71,1083,342ZM190,64.87V190H64.87ZM38,228H228V38H760V199a207.85,207.85,0,0,0,0,286V836H703a56.77,56.77,0,0,0-37.43,99.66l17.34,69.4a54.54,54.54,0,0,0-10.1,21H38Zm1015.32,912H1007v-76H969v76H931V1026H893v114H855v-76H817v76H770.68a19,19,0,0,1-18.44-14.38l-6.58-26.39a55,55,0,0,0,16.7-8.78L912,974.06l149.64,116.39a55,55,0,0,0,16.7,8.78l-6.58,26.37A19,19,0,0,1,1053.32,1140Z"/><path d="M893,741h38v38H893Z"/><path d="M570,950h38v38H570Z"/><path d="M76,950H532v38H76Z"/><path d="M76,874H608v38H76Z"/><path d="M152,779H646V437H152Zm38-304H608V741H190Z"/><path d="M76,304H665v38H76Z"/><path d="M380,589h38v38H380Z"/><path d="M456,589h38v38H456Z"/><path d="M532,589h38v38H532Z"/><path d="M304,589h38v38H304Z"/><path d="M228,589h38v38H228Z"/><path d="M893,665h38v38H893Z"/><path d="M893,589h38v38H893Z"/></svg>