<svg id="Layer_1" data-name="Layer 1" xmlns="http://www.w3.org/2000/svg" viewBox="0 0 479.34 479.34"><defs><style>.cls-1{fill:none;}</style></defs><title>Asset Depreciation</title><path d="M330.32,369.37H292.24v12.57h38.08V369.37Z"/><path d="M292.24,394.83h0v12.56h38.05V394.83H292.24Z"/><path d="M330.29,246H317.63V233.41H304.87v12.65h-12.6V258.8H305v12.59h12.74V258.74h12.6V246Z"/><path d="M406.16,148.41q0-45.87,0-91.73c0-22.86-9.9-32.66-32.91-32.66q-133.33,0-266.68,0c-23.69,0-33.37,9.6-33.37,33.14q0,182.51,0,365c0,23.51,9.71,33.15,33.37,33.15H372.29c24.26,0,33.86-9.52,33.86-33.62q0-90.79,0-181.57Zm-234.22,274a37.91,37.91,0,1,1,37.9-37.91A37.91,37.91,0,0,1,171.94,422.42Zm0-86.94a37.91,37.91,0,1,1,37.9-37.9A37.9,37.9,0,0,1,171.94,335.48Zm0-86.93a37.91,37.91,0,1,1,37.9-37.9A37.9,37.9,0,0,1,171.94,248.55Zm173.34,61.7c0,2.76,0,5.51,0,8.27-.05,9.44-3.75,13.15-13.1,13.25q-20.81.21-41.6,0c-9.45-.09-13.22-3.74-13.24-13.1q-.13-66.18,0-132.38c0-9.45,3.73-13.16,13.09-13.26,13.55-.15,27.11-.1,40.66,0,10.68.07,14.17,3.49,14.21,14.07q0,8.16,0,16.31,0,24.48,0,48.94C345.29,271.64,345.35,290.94,345.28,310.25Zm0,99.61c0,8.62-4.42,12.6-12.92,12.56-14.18-.07-28.37,0-42.55,0-8.63,0-12.64-4.41-12.56-12.92,0-1.73,0-3.46,0-5.2,0-5.2,0-10.4,0-15.6,0-6.06-.07-12.13,0-18.2,0-.86,0-1.73,0-2.6.15-9.62,3.6-13.35,12.89-13.45,14.18-.17,28.37-.05,42.55,0,8.62,0,12.61,4.42,12.57,12.92C345.25,381.5,345.29,395.68,345.29,409.86Zm19.16-282.74c-.06,10.63-3.51,14.12-14.14,14.13q-55.8.1-111.59,0H130c-12,0-15-3.11-15.09-15.09,0-15.76-.11-31.52,0-47.28.08-9.39,3.79-13.16,13.17-13.17q55.8,0,111.59,0t111.59,0c9.38,0,13.11,3.79,13.18,13.16C364.57,95,364.54,111,364.45,127.12Z"/><path d="M183.84,209.71a42.76,42.76,0,0,0-6.75-3.61c-2.44-1.18-5-2.18-7.41-3.36-1.69-.83-3-2.09-2.7-4.19s1.9-2.92,3.71-3.41a5.42,5.42,0,0,1,2.11-.22c3.79.52,7.56,1.12,11.59,1.73.5-1.89,1.19-4.2,1.65-6.56a2,2,0,0,0-1-1.63,43.76,43.76,0,0,0-6.65-1.59c-2.9-.4-2.92-.27-2.93-3.31v-3.48h-7.14v6.8c-1.71.6-3.16,1-4.52,1.6a12.89,12.89,0,0,0-7.28,7.2c-2.53,6.71.1,12.81,7,16.07,3.41,1.61,7,2.85,10.45,4.42a5,5,0,0,1,3.08,4.94,4.38,4.38,0,0,1-4,3.86,17.53,17.53,0,0,1-5.68.21c-3.32-.59-6.58-1.59-10.06-2.48-.46,1.72-1,3.64-1.49,5.55-.75,2.67-.69,3,2,3.74,3.27.91,6.61,1.61,10.16,2.45v6.68a34.9,34.9,0,0,1,4.48,0c2.28.32,2.76-.64,2.7-2.75-.14-4.5,0-4.41,4.2-6.07,4.65-1.86,8-5.06,8.9-10.18C189.13,217.21,188,212.79,183.84,209.71Z"/><path class="cls-1" d="M291.8,93.69l-6.34,15.7h12.3c-.47-1.22-.92-2.4-1.35-3.56l-1.86-4.92L292.67,96C292.38,95.23,292.09,94.46,291.8,93.69Z"/><path d="M288.54,78.81l-20.85,50.9h6.91l6-14.52h22L308,129.71h8l-19.24-50.9ZM298.66,105l2,5.19.63,1.63H281.89l10-24.77L293,89.94c.67,1.8,1.32,3.52,1.95,5.18s1.26,3.31,1.88,4.93S298,103.32,298.66,105Z"/><path d="M286.92,76.4l-22.83,55.72h12.13l5.95-14.52H300.9l5.47,14.52H319.5L298.44,76.4Zm20.29,54.52-5.47-14.53H281.37l-6,14.53h-9.52l21.84-53.31h9.87l20.16,53.31Z"/><path d="M291.84,90.36l-8.16,20.24h15.83q-1-2.7-2-5.19l-1.87-4.93c-.61-1.63-1.24-3.27-1.87-4.93S292.51,92.16,291.84,90.36Zm4.57,15.47c.43,1.16.88,2.34,1.35,3.56h-12.3l6.34-15.7c.29.77.58,1.54.87,2.29l1.88,4.93Z"/><path d="M293,89.94,291.88,87l-10,24.77h19.37l-.63-1.63-2-5.19q-.93-2.49-1.86-4.93c-.62-1.62-1.24-3.27-1.88-4.93S293.64,91.74,293,89.94Zm4.57,15.47q.93,2.49,2,5.19H283.68l8.16-20.24q1,2.7,2,5.19c.63,1.66,1.26,3.3,1.87,4.93Z"/><path d="M287.73,77.61l-21.84,53.31h9.52l6-14.53h20.37l5.47,14.53h10.55L297.6,77.61ZM308,129.71l-5.47-14.52h-22l-6,14.52h-6.91l20.85-50.9h8.23L316,129.71Z"/><path d="M326.46,105a7.75,7.75,0,0,1,.52-2.76,11.81,11.81,0,0,1,1.47-2.7A17.78,17.78,0,0,1,330.78,97a29.57,29.57,0,0,1,3.1-2.5l1.59-1.09c.56-.4,1.15-.83,1.74-1.29s1.2-1,1.82-1.54a12.63,12.63,0,0,0,2.89-3.23l.1-.25a8.9,8.9,0,0,0,.77-3.3,7.28,7.28,0,0,0-2.44-5.22c-1.45-1.45-4.17-2.19-8.08-2.19a12.53,12.53,0,0,0-5.14.87,9.11,9.11,0,0,0-3.26,2.31,5.56,5.56,0,0,0-1.19,2.54h4.45a3.6,3.6,0,0,1,.25-1.11h-.93l1.89-1.36a6.06,6.06,0,0,1,1.71-.84,6.84,6.84,0,0,1,2.1-.31,6.19,6.19,0,0,1,4.37,1.61A4.85,4.85,0,0,1,338,83.8a7.29,7.29,0,0,1-.29,2.07,7,7,0,0,1-.83,1.76,12.41,12.41,0,0,1-1,1.16c-.38.41-.82.84-1.3,1.28s-1,.9-1.56,1.36-1.12.94-1.73,1.42l-2.22,1.71a30.77,30.77,0,0,0-3.46,3.12,14.59,14.59,0,0,0-2.15,2.83,17.28,17.28,0,0,0-1.23,3,8.82,8.82,0,0,0-.43,2.52v2.81h21.6v-2.43h-17Z"/><path d="M328,104.89a6.76,6.76,0,0,1,.42-2.11,10.57,10.57,0,0,1,1.29-2.35A16.52,16.52,0,0,1,331.8,98a28.4,28.4,0,0,1,2.93-2.36l1.59-1.1c.59-.41,1.2-.86,1.81-1.34s1.25-1,1.89-1.59a12.35,12.35,0,0,0,3.4-4l.39-1h0a9.1,9.1,0,0,0,.5-2.84,8.74,8.74,0,0,0-2.88-6.27c-1.76-1.77-4.75-2.63-9.13-2.63a13.83,13.83,0,0,0-5.77,1,10.46,10.46,0,0,0-3.82,2.75,6.47,6.47,0,0,0-1.51,3.81v1.13h7.44V82.41a2.47,2.47,0,0,1,.18-1,2,2,0,0,1,.49-.68l0,0a5.12,5.12,0,0,1,1.2-.57,5.48,5.48,0,0,1,1.65-.24,4.69,4.69,0,0,1,3.36,1.22,3.39,3.39,0,0,1,1,2.65,5.68,5.68,0,0,1-.23,1.63,5.08,5.08,0,0,1-.63,1.35,7.89,7.89,0,0,1-.83,1c-.36.39-.77.79-1.22,1.2s-1,.88-1.51,1.33-1.1.92-1.69,1.39l-2.21,1.7a31.2,31.2,0,0,0-3.64,3.28,16.07,16.07,0,0,0-2.38,3.15,19.64,19.64,0,0,0-1.34,3.25,10,10,0,0,0-.49,3v4.3h24.58v-5.42Zm16.24,4.67H321.11V106a9.59,9.59,0,0,1,.45-2.74,18.9,18.9,0,0,1,1.3-3.12,14.81,14.81,0,0,1,2.25-3,29.81,29.81,0,0,1,3.56-3.2l2.2-1.7c.6-.47,1.17-.94,1.72-1.41s1.06-.91,1.53-1.35.9-.84,1.27-1.23a12.85,12.85,0,0,0,.89-1.06,6.11,6.11,0,0,0,1-3.42A4.1,4.1,0,0,0,336,80.6a5.41,5.41,0,0,0-3.86-1.42,6.21,6.21,0,0,0-1.87.28,5.45,5.45,0,0,0-1.51.74h0a2.65,2.65,0,0,0-.69,1,3.15,3.15,0,0,0-.24,1.26v.39h-5.94v-.38a5.66,5.66,0,0,1,1.36-3.35,9.55,9.55,0,0,1,3.54-2.53,13,13,0,0,1,5.45-.94q6.19,0,8.61,2.4a8.06,8.06,0,0,1,2.66,5.75,9.55,9.55,0,0,1-.83,3.58h0a11.92,11.92,0,0,1-3.2,3.76c-.64.57-1.26,1.09-1.86,1.57s-1.19.9-1.78,1.31l-1.58,1.09a27.85,27.85,0,0,0-3,2.44,16.94,16.94,0,0,0-2.24,2.5,11.24,11.24,0,0,0-1.38,2.52,7.26,7.26,0,0,0-.47,2.5v.62h17Z"/><path d="M327.2,105a7.26,7.26,0,0,1,.47-2.5,11.24,11.24,0,0,1,1.38-2.52,16.94,16.94,0,0,1,2.24-2.5,27.85,27.85,0,0,1,3-2.44L335.89,94c.59-.41,1.18-.84,1.78-1.31s1.22-1,1.86-1.57a11.92,11.92,0,0,0,3.2-3.76h0a9.55,9.55,0,0,0,.83-3.58A8.06,8.06,0,0,0,340.88,78q-2.42-2.4-8.61-2.4a13,13,0,0,0-5.45.94,9.55,9.55,0,0,0-3.54,2.53,5.66,5.66,0,0,0-1.36,3.35v.38h5.94v-.39a3.15,3.15,0,0,1,.24-1.26,2.65,2.65,0,0,1,.69-1h0a5.45,5.45,0,0,1,1.51-.74,6.21,6.21,0,0,1,1.87-.28A5.41,5.41,0,0,1,336,80.6a4.1,4.1,0,0,1,1.26,3.2,6.11,6.11,0,0,1-1,3.42,12.85,12.85,0,0,1-.89,1.06c-.37.39-.79.8-1.27,1.23s-1,.89-1.53,1.35-1.12.94-1.72,1.41l-2.2,1.7a29.81,29.81,0,0,0-3.56,3.2,14.81,14.81,0,0,0-2.25,3,18.9,18.9,0,0,0-1.3,3.12,9.59,9.59,0,0,0-.45,2.74v3.55h23.08v-3.92h-17Zm16.25,1.37v2.43h-21.6V106a8.82,8.82,0,0,1,.43-2.52,17.28,17.28,0,0,1,1.23-3,14.59,14.59,0,0,1,2.15-2.83,30.77,30.77,0,0,1,3.46-3.12l2.22-1.71c.61-.48,1.19-1,1.73-1.42s1.08-.92,1.56-1.36.92-.87,1.3-1.28a12.41,12.41,0,0,0,1-1.16,7,7,0,0,0,.83-1.76A7.29,7.29,0,0,0,338,83.8a4.85,4.85,0,0,0-1.5-3.75,6.19,6.19,0,0,0-4.37-1.61,6.84,6.84,0,0,0-2.1.31,6.06,6.06,0,0,0-1.71.84L326.45,81h.93a3.6,3.6,0,0,0-.25,1.11h-4.45a5.56,5.56,0,0,1,1.19-2.54,9.11,9.11,0,0,1,3.26-2.31,12.53,12.53,0,0,1,5.14-.87c3.91,0,6.63.74,8.08,2.19a7.28,7.28,0,0,1,2.44,5.22,8.9,8.9,0,0,1-.77,3.3l-.1.25A12.63,12.63,0,0,1,339,90.53c-.62.56-1.24,1.08-1.82,1.54s-1.18.89-1.74,1.29l-1.59,1.09a29.57,29.57,0,0,0-3.1,2.5,17.78,17.78,0,0,0-2.33,2.61,11.81,11.81,0,0,0-1.47,2.7,7.75,7.75,0,0,0-.52,2.76v1.37Z"/><path d="M194.83,289H149v27.18a3.59,3.59,0,0,0,3.56,3.65h38.64a3.59,3.59,0,0,0,3.59-3.59V289Zm-9.65,3.33a.73.73,0,0,1,.8-.8h4.27c.58,0,.84.28.84.85v3.89c0,.64-.26.9-.89.9s-1.39,0-2.08,0H186a.74.74,0,0,1-.79-.79C185.17,295.07,185.17,293.72,185.18,292.37Zm-10.82.11a.79.79,0,0,1,.89-.91h4.14a.81.81,0,0,1,.92.93c0,1.26,0,2.53,0,3.79,0,.65-.29.94-.94.94H175.3c-.65,0-.94-.29-.94-.94Zm-10.78-.06a.74.74,0,0,1,.85-.85h4.23a.76.76,0,0,1,.84.87c0,1.3,0,2.61,0,3.92a.78.78,0,0,1-.88.86h-2.1c-.69,0-1.38,0-2.07,0s-.87-.27-.87-.86Zm-10.8,9.36a.72.72,0,0,1,.81-.79h4.2c.64,0,.92.28.92.92v3.83a.77.77,0,0,1-.89.88h-4.27a.71.71,0,0,1-.77-.75Q152.77,303.82,152.78,301.78Zm5.92,13.48a.75.75,0,0,1-.82.78H153.6a.72.72,0,0,1-.82-.8q0-2,0-4a.76.76,0,0,1,.82-.83h4.3a.75.75,0,0,1,.8.78C158.71,312.53,158.71,313.9,158.7,315.26Zm4.88-13.56a.67.67,0,0,1,.7-.7h4.52a.69.69,0,0,1,.7.74q0,2.06,0,4.11a.73.73,0,0,1-.8.77h-4.33a.71.71,0,0,1-.79-.75Q163.57,303.79,163.58,301.7Zm5.93,13.49a.78.78,0,0,1-.87.85h-4.23a.74.74,0,0,1-.83-.84c0-1.31,0-2.63,0-3.95a.76.76,0,0,1,.85-.86h4.2a.8.8,0,0,1,.88.88Zm4.86-13.42a.74.74,0,0,1,.82-.78h4.27a.74.74,0,0,1,.84.77q0,2.06,0,4.11a.71.71,0,0,1-.79.74h-4.33a.74.74,0,0,1-.81-.77Q174.34,303.81,174.37,301.77Zm5.94,13.47a.76.76,0,0,1-.85.8h-4.27a.74.74,0,0,1-.82-.79c0-1.35,0-2.7,0-4.05a.76.76,0,0,1,.81-.81h4.3a.75.75,0,0,1,.82.8C180.32,312.54,180.32,313.89,180.31,315.24Zm10.79-9.55c0,.68-.25.93-.93.93H186a.74.74,0,0,1-.8-.78q0-2,0-4.08a.73.73,0,0,1,.8-.77h4.27a.76.76,0,0,1,.86.87C191.09,303.14,191.1,304.42,191.1,305.69Z"/><path d="M149.06,288.28H194.8c0-.08,0-.13,0-.18,0-1.91,0-3.81,0-5.72a3.43,3.43,0,0,0-2.95-3.33c-1.39-.13-2.81,0-4.27,0v.27c0,1.43,0,2.87,0,4.3a2.15,2.15,0,0,1-2.16,2.15c-1.2,0-2.41,0-3.61,0a2.2,2.2,0,0,1-2.26-2.28c0-1.39,0-2.77,0-4.15V279H164.3v.37c0,1.41,0,2.83,0,4.24a2.14,2.14,0,0,1-2.19,2.15h-3.55a2.15,2.15,0,0,1-2.29-2.3V279h-3.64a3.61,3.61,0,0,0-3.59,3.6V288C149,288.07,149.05,288.17,149.06,288.28Z"/><path d="M158.43,285c1.2,0,2.41,0,3.61,0a1.44,1.44,0,0,0,1.52-1.52c0-.17,0-.33,0-.49,0-1.15,0-2.29,0-3.44,0-1.37,0-2.74,0-4.11a1.36,1.36,0,0,0-1.4-1.38h-3.73a1.36,1.36,0,0,0-1.41,1.4v8.13A1.37,1.37,0,0,0,158.43,285Z"/><path d="M181.71,285h3.7a1.37,1.37,0,0,0,1.45-1.46v-8a1.39,1.39,0,0,0-1.44-1.44h-3.64a1.37,1.37,0,0,0-1.46,1.45v8.1A1.36,1.36,0,0,0,181.71,285Z"/><path d="M193.69,398.29,193,398l-6.07-3-5.68-2.83-7.12-3.5c-1-.48-1.95-.95-2.9-1.45-.29-.15-.65-.2-.79-.61-.28-.77-.63-1.52-.95-2.29l-1.83-4.41L166.08,376c-.55-1.33-1.09-2.66-1.65-4l-1.85-4.43c-.42-1-.84-2.05-1.27-3.07-.22-.54-.45-1.08-.69-1.63l-.35.11a28.7,28.7,0,0,0-4,2.13,26.08,26.08,0,0,0-7.14,6.79,25,25,0,0,0-3.09,5.7,26.93,26.93,0,0,0-.9,2.76,23.49,23.49,0,0,0-.49,2.5,20.21,20.21,0,0,0-.29,2.45,24.49,24.49,0,0,0,.42,6.28c.25,1.08.47,2.18.81,3.24a25,25,0,0,0,1.86,4.28,26,26,0,0,0,7.74,8.73,25,25,0,0,0,7.57,3.74,28.31,28.31,0,0,0,4.06.9,31,31,0,0,0,4,.23,22.89,22.89,0,0,0,6.53-.86,27.44,27.44,0,0,0,3.85-1.35,26.26,26.26,0,0,0,10.3-8.14,27.27,27.27,0,0,0,2.33-3.69C193.94,398.49,193.9,398.38,193.69,398.29Z"/><path d="M200,376.78a25.6,25.6,0,0,0-2.89-6,24.27,24.27,0,0,0-3.39-4.16,37.29,37.29,0,0,0-2.95-2.54,22.62,22.62,0,0,0-4.54-2.73q-5.6,11.75-11.17,23.48l.34.19,5.12,2.54,6.65,3.28,6,3c1.66.82,3.32,1.64,5,2.48.21.1.32.1.42-.14.47-1.19,1-2.36,1.43-3.57a24.18,24.18,0,0,0,.79-3.15,22,22,0,0,0,.41-3.13,23.17,23.17,0,0,0-.41-6.27C200.58,379,200.36,377.84,200,376.78Z"/><path d="M172.8,381.49c.95-2,1.9-4,2.86-6,.76-1.61,1.53-3.21,2.3-4.82q1.47-3.11,2.95-6.21c.92-1.95,1.85-3.89,2.78-5.84.09-.18.07-.28-.12-.37a24.55,24.55,0,0,0-4.41-1.55c-1.1-.27-2.23-.44-3.35-.62a22.53,22.53,0,0,0-5.19-.12,29.29,29.29,0,0,0-3.47.5c-1,.2-2,.5-3,.8-.49.14-1,.36-1.47.55,3.33,8,6.64,16,10,24C172.7,381.65,172.76,381.57,172.8,381.49Z"/></svg>