<svg id="Layer_1" data-name="Layer 1" xmlns="http://www.w3.org/2000/svg" viewBox="0 0 1269.94 1046.06"><title>Purchase Request</title><path d="M904.1,752.31c-31.33,17.59-17.61,46.78-26.84,71.82H840.55c-159.48,0-319.11,4.19-478.36-1.73-82.42-3.07-150.38,14.61-208.56,73.08-18.71,18.8-42.24,32.83-66.91,51.58V83.39h41q354.65,0,709.28,0c44.35,0,44.36,0,44.37,45.6,0,66.41,0,132.81,0,201.7,68.32-47.58,96.16-106.7,83.94-183.94-3.61-22.85-.17-46.76-.68-70.17C963.52,28,936.12.32,886.84.26Q483.7-.25,80.54.24C27.37.3.36,27.67.32,81.11Q-.07,522.72,0,964.36c0,33.2,11.42,59,41.62,73.93,30.63,15.15,58.15,6.86,83.66-13.64,40.84-32.82,81.2-66.36,123.59-97.08,14.09-10.21,33.74-17.74,50.93-17.91,145-1.39,290-.79,434.93-.8,50.18,0,100.38.62,150.55-.26,42.79-.76,75.18-23.13,77.54-59,3.32-50.45.84-101.28.84-158.31C941,715.34,926,740,904.1,752.31Z"/><path d="M808.41,520.87,928,628,1178.86,347.9,1059.38,240.76C975.18,334.75,892.42,427.11,808.41,520.87Z"/><path d="M258.89,287.74q223.74.4,447.5,0c33.7-.07,53.05-15.94,53.76-41.91.74-27-19.81-43.92-54.75-44q-55.93-.18-111.88-.13t-111.87.06q-55.95,0-111.88-.06t-111.88.14c-33.33.12-53.55,16.06-54,41.39C203.48,270.08,224.31,287.68,258.89,287.74Z"/><path d="M593.52,201.65q-55.93,0-111.87.06t-111.88-.06q55.94,0,111.88.06T593.52,201.65Z"/><path d="M760.08,449.26c.73-27.48-19-44.39-54.69-44.48q-223.83-.52-447.65,0c-35.38.09-55.18,17.76-53.88,45.27,1.22,26,19.81,40,54.7,40.1q56,.18,111.91.13t111.92-.06q56,0,111.91.06t111.91-.14C740.65,490.05,759.39,475.4,760.08,449.26Z"/><path d="M370.47,490.31q56,0,111.92-.06t111.91.06q-56,0-111.91-.06T370.47,490.31Z"/><path d="M259.1,610c-35.05,0-52.82,14.21-53.18,41.07-.37,27.12,17.32,43.21,51.6,43.34,128,.46,256,.12,384-.11,4.12,0,8.23-2,13.18-3.27,4.71-25.8,9.28-50.85,14.8-81.11C530.43,610,394.76,609.86,259.1,610Z"/><path d="M753,735.69c23.88-2.87,48-9.88,70.14-19.52,23.72-10.32,45.29-25.59,72.21-41.27L772.5,564.27c-54,42-42.55,102.08-51.42,154.86C720.4,723.15,742.66,736.93,753,735.69Z"/><path d="M1229,186.61c-72.7-64-55.33-75.2-130.36,14.39l122.1,109.81c5.42-9,9-17.57,14.8-24.14C1282.24,234.05,1282.65,233.85,1229,186.61Z"/></svg>