<svg id="Layer_1" data-name="Layer 1" xmlns="http://www.w3.org/2000/svg" viewBox="0 0 479.34 479.34"><title>Fix Asset</title><path d="M436.42,98.35H433.9V59.61a8.44,8.44,0,0,0-8.42-8.43H383.35a8.44,8.44,0,0,0-8.43,8.43V98.34h-2.51a6.7,6.7,0,0,0-6.71,6.7v41.77a6.71,6.71,0,0,0,6.71,6.71h64a6.72,6.72,0,0,0,6.71-6.71V105.05A6.71,6.71,0,0,0,436.42,98.35ZM387,63.22h34.9V98.34H387Zm20.87,60.94V137.4a3.4,3.4,0,1,1-6.79,0V124.16a7,7,0,1,1,6.79,0Z"/><path d="M445.15,282.7a4,4,0,0,0,.2-2c0-4.7-.17-9.41-.13-14.12,0-5.53-6-12.54-12.12-12.65-6.88-.11-13.75-.6-20.62-.62-11.51,0-23,.32-34.54.24-6.92,0-15,6.72-14.47,15.06.6,9.76.15,19.58,0,29.37,0,3.4-.39,6.8-.61,10.3-1.24,0-2.21,0-3.18,0-17.05.16-34.09.39-51.14.43-7.64,0-14,7.09-13.83,14.54.36,12.17-.14,24.36-.34,36.54-.07,4.05.21,3.39-3.61,3.4-11.14,0-22.28-.06-33.43,0-6.12.06-12.25.52-18.37.54-6.8,0-13.56,7.22-13,14.2.21,2.74-.38,5.54-.18,8.29.24,3.31,1,6.58,1.4,9.88a9.52,9.52,0,0,1,0,2.61c-.41,3.09-1.26,6.17-1.27,9.25,0,12.49.46,25,.17,37.45-.13,5.87,6.1,13.3,12.09,13.36,4.25.05,8.48.52,12.72.8h31c2.82-.14,5.66-.13,8.46-.45,3.37-.38,6.71-1,10.07-1.57.44-.07.94-.27,1.31-.12,5.51,2.16,11.32,1.49,17,1.88a10.11,10.11,0,0,1,1.31.26h31.42c4.24-.27,8.57-.08,12.68-1s8.19-.43,12.33.26c3.43.57,7,.28,10.5.41.89,0,1.77.19,2.65.29h31c4.15-.28,8.3-.73,12.45-.8,6.15-.1,12.38-7.15,12.24-13.21-.08-3.26.28-6.52.44-9.78v-.9c-.69-3.07-1.39-6.14-2.07-9.21a2.91,2.91,0,0,1,0-1.1c.69-3.15,1.41-6.29,2.11-9.44v-8.08q-1.08-4.6-2.15-9.21a1.47,1.47,0,0,1,0-.66c.71-3,1.43-6,2.14-9V379.7c-.71-3.07-1.43-6.14-2.13-9.21a1.87,1.87,0,0,1,0-.88c.69-3.07,1.41-6.14,2.11-9.21v-8.08c-.7-3.07-1.42-6.14-2.11-9.21a1.87,1.87,0,0,1,0-.88c.7-3.07,1.42-6.14,2.13-9.21v-8.53c-.71-3-1.43-6-2.13-9a1.87,1.87,0,0,1,0-.88c.69-3,1.41-6,2.11-9v-8.08C445.73,292.6,442.07,287.8,445.15,282.7ZM239.59,377.18h54.73v13.4H239.59Zm54.67,27.41v13.5H239.61v-13.5Zm.08,41H239.61V432.06h54.73Zm14-123.38H363v13.44H308.37Zm-.05,27.5H363V363H308.32ZM363,445.59H308.35V432.07H363Zm0-27.47H308.35V404.59H363Zm0-27.5H308.38V377.14h54.67Zm14-82.47V294.64h54.66v13.51Zm54.64,14v13.45H377.08V322.18Zm-54.7-55h54.64v13.46H377Zm0,110h54.64V390.6H377Zm0,27.46h54.64v13.47H377Zm54.72,41H377.08v-13.5h54.66Zm0-82.56H377V349.69h54.72Z"/><path d="M208.91,445.7q-44.67,0-89.34,0-20.31,0-40.62-.45c-14.3-.27-26.3-9.13-30.13-22.84-1.38-4.95-1.59-10.35-1.59-15.54,0-38.83.34-77.66.36-116.49A234.85,234.85,0,0,1,55.17,230c7.06-26.68,21-48.85,42.67-66,9.19-7.27,19.52-12.71,29.6-18.56,8.07-4.67,15.87-9.8,23.82-14.68a5.17,5.17,0,0,1,2.34-.59c3.21-.18,6.42-.36,9.64-.37,16.83-.08,33.67-.07,50.5-.17a6.92,6.92,0,0,1,4.5,1.47,63.32,63.32,0,0,0,7.84,5.19q15.78,8.5,31.71,16.74c13.23,6.87,25,15.59,34.33,27.3,12.87,16.08,20,34.7,24.3,54.58,3.56,16.43,5,33.11,5.39,49.88.09,3.18,0,6.37,0,9.52h13.85c0-.93,0-1.68,0-2.42-.71-11.26-1.16-22.55-2.2-33.79a199.81,199.81,0,0,0-10.39-48.31c-7.51-21.21-19.14-39.62-36.55-54.17-9.78-8.18-20.93-14.1-32.13-19.95-7.42-3.87-14.94-7.55-22.36-11.4-.67-.35-1.56-1.6-1.38-2.06,1.37-3.6,2.1-7.78,6.8-8.88a9.85,9.85,0,0,0,2.22-1.07c12-6.65,19.15-16.55,20.54-30.59-4.18,0-8.2-.07-12.21.09-.58,0-1.54,1.15-1.61,1.84A19.27,19.27,0,0,1,241.6,95a35.64,35.64,0,0,1-6.69,5.46c-1.45,1-2.63.26-3.14-1.56a8.45,8.45,0,0,0-1.6-3.11,52.6,52.6,0,0,0-5.12-5.33c-1.51-1.33-1.79-2.36-.82-4.31,7-14,13.89-28.14,20.75-42.25,2.15-4.43,1.55-6.34-2.59-9.18a21.13,21.13,0,0,0-2.46-1.55c-8.57-4.25-17.15-8.45-25.71-12.72a4.68,4.68,0,0,0-4.45,0C201.9,24.24,194,28,186.09,31.69a4.38,4.38,0,0,1-3.26,0c-6.36-3-12.56-6.31-19-9.15-8.62-3.81-5.31-3.61-13.67-.07-1.24.53-2.47,1.08-3.66,1.7-6.8,3.59-13.69,7-20.34,10.88-3.86,2.23-4.28,4.51-2.39,8.47q6.2,12.95,12.5,25.82c3.12,6.37,6.3,12.71,9.49,19.11-1.49,1.49-3,2.87-4.32,4.35-1.86,2-4.05,3.75-4.63,6.72-.1.52-1.55,1.25-2.19,1.09a9.54,9.54,0,0,1-3.53-1.83,21.75,21.75,0,0,1-8.57-15c-.09-.76-.9-2-1.42-2-4.08-.17-8.17-.09-12.44-.09,1.55,14.68,9.16,24.84,22,31.24,3.07,1.52,5.73,2.94,6.72,6.77.92,3.56,1.42,3.6-1.81,5.48-5.82,3.37-11.73,6.59-17.6,9.86-12.76,7.1-25.33,14.54-36.2,24.39-19.09,17.31-31.23,38.93-38.29,63.49A235.09,235.09,0,0,0,34,288.61c0,2.83-.24,5.66-.36,8.49V401.7c.14,3.28.38,6.55.4,9.83.14,21.1,11.24,34.88,29.38,43.87a35.47,35.47,0,0,0,16.33,3.8c29.31-.17,58.62.06,87.93.17,1,0,1.92.16,2.88.24h41.3V445.7Zm9.8-329.95H150.29V102.36h68.42ZM139.87,45.09c-.26-.53-.45-1.08-.78-1.85,5.75-2.9,11.38-5.79,17.09-8.53.6-.29,1.7.19,2.46.54,7.78,3.64,15.55,7.28,23.28,11a5.39,5.39,0,0,0,5.1,0c7.73-3.75,15.51-7.39,23.22-11.15a3.5,3.5,0,0,1,3.54,0c5.28,2.76,10.63,5.41,16.11,8.18-.93,2-1.74,3.82-2.63,5.61q-9.39,19-18.78,37.94a2.42,2.42,0,0,1-2.56,1.57q-21.42-.06-42.85,0c-1.09,0-1.89-.08-2.48-1.3Q150.3,66.05,139.87,45.09Z"/><path d="M181,171.23c-47.85,1.53-86.28,43.59-85.37,89-.91,46.44,39.58,89.1,88.8,89.05,48.2,0,88.85-40.9,89.12-88.78C273.82,215.25,235.48,169.48,181,171.23Zm68.56,127.9c-13.25,22.12-33,34-58.61,36.16-19.62,1.66-37.58-3.12-53.25-15.22-14.87-11.47-23.87-26.75-27.46-45.11-.94-4.8-.78-9.82-1.12-14.74-.61-22.35,7.68-41,23.93-55.92,15.68-14.45,34.31-20.58,55.74-19.38,15.48.86,29.45,5.52,41.59,14.73,17.12,13,26.93,30.48,29.09,52C261.16,268.56,258.3,284.53,249.56,299.13Z"/><path d="M444.9,196.75a14,14,0,0,0-2.26-5.67c-2.95-5-7.84-6.14-13.13-6.18-8.53-.07-17.05,0-25.57,0v-.31c-2.32,0-4.64,0-7,0-7.39.2-14.8.18-22.17.78-5.66.46-11,6.84-11.18,12.53-.1,4.41.23,8.84-.1,13.23-.55,7.05,6,14.19,13.39,14.21,13.15,0,26.31.34,39.46.4,5.31,0,10.61-.39,15.92-.44,6.75-.08,13.11-6.86,12.87-13.31C445,206.91,445.25,201.81,444.9,196.75ZM431.74,212H377.08V198.47h54.66Z"/><path d="M211.72,237.2c-1.91-10.24-7.45-17.87-16.83-22.39-2.87-1.39-3.94-2.95-3.65-6.08.31-3.38.07-6.82.07-10.27H177.64a91.82,91.82,0,0,0,.07,9.69c.39,3.57-.88,5.5-4.16,6.94-7.77,3.42-12.76,9.56-15.22,17.57a23.27,23.27,0,0,0-.91,8.58c.49,5.84,3.78,10.49,8.2,13.95,5.5,4.31,11.53,8,17.3,11.92,4.48,3.08,9,6.12,13.34,9.38a5.56,5.56,0,0,1,1.8,3.43,12.9,12.9,0,0,1-8,13.65c-6.12,2.33-13.57.52-16.8-4.32a24.65,24.65,0,0,1-2.22-5.56,20.55,20.55,0,0,1-.59-2.71H156.84c.35,1.87.55,3.58,1,5.22a29.65,29.65,0,0,0,16.56,19.53c2.52,1.19,3.51,2.58,3.29,5.38-.27,3.55-.06,7.13-.06,10.81h13.67c0-4.29.06-8.46,0-12.63a2.62,2.62,0,0,1,1.7-2.73,55.39,55.39,0,0,0,7.17-4.14c11-7.92,18.3-26,1.34-39.13-5.17-4-11-7.1-16.55-10.67-3.69-2.39-7.35-4.83-10.95-7.36-3-2.09-3.57-5-3-8.52,1.09-6.5,6.13-10.8,13.07-10.94,7.21-.14,12.5,3.81,13.79,10.31.22,1.09.42,2.18.62,3.28h13.41c0-.49,0-.79,0-1.08A10.56,10.56,0,0,0,211.72,237.2Z"/><path d="M225.81,267h13.5V253.43h-13.5Z"/><path d="M129.63,266.91h13.49V253.46H129.63Z"/></svg>