<svg id="Layer_1" data-name="Layer 1" xmlns="http://www.w3.org/2000/svg" viewBox="0 0 479.34 479.34"><title>AP</title><path d="M377.58,88.18q-48.88-.06-97.77,0H266.09c-2.34,33.11,28.5,67.48,61.85,69.07,15.63.74,31.33.08,47,.61a37.92,37.92,0,0,1,15,3.4c10.7,5.22,15.93,17.91,13,29.26a26.36,26.36,0,0,1-25.24,19.83q-61.58.14-123.15.06h-8.11V263l-1.14.39c-31-62-62-123.92-93.47-186.72L62.22,255.89c29.64,21.94,35.21,30.27,46.3,69.42l43.22-86.53c.91,1.47,1.44,2.2,1.84,3,20.85,41.82,41.81,83.59,62.47,125.5,6.72,13.62,17.2,22.78,30.79,28.84,22.18,9.9,45.59,5.36,69.26,6.58V280.27c2.81,0,4.94,0,7.06,0,21.23-.24,42.54.59,63.68-.95,46-3.35,83.86-43.15,86.5-89.39C476.49,134.91,432.6,88.25,377.58,88.18Z"/><path d="M50.85,310.78c-25.85-2.09-46.06,20-45,40.18-.62,22.51,17.46,41.13,40.39,41.61,21.92.45,41-18.12,41.45-40.39C88.16,331.18,70.44,312.37,50.85,310.78Z"/></svg>