<svg id="Layer_1" data-name="Layer 1" xmlns="http://www.w3.org/2000/svg" viewBox="0 0 1170.16 1257.05"><title>Store Request</title><path d="M0,111.42q.41,487.93.22,975.87c0,7,.06,13.94.72,20.85,3.22,34,26.09,59.12,57.45,62.17,23.75,2.3,42.55-8.83,59.41-24.27C177,1091.9,236.05,1037.68,295.6,984a34.21,34.21,0,0,1,20.32-8.07c32.71-.83,65.46-.34,98.19-.4,4.32,0,8.63-.41,13-.64V887.64c-4.71-.22-8.73-.56-12.74-.56-44.19,0-88.39-.37-132.57.34a33.81,33.81,0,0,0-20.35,8c-54.13,48.72-107.75,98-161.52,147.13-3.07,2.81-6.3,5.44-10.73,9.25-.32-4.51-.59-6.53-.59-8.54q0-468.3,0-936.6c0-16,2.53-18.23,18.63-18.23H971.46a36.54,36.54,0,0,0,4.91,0c8.49-1.12,12,4,13.27,11.1.81,4.38.56,9,.56,13.46q0,216,0,432.08v14.39h87.54a37.56,37.56,0,0,0,.76-5.15c0-151.81.78-303.62-.54-455.41-.38-43-22.73-75.12-63.28-92.71-5.52-2.4-11.35-4.09-17-6.1H81.86C70.65,4.64,58.49,7.79,48.4,14.2,13,36.67,0,70.48,0,111.42Z"/><path d="M886.24,185.39H191.17v69.09H886.24Z"/><path d="M886.48,354.16H191.34v68.6H886.48Z"/><path d="M665.32,522.71H191.4v68.34H665.32Z"/><path d="M831.92,579c-187.49-.5-339.84,151.41-339.83,338.85,0,186.81,151.77,338.87,338.54,339.2,187.53.34,339.55-151.5,339.53-339.13A338.34,338.34,0,0,0,831.92,579Zm185.31,506.49H645.38V950.75l48.38-6v90.45H968.35V944.68l48.88,6.09Zm29.67-217.1c-4.59,18.3-17.76,28.49-36.16,30.82-17.29,2.19-31.06-5-41.08-19.11-2.82-4-4.8-8.56-8.1-14.57-7.29,21.32-20.68,33.21-41.2,33.94-22.69.82-36.85-12.35-45.36-34.39-8,21.95-22.09,34.9-44.4,34.44-21.24-.44-34.68-13.09-42.43-34.27-8.6,21.68-22.67,35.29-45.72,34.22-20.5-1-33.74-13.07-41-33.63-2.59,4.7-4.53,8.42-6.65,12-8.91,15.25-26.13,23.85-42.77,21.44-18.43-2.67-33.9-16.14-37.09-34-.91-5.14.85-11.84,3.7-16.38,18.74-29.94,37.78-59.71,57.62-88.93,3.17-4.68,10.79-9,16.38-9q138.92-.83,277.84,0c5.29,0,12.59,3.7,15.5,8q30.09,44.51,58.31,90.26C1047.41,854.29,1048.38,862.48,1046.9,868.38Z"/></svg>