<svg id="Layer_1" data-name="Layer 1" xmlns="http://www.w3.org/2000/svg" viewBox="0 0 1166.03 1312.06"><title>Sales Order</title><path d="M1165.78,704.6h-.56c0-141.84.33-283.67-.14-425.51-.25-77.12-40.66-140.54-111.5-161.59-39.79-11.81-83.7-10.55-125.89-13.19-24.84-1.56-39.17,13.07-39.69,37.89-.54,25.28,14.81,37.87,38.77,40a262.88,262.88,0,0,0,41.62.31C1057.84,176,1088.49,234,1088,300.71c-2,268.78-.84,537.59-.79,806.39,0,89.45-35.94,125.16-126.38,125.31q-165.14.28-330.27.66c-148.78.17-297.56.86-446.33,0-60.32-.36-100.29-35.27-104.07-95.77-4.38-70.1-2.6-140.62-2.53-210.95q.33-316.91,1.51-633.8c.28-73.84,36.41-109.3,109.64-109.5,18.84-.05,37.92,1.47,56.46-.94,21.27-2.77,36.73-17.7,31.77-38.68-3.37-14.26-18.24-35-29.89-36.36-35-4.08-72-5.13-106.42,1.72C49.22,127,.34,193.66.23,294.59q-.48,409.16-.05,818.3c.1,127,72.48,199.28,199.16,199.17q386.82-.32,773.65-1c117.79-.18,191.82-72.38,192.58-189.91C1166.46,982.31,1165.78,843.45,1165.78,704.6Z"/><path d="M445.51,78.65c32.33.43,64.66.1,97.88.1V135.2c-26.08,0-48.8-.29-71.5.07-31.16.5-48.16,15.1-47.78,40.38.36,24.58,15.93,38,46.14,38.09q114.45.44,228.91,0c28.57-.11,46.67-15.6,46.69-38.42s-18.68-39.36-46.13-40c-24.5-.56-49-.12-74.93-.12V78.74c34.79,0,68.13.39,101.45-.11,31.48-.47,49.48-15.43,49-39.52C774.82,14.79,757.11.33,725.49.22Q585.77-.24,446,.19c-33.23.09-51.47,15.17-50.69,40.55C396.11,65.15,412.91,78.22,445.51,78.65Z"/><path d="M254.91,481.58c.23,23.56,17.22,39.15,46.46,39.21,188.13.37,376.26.6,564.38-.68,13.51-.09,31.74-9.14,39.46-20,19-26.62-3-57.42-40.12-57.64q-35.26-.21-70.55-.27c-70.54-.13-141.09.08-211.64.06-93.07,0-186.14-.19-279.22.11C272,442.52,254.67,457.05,254.91,481.58Z"/><path d="M304,736.61q277.83-.37,555.66-.19c32.68,0,51.89-15.07,51.84-39.79S892.87,658.06,859.19,658q-138.18-.16-276.34,0c-69.84,0-139.67-.26-209.49,0q-34.92.15-69.83.51c-12.66.14-29.69,4-36.69,12.62-7.72,9.53-10.74,27.64-7.71,40C264.29,732.26,283.54,736.64,304,736.61Z"/><path d="M677.69,1151.25c18.06,17.33,37.1,17.55,55.06.08q108.79-105.74,217-212.1C966.1,923,968.26,903,950.18,887c-19.12-17-38.53-11-54.77,6.58Q806.55,989.71,718,1086.09l-19.35-5c-16.13-18.72-31.06-38.68-48.74-55.8-15.41-14.92-35.12-15.93-50.36.38-14.92,16-13.57,34.92,1.75,50.6C626.19,1101.81,652,1126.54,677.69,1151.25Z"/><path d="M288.89,946.7c7.86.73,15.81.73,23.72.73q87.61.09,175.23,0v-.22c66.33,0,132.66.37,199-.22,21.57-.19,36.19-11.1,36.46-34.27.26-23-13.48-35-35.36-35.09q-199-.6-398,.14c-21.19.08-33,12.7-33.32,33.9S267.8,944.72,288.89,946.7Z"/></svg>