<svg id="Layer_1" data-name="Layer 1" xmlns="http://www.w3.org/2000/svg" viewBox="0 0 923.41 1284"><title>Lot-Serial</title><path d="M312.74,113.87c19.65.42,36.53-16,36.7-35.75.17-19.1-16.27-35.53-35.68-35.68-19.59-.14-36.14,15.82-36.36,35.1C277.17,96.52,293.65,113.46,312.74,113.87Z"/><path d="M320,625.33q0,52.39,0,104.77,0-52.38,0-104.77c0-35.23.11-70.46-.06-105.69C320.08,554.87,320,590.1,320,625.33Z"/><path d="M394.43,758.61c5.61,0,11.22-.09,16.83,0-5.61-.13-11.22,0-16.83,0-4.06,0-8.14.33-12.15-.07C386.29,758.93,390.37,758.6,394.43,758.61Z"/><path d="M379.92,727.87q.06-51.42,0-102.86t0-102.87q0,51.43,0,102.87T379.92,727.87Z"/><path d="M213.42,168.69q49.83,0,99.68,0h0Q263.26,168.72,213.42,168.69Z"/><path d="M598.79,450.91c-33.39.43-66.8.26-100.2.16-30.11-.09-49.83-19.91-49.84-49.82,0-32.16.05-64.31,0-96.47,0-14.4,1.75-12.64-12.19-12.64q-151.24-.09-302.5,0c-17.33,0-20.64,3.34-20.64,20.81v622.8c0,17.62,3.61,21.21,21.37,21.21H587.11c2.18,0,4.38.11,6.55,0,9.67-.65,14.79-5.81,14.8-15.53q.09-113.33.12-226.64c0-4.79-1.48-7.22-6.08-8.91-10.81-4-21.4-8.58-32.07-12.95-10.25-4.19-10.26-4.2-10.26,6.83,0,43.39.08,86.79-.06,130.18,0,12.08-7.28,19.8-18.51,20.68s-19.86-5.63-22.25-17a50.46,50.46,0,0,1-.75-10.22c0-44.64-.64-89.3.35-133.92.29-13.06-2.57-21.33-15.49-24.77l-3.24-.83c0,22,.09,43.13,0,64.29-.09,14.38-7.64,22.92-20.08,23.16-12.66.24-21.43-8.91-21.44-23.09q-.15-103.49,0-207c0-13.21,7.22-21.65,18.5-23.11,10.14-1.31,22.68,6.48,23,18.25,0,1.92.32,5.74,3.22,4,6.21-3.65,14.18-4,18.41-11.63,7.24-13.13,23.84-14.53,34-3.57,1.86,2,2.86,5.05,6,5.57,14,2.33,26.44,9.18,39.47,14.26,6.28,2.45,7.47.73,7.4-5.28-.23-19.66-.47-39.34.1-59C608.91,452.85,606.54,450.82,598.79,450.91Zm-380.44,69.8c0-13.72,8.36-22.66,20.62-22.73,12.63-.07,20.78,9,20.8,23.4q0,51.43,0,102.88,0,51.91,0,103.82c0,13.93-7.84,22.87-20.07,23.13-12.87.28-21.34-8.54-21.35-22.86Q218.23,624.54,218.35,520.71ZM199.8,827.81c0,11.09-5.3,19.07-14.11,21.93a21.24,21.24,0,0,1-23.44-7.38c-3.74-4.8-3.93-10.27-3.92-16q.07-76.27,0-152.54,0-75.81,0-151.61c0-15.24,7.91-24.36,20.86-24.24,12.53.13,20.57,9.27,20.58,23.78Q199.86,674.81,199.8,827.81Zm63.77,22.61q-19.66-.15-39.33,0c-4.66,0-9-.72-10.83-5.56a11.66,11.66,0,0,1,3.43-13.62c6.82-5.94,13.9-11.58,20.65-17.61,6.53-5.82,12.95-11.9,15.92-20.46,3-8.72.64-16.12-6-18.3-8.15-2.67-12.9,1.42-16,8.72-2.16,5.11-5.41,10-11.92,7.5-7.3-2.83-6.44-9.11-4.44-15.09,4.93-14.72,22.07-22.67,38.43-17.94,15,4.31,22.42,18.28,18.62,34.79-3.11,13.56-12.35,22.77-22.31,31.48-2.8,2.45-5.54,5-10.56,9.49,9.9,0,17-.07,24,0,5.83.08,11.11,1.76,10.9,8.68C274,848.75,269.26,850.47,263.57,850.42Zm14.91-120.33q.09-105.24.07-210.46c0-12.86,8.59-21.64,20.63-21.65s20.67,8.75,20.73,21.66c.17,35.23.06,70.46.06,105.69q0,52.39,0,104.77c0,9.86-4.87,16.62-13.9,20.1-8.4,3.23-17.8.17-23.44-7.05A20.23,20.23,0,0,1,278.48,730.09Zm69.1,95.78c-1.28,11.52-7.8,19.54-18.47,23.86-17.52,7.1-36.79.43-43.17-14.7-2.48-5.89-3.64-12,3.34-15.36s10.31,1.56,12.54,7.27c3.18,8.18,9.33,10.39,17.31,8.65,6.49-1.42,9.3-6.42,9.47-12.35.25-8.08-4.47-12.7-12.39-13.72-4.62-.6-7.73-2.35-7.7-7.49,0-4.89,2.83-7.2,7.41-8.07,6.15-1.18,10.34-4.31,10.06-11.3-.22-5.39-3.2-8.81-8.18-10.11-6.44-1.68-10.86,1.42-13.6,7.08-2.87,5.91-6.66,10.75-13.65,6.43-6.48-4-4.73-10.09-1.73-15.71,9.2-17.16,40.72-18.59,51.35-2.35,6.67,10.18,4.89,21.69-5.66,32.77C345.2,806.2,348.79,815,347.58,825.87Zm-9.1-98.29q0-102.87,0-205.73c0-14.54,7.94-23.66,20.47-23.83,13-.19,21,8.94,21,24.12q0,51.43,0,102.87t0,102.86c0,14.46-8.07,23.43-20.78,23.35S338.49,742,338.48,727.58Zm82.52,107c-9.14,19.58-40.45,24.15-55.19,8.26a21.71,21.71,0,0,1-1.74-2.19c-3.63-5-5.33-10.64.09-15,5.74-4.64,10.47-1.32,13.88,4,3.8,6,8.92,8.26,15.91,6.56s10.3-6.7,11.58-13.2-.13-12.65-5.8-16.67-11.92-3.87-17.58-.1c-5,3.34-9.9,5.92-15.38,1.86-4.91-3.64-3.19-8.88-2.34-13.8,1.36-8,3.06-15.93,3.77-24,.81-9,5.15-12.73,14.08-11.85,4,.4,8.09.07,12.15.07,5.61,0,11.22-.08,16.83,0,5.31.11,9.25,2.27,9.25,8.19s-3.72,8.23-9.13,8.3c-6.86.1-13.72,0-20.58.06-6.4.07-11.37,7.23-9.41,13.21,1.17,3.58,3.36,1.52,5.19,1.1,12.09-2.82,23.24-1.45,31.27,8.91C426.49,809.58,426.83,822.09,421,834.59Zm-1.39-83.32c-12.35.09-21.08-8.68-21.11-22.39q-.22-104.29,0-208.59c0-13.65,8.86-22.44,21.2-22.3,12.69.15,20.14,8.52,20.16,22.85q.06,51.9,0,103.82t0,103.83C439.85,742.66,432.2,751.18,419.61,751.27Zm53,5.61c13.25,1,22.7,8.56,26.9,22.33a83.11,83.11,0,0,1-.3,49.75c-4.7,15.15-16.42,23.53-31.3,23.29-14.38-.22-23.66-8-28.68-23.61a76.72,76.72,0,0,1-3.35-24c.05-10.34.58-20.61,5.41-30.06C447.64,762.17,458.92,755.84,472.6,756.88Z"/><path d="M791.45,965.89c20.26-20.85,33.36-46.68,30.41-77.72q-2-21-3.46-41.94c-4-57.23-8.22-114.45-11.69-171.71-1.71-28-11.41-51.14-38.63-62-66.24-26.55-132.89-52.1-199.46-77.84-12.57-4.86-25.78-4.89-38.67-1.29-25.47,7.12-43.9,29.71-45.34,54.82-1.66,28.91,12.92,53.08,39.69,63.66Q593.42,679.17,663,705.38c6.55,2.48,8.92,5.46,8.89,12.67-.3,74.3-.14,148.6-.2,222.91,0,44.83-33.34,78-78.07,78H366.13c.52,1.58.55,2.29.91,2.65,45,45.05,89.44,90.73,135.33,134.88,29.07,28,72.82,26.1,101.28-2.26C666.46,1091.68,729.66,1029.47,791.45,965.89Z"/><path d="M50.21,899.1q0-294.08,0-588.14c0-48.87,32-81.24,80.62-81.28q168.12-.13,336.22-.15a18.91,18.91,0,0,1,14.74,6.08q67.35,67.74,135,135.21c2.39,2.4,4.1,5.49,6.13,8.25l3.43-1.69v-9.06q0-90.37,0-180.75c0-41.48-32-71.76-73.42-70.08-5.36.22-6.91,1.89-6.84,7.07.23,19-.42,38.11.31,57.12.35,8.92-2.65,10.69-11,10.68Q312,192,88.67,192.18a21.79,21.79,0,0,0-2.8,0c-6,.8-8.14-1.45-8-7.78.45-16.22.15-32.46.15-48.69,0-19.76-1.84-21.25-21.7-17.44-.91.17-1.79.54-2.69.77C19.91,127.69,0,154.19,0,190.85q0,325.92,0,651.83a84.33,84.33,0,0,0,1.31,15.8c4.78,24.83,18.91,42.2,42.18,52.22,4.71,2,7.09,1.67,6.69-4.11C50.06,904.1,50.21,901.59,50.21,899.1Z"/><path d="M651.29,938.15c-.67-68.06-.43-136.12.09-204.18.07-9.83-2.7-13.05-12.15-14.9-9-1.76-10,.59-10,8.63.29,69.61-.48,139.24.47,208.84.4,29.12-19.54,41.31-41.7,41.23q-226.18-.75-452.39.05C112,977.91,92,966.56,92.1,934.6c.7-200.43.35-400.87.36-601.31,0-9.06-.2-18.11.05-27.16.57-20.42,14.95-34.57,35.25-34.58q161.57-.07,323.13-.14c5.48,0,9.25,1.72,13.06,5.54q79.63,80,159.63,159.59c4.38,4.36,6,8.77,6,14.82-.27,25.59-.15,51.2-.07,76.8,0,3.54-1.24,7.79,3.55,9.65,5.74,2.21,11,5.72,18.06,6.38,0-35.86,0-71.41,0-107,0-4.05-2.74-6.1-5.12-8.48Q558.95,341.66,471.9,254.52c-3.3-3.3-6.61-5-11.44-5-109.89.12-219.79-.16-329.69.23-36.84.13-60,24.42-60,61q0,314.25,0,628.48c0,35.45,23.88,59.22,59.32,59.22,153.61,0,307.22-.47,460.82.42C620.05,999,651.67,977.49,651.29,938.15Z"/><path d="M887.47,963c-25.4-12.39-52.38-6.31-74.94,16.23q-96.67,96.57-193.24,193.24c-2.63,2.64-5.14,5.44-7.52,8.31-21.79,26.3-19.68,62.57,5,86.15,23.53,22.53,61.75,23.21,85.58-.32,68.35-67.53,136.1-135.67,203.92-203.73,11.72-11.76,17.43-26.37,17.17-43.23C922.79,993.54,910.87,974.37,887.47,963Z"/><path d="M113.74,168.92q49.85-.27,99.68-.23t99.68,0h24.33c59.28,0,118.55-.12,177.83.15,7.24,0,10-1.74,9.47-9.31-.64-9.63.1-19.34-.23-29-.83-24.21-16.39-39.11-40.68-39.15-28.39-.06-56.78-.16-85.17.1-6,0-8.31-1.4-7.64-7.86a71.74,71.74,0,0,0-4.52-34c-14.12-35.9-50.71-55.63-89.25-48.1-36.76,7.19-62.92,40.3-61.54,79.31.32,9-2.22,10.82-10.57,10.67-27.76-.47-55.53-.32-83.29-.12-20.57.14-36.37,14.84-37.71,35.23-.69,10.56.14,21.23-.65,31.78C102.87,166.65,105.37,169,113.74,168.92Zm200-126.48c19.41.15,35.85,16.58,35.68,35.68-.17,19.74-17.05,36.17-36.7,35.75-19.09-.41-35.57-17.35-35.34-36.33C277.62,58.26,294.17,42.3,313.76,42.44Z"/><path d="M469.15,836.37c5.89,0,9.69-3.82,11.87-9.11.38-.91.73-1.84,1-2.77a54.39,54.39,0,0,0,2.5-20.15c.34-7.23-.12-14.35-2.62-21.23-2.06-5.7-5.62-10.17-11.9-10.45-6.62-.29-11.25,3.62-13.33,9.82-5,15-4.5,30,.5,44.93C459.06,832.92,463.31,836.37,469.15,836.37Z"/><path d="M484.56,804.34a54.39,54.39,0,0,1-2.5,20.15,54.61,54.61,0,0,0,2.51-20.15c.33-7.23-.13-14.35-2.63-21.23C484.44,790,484.9,797.11,484.56,804.34Z"/></svg>