<svg id="Layer_1" data-name="Layer 1" xmlns="http://www.w3.org/2000/svg" viewBox="0 0 1239.24 1224.63"><title>Landed Cost</title><path d="M86.34,256.89c.1,105.51.52,211-.26,316.53-.18,25.06,8.64,35.85,34.32,34.59,28.22-1.37,56.6-1.37,84.81,0,25.37,1.24,35.49-8.89,34.82-34.22-1.08-40.22.51-80.5-.53-120.72-.67-25.86,8.24-38.54,35.87-37a749.47,749.47,0,0,0,81.55,0c27.23-1.48,37,10.37,36.33,36.6-1.05,41.31.2,82.67-.41,124-.32,21.84,8.3,32,30.93,31.25,27.16-.95,54.51-1.9,81.54.24,31.31,2.48,42.05-9.14,41.58-40.73-1.53-102.23-.57-204.49-.57-306.74V222.41h84.21c-10.87-12.56-14.14-18.18-19-21.63C518.68,134.43,425.94,67.85,332,3,324.16-2.38,304.93,0,296.1,6.08,205.84,68.61,116.75,132.81,27,196c-7.6,5.36-17.91,6.89-27,10.2l11.64,16.84H84.86C85.52,237.66,86.33,247.27,86.34,256.89Z"/><path d="M739.08,121.64C965.85,178.16,1119.44,375.7,1120.35,610c.05,12.55,3,29.24,11.16,36.73,16.43,15,37.47,24.93,61.3,39.91,20.32-208.54-42.08-381.39-197.31-516.56-134.29-116.94-291.9-158.35-472-132,54.32,53.21,80.65,65.37,145,71.88C692.17,112.42,716,115.89,739.08,121.64Z"/><path d="M617.54,1104.71C389.62,1107.16,184,942.11,133.85,719.13c-2.53-11.23-5.48-22.36-7.17-29.27l-75.9-17.57c28.44,348.09,388.84,562.4,648.65,499.12-7.46-11-16.65-20.94-21.59-32.64C666.18,1111.08,647.51,1104.39,617.54,1104.71Z"/><path d="M965.18,1224.62c149.72,1.47,273.57-121.14,274.06-271.3.47-147.6-120.89-271-267.64-272.14-151-1.17-274,119.45-275.31,269.86C695,1099.83,816.24,1223.15,965.18,1224.62Zm-9.28-240.8c-.31-5.65-8.45-12.68-14.64-15.82-10.49-5.31-22.44-7.67-33.53-11.89-39.09-14.9-61.13-42.22-61.17-85.21,0-41.38,22.87-75.39,63-91.23,14.3-5.66,29.68-8.6,40.63-17.75l33.52-26.32c3.62,16.94,5.25,24.57,6.11,28.58L1096,803.05l-32.66,46.82-75.11-29.08c0,31.8-1,58.26.73,84.53.42,6.29,8.86,14.16,15.51,17.5,13,6.49,27.59,9.63,41,15.33,37.43,15.9,57.92,43.8,57.45,85.24-.49,43.06-21.8,73.18-60.5,90.09-16.45,7.19-34.77,10.09-53.28,15.22-.68,9.84-1.36,19.67-2.14,31.08H957.79c4.94-29.88-12.52-35.33-36-42.35-30.73-9.2-59-26.67-92.08-42.38L866.29,1031l90.29,45.13C956.58,1040.08,957.39,1011.89,955.9,983.82Z"/><path d="M1042.24,1027c-.44-23.21-18.8-38.23-52.64-42v85.66C1025,1065.52,1042.69,1050.24,1042.24,1027Z"/><path d="M907.64,864.73c-.23,22.38,15,36.09,47.18,41.17V825.12C924.63,827.57,907.88,841.94,907.64,864.73Z"/></svg>