<svg id="Layer_1" data-name="Layer 1" xmlns="http://www.w3.org/2000/svg" viewBox="0 0 479.34 479.34"><defs><style>.cls-1{fill:none;}</style></defs><title>Purchase Invoice</title><path class="cls-1" d="M218.09,303.65c11.66,0,23.32.05,35,0-11.66.06-23.32,0-35,0-10.34,0-20.68.15-31,0C197.41,303.8,207.75,303.65,218.09,303.65Z"/><path d="M70.75,133.76c13-.09,26.06.26,39.1.44,1,0,1.93.08,3.11.14v4.32q0,32.35.05,64.72.17,90.69.41,181.37c.06,12.87.85,25.74,1.45,38.6.15,3,.87,6.09,3.22,8.35q3.3,3.17,6.77,6.15a17.18,17.18,0,0,0,9.85,4.47c5.91.47,11.85.65,17.79.87,9,.32,16.82-2.22,23-9.05,2-2.19,4.29-4.11,6.46-6.15.42-.39.92-.72,1.46-1.14.66.61,1.21,1.12,1.77,1.62,3.44,3.13,6.7,6.49,10.37,9.32a26.11,26.11,0,0,0,32.06-.14c2.82-2.2,5.36-4.75,8-7.15,1.34-1.21,2.64-2.46,4-3.69,4,3.62,7.59,7.25,11.55,10.44a26.1,26.1,0,0,0,33,.24c3.52-2.78,6.68-6,10-9,.6-.54,1.23-1.06,1.91-1.64,3.07,2.87,6,5.56,8.85,8.28,5.36,5,11.54,8,19.07,8.1a26.68,26.68,0,0,0,19-7.7c3-2.85,6.11-5.7,9.36-8.75,3.34,3.15,6.45,6.06,9.54,9,3.79,3.6,8.08,6.6,13.39,6.81,8.2.32,16.43.29,24.63-.07,7.74-.33,12.63-6,17.73-10.84,3.16-3,3.19-7.37,3.36-11.36.54-12.87,1.14-25.75,1.16-38.62q.17-139.05.13-278.11a48.93,48.93,0,0,0-1.69-13.3q-10.68-38.73-48.78-51.37c-4.36-1.46-8.77-2.78-13.57-2.77-33.47.1-66.93,0-100.4,0q-74.1.12-148.2.41a40.07,40.07,0,0,0-16.39,3.62c-12,5.31-19.9,14.61-25.55,26.06C59.39,83,57.4,101.11,57.06,119.56,56.94,126.51,63,133.81,70.75,133.76Zm60-69.39q105-.14,209.92-.24a177.83,177.83,0,0,1,19.18.72,36.26,36.26,0,0,1,23.87,12.71C390.22,85,394,93.71,394,104c0,32.24.4,64.48.44,96.72q.14,96.39.07,192.77v19.44c0,.75-.07,1.5-.11,2.51-4.69,0-9.24.07-13.78-.07-.75,0-1.56-.84-2.18-1.46q-12.16-12.09-24.27-24.24a16.59,16.59,0,0,1-1.49-2.11l-28.15,28.68c-9.68-9.8-18.88-19.11-28.25-28.61l-28,28.59-28.19-28.44-28.27,28.64-28.57-29c-2.26,2.44-4.17,4.61-6.19,6.65-6.6,6.66-13.22,13.31-19.93,19.85a5.93,5.93,0,0,1-3.54,1.47c-3.27.2-6.56-.05-9.83.1-2,.09-2.58-.51-2.57-2.54,0-15.4,0-30.8-.06-46.2q-.17-69.28-.33-138.57-.19-59.22-.55-118.45c0-5.79-.28-11.58-.39-17.37a33.74,33.74,0,0,0-4.38-15.46,22.45,22.45,0,0,0-14.59-11.61c-.37-.1-.73-.21-1.09-.34a5.28,5.28,0,0,1-.78-.6Z"/><path d="M352.53,190.88c-28.12.1-56.25.05-84.37.05v-.4q-42.87.34-85.74.71c-6.69.07-12.53,6.09-12.71,12.79a13.42,13.42,0,0,0,13,14q16,.45,32,.44c45.88,0,91.76-.19,137.64-.17a12.61,12.61,0,0,0,8.14-2.85c5.09-3.94,6.95-11.18,3.91-16.86C362,193.9,358.35,190.86,352.53,190.88Z"/><path d="M359.17,295.27a57.09,57.09,0,0,0-12.46-7.95c-7.12-3.45-14.59-6.15-21.8-9.43a48.93,48.93,0,0,1-9.4-5.53c-2.76-2.11-2.5-5.43.22-7.63a10.19,10.19,0,0,1,3.75-2.09,53.7,53.7,0,0,1,10.08-1.73,39,39,0,0,1,21,5.34,2.91,2.91,0,0,0,2.56.14,46,46,0,0,0,5.45-5.18c2.17-2.44,2-3.63-.49-5.71a13.66,13.66,0,0,0-3.58-2.41c-4.31-1.69-8.65-3.28-13.05-4.69-1.38-.44-2-.83-2-2.38a71.81,71.81,0,0,0-.46-7.76c-.44-3.73-2.12-5.25-5.83-5.43a40,40,0,0,0-5,.1c-3.47.29-4.52,1.38-4.71,4.9a62.12,62.12,0,0,0-.06,7.09c.11,1.94-.51,2.66-2.49,3.14a44.76,44.76,0,0,0-11,3.71,29.43,29.43,0,0,0-8.94,7.25c-6.11,7.75-3.77,19.7,4.83,25a135,135,0,0,0,15.33,7.62c6.25,2.8,12.69,5.18,18.94,8a28.87,28.87,0,0,1,7,4.56c3.21,2.81,2.71,6.92-.9,9.24a15.84,15.84,0,0,1-3.72,1.7,42.26,42.26,0,0,1-15.81,1.65,48.17,48.17,0,0,1-17.85-4.47,6.37,6.37,0,0,0-7.94,1.27c-1.67,1.65-3.41,3.23-5.61,5.3a77.15,77.15,0,0,0,6.4,4.86c4.94,3,10.44,4.55,16.06,5.75s5.55,1.24,5.59,7c.05,7.52,2,9.32,9.52,8.71.54-.05,1.06-.14,1.59-.23a4.59,4.59,0,0,0,4.16-4,55.72,55.72,0,0,0,.5-6.59c.14-4,.17-4.11,4-5,6-1.45,11.69-3.59,16.25-7.92C367,314.16,367.12,302.16,359.17,295.27Z"/><path d="M183.21,330.58q18.39.45,36.8.39c11.66-.05,23.32-.22,35-.73a13,13,0,0,0,11.46-17.92c-1.76-4.61-5.34-8.73-13.37-8.68-11.66.06-23.32,0-35,0-10.34,0-20.68.15-31,0l-4.43-.08c-7.46-.17-13.14,8.09-13,13.41A13.72,13.72,0,0,0,183.21,330.58Z"/><path d="M254.45,247.51c-12-.14-24.08,0-36.12,0v0q-18.29,0-36.58,0a9.55,9.55,0,0,0-2.92.42c-5.08,1.64-9.26,7.79-9.12,13.3.15,5.71,4.42,11.37,9.87,12.64a33.9,33.9,0,0,0,7.26.67c11.51.12,23,.25,34.53.17,11.27-.07,22.55-.39,33.83-.6a11,11,0,0,0,6.95-2.51,13.82,13.82,0,0,0,4.47-15.05A12.45,12.45,0,0,0,254.45,247.51Z"/><path d="M309.94,161.94a14,14,0,0,0,13.81-13.6c0-7.13-6.51-13.79-13.66-13.92-6.88-.12-13.58,6.57-13.67,13.64A13.93,13.93,0,0,0,309.94,161.94Z"/><path d="M352,161.92A13.83,13.83,0,0,0,366,148.48c.15-7.12-6.32-13.86-13.5-14.07-6.81-.21-13.63,6.45-13.83,13.51A14,14,0,0,0,352,161.92Z"/><path d="M183.5,161.94A13.87,13.87,0,0,0,197,148.26c0-7.13-6.57-13.81-13.69-13.84s-13.62,6.77-13.6,14A14,14,0,0,0,183.5,161.94Z"/><path d="M225.5,161.92a13.84,13.84,0,0,0,13.74-13.63c0-7.14-6.53-13.8-13.68-13.89-6.86-.08-13.54,6.63-13.64,13.71A13.92,13.92,0,0,0,225.5,161.92Z"/><path d="M267.87,161.94a13.9,13.9,0,0,0,13.61-13.59c.09-7.12-6.5-13.82-13.69-13.94-6.9-.1-13.53,6.63-13.55,13.76A13.79,13.79,0,0,0,267.87,161.94Z"/></svg>