<svg id="Layer_1" data-name="Layer 1" xmlns="http://www.w3.org/2000/svg" viewBox="0 0 479.34 479.34"><title>Setup</title><path d="M405.36,107.69c-4.1-5.25-8.47-5.86-14-2.11-6.25,4.26-12.43,4-17.06-.78s-4.76-10.64-.63-16.72c3.9-5.71,3.27-10-2.28-14.3C334,44.51,291.51,29.11,243.94,27.93a208.21,208.21,0,0,0-95,20.28c-5.71,2.68-7.74,7.47-5.43,12.33,2.22,4.67,7.06,6.13,12.57,3.79,1.23-.53,2.46-1.08,3.68-1.63,25.39-11.53,52.06-17.15,82-17.27,39,.47,76.42,12.17,110.15,35.65,2.72,1.89,3.51,3.41,2.53,6.82-3.25,11.26-.62,21.42,7.68,29.64s18.24,10.59,29.31,7.44c3.35-1,4.94-.3,6.84,2.46,29.25,42.47,40.57,89.21,33.48,140.29-4.29,30.87-15.79,58.93-33.69,84.42-1.64,2.34-3,3.14-6.09,2.42a37.6,37.6,0,0,0-13.67-.92c-11.63,1.7-19.63,8.63-23.45,19.64-3.74,10.8-1.78,21,5.78,29.74,4.6,5.33,12.64,4,15-2.37,1.31-3.54.21-6.61-2-9.62-4.18-5.8-3.74-12.12.86-16.68s10.7-4.84,16.36-1c6.5,4.37,10.31,3.74,15.22-2.56,25.75-33,40.91-70.25,44.46-112C455.29,202.58,440.08,152.18,405.36,107.69Z"/><path d="M315.33,418.62c-1.41.49-2.79,1.07-4.17,1.62-22.89,9.07-46.65,13.55-74.25,13.65-38-.38-75.44-12.09-109.2-35.49-2.82-1.95-3.73-3.56-2.71-7.15,3.15-11.07.61-21.13-7.53-29.28S99,351.13,87.8,354.41c-3.23.95-4.68.24-6.5-2.3-47.57-66.52-47.63-158.27-.17-224.68,1.94-2.72,3.5-3.45,6.84-2.44a29.6,29.6,0,0,0,33.33-12.22,30.39,30.39,0,0,0-1.42-35.21c-3.86-4.92-9-6-13.24-2.69-4,3.09-4.45,8.12-1,13.12,4.24,6.21,4,12.48-.77,17.07s-10.71,4.71-16.74.6c-5.75-3.91-9.92-3.26-14.28,2.28-26,33-41.29,70.35-44.93,112.23C24,276.55,39.2,327.08,74,371.69c4.06,5.2,8.49,5.8,14,2,6.23-4.25,12.42-4,17,.83s4.72,10.67.59,16.74c-3.81,5.58-3.39,10,2,13.93,8.46,6.11,16.85,12.44,25.86,17.65,40.6,23.49,84.42,32.27,131,27.23A202.15,202.15,0,0,0,321.85,435c5.21-2.22,7.27-6.93,5.43-11.67S320.62,416.78,315.33,418.62Z"/><path d="M64.84,387.87a26.45,26.45,0,1,0,.08,52.9,26.45,26.45,0,0,0-.08-52.9Zm0,35.34a8.82,8.82,0,1,1,8.89-8.87A9,9,0,0,1,64.83,423.21Z"/><path d="M414.67,91.07a26.45,26.45,0,0,0-.07-52.9,26.45,26.45,0,1,0,.07,52.9Zm-.18-35.19a8.81,8.81,0,1,1-8.64,8.62A9,9,0,0,1,414.49,55.88Z"/><path d="M54.48,107.16a8.71,8.71,0,1,0-9-8.55A8.69,8.69,0,0,0,54.48,107.16Z"/><path d="M380.85,416.26a8.8,8.8,0,1,0,8.76,8.7A8.61,8.61,0,0,0,380.85,416.26Z"/><path d="M81,63.05A8.78,8.78,0,1,0,72,54.46,8.84,8.84,0,0,0,81,63.05Z"/><path d="M425.25,389.78a8.78,8.78,0,0,0-.4,17.55,8.78,8.78,0,1,0,.4-17.55Z"/><path d="M360,327.15c-5.64-9-11.25-18-17-26.86-1.38-2.14-1.36-3.77-.31-6.09,3-6.64,5.76-13.41,8.35-20.23.88-2.32,1.85-3.58,4.49-4.11,10.38-2.11,20.7-4.52,31-6.88,7.44-1.69,9.29-4.08,9.33-11.82,0-3.89,0-7.77,0-11.66h0c0-4,0-8.07,0-12.1,0-6.81-2.13-9.43-8.73-10.93-10.48-2.39-20.94-4.84-31.46-7-2.58-.53-3.66-1.67-4.56-4-2.58-6.83-5.31-13.61-8.41-20.21a5.76,5.76,0,0,1,.49-6.46c5.95-9.13,11.76-18.36,17.52-27.61,3.16-5,2.74-8.65-1.42-12.88q-8.81-8.94-17.75-17.76c-4.82-4.77-8.18-5.13-13.94-1.5-9.09,5.74-18.18,11.48-27.19,17.33a5.41,5.41,0,0,1-6.05.45c-6.74-3.15-13.77-5.68-20.53-8.78a7.2,7.2,0,0,1-3.68-4.11c-2.61-10.57-4.87-21.22-7.28-31.84-1.44-6.34-4.14-8.51-10.63-8.55q-12.33-.08-24.66,0c-7.09,0-9.58,2.1-11.14,9-2.36,10.48-4.59,21-7.17,31.41a7.18,7.18,0,0,1-3.65,4.16c-6.78,3.07-13.82,5.56-20.58,8.66a5.45,5.45,0,0,1-6.05-.44q-13.72-8.88-27.6-17.53c-5.31-3.33-8.8-2.93-13.22,1.44q-8.93,8.82-17.75,17.75c-4.57,4.62-5,8.05-1.49,13.57,5.7,9.11,11.36,18.26,17.28,27.23,1.67,2.51,1.41,4.32.22,6.88-2.89,6.21-5.5,12.55-7.88,19-1,2.73-2,4.39-5.25,5-10.1,2-20.1,4.44-30.16,6.66-7.73,1.71-9.6,3.94-9.63,12q0,11.65,0,23.31c0,7.32,2.12,9.79,9.29,11.37,10.34,2.28,20.64,4.79,31,6.91,2.66.54,3.59,1.84,4.47,4.14,2.61,6.81,5.36,13.58,8.41,20.2,1.08,2.34,1.05,4-.33,6.08-5.86,9-11.57,18.12-17.3,27.21-3.67,5.83-3.33,9.15,1.42,13.94q8.69,8.76,17.44,17.43c4.66,4.62,8,5.06,13.57,1.59,9.24-5.78,18.45-11.59,27.59-17.54,2.14-1.39,3.76-1.33,6.08-.28,6.77,3.08,13.78,5.64,20.57,8.69a6.74,6.74,0,0,1,3.45,3.83c2.62,10.72,4.91,21.53,7.36,32.29,1.39,6.08,4.15,8.31,10.34,8.35q12.33.09,24.66,0c7.34,0,9.81-2.05,11.43-9.25,2.36-10.48,4.6-21,7.16-31.41a6.65,6.65,0,0,1,3.43-3.8c6.93-3.1,13.95-6,21.07-8.67a7.23,7.23,0,0,1,5.52.38c9.2,5.55,18.22,11.41,27.31,17.14,5.94,3.74,9.23,3.36,14.29-1.66q8.43-8.37,16.79-16.8C363.7,336.61,364,333.47,360,327.15Zm-78.38-61H255.21c-3.13,0-6.4-.18-6.52-4.31s3-4.5,6.24-4.5c11.93,0,23.85,0,35.82,0C289.65,265,288.43,266.17,281.65,266.18Zm12.29-26.51c-12.9,0-25.86,0-38.82,0a33.2,33.2,0,0,0-8,.82,21.94,21.94,0,0,0,5,43.14c6,.14,12.08,0,18.68,0-10.74,11.12-35.78,13.8-52.88,6.18-20.23-9-34.19-30.18-32.71-50.23,11.19,0,22.08.17,33-.05a22,22,0,0,0,4.34-43.38,27.57,27.57,0,0,0-3.28-.48c-3.31-.31-6.71-.18-10-.37h0c5.1-5.71,16.29-9.79,28.44-10.26,1.22-.05,2.44-.06,3.67,0s2.46.09,3.7.2,2.46.25,3.69.43a49.24,49.24,0,0,1,10.76,2.86C280.12,196.73,296.25,220,293.94,239.67Zm-96-26.5q9.19,0,18.37,0c3,0,5.51.88,5.52,4.41s-2.47,4.38-5.49,4.37q-13.23,0-26.44-.07a4.12,4.12,0,0,1-1.19-.38C189.93,214.13,191,213.18,197.94,213.17Z"/></svg>