<svg id="Layer_1" data-name="Layer 1" xmlns="http://www.w3.org/2000/svg" viewBox="0 0 908.8 1287.36"><defs><style>.cls-1{fill:none;}</style></defs><title>Purchase Quotation</title><path class="cls-1" d="M758.55,893.8c-15-5.28-30.27-9.76-45.45-14.52a40.34,40.34,0,0,1-23.7-18.72c-7.1-12.33-7.71-25.14.2-37.25,8.18-12.52,20.3-18.74,35.24-16.8,14.3,1.85,23.49,10.77,28,24.42,1.57,4.74,2.72,9.62,4.45,14.29,2.34,6.29,7,10.18,13.56,11.79,8.89,2.18,16.76.4,23.18-6.3,6.81-7.11,7.34-15.63,4.57-24.47-8.71-27.78-28.59-44-55.61-52-6.45-1.91-9.8-3.8-9.59-11.45A13.79,13.79,0,0,0,719,748.66c-8.28.46-14.17,5.31-14.05,13.45.12,8.4-3.3,10.6-10.71,12.55-28.64,7.55-50.72,32.45-54.09,59.65-4.42,35.57,6.86,58.92,36.85,76.17,14.18,8.15,29.62,13.13,45.2,17.73,9.3,2.74,18.48,5.75,26.42,11.61,14.77,10.91,16.95,33.56,4.52,47.15a43.51,43.51,0,0,1-69.67-7.19c-3.31-5.62-5.59-11.83-8.32-17.79-2.59-5.66-6.54-9.73-12.64-11.68-9.25-2.94-17.38-1-24.15,5.69-7.56,7.53-7.87,16.84-4.53,26.16,10.28,28.69,31.05,45.36,60.68,51,6.65,1.26,10.33,2.71,10,10.76-.31,8.7,6,14,14.19,14.18,7.78.12,14.6-4.83,14.19-13-.49-9.92,5.13-10.56,12.16-12,37.16-7.54,60.47-35.65,60.57-72.55C805.7,927.51,790,904.85,758.55,893.8Z"/><path class="cls-1" d="M454.41,151.46c27.26,0,50.24-22.83,50.43-50.08s-22.32-50.32-49.69-50.83c-27.18-.5-50.73,22.16-51.22,49.28C403.43,127.87,426.5,151.47,454.41,151.46Z"/><path d="M248.37,265c141.84.16,283.67.39,425.5-.66,10.89-.08,25.11-7.3,31.68-15.88,8-10.43,12.13-25.6,13.28-39.12,2-24,.66-48.28.57-72.45-.13-34.62-14.17-48.51-48.94-48.53-38.23,0-76.46,0-114.13,0C533.9,26.87,502.43-.09,454.34,0S374.66,27.08,352.5,88.34H298.19c-17.86,0-35.73-.26-53.58.06C208.5,89,189.26,108.52,189.29,144c0,20.48-.2,41,.06,61.46C189.76,237.82,216.36,265,248.37,265ZM455.15,50.55c27.37.51,49.88,23.54,49.69,50.83s-23.17,50.07-50.43,50.08c-27.91,0-51-23.59-50.48-51.63C404.42,72.71,428,50.05,455.15,50.55Z"/><path class="cls-1" d="M178,845.3H579.27V796.16H178Z"/><path class="cls-1" d="M177.43,1008.88H579.61V960.29H177.43Z"/><path d="M908.66,204c-.07-26.45-17.34-50.1-41.79-51.37-40.2-2.07-80.59-.56-122.29-.56,0,20.43.45,39.78-.09,59.1-1.38,49.47-31.49,79.07-80.38,79.11q-207.45.15-414.89,0c-46.79,0-84.75-38.31-85.09-85.34-.12-17.24,0-34.47,0-53.49-37.63,0-72.83-.05-108,0S0,172.18,0,207.11Q0,719,.06,1230.93c0,36.21,20.55,56.44,56.79,56.43H848.78c40.81,0,60-19,60-59.56q0-400.69,0-801.39C908.78,352.26,908.87,278.11,908.66,204ZM632.14,480.53h99.08V529H632.14Zm-455,.37H579.38v48.18H177.15Zm.9,199.63V631.4H579.31v49.13ZM579.27,796.16V845.3H178V796.16Zm.34,212.72H177.43V960.29H579.61ZM631.75,632h99.54v48.44H631.75ZM745,1033.09c-7,1.42-12.65,2.06-12.16,12,.41,8.16-6.41,13.11-14.19,13-8.14-.13-14.5-5.48-14.19-14.18.29-8.05-3.39-9.5-10-10.76-29.63-5.6-50.4-22.27-60.68-51-3.34-9.32-3-18.63,4.53-26.16,6.77-6.74,14.9-8.63,24.15-5.69,6.1,2,10,6,12.64,11.68,2.73,6,5,12.17,8.32,17.79A43.51,43.51,0,0,0,753.09,987c12.43-13.59,10.25-36.24-4.52-47.15-7.94-5.86-17.12-8.87-26.42-11.61-15.58-4.6-31-9.58-45.2-17.73-30-17.25-41.27-40.6-36.85-76.17,3.37-27.2,25.45-52.1,54.09-59.65,7.41-1.95,10.83-4.15,10.71-12.55-.12-8.14,5.77-13,14.05-13.45a13.79,13.79,0,0,1,14.44,14.13c-.21,7.65,3.14,9.54,9.59,11.45,27,8,46.9,24.22,55.61,52,2.77,8.84,2.24,17.36-4.57,24.47-6.42,6.7-14.29,8.48-23.18,6.3-6.53-1.61-11.22-5.5-13.56-11.79-1.73-4.67-2.88-9.55-4.45-14.29-4.5-13.65-13.69-22.57-28-24.42-14.94-1.94-27.06,4.28-35.24,16.8-7.91,12.11-7.3,24.92-.2,37.25a40.34,40.34,0,0,0,23.7,18.72c15.18,4.76,30.46,9.24,45.45,14.52,31.4,11.05,47.15,33.71,47.06,66.74C805.51,997.44,782.2,1025.55,745,1033.09Z"/></svg>