<svg id="Layer_1" data-name="Layer 1" xmlns="http://www.w3.org/2000/svg" viewBox="0 0 1247.58 1202.81"><title>Good Issue</title><path d="M1096.27,624.58c-7.74,8.23-14.27,20.41-15.58,31.46C1066.06,779,1009,878.8,918.39,961.24c-182.34,165.94-491,166.7-677.1-42.48C73.05,729.63,80.9,441.63,262.15,260.66c176.14-175.87,454.14-190.15,643-32.84,14.75,12.29,28.51,25.77,42.39,38.39l83.15-82.84C833.64-33,484.24-58.89,252.58,111.11-32.94,320.65-57.56,674.7,84.86,906.28c184.68,300.3,523,358.79,774.23,237,258.83-125.44,374.95-391.16,335.52-618.56C1160.92,558.7,1127.89,591,1096.27,624.58Z"/><path d="M893.53,491.67,796.13,403l-84.79,84.17L891.26,659.63l356.32-359-84.13-84.79Z"/><path d="M543.83,300.4V658.69H659.94V300.4Z"/><path d="M543.68,901H660V781.29H543.68Z"/></svg>