<svg id="Layer_1" data-name="Layer 1" xmlns="http://www.w3.org/2000/svg" viewBox="0 0 1267.98 1270.31"><title>Sale</title><path d="M1135.2,281.27c0-4.08,0-8.15,0-14.14-3.67,3.23-5.68,4.81-7.47,6.6Q1011.27,389.89,895,506.24a20.24,20.24,0,0,0-5.43,12.93q-.39,367.46-.39,734.9c0,8.36,1.79,12,12.32,14,8,1.49,16.3,1.72,24.47,1.76q93.94.4,187.89.49c12.92,0,22-9,22-21.86q0-244.57,0-489.14Q1135.67,520.29,1135.2,281.27Z"/><path d="M63.27,901.1c5.34,4.27,9.55,3.72,14.4-.93,16.21-15.53,33.08-30.39,49-46.22Q341.64,640.11,556.34,426c22.06-22,43.89-44.22,67.37-67.89,3.53,4.26,5.81,7.56,8.61,10.32,51.9,51.24,103.47,102.8,156,153.39,20.66,19.9,14.59,19.7,35.12-.42q135-132.34,268.92-265.78c15.73-15.58,31.15-31.49,46.83-47.36,15.47,14.93,29.87,29.27,44.76,43.08,15.36,14.25,16.64,13.93,22.26-6.49q20.82-75.6,40.9-151.41c7.07-26.79,13.51-53.77,19.71-80.78,2.93-12.73.82-14.5-11.32-11.26C1205,14.88,1154.43,28.21,1104,42.05c-29.26,8-58.36,16.68-87.39,25.54-8.86,2.7-9.54,5.2-3.42,12.19,9.89,11.33,20.41,22.12,30.93,32.88,5.66,5.79,11.86,11.06,17.07,15.87L805.32,384.72c-1.18-1.07-2.75-2.39-4.2-3.84-30.29-30.24-60.39-60.68-90.92-90.68q-37.58-36.93-76.08-72.93c-9.25-8.63-11.57-8.32-20.81.07-16.62,15.1-33.24,30.24-49.13,46.09Q332.36,494.6,100.87,726.1C68,759,36.31,793,4,826.42c-4.6,4.76-5.46,8.86-1.09,14.3A386.28,386.28,0,0,0,63.27,901.1Z"/><path d="M751.41,540.73c-25.33-25.85-51.08-51.28-76.63-76.92-16.94-17-33.75-34.14-51.13-51.74-2.75,2.58-4.31,4-5.79,5.44Q567.12,468.2,516.3,518.82a18.65,18.65,0,0,0-6,14.54q.21,357.89.12,715.77a21.06,21.06,0,0,0,21.12,21.09H739.18c11.14,0,21.14-10.11,21.09-21.37q-1.65-348-3.54-695.94C756.71,548.79,754.34,543.73,751.41,540.73Z"/><path d="M379.51,656.61c-2.78,2.31-4.24,3.34-5.49,4.59q-117.43,117.4-234.67,235a19.18,19.18,0,0,0-5,12.27q-.39,170.82-.2,341.64c0,10.5,9.81,20.13,20.49,20.13,46.5,0,93,.14,139.51-.06,23.24-.1,46.49-.4,69.7-1.45,13.76-.63,16.94-4.87,16.91-18.22l-1.26-583.41Z"/></svg>