<svg id="Layer_1" data-name="Layer 1" xmlns="http://www.w3.org/2000/svg" viewBox="0 0 1417.32 1417.32"><title>CONSTRUCTION</title><path d="M1126.8,984.77c-3.55,5.63-4.46,7.89-6,9.47q-122.93,123-246,246c-36.84,36.8-92.25,37.67-127.89,2.16s-35.44-91.28,1.14-128q113.19-113.57,226.85-226.65c12-12,24.35-23.54,37.38-36.11-53.5-37.17-109.76-58.34-169.64-64-40.5,107-108.3,195.41-171.35,290.7-1.19-6.81-2-9.78-2.2-12.79-2.84-39.75-5.35-79.53-8.56-119.25-.81-10.06,1.75-16.23,10.51-22.29,19.75-13.68,30.93-33.06,32.91-54.69-28,3.88-55.15,10.59-82.24,10.53-26.87-.07-53.73-7-80.64-10.88,2.37,23.55,15.11,42.71,35.14,56.84,7,4.92,9,9.64,8.41,17.76-2.56,32.05-4.39,64.15-6.64,96.23-.83,11.7-2.1,23.38-3.46,38.32-10.4-14.94-18.94-26.6-26.86-38.65-53-80.69-111.06-158.53-144.58-251.68-2.62.16-6.68.13-10.67.69C203.58,814.71,70.12,979.6,84,1169.45c5.75,78.88,45.05,130.34,121.51,149.39,42.25,10.53,86.59,17.07,130.07,17.48,192.51,1.82,385.05,1.28,577.57.36,47.53-.22,95-5.37,140.44-21.32,54-18.94,89.65-55,102-111.85,12.55-57.62,7.37-114.35-10.35-170.13C1140.45,1018.28,1134,1003.69,1126.8,984.77Z"/><path d="M341.07,446.51a194.78,194.78,0,0,0,20.37.56q265.62,0,531.24-.17a88.45,88.45,0,0,0,13.53-.68c20.07-3.13,34.23-20.18,33.45-39.93s-16.3-35.74-36.3-37.5c-4-.35-8-.45-13.64-.76-.49-51.11-13.45-97.24-39.62-139.3S789.33,153.63,743.17,131C735.83,172.7,729,211.9,722,251.06c-2.84,15.78-11.82,23.31-24.39,21.11s-18.73-12.41-16-27.86c7.14-41,14.48-82,21.72-123,3.19-18.1.36-25.38-16-33.87a59,59,0,0,0-24.43-6.78c-26.69-.82-53.54-1.65-80.1.37-11.76.9-23.44,7.79-34.32,13.54-7.87,4.15-9.35,12.27-7.69,21.3,7.68,41.83,14.9,83.74,22.4,125.6,3.18,17.76-2,28.31-15.41,30.56-13.23,2.22-21.4-5.13-24.75-22.3-.44-2.22-.69-4.48-1.09-6.7-6.54-36.92-13.09-73.84-20.06-113.12C407.51,183,359.33,262.28,354.67,368.24c-4.92.22-8.53.29-12.12.55-21,1.57-36.39,17.67-36.56,38.2C305.82,428.15,320,444.32,341.07,446.51Z"/><path d="M1307.77,777.13c-13.28,14-24.6,26.29-36.25,38.24-33.31,34.19-33.36,34.14-80.62,32.78a8.63,8.63,0,0,1-2.7-.09c-3.64-1.37-7.91-2.08-10.72-4.47-37.14-31.56-38-32.78-36.63-81.52.19-7.11,4-15.68,9-20.83,19.46-20.13,40.07-39.15,61.86-60.14-7.57-6.76-13.88-10.87-18.16-16.52-8.39-11.07-18.83-11.87-31.25-9.69-85.27,14.91-140.2,100.68-117.09,184.47,3,10.76,1.12,16.89-6.5,24.47q-135.4,134.61-270,270c-6.54,6.57-12.44,14.75-15.84,23.29a60.45,60.45,0,0,0,23.16,73c24.52,16.16,56.29,12.89,78.3-9q135.24-134.79,269.91-270.14c8.4-8.46,15.07-10.34,26.82-7.12,85,23.26,172.25-35.68,183-123.14.71-5.75.05-13.08-3-17.58C1325,794.26,1316.82,787,1307.77,777.13Zm-497.3,431.42a29.75,29.75,0,0,1-30.19-30,29.13,29.13,0,0,1,29.52-29,29.53,29.53,0,0,1,.67,59Z"/><path d="M752.72,725.38c-76.3,76.13-182.56,76.39-259.34.82-44.42-43.72-72.07-97.15-88-156.71-7.23-27-11.74-54.63-17.53-82.2h-31c3.51,21.12,6,41.29,10.3,61.08C384.87,630.51,417.68,705,480,763.75c82.89,78,193,80.27,278.56,5.8C813.67,721.64,846.92,659.93,867,591c9.8-33.56,15.45-68.34,23.27-103.95H856.24c-2,12.8-3.66,25.29-5.94,37.67C836.36,600.64,808.38,669.84,752.72,725.38Z"/></svg>