<svg id="Layer_1" data-name="Layer 1" xmlns="http://www.w3.org/2000/svg" viewBox="0 0 479.34 479.34"><title>Asset Deposal</title><path d="M259,84.59a47.19,47.19,0,0,0,46.05,40.91c24,.26,43.81-16.88,47.56-41.16,3.42-22.1-11.07-44.52-33.12-51.26-2.44-.74-4.9-1.38-7.35-2.07H299.93a26.55,26.55,0,0,1-2.69.79A47.08,47.08,0,0,0,259,84.59Z"/><path d="M387.44,227.26c-6.21-25-11.84-50.14-17.63-75.24-4.28-18.58-16.88-26.88-35.54-22.94Q262,144.3,189.83,159.83a24.42,24.42,0,0,0-10.05,4.88c-6.84,5.67-8.34,15.53-4.24,23.38,4.27,8.15,12.92,11.94,22.85,9.83,19.37-4.13,38.71-8.36,58.06-12.53,7.39-1.59,14.79-3.12,22.58-4.76,4.63,21.55,9.15,42.34,13.53,63.17,1.65,7.81,4.17,15.67,4.26,23.54.45,38.7.21,77.41.22,116.11,0,14.54-.16,29.07.11,43.6.24,12,9.37,21,20.92,21.15,11.28.15,20.46-8.5,21.43-20.27.19-2.29.1-4.61.1-6.92q0-56.83,0-113.67c0-1.29.15-2.57.22-3.76H349c0,9.23,0,18.18,0,27.12q0,47.67,0,95.34c0,13.32,10,23,22.71,22.25,11.59-.71,19.71-10,19.72-22.68,0-54.6-.12-109.19.12-163.79A139.23,139.23,0,0,0,387.44,227.26Z"/><path d="M264.44,263a26.29,26.29,0,0,0-4.86-.31q-59.89,0-119.79,0c-13.45,0-26.89-.07-40.34.05-6.22,0-10.75,3.95-11.51,9.42-.83,6.06,2.13,10.58,8.31,12.68.64.21,1.28.44,2.11.73.38,4.26.74,8.17,1.08,12.09q3,34.49,6,69c2.06,23.53,4.22,47.06,6.19,70.59.68,8.19,3.46,11,11.8,11H238.3c.95,0,1.9,0,2.85,0,4.84-.43,7.8-3.16,8.23-8q3.75-42,7.39-84,3-33.68,5.85-67.34c.22-2.52,1.12-3.68,3.62-4.47a10.83,10.83,0,0,0,7.46-11A11.15,11.15,0,0,0,264.44,263ZM152.21,430a12.42,12.42,0,0,1-12.74-11.72c-1.18-14.61-2.21-29.22-3.29-43.84q-2.35-31.67-4.73-63.32c-.5-6.62,2.16-11.72,7.52-14,5-2.09,10.81-1,14,3.24a16.52,16.52,0,0,1,3.25,8.08c2.15,26.78,4,53.58,6,80.37.7,9.48,1.44,18.94,2.16,28.41A12.52,12.52,0,0,1,152.21,430Zm77.64-120c-1,16.51-2.31,33-3.53,49.52-1.4,18.94-3.12,37.87-4.17,56.83-.52,9.37-7.28,14.06-13.51,13.57-7.58-.58-11.78-6.26-11.38-16.07,2-26.83,4.07-54.43,6.14-82,.59-7.84,1.12-15.69,1.8-23.53.67-7.57,6.22-12.69,13-12.23C225.41,296.63,230.34,302.25,229.85,310.08Z"/><path d="M177.9,251.25c3.17-2.32,6-4.64,9.1-6.51a4.51,4.51,0,0,1,4,.19,90,90,0,0,1,7.48,6.32c2.46-2.61,4.73-4.93,6.9-7.34,3.07-3.39,8.11-6.61,8.56-10.35.47-4-3.28-8.57-5.5-12.72a5.06,5.06,0,0,0-3.54-2.41A28.76,28.76,0,0,1,189,213.18a6,6,0,0,0-4.11-.93c-14.12,2.89-15.57,4.21-20.64,17.84-.14.38-.46.77-.43,1.13a5.18,5.18,0,0,0,.48,2.61C168.74,239.63,173.27,245.35,177.9,251.25Z"/></svg>