<svg id="Layer_1" data-name="Layer 1" xmlns="http://www.w3.org/2000/svg" viewBox="0 0 1190.05 1307.74"><title>Sales Quotation</title><path d="M940.33,1238.89a19.32,19.32,0,0,0,1.38-7.05q.75-171.06,1.32-342.14c0-1.6-.3-3.2-.55-5.59-2.29,2.19-3.91,3.69-5.46,5.24-23.59,23.57-47.09,47.23-70.83,70.65a15.66,15.66,0,0,0-5,12.25q0,104.7-.39,209.41a322.26,322.26,0,0,1-1.65,32.59c-.89,8.53-6.89,13-15.38,13q-141.39,0-282.79,0-219.75-.36-439.5-1.07c-8,0-16-.57-24-1.26-10.37-.9-14.74-5.86-14.75-16.1q-.09-102.37-.18-204.76-.14-343.47-.18-686.95c0-20.66.84-41.33,1.61-62,.36-9.65,3.09-12.49,12.83-13.68a172.17,172.17,0,0,1,19.29-.84c14.63-.12,29.26,0,44.3,0V159.41a15.57,15.57,0,0,0-2.84-.54c-22.22.16-44.46.06-66.68.64s-41.68,8.07-58.29,22.89C19.55,194.06,11,208.77,4.29,224.67a37.92,37.92,0,0,0-3,14C.92,305.37.86,372.06.69,438.76c0,4.19-.45,8.37-.69,12.56v679c.33,10.6.79,21.2,1,31.81.28,17.51.26,35,.54,52.52.62,37.35,18.89,64,50.32,82.64,6.19,3.66,12.58,7,18.88,10.45H871.09a52.56,52.56,0,0,1,5.21-2.82C907.23,1292.2,928,1269.57,940.33,1238.89Z"/><path d="M946.57,603.05l-3.44-1.26c0-29.09.11-58.19,0-87.28q-.6-140.05-1.4-280.11a21,21,0,0,0-1.52-8.34,167.37,167.37,0,0,0-9.93-19.59c-16.89-27.17-39.82-45.15-73.18-46.34-22.88-.81-45.77-1.35-68.65-1.95a15.47,15.47,0,0,0-3.41.63V240.5c9.44,0,18.33-.17,27.21.05,12,.28,24,.35,35.93,1.48,9.92.94,13.17,5.43,13.17,15.22q0,211.42.12,422.84c0,6.22-1.6,10.67-6.12,15.16Q772.08,778,689.2,861.12c-1.81,1.81-3.53,3.71-4.47,4.7l84.07,84.06,323.45-321.69-86.46-83.38Z"/><path d="M261.3,282c5.42,2.37,12.14,2.28,18.29,2.39,39.77.73,79.54,1.73,119.32,1.66,89.54-.14,179.09-.94,268.64-1.24,10.06,0,17.81-3.81,25.14-10.24s8.39-14,7.6-22.76c-.25-2.87,0-5.77,0-8.66-.45-34.44-.79-68.88-1.41-103.32-.23-12.36-4.55-17.12-16.56-19.55a48.83,48.83,0,0,0-8.57-1.19q-40-.72-80-1.26c-2.58,0-5.15,0-7.67,0C582,37.74,526.36,4,477.9.27,423-3.92,358.55,40.57,356.74,117.78c-2.36,0-4.75,0-7.13,0-26.88.39-53.77.42-80.64,1.3-18.33.59-24,6.3-24.87,24.91-1,21.74-1.25,43.52-1.31,65.29,0,16.43.44,32.87,1.2,49.28C244.53,269.93,251.54,277.69,261.3,282Zm210-220.41c19.31-.11,36.39,16.68,36.48,35.87.09,18.94-17.25,36-36.5,35.93s-34.24-16-34.27-36S452,61.65,471.28,61.54Z"/><path d="M214.2,778.26c19.52-.73,39.1.81,58.66.84q225.7.42,451.42.78c8.39,0,15.72-1.7,22.59-6.13,28.33-18.29,29.75-50.26,2.16-71-4.14-3.11-9.93-5.69-15-5.71-86.91-.34-173.81-.24-260.72-.24V696c-42.67,0-85.35-.26-128,.07-44.22.34-88.44.94-132.64,2-20.91.51-37.76,19.64-38,40.62C174.55,754.13,192.1,779.09,214.2,778.26Z"/><path d="M209.55,506.63a317.67,317.67,0,0,0,33.94,1.65q244.72.36,489.44.49a16.58,16.58,0,0,0,4.63-.29c19.13-5.42,33.36-27.35,30.66-47.13-2.51-18.5-20.34-34.21-38.81-34.21H472c-85.8,0-171.6.21-257.39-.27-10.29-.06-18,3.14-25.07,9.59C177,448,172,462.18,176.72,478.64,181.37,494.83,192.55,504.77,209.55,506.63Z"/><path d="M560.25,966.41c-69.36.09-138.71,0-208.07.35-46.45.24-92.9,1.44-139.35,1.56-12.52,0-20.9,5.85-28.44,14.54-10.55,12.18-12.58,25.74-6,40.29,6.79,15,17.79,24.81,35,25.69,10,.51,20,1,30,1.07q156,.49,312.1.79c1.88,0,3.76-.36,6.07-.6-2.05-28.42-3.61-56.16,8-83.69Z"/><path d="M1169.38,459.18c-18.42-14.74-51.31-19.4-67.28-6.45-19.78,16-38.13,33.82-56.84,50.61l87.32,86.42c14.32-15.31,29.19-31.49,44.35-47.37C1195,523.49,1196.17,480.62,1169.38,459.18Z"/><path d="M635.75,933.8c-6.43,23.73-13,47.42-18.83,71.3-2.58,10.6,1.74,14.54,12.39,13.14a33.78,33.78,0,0,0,4.56-.92c20.94-5.72,41.9-11.36,62.8-17.25,10.4-2.94,20.68-6.33,32.41-10l-85.77-82C641.35,914.75,638.34,924.22,635.75,933.8Z"/></svg>