<svg id="Layer_1" data-name="Layer 1" xmlns="http://www.w3.org/2000/svg" viewBox="0 0 1209.85 1253.92"><defs><style>.cls-1{fill:none;}</style></defs><title>Purchase Order</title><path class="cls-1" d="M419.1,637.25a140,140,0,1,0-140-140A140,140,0,0,0,419.1,637.25Zm-85.67-132.8c5.91-6.08,15.27-6.43,21.86-.2,9.34,8.84,18.3,18.08,27.44,27.14,1.37,1.36,2.81,2.66,4.68,4.43,16.74-16.86,33.16-33.43,49.62-50q20.31-20.4,40.71-40.72c7.52-7.48,17.12-8,23.66-1.52s6.16,15.81-1.6,23.59q-50.52,50.66-101.17,101.17c-7,7-15.65,7.28-22.68.42q-21.43-21-42.4-42.41A15.41,15.41,0,0,1,333.43,504.45Z"/><path d="M128.56,18.77C104.85,7.43,72.19,3.21,46.85,9.69,12.75,18.43,0,50.66,0,86.15q.18,265,.13,530c0,9.34,1.58,18.69,2.56,29.66H160.58c0-193.57.89-382.77-1.35-571.93C159,54.68,144.4,26.34,128.56,18.77Z"/><path d="M1085.25,778.39c0,21.33-.23,40.57,0,59.8.44,30.14-9.07,46.6-38.68,23.57-20.7-16.1-36.42-13.13-55.72,1.5-23.63,17.9-36,8.29-36.45-19.61-.35-21.69-.07-43.4-.07-64.25H827.85v221.08h382V778.39Z"/><path d="M862.48,586c-11.57,23-18.32,48.47-28.11,76h371.32c-10.24-28.21-16.37-52.72-28.12-74.17-5.67-10.36-21.75-21-33.34-21.2-83.79-1.79-167.65-1.66-251.44-.08C882.26,566.83,867.23,576.59,862.48,586Z"/><path d="M1049.77,814.86V697.7H988.64V814.86Z"/><path d="M1087.88,741.58h121.86V698.29H1087.88Z"/><path d="M827.85,741.58H949.7V698.29H827.85Z"/><path class="cls-1" d="M295,227.67H921.37a15.95,15.95,0,1,0,0-31.89H295a15.95,15.95,0,1,0,0,31.89Z"/><path class="cls-1" d="M295,170.57H921.37a15.95,15.95,0,1,0,0-31.89H295a15.95,15.95,0,1,0,0,31.89Z"/><path class="cls-1" d="M645.48,1021.31c-8.28-3.52-17.28-5.45-25.28-9.46-4.1-2.05-9.3-6.9-9.56-10.78-1.07-16.19-.45-32.5-.45-52.1l46.29,17.93L676.61,938l-65.47-24c-.52-2.47-1.53-7.17-3.76-17.61l-20.66,16.22c-6.75,5.64-16.23,7.45-25,10.94-24.7,9.76-38.83,30.72-38.8,56.23,0,26.5,13.61,43.33,37.7,52.51,6.84,2.61,14.2,4.06,20.67,7.34,3.81,1.93,8.83,6.26,9,9.74.92,17.3.42,34.68.42,56.89L535,1078.52l-22.55,27.16c20.4,9.68,37.81,20.45,56.75,26.12,14.48,4.33,25.24,7.69,22.19,26.1h18c.49-7,.91-13.08,1.32-19.15,11.41-3.16,22.7-5,32.84-9.38,23.85-10.42,37-29,37.29-55.53C681.18,1048.3,668.55,1031.11,645.48,1021.31Zm-55.88-19.88c-19.85-3.13-29.22-11.58-29.07-25.38.14-14,10.47-22.9,29.07-24.41ZM611,1102.94v-52.81c20.86,2.36,32.17,11.61,32.45,25.92S632.86,1099.81,611,1102.94Z"/><path d="M611,1050.13v52.81c21.82-3.13,32.72-12.55,32.45-26.89S631.9,1052.49,611,1050.13Z"/><path d="M560.53,976.05c-.15,13.8,9.22,22.25,29.07,25.38V951.64C571,953.15,560.67,962,560.53,976.05Z"/><path class="cls-1" d="M921.37,367.09H624.14a15.95,15.95,0,0,0,0,31.89H921.37a15.95,15.95,0,1,0,0-31.89Zm-66.71,4.76c-23.6,0-47.21-.22-70.8-.22-27.53,0-55.08.37-82.6.18q-5.91,0-11.8-.12,5.89.07,11.8.12c27.52.19,55.07-.18,82.6-.18,23.59,0,47.2.26,70.8.22q11.79,0,23.59-.15Q866.46,371.85,854.66,371.85Z"/><path class="cls-1" d="M701.26,371.81c27.52.19,55.07-.18,82.6-.18,23.59,0,47.2.26,70.8.22-23.6,0-47.21-.22-70.8-.22C756.33,371.63,728.78,372,701.26,371.81Z"/><path class="cls-1" d="M921.37,252.88H624.14a15.95,15.95,0,0,0,0,31.89H921.37a15.95,15.95,0,1,0,0-31.89Z"/><path class="cls-1" d="M711.33,833.5H295a15.95,15.95,0,1,0,0,31.89h416.3a15.95,15.95,0,0,0,0-31.89Z"/><path class="cls-1" d="M921.37,310H624.14a15.95,15.95,0,0,0,0,31.89H921.37a15.95,15.95,0,1,0,0-31.89Z"/><path class="cls-1" d="M295,808.28H563.22a15.95,15.95,0,1,0,0-31.89H295a15.95,15.95,0,1,0,0,31.89Z"/><path class="cls-1" d="M797.73,554.34a16,16,0,0,0-15.94-15.94H624.14a15.95,15.95,0,0,0,0,31.89H781.79A16,16,0,0,0,797.73,554.34Z"/><rect class="cls-1" x="608.2" y="424.19" width="189.53" height="31.89" rx="15.94"/><path class="cls-1" d="M781.79,481.3H624.14a15.95,15.95,0,0,0,0,31.89H781.79a15.95,15.95,0,0,0,0-31.89Z"/><path class="cls-1" d="M711.33,718.5H295a15.95,15.95,0,1,0,0,31.89h416.3a15.95,15.95,0,0,0,0-31.89Z"/><path d="M828.89,1036.53c-27.38.66-37.25-9.63-36.78-36.9,1.21-71.52,3.27-143.22-.4-214.58-3.83-74.55,10.1-143.76,39.14-212.16,12.28-28.89,25-42.83,57.48-40.48,37.09,2.69,74.52.62,114.67.62,0-138.95.07-272,0-405C1002.91,35.79,967.82.11,876.86.06Q544.39-.11,211.93,0H179.42c5.15,47.4,13.83,90.84,14,134.31,1.11,354.9.62,709.81.62,1064.72V1246c31.84-19.08,57.06-46.44,79.41-44.27,24.05,2.32,45.43,32.33,68.34,50.55l62.85-58.65,64.2,60.06,64.89-60,65.45,59.64,65-59.58,64.27,60.21,64.74-60.64,62,58.7c24.07-18.43,46.07-48.27,69.92-49.84,23.49-1.56,48.87,25.55,76.28,41.76V1036.13C940.81,1036.13,884.82,1035.18,828.89,1036.53ZM797.73,440.14a16,16,0,0,1-15.94,15.94H624.14a16,16,0,0,1-15.94-15.94h0a16,16,0,0,1,15.94-15.95H781.79a16,16,0,0,1,15.94,15.95Zm0,57.1a16,16,0,0,1-15.94,16H624.14a15.95,15.95,0,0,1,0-31.89H781.79A16,16,0,0,1,797.73,497.24ZM921.37,399H624.14a15.95,15.95,0,0,1,0-31.89H921.37a15.95,15.95,0,1,1,0,31.89Zm0-57.1H624.14a15.95,15.95,0,0,1,0-31.89H921.37a15.95,15.95,0,1,1,0,31.89Zm0-57.11H624.14a15.95,15.95,0,0,1,0-31.89H921.37a15.95,15.95,0,1,1,0,31.89ZM295,138.68H921.37a15.95,15.95,0,1,1,0,31.89H295a15.95,15.95,0,1,1,0-31.89Zm0,57.1H921.37a15.95,15.95,0,1,1,0,31.89H295a15.95,15.95,0,1,1,0-31.89ZM419.1,357.23a140,140,0,1,1-140,140A140,140,0,0,1,419.1,357.23Zm224.5,772.14c-10.14,4.43-21.43,6.22-32.84,9.38-.41,6.07-.83,12.12-1.32,19.15h-18c3.05-18.41-7.71-21.77-22.19-26.1-18.94-5.67-36.35-16.44-56.75-26.12L535,1078.52l55.65,27.82c0-22.21.5-39.59-.42-56.89-.19-3.48-5.21-7.81-9-9.74-6.47-3.28-13.83-4.73-20.67-7.34-24.09-9.18-37.68-26-37.7-52.51,0-25.51,14.1-46.47,38.8-56.23,8.81-3.49,18.29-5.3,25-10.94l20.66-16.22c2.23,10.44,3.24,15.14,3.76,17.61l65.47,24L656.48,966.9,610.19,949c0,19.6-.62,35.91.45,52.1.26,3.88,5.46,8.73,9.56,10.78,8,4,17,5.94,25.28,9.46,23.07,9.8,35.7,27,35.41,52.53C680.59,1100.38,667.45,1119,643.6,1129.37Zm67.73-264H295a15.95,15.95,0,1,1,0-31.89h416.3a15.95,15.95,0,0,1,0,31.89Zm-432.25-73a16,16,0,0,1,15.95-16H563.22a15.95,15.95,0,1,1,0,31.89H295A16,16,0,0,1,279.08,792.34Zm432.25-42H295a15.95,15.95,0,1,1,0-31.89h416.3a15.95,15.95,0,0,1,0,31.89Zm-87.19-180.1a15.95,15.95,0,0,1,0-31.89H781.79a15.95,15.95,0,0,1,0,31.89Z"/><path d="M787.62,306.24c41.85,0,83.72.62,125.54-.62-41.82,1.24-83.69.59-125.54.59-37.85.06-75.72.68-113.53-.17C711.9,306.89,749.77,306.27,787.62,306.24Z"/><path d="M376,568.79c7,6.86,15.66,6.58,22.68-.42Q449.29,517.85,499.8,467.2c7.76-7.78,8.25-16.95,1.6-23.59s-16.14-6-23.66,1.52q-20.4,20.31-40.71,40.72c-16.46,16.54-32.88,33.11-49.62,50-1.87-1.77-3.31-3.07-4.68-4.43-9.14-9.06-18.1-18.3-27.44-27.14-6.59-6.23-16-5.88-21.86.2a15.41,15.41,0,0,0,.12,21.93Q354.54,547.8,376,568.79Z"/></svg>