<svg id="Layer_1" data-name="Layer 1" xmlns="http://www.w3.org/2000/svg" viewBox="0 0 479.34 479.34"><title>Asset Management</title><path d="M242.13,209.6c-4.33.71-9,1.21-13.23.47-7.74-1.36-15.32-3.71-23.43-5.76-1.08,4-2.24,8.47-3.48,12.91-1.75,6.24-1.6,6.95,4.75,8.71,7.63,2.13,15.4,3.75,23.67,5.72v15.54c3.82,0,7.18-.36,10.43.09,5.32.73,6.44-1.51,6.29-6.41-.32-10.48,0-10.26,9.77-14.15,10.84-4.32,18.61-11.77,20.75-23.7,2.06-11.49-.54-21.79-10.26-29-4.73-3.49-10.36-5.81-15.71-8.4-5.68-2.76-11.58-5.08-17.26-7.84-3.94-1.92-7-4.85-6.3-9.74s4.42-6.81,8.64-7.95a12.77,12.77,0,0,1,4.93-.52c8.81,1.21,17.6,2.61,27,4,1.16-4.39,2.76-9.78,3.84-15.27.22-1.11-1.27-3.44-2.41-3.79a98.78,98.78,0,0,0-15.48-3.71c-6.76-.94-6.81-.63-6.81-7.72,0-2.63,0-5.25,0-8.1H231.18v15.84c-4,1.39-7.35,2.33-10.52,3.73-7.72,3.44-13.91,8.65-17,16.76-5.89,15.62.23,29.85,16.32,37.43,8,3.75,16.32,6.64,24.33,10.29,5,2.26,7.77,7.35,7.18,11.52C250.76,206.09,247,208.79,242.13,209.6Z"/><path d="M66.57,312.39a25,25,0,1,0,24.88,25.05A25,25,0,0,0,66.57,312.39Z"/><path d="M412.81,281.53a56.35,56.35,0,0,0-9.7.86c-7.07-22.7-29.56-42.53-61.39-56.15,2.89-6.77,5.71-13.57,8.35-20.43,1.45-3.77,3.51-4.52,7.22-3.75,5.64,1.17,11.39,1.83,17.24,2.73a124.11,124.11,0,0,0,.09-57.93c-6.36,1-12.28,1.87-18.19,2.87-3,.51-4.81-.2-6-3.41-3.64-9.49-7.59-18.87-11.63-28.19-1.22-2.82-.81-4.49,1.7-6.27,5.11-3.63,10-7.56,15-11.38a136.27,136.27,0,0,0-40.55-40.84c-4.05,5.34-7.83,10.61-12,15.56a5.39,5.39,0,0,1-4.78,1.39c-9.93-3.85-19.79-7.93-29.51-12.29a6,6,0,0,1-2.76-4.72,104.2,104.2,0,0,1,1.85-13.33c.74-4.2.3-7.17-5.07-7.1-2.46,0-4.91-.88-7.39-1.09-14.81-1.25-29.57-1.28-44.63,2.25,1,6.32,2.05,12.36,2.71,18.44.17,1.58-.52,4.33-1.59,4.8-11.08,4.92-22.31,9.47-33.62,14.18l-14-18.37c-16.31,11.07-30.07,24.14-40.7,40.78,6.08,4.66,12,9.2,18.15,13.92-4.51,10.87-9.06,21.55-13.34,32.34-1.17,2.95-2.62,3.53-5.64,2.94-6.11-1.18-12.33-1.85-18.41-2.72-4.42,19.93-4.32,43.38.18,57.56,6.33-.84,12.72-1.87,19.15-2.39a5.38,5.38,0,0,1,4.23,2.56q4.81,10.82,9.26,21.79c-31.89,13.6-54.44,33.43-61.56,56.13a55.89,55.89,0,1,0,42.32,77.39c18,10.54,40.62,18.73,66.05,23.64-.05.95-.07,1.9-.07,2.87a55.89,55.89,0,0,0,111.77,0c0-1,0-2-.09-3,25.41-5,47.94-13.26,65.9-23.88a55.89,55.89,0,1,0,51.44-77.75ZM239.62,89.63a86,86,0,0,1-.24,172.05c-47.41.11-86-38.71-85.88-86.41A86,86,0,0,1,239.62,89.63ZM105.82,345.89c-1.71-.26-3.38-.45-5-.79a1.54,1.54,0,0,0-2.1,1.09c-1,2.67-2.14,5.3-3.28,7.92a1.38,1.38,0,0,0,.54,2.05c1.44.95,2.78,2.08,4.28,3.21a41.65,41.65,0,0,1-11.85,11.88c-1.11-1.47-2.26-2.88-3.28-4.39a1.37,1.37,0,0,0-1.91-.61c-2.76,1.17-5.5,2.37-8.27,3.51a1.16,1.16,0,0,0-.85,1.52c.32,1.8.48,3.62.72,5.5a38,38,0,0,1-12.26.73c-1-.08-2-.39-3-.42-1.32,0-1.5-.73-1.32-1.81.28-1.62.53-3.25.81-5l-4.47-1.92c-1.47-.62-3-1.14-4.42-1.87-1.2-.62-1.89-.35-2.6.74-.87,1.34-1.91,2.56-3,4a39.82,39.82,0,0,1-11.82-11.91c1.6-1.2,3.13-2.3,4.59-3.5a1.44,1.44,0,0,0,.38-1.27Q36,350.09,34,345.77a1.56,1.56,0,0,0-1.23-.75c-1.87.15-3.73.45-5.57.7-1.31-4.13-1.34-11,0-16.75,1.77.25,3.57.45,5.35.79.88.17,1.3,0,1.64-.85,1.25-3.14,2.57-6.25,3.88-9.41l-5.28-4.05a41,41,0,0,1,11.84-11.86l4.07,5.34c3.29-1.37,6.55-2.69,9.78-4.12.31-.14.51-.94.46-1.4-.19-1.77-.51-3.53-.79-5.36a40.92,40.92,0,0,1,13-.66c.72.06,1.44.33,2.15.32,1.56,0,1.69.84,1.48,2.06a30.17,30.17,0,0,0-.54,3.88A1.76,1.76,0,0,0,75,305q4.24,1.91,8.59,3.58a1.58,1.58,0,0,0,1.39-.41c1.21-1.44,2.31-3,3.48-4.52a39.55,39.55,0,0,1,11.8,11.88c-1.46,1.11-2.88,2.25-4.36,3.31a1.27,1.27,0,0,0-.5,1.82c1.18,2.72,2.33,5.44,3.39,8.2a1.34,1.34,0,0,0,1.75,1c1.72-.29,3.44-.54,5.29-.83A36.21,36.21,0,0,1,105.82,345.89Zm155.84,55.79c-1.24,6.91-5.74,11.22-12,13.72-5.65,2.25-5.84,2.12-5.66,8.19.09,2.84-.56,4.14-3.64,3.71a46.26,46.26,0,0,0-6-.05v-9c-4.79-1.15-9.29-2.09-13.71-3.32-3.67-1-3.76-1.43-2.75-5,.72-2.57,1.4-5.16,2-7.47,4.69,1.18,9.08,2.54,13.57,3.33a23.45,23.45,0,0,0,7.65-.27c2.84-.47,5-2,5.45-5.21.34-2.41-1.28-5.36-4.16-6.67-4.64-2.11-9.48-3.79-14.09-6C219,383.27,215.43,375,218.84,366c1.77-4.69,5.35-7.71,9.83-9.7,1.83-.81,3.79-1.35,6.09-2.16V345h9.63c0,1.65,0,3.17,0,4.69,0,4.11,0,3.93,4,4.47a57,57,0,0,1,9,2.15,2.67,2.67,0,0,1,1.39,2.19c-.63,3.18-1.55,6.3-2.22,8.84-5.44-.82-10.53-1.63-15.63-2.33a7.29,7.29,0,0,0-2.85.3c-2.45.66-4.61,1.81-5,4.6s1.37,4.53,3.65,5.64c3.29,1.6,6.7,2.94,10,4.54,3.1,1.5,6.36,2.84,9.1,4.87C261.35,389.06,262.86,395,261.66,401.68Zm95.27-64.26a55.64,55.64,0,0,0,3.32,19c-17.65,10.39-39.91,18.51-65.06,23.4a55.88,55.88,0,0,0-111,.15C159,375.14,136.69,367.12,119,356.81a55.91,55.91,0,0,0-40.7-74c7-21.7,28.93-40.66,60-53.73q1.07,2.63,2.1,5.25a4.91,4.91,0,0,1-1.3,4.38c-5,4.11-10.28,7.89-15.77,12,10.5,16.62,24,29.79,40.63,40.93,3.69-4.87,7.26-9.08,10.24-13.67,2.44-3.76,4.82-4.66,9-2.54,4.88,2.51,10.12,4.29,15.18,6.43s10.28,4.42,15.38,6.61c-1,6.18-1.82,11.77-2.79,17.34-.63,3.7,0,6.06,4.52,6.22,3.48.11,6.91,1.16,10.39,1.46,14,1.18,27.93.9,42.14-2.53-.8-6.44-1.36-12.72-2.47-18.9-.52-2.95.36-4.15,2.94-5.21,9.51-3.93,18.94-8.06,28.41-12.09,2.78-1.18,4.73-.58,6.57,2.12,3.5,5.17,7.47,10,11.29,15.08,16.35-11.17,30-24.26,40.72-40.84-5.14-3.9-9.75-7.75-14.72-11.05-3.07-2-3.18-4-1.86-7l1.7-3.93c31,13.1,52.93,32.1,59.85,53.83A55.89,55.89,0,0,0,356.93,337.42Zm54.32,36.12c-4.57-.35-7.59-3-7.41-6.6,5.56,0,11.13,0,16.7,0a14.64,14.64,0,0,1,1.47.15C421.64,371.66,417.64,374,411.25,373.54Zm10.21-9.93c-3,.09-6,0-9,0v.1c-2.66,0-5.33,0-8,0-2.35,0-3.42-1-3.59-3.6s1.05-4.51,3.11-4.54c5.93-.1,11.87-.13,17.8,0,2.38.05,3.05,1.92,3.08,4C424.86,362.08,423.69,363.54,421.46,363.61Zm13.48-24.92c-2.34,3.72-4.56,7.52-7,11.15a4.45,4.45,0,0,1-3,1.68c-2.1.1-4.22.12-6.33.11l-6.34,0h-3.11c-3.1,0-6.21,0-9.31,0a2.94,2.94,0,0,1-3.06-1.76c-2.23-4.27-4.69-8.43-6.95-12.69a26,26,0,1,1,49-12.2A25,25,0,0,1,434.94,338.69Z"/><path d="M409.13,305c-14.23,3-20.89,17.75-13.7,30.44,1.82,3.21,3,7.62,5.8,9.21s7.18.35,10.87.35v.25c3.28,0,6.56.12,9.83-.08a4.22,4.22,0,0,0,2.85-1.53c2-2.72,3.75-5.58,5.47-8.46,4.4-7.32,4-14.64-.61-21.65A20,20,0,0,0,409.13,305Z"/></svg>