<svg id="Layer_1" data-name="Layer 1" xmlns="http://www.w3.org/2000/svg" viewBox="0 0 1125.11 1125.52"><title>Physical Count</title><path d="M160.26,137.1,24.21.25.25,22.9Q69,92,136.37,159.6Z"/><path d="M1124.07,23.53,1101.79,0q-68.93,68.93-136.51,136.52L987.53,160Z"/><path d="M963.91,988.48l136.91,137,24.29-25.68L989.4,964.06Z"/><path d="M0,1100l25,24.5L160.38,989l-24.19-25.34Z"/><path d="M563.48,1074.42v37.69h40.78c-1.12-14.08-2.07-26.07-3-37.69Z"/><path d="M936.23,157l-31.35-26.83-24.41,30.73,29,24.84Z"/><path d="M35.39,400.94l37.4,11.32,12.59-35.95L48.77,362C44.16,375.39,39.88,387.85,35.39,400.94Z"/><path d="M1089.4,724.67,1052,713.23c-4.33,12.11-8.28,23.13-12.85,35.89l36.71,14.4C1080.54,750.15,1084.76,738,1089.4,724.67Z"/><path d="M481.16,1107.62l40.95,4.09c.82-14,1.54-26.35,2.29-39.06l-37.7-3.87C484.73,1082.62,483,1094.58,481.16,1107.62Z"/><path d="M139.9,851.2,119.37,819l-33.9,19.69,22.1,34.65Z"/><path d="M639.43,1068.72c2,13.23,3.84,25.15,5.86,38.41l40.3-7.43c-3-13.12-5.67-25-8.72-38.41Z"/><path d="M188.13,966.86l31.22,26.76,24.41-30.71-29-24.93Z"/><path d="M56.41,639.55c-1.63-13.65-3-25.56-4.55-38.17l-38.78,3.44c1.49,13.79,2.88,26.57,4.37,40.39Z"/><path d="M410.11,73.3c-3.81-12.36-7.39-23.93-11.58-37.5L359.78,49.58,374.19,86Z"/><path d="M714,1051.63l11.62,37.4,38.7-13.84c-5.1-12.84-9.58-24.11-14.48-36.46Z"/><path d="M785.05,1023.64l17.07,35.13,36.45-19.35c-7.37-12.37-13.71-23-20.13-33.78Z"/><path d="M252.54,1018.31l34.93,21.49L307,1006l-32.52-20.33Z"/><path d="M1112.26,563H1074.2v37.73l38.06,2.3Z"/><path d="M484.47,56.14c-1.91-12.87-3.72-25.11-5.74-38.73l-40.35,7.66c3.15,13.55,6,25.61,8.9,38.21Z"/><path d="M1111.9,518.93c-1.51-14.06-2.84-26.49-4.4-41l-38.88,6.27c1.49,13,2.81,24.6,4.28,37.44Z"/><path d="M17.42,481.25l38.51,5.5,7.16-37.32-38.42-8.54C22.14,455,19.87,467.6,17.42,481.25Z"/><path d="M642.68,16.68l-40.45-3.92c-1.07,13.73-2,25.79-3,38.78l38.1,4.06C639.13,42.38,640.83,30.08,642.68,16.68Z"/><path d="M984.67,272.38,1005,304.64c11.18-6.5,21.66-12.57,34-19.71l-22.05-34.75Z"/><path d="M130.66,219.57l-24.25,33.08,32.35,22L161.6,244Z"/><path d="M400.94,1089.51l39.65,10.2,8.34-38.2-36.82-9.64C408.26,1064.84,404.74,1076.69,400.94,1089.51Z"/><path d="M339.18,101.4c-5.92-12-11.41-23.16-17.37-35.24L285.7,85.53l19.82,33.83Z"/><path d="M871.6,105.76,836.74,83.93l-19.54,34,32.38,20.28Z"/><path d="M132.11,906.69l26.82,31,28.9-26.87L162.42,882Z"/><path d="M1059.32,801.42l-35.42-17.07-17.8,33.8,33.86,19.6Z"/><path d="M992.33,216.9,965.22,186l-28.43,27,25.05,28.66Z"/><path d="M118.43,307.25,84.5,287.69c-6.64,12.56-12.65,23.95-19.23,36.39L100.64,341Z"/><path d="M1023.07,338.59l15.62,34.71,36.42-14.57-16.89-37.51Z"/><path d="M1051.38,409.47c3.44,12.75,6.57,24.32,9.93,36.76l38.23-8.87c-3.73-13.7-7.1-26.12-10.74-39.49Z"/><path d="M1107.42,644.37l-38.64-5.76c-2.41,13-4.61,24.87-7,37.53l38.37,8.42C1102.7,670.64,1105,658,1107.42,644.37Z"/><path d="M73.35,713.91l-9.83-36.72L25.15,686.1c3.85,13.76,7.37,26.38,11.05,39.54Z"/><path d="M723.21,34.83,683.53,24.35C680.43,38.3,677.82,50,675,62.58l36.77,9.78Z"/><path d="M101.41,785l-15.3-34.83L49.7,764.67c5.66,12.92,10.86,24.76,16.46,37.53Z"/><path d="M851.23,985.25l22,32.31,33.1-24.43-24.57-30.79Z"/><path d="M799.94,64.5l-37.65-16C757.39,61.13,753,72.4,748.13,85l35.18,15Z"/><path d="M993.74,905.84l24.25-33.3-32.5-21.77-22.56,30.54Z"/><path d="M324,1059.35l37.73,16.29c5-12.73,9.49-24.28,14.23-36.41l-35-15.38C335.16,1036,329.82,1047.19,324,1059.35Z"/><path d="M273,139.77l-22.21-32.16-33,24.54,24.67,30.6Z"/><path d="M939.33,911.62,911.16,937.8l25.12,26.92,29.26-28.59Z"/><path d="M185.89,214.23l27.16-26.8-24.6-26.53-29.31,28.9Z"/><path d="M560.46,50V10.81l-40.64,2c1.11,14,2.06,26,3.08,38.81Z"/><path d="M12.61,562H50.55V525.13L12.61,522.2Z"/><path d="M951.89,452.86c-25.73-25.41-51.93-25.45-77.67.22-22,21.91-43.62,44.12-65.41,66.2l-3.45-1.21v-14.5q0-115,0-230c0-39.25-24-63.49-62.84-63.52-99.5-.08-199,.09-298.5-.12-18.91,0-34.6,6.21-47.86,19.6q-41.43,41.83-83.27,83.27c-13.39,13.25-19.73,28.82-19.7,47.78q.29,241.68.13,483.36c0,37.38,24.3,61.77,61.65,61.8q194.43.13,388.87,0c37.12,0,61.35-24.64,61.51-62.09.15-32.4,1.5-64.9-.45-97.18-1.44-23.78,5.89-40.38,23.34-56.92,49-46.46,96-95,143.69-142.88,23.32-23.44,23.26-50.19.32-73.44Q962.13,463,951.89,452.86ZM403.51,282.94v37.64h-39ZM766.86,842.35c-.11,17.9-7,24.82-25,24.83q-192.4.12-384.82,0c-18.27,0-25.27-6.73-25.27-24.45q-.1-236.93,0-473.84c0-2.23.24-4.46.5-8.89,28.51,0,55.82.05,83.13,0,21.74-.05,27.7-6,27.77-27.65.08-27.33,0-54.65,0-83.83h15.67q139.68,0,279.37,0c22.57,0,28.52,6,28.52,28.2,0,90.39.2,180.77-.37,271.15A33.66,33.66,0,0,1,757.68,569q-58.27,59.84-118,118.28c-9.27,9.09-13.34,18.51-12.74,31.39.85,18.22,0,36.51.25,54.77.22,15.85,6.74,22.47,22.46,22.69,20.54.29,41.13.86,61.6-.29,7-.39,14.9-4.24,20.18-9,11.13-10,20.79-21.61,31-32.56L766.9,756v17.9C766.9,796.7,767,819.53,766.86,842.35Zm116.5-261.89c-53.78,53.85-107.87,107.38-161.14,161.72-11,11.23-21.88,18.1-37.87,15.54-5.3-.85-10.86-.14-18.14-.14.54-20.56-4.61-39.18,14.34-57.18C739.34,644.57,795.82,586.32,854,528.19c4,3.74,6.93,6.5,9.85,9.34,10.11,9.82,20.19,19.66,31.27,30.46C890.65,572.74,887.11,576.7,883.36,580.46Zm39-40.15-42.23-41.74c8.64-7.45,16.61-15.59,25.91-21.71,3.54-2.33,10.19-.4,15.3.4,1.82.28,3.33,2.91,4.88,4.57C955.94,513.7,962.72,503.09,922.35,540.31Z"/><path d="M704.08,576.65c7.32-.12,17.3-4.9,21.24-10.76,8.82-13.1-2.84-27.26-21.61-27.28q-154.66-.15-309.35,0c-14.5,0-23.56,7.29-23.9,18.78-.34,12,9.08,19.74,24.27,19.75q76.65.07,153.31,0C600.05,577.14,652.08,577.56,704.08,576.65Z"/><path d="M548,577.14q-76.66,0-153.31,0,76.65.07,153.31,0c52,0,104,.42,156-.49C652.08,577.56,600.05,577.14,548,577.14Z"/><path d="M395.09,467.48q77.34.13,154.69,0v.05h23.27c44.71,0,89.43.1,134.15-.13,12.37-.06,20.63-8.17,20.7-19s-8.06-18.59-20.49-19.33c-2.27-.14-4.56-.09-6.84-.09q-152.62,0-305.26,0c-15.44,0-24.89,7.34-24.91,19.12S379.56,467.45,395.09,467.48Z"/><path d="M500.14,358c33.32.07,66.63,0,100,0,34.68,0,69.37.07,104,0,14.73,0,23.52-7,24-18.62.46-12-8.84-19.81-24.15-19.82q-102-.14-204-.07c-15.65,0-24.54,7.18-24.53,19.43S484.25,358,500.14,358Z"/><path d="M564.23,757.67q-84.86-.12-169.69,0c-14.77,0-23.61,7-24.08,18.42-.49,11.95,8.84,19.94,24.05,20,28.28.16,56.56,0,84.84,0s56.57.12,84.85,0c15.36-.1,24.36-7.85,24-20C587.87,764.58,579.12,757.69,564.23,757.67Z"/><path d="M395.27,686.66q42.44.08,84.86,0c28.28,0,56.56.12,84.85,0,14.48-.08,23.21-7.61,23.2-19.4s-8.47-19-23.34-19q-84.84-.18-169.7,0c-15.64,0-24.75,7.35-24.73,19.25S379.93,686.63,395.27,686.66Z"/><path d="M480.13,686.63q-42.44.07-84.86,0,42.44.08,84.86,0c28.28,0,56.56.09,84.85-.07C536.69,686.75,508.41,686.63,480.13,686.63Z"/></svg>