<svg id="Layer_1" data-name="Layer 1" xmlns="http://www.w3.org/2000/svg" viewBox="0 0 1230.43 1229.3"><title>Inventory Adjustement</title><path d="M26.67,1229.27q75,0,149.9,0c22.46,0,28.59-6.24,28.59-29.09q0-185.12,0-370.25V676.69h820v13.66q0,255.58.08,511.18c0,21.07,6.55,27.7,27.35,27.72q75,.07,149.9,0c21,0,27.73-6.57,27.74-27.36q0-392.67.2-785.35c0-13-4.4-21.56-15.29-28.53-36.66-23.46-72.91-47.55-109.32-71.41Q869.72,161.89,633.71,7.06c-11.38-7.47-21.29-10.32-33.93-2Q307.15,197.29,14.08,388.89C4.07,395.44,0,403.51,0,415.42q.3,394,.17,787.92C.17,1222.41,7.25,1229.26,26.67,1229.27Zm15-805.8c.15-3.51,6.19-7.38,10.2-10q143.93-94.54,288-188.82Q472.17,138,604.22,51.05c8.66-5.73,14.27-5.08,22.48.31Q901.7,232,1177.14,412c8.68,5.67,13.09,11.3,12.4,22.32-1.13,18.26-.3,36.64-.3,56.42H943.94V532h244.37v656H1066.23v-14.82q0-255,0-509.93c0-22.07-6.36-28.52-27.83-28.52l-843,.07c-26,0-31.18,5.23-31.18,31.58v521H42V532.87H286.33V491.64H41.24C41.24,468.29,40.78,445.85,41.71,423.47Z"/><path d="M918.86,778.21q-201.12-.08-402.24.07c-17.21,0-24.36,7.61-24.4,25.48q-.14,67.89,0,135.79v43.63H476.33q-82,0-164,.1c-17.71,0-25.12,7.28-25.14,24.74q-.17,98,0,196c0,18.25,7.32,25.23,26,25.23q302.33.09,604.65,0c17.77,0,25.41-7.29,25.42-24.52q.09-201.12-.07-402.24C943.15,785.79,935.56,778.22,918.86,778.21Zm-427.6,409.72H329.19V1025.11h60v59.69h41.24V1025h60.81Zm205-.51H534V1024.93h60.56v60h41.08v-60h60.68Zm.09-204.87H534.12V819.88h60.27v60h40.79V820.31h61.18Zm42.56-162.68h60.24V880h41.08V820.29h61.09V982.71H738.92Zm163.3,285.77v81.63H739.05v-162.4h60.24V1085h41.18v-60.22h61.75Z"/><path d="M430,429.83c8.64.13,12.55,3.13,16.13,10.77,3.7,7.9-1.22,10.85-5.23,15s-7.92,7.79-11.75,11.8c-11.27,11.81-11.5,21.78-.24,33.39,13.37,13.8,27,27.31,40.66,40.87,28.65,28.52,29.9,28.62,59.29.63,5.12-4.88,9.11-6.75,16.54-3.87,8,3.09,8.63,8,8.32,14.75-.28,6.4-.29,12.82,0,19.22.65,12.94,8.06,21,20.85,21.18q40.35.66,80.72.08c12.86-.17,20.44-8,21.31-20.84.49-7.23,1-14.57.36-21.75-.81-8.48,4.07-12.23,10.69-13,4.43-.52,9.8,1.39,13.73,3.85,4.6,2.88,8,7.56,12,11.42,12.63,12.18,22.91,12.33,35.38.1,13.72-13.46,27.21-27.15,40.79-40.75,27.07-27.09,27.19-29.47.33-57.48-5.11-5.33-7.81-9.37-4.46-17.52s8.47-8.1,15-7.93,12.83.3,19.21-.09c12.69-.76,20.68-8.47,20.86-21.29q.54-40.35-.08-80.71c-.21-12.81-8.12-20.12-21.18-20.88-7.24-.42-14.66.49-21.72-.77-4.13-.74-8.5-3.89-11.35-7.18-6-6.88-3-12.36,3.18-18.28,8.29-8,15.26-17.36,23-26.33-4.1-7.47-5.81-13.06-9.44-16.8q-28.05-29-57-57.13c-9.57-9.24-19.37-8.84-29.69,0-5.5,4.72-11.1,9.47-15.83,14.92-4.87,5.61-9.3,4.88-15.65,2.63-7.26-2.58-8.68-6.83-8.2-13.5.43-6,.2-12,.06-17.93-.38-15.95-7.69-23.48-23.68-23.69-19.21-.26-38.44-.05-57.66,0-40.07,0-41.05.68-41.76,40.35-.16,8.63-3.13,12.59-10.79,16.12-7.89,3.64-10.83-1.23-14.93-5.3-3.64-3.61-7.17-7.33-10.88-10.86-12.71-12.1-23-12.17-35.43,0-13.1,12.87-26,25.94-39,38.92-29.51,29.5-29.64,30-1.16,60.1,5,5.3,6.47,9.39,3.51,16.59-2.9,7-6.9,8.64-13.58,8.16-5.95-.43-11.95-.2-17.93-.06-16,.38-23.46,7.72-23.65,23.68-.24,19.22-.12,38.44-.13,57.66C389.6,428,390.43,429.19,430,429.83Zm1.44-80.72c56.08-8.61,73.56-51.12,40-97.47l28.35-27.3c16.46,18.68,36.09,22.45,60.2,12.27,23.72-10,36.77-25.26,34.81-52.18h40.84c-2.74,29.81,13.87,44.25,39.3,53.81,22.43,8.43,39.86,3,54.8-13.33l27.49,28.84C725.4,298.43,743,341,799.12,349v39.44c-25.53-1.8-41.74,9.66-51.71,33.78-9.89,23.92-8.78,43.84,11.55,60.73L729.39,511c-19.09-23.52-42.82-19.6-67.86-7.05-18.08,9.06-24.61,19.94-26.37,47.86H595c1.76-25.7-10.17-41.69-34.14-51.65s-43.86-7.93-61.23,12.52l-27.75-29.63c18.2-15.91,21.93-35.47,11.76-59.61-10-23.76-24.85-37.18-52.12-34.63Z"/><path d="M368.28,491.77H328.85v39.66h39.43Z"/><path d="M902,492H862.12v39.2H902Z"/><path d="M614.4,470.67c56.57.35,103.07-45.6,103.25-102,.19-56.66-45.73-102.85-102.31-102.91-56-.07-102.16,45.52-102.61,101.35C512.27,423.8,557.94,470.33,614.4,470.67Zm1.2-163.93c33.34.18,60.95,27.88,61,61.24a61.77,61.77,0,0,1-61.87,61.69c-33.32-.2-61-27.93-61-61.27A61.7,61.7,0,0,1,615.6,306.74Z"/></svg>